<svg width="1332pt" height="1198pt" viewBox="0 0 1332 1198" xmlns="http://www.w3.org/2000/svg" role="img" aria-hidden="true" focusable="false">
<g id="#646464ff">
<path fill="#646464" opacity="1.00" d=" M 980.45 3.50 C 989.59 2.51 999.06 3.13 1007.74 6.34 C 1020.39 10.00 1031.06 18.80 1038.71 29.33 C 1047.78 41.84 1051.07 57.84 1049.64 73.07 C 1047.08 96.67 1030.05 118.25 1007.23 125.31 C 982.15 135.03 951.37 124.93 936.17 102.92 C 926.94 90.42 923.41 74.28 925.11 58.96 C 926.34 48.83 930.20 39.19 935.58 30.57 C 945.81 15.67 962.56 5.79 980.45 3.50 M 978.12 11.00 C 979.42 14.01 981.00 16.88 982.72 19.67 C 987.40 16.06 992.63 13.23 998.18 11.19 C 991.63 9.43 984.71 9.61 978.12 11.00 M 941.03 35.08 C 947.15 38.75 953.35 42.29 959.49 45.93 C 964.54 37.76 970.54 30.08 977.76 23.74 C 975.63 20.15 973.48 16.56 971.80 12.73 C 959.14 15.84 948.34 24.46 941.03 35.08 M 986.37 24.94 C 990.83 29.52 995.11 34.42 1000.77 37.56 C 1004.71 30.50 1008.98 23.63 1012.93 16.59 C 1003.34 13.75 993.80 19.35 986.37 24.94 M 1018.47 20.24 C 1014.54 27.22 1009.95 33.81 1006.27 40.92 C 1011.82 43.78 1018.00 44.92 1023.85 46.98 C 1025.18 38.01 1025.34 27.10 1018.47 20.24 M 964.92 49.13 C 971.76 53.74 979.12 57.54 986.19 61.80 C 989.88 55.49 993.76 49.30 997.35 42.93 C 991.12 39.26 986.23 33.93 981.19 28.86 C 975.09 35.03 969.26 41.58 964.92 49.13 M 1030.15 29.94 C 1030.78 35.65 1030.87 41.41 1030.13 47.12 C 1033.41 47.25 1036.71 47.19 1039.99 46.83 C 1037.75 40.67 1034.37 34.95 1030.15 29.94 M 932.78 78.55 C 937.00 78.50 941.22 78.41 945.45 78.58 C 947.63 69.21 951.08 60.16 955.87 51.82 C 949.62 48.25 943.57 44.31 937.12 41.09 C 931.83 52.75 929.79 65.99 932.78 78.55 M 991.71 65.06 C 998.84 69.22 1005.96 73.40 1013.09 77.56 C 1017.35 69.93 1020.68 61.84 1022.80 53.36 C 1016.05 51.30 1008.97 50.10 1002.95 46.18 C 999.30 52.53 995.41 58.74 991.71 65.06 M 1029.17 54.20 C 1026.90 63.52 1023.34 72.44 1018.63 80.80 C 1024.83 84.44 1031.05 88.05 1037.25 91.70 C 1043.01 79.97 1044.67 66.42 1041.86 53.64 C 1037.62 53.77 1033.38 53.79 1029.17 54.20 M 954.56 70.04 C 953.65 73.15 952.64 76.22 951.55 79.27 C 958.49 80.96 965.43 82.90 971.89 86.00 C 975.32 79.73 979.21 73.74 982.83 67.58 C 975.59 63.45 968.57 58.92 961.14 55.14 C 959.07 60.16 956.10 64.80 954.56 70.04 M 987.54 72.09 C 984.17 77.80 980.69 83.45 977.31 89.16 C 983.22 93.38 988.49 98.41 993.41 103.73 C 999.65 97.61 1005.02 90.73 1009.80 83.43 C 1003.30 79.47 996.69 75.69 990.14 71.83 C 989.34 71.20 987.93 70.85 987.54 72.09 M 934.66 85.11 C 936.92 91.23 940.34 96.86 944.45 101.92 C 943.77 96.27 943.78 90.57 944.43 84.92 C 941.17 84.60 937.89 84.67 934.66 85.11 M 955.73 112.35 C 960.41 105.51 964.47 98.25 968.64 91.09 C 963.03 88.23 956.82 87.00 950.80 85.32 C 949.57 94.46 949.61 104.83 955.73 112.35 M 997.01 108.72 C 999.16 112.27 1001.27 115.86 1003.03 119.64 C 1015.67 116.47 1026.38 107.87 1033.91 97.42 C 1027.61 93.79 1021.37 90.07 1015.07 86.44 C 1010.10 94.66 1004.06 102.20 997.01 108.72 M 961.72 115.85 C 971.48 118.59 981.05 113.03 988.63 107.38 C 983.98 102.86 979.73 97.78 974.08 94.43 C 970.20 101.71 965.39 108.45 961.72 115.85 M 977.23 120.99 C 983.59 122.26 990.24 122.47 996.61 121.03 C 995.35 118.22 993.89 115.51 992.31 112.87 C 987.63 116.16 982.72 119.24 977.23 120.99 Z" />
<path fill="#646464" opacity="1.00" d=" M 251.09 80.00 C 261.31 78.72 271.89 79.87 281.47 83.70 C 309.98 93.11 327.46 125.98 321.17 155.01 C 316.53 178.70 297.02 198.95 273.18 203.53 C 262.04 205.42 250.30 205.47 239.60 201.50 C 214.29 193.84 196.77 168.12 196.52 142.05 C 196.36 129.11 201.00 116.59 207.75 105.72 C 218.04 91.95 233.72 81.56 251.09 80.00 M 249.24 87.11 C 249.34 91.42 249.24 95.72 248.93 100.02 C 250.92 100.61 252.93 101.19 254.94 101.77 C 262.26 103.71 268.65 107.94 275.30 111.41 C 279.14 105.40 282.90 99.34 286.91 93.44 C 275.56 87.06 262.06 84.84 249.24 87.11 M 225.91 97.79 C 231.47 97.22 237.05 97.66 242.56 98.50 C 242.83 95.23 242.90 91.94 242.92 88.66 C 236.76 90.62 230.77 93.46 225.91 97.79 M 280.90 115.27 C 285.43 119.05 290.62 122.03 294.76 126.28 C 297.47 128.99 299.75 132.11 302.63 134.66 C 305.84 131.98 309.78 130.49 313.57 128.86 C 310.51 116.22 302.87 105.07 292.58 97.20 C 288.70 103.23 284.86 109.29 280.90 115.27 M 217.06 106.94 C 216.26 107.32 214.01 108.54 215.48 109.49 C 221.92 113.80 228.32 118.24 235.02 122.14 C 238.61 116.99 240.00 110.78 241.87 104.89 C 233.65 103.41 224.66 102.81 217.06 106.94 M 239.93 125.57 C 246.10 129.57 252.22 133.65 258.41 137.63 C 262.81 130.65 267.27 123.70 271.83 116.82 C 264.11 112.51 256.33 107.98 247.54 106.24 C 246.05 113.06 243.32 119.48 239.93 125.57 M 218.09 141.75 C 222.82 137.35 227.99 133.30 231.50 127.78 C 224.65 123.21 217.77 118.69 210.82 114.27 C 207.52 124.05 212.92 133.74 218.09 141.75 M 264.04 141.33 C 270.11 145.24 276.16 149.17 282.19 153.16 C 285.87 148.54 289.48 143.79 294.19 140.15 C 295.02 139.37 295.86 138.61 296.71 137.86 C 291.54 130.75 284.31 125.67 277.46 120.34 C 272.89 127.27 268.30 134.20 264.04 141.33 M 204.71 129.86 C 203.67 136.31 202.97 142.87 203.94 149.38 C 206.84 148.02 209.73 146.61 212.56 145.08 C 209.24 140.39 206.80 135.19 204.71 129.86 M 236.27 130.88 C 232.41 136.91 227.30 141.94 221.71 146.36 C 227.15 153.37 234.25 158.92 241.43 164.02 C 245.80 156.96 250.40 150.04 254.84 143.02 C 248.67 138.94 242.52 134.84 236.27 130.88 M 306.09 139.48 C 309.39 144.30 311.80 149.63 313.95 155.03 C 315.83 148.59 315.97 141.76 315.00 135.15 C 311.92 136.37 309.00 137.93 306.09 139.48 M 287.44 156.65 C 294.28 160.98 301.02 165.46 307.89 169.75 C 310.82 160.29 306.08 150.65 300.56 143.16 C 295.51 146.88 291.05 151.53 287.44 156.65 M 260.33 146.59 C 256.05 153.76 251.29 160.63 246.89 167.72 C 251.27 170.26 255.91 172.29 260.46 174.50 C 263.75 175.95 267.31 177.88 270.96 177.55 C 272.88 171.00 274.98 164.48 278.70 158.69 C 272.70 154.47 266.49 150.57 260.33 146.59 M 205.09 155.44 C 208.22 168.15 215.79 179.58 226.23 187.45 C 230.14 181.34 234.13 175.30 237.99 169.16 C 230.24 163.46 222.32 157.71 216.67 149.79 C 212.99 152.01 209.13 153.96 205.09 155.44 M 277.06 179.54 C 286.04 181.10 296.71 181.78 303.99 175.26 C 297.40 170.60 290.56 166.31 283.85 161.83 C 281.28 167.60 278.68 173.41 277.06 179.54 M 243.27 173.05 C 239.62 179.12 235.65 184.99 231.90 190.99 C 243.25 197.50 256.82 199.07 269.64 197.18 C 269.34 192.86 269.50 188.54 269.79 184.23 C 260.25 182.38 251.81 177.42 243.27 173.05 M 276.48 185.57 C 276.32 188.99 276.19 192.42 276.41 195.84 C 282.63 193.56 288.58 190.52 293.82 186.44 C 288.03 186.76 282.16 186.89 276.48 185.57 Z" />
<path fill="#646464" opacity="1.00" d=" M 50.55 483.95 C 62.35 481.66 74.91 482.59 86.10 487.09 C 98.69 491.92 109.29 501.31 116.52 512.60 C 124.58 526.09 128.17 542.55 125.02 558.08 C 121.58 574.15 112.26 589.27 98.38 598.35 C 77.68 612.74 47.83 612.68 27.62 597.38 C 19.58 591.48 12.59 583.98 8.02 575.06 C 5.64 570.74 4.34 565.96 2.57 561.38 C 1.06 557.41 1.39 553.10 0.99 548.96 C -0.13 534.15 5.28 519.55 13.66 507.54 C 20.27 498.73 29.31 491.87 39.46 487.65 C 43.14 486.35 46.89 485.28 50.55 483.95 M 55.93 490.42 C 56.95 498.53 58.91 506.47 60.28 514.52 C 66.60 513.14 72.56 510.44 77.86 506.76 C 72.20 499.59 65.66 491.54 55.93 490.42 M 71.67 490.73 C 75.79 494.55 79.68 498.67 82.87 503.32 C 85.33 501.12 87.77 498.90 90.00 496.47 C 84.23 493.59 78.07 491.54 71.67 490.73 M 34.78 515.96 C 41.25 516.53 47.77 517.07 54.19 515.78 C 52.45 507.76 51.16 499.67 49.54 491.64 C 40.15 495.89 36.95 506.73 34.78 515.96 M 19.69 511.07 C 22.60 512.34 25.59 513.41 28.54 514.57 C 29.58 509.01 31.41 503.60 33.93 498.53 C 28.52 501.87 23.53 505.96 19.69 511.07 M 86.19 508.71 C 90.90 517.10 94.46 526.14 96.52 535.55 C 103.50 534.09 110.49 532.70 117.47 531.23 C 114.00 518.83 106.29 507.64 95.79 500.17 C 92.58 503.00 89.49 505.97 86.19 508.71 M 80.88 512.11 C 74.99 515.98 68.43 518.58 61.65 520.41 C 62.88 527.60 64.40 534.74 65.84 541.89 C 73.97 540.11 82.14 538.57 90.27 536.79 C 88.35 528.16 85.23 519.81 80.88 512.11 M 7.88 553.66 C 14.94 552.44 21.91 550.78 28.95 549.47 C 27.78 539.94 26.45 530.30 27.95 520.72 C 23.90 519.48 19.91 518.04 15.93 516.60 C 8.90 527.48 6.30 540.86 7.88 553.66 M 33.90 522.03 C 33.24 530.77 33.60 539.52 34.95 548.19 C 43.14 546.54 51.31 544.82 59.50 543.16 C 58.21 536.04 56.76 528.94 55.27 521.86 C 48.16 522.68 41.02 522.69 33.90 522.03 M 97.72 542.05 C 99.36 551.63 99.93 561.39 98.79 571.07 C 102.88 572.18 106.95 573.44 110.82 575.20 C 117.76 564.19 120.42 550.84 118.77 537.97 C 111.70 539.03 104.77 540.84 97.72 542.05 M 67.13 548.23 C 68.50 555.44 69.81 562.66 71.44 569.82 C 78.51 568.70 85.68 568.65 92.78 569.58 C 93.52 560.76 93.33 551.85 91.60 543.15 C 83.45 544.89 75.27 546.48 67.13 548.23 M 36.31 554.56 C 38.50 563.12 41.43 571.56 45.94 579.20 C 51.83 575.50 58.24 572.75 65.00 571.08 C 63.73 563.84 62.35 556.62 60.73 549.45 C 52.61 551.26 44.44 552.81 36.31 554.56 M 9.38 560.01 C 12.50 572.72 20.68 584.01 31.41 591.41 C 34.40 588.36 37.58 585.52 40.58 582.48 C 35.23 574.46 32.80 565.01 30.01 555.92 C 23.10 557.11 16.28 558.76 9.38 560.01 M 72.49 576.12 C 74.28 584.14 75.77 592.23 77.56 600.25 C 86.20 595.23 89.77 585.37 91.82 576.14 C 85.48 574.90 78.82 574.76 72.49 576.12 M 48.98 584.89 C 54.44 592.30 61.33 599.76 70.93 601.19 C 69.59 593.17 67.87 585.21 66.31 577.23 C 60.31 579.18 54.34 581.52 48.98 584.89 M 98.03 577.34 C 96.77 583.21 94.86 588.97 91.86 594.20 C 97.79 590.78 103.12 586.30 107.15 580.75 C 104.20 579.38 101.13 578.30 98.03 577.34 M 37.25 595.35 C 43.01 598.71 49.54 600.33 56.07 601.41 C 51.44 597.80 47.82 593.18 44.12 588.67 C 41.75 590.81 39.43 593.01 37.25 595.35 Z" />
<path fill="#646464" opacity="1.00" d=" M 1178.55 635.75 C 1183.95 634.99 1189.44 634.88 1194.86 635.69 C 1204.82 635.95 1214.25 640.27 1222.46 645.68 C 1236.12 654.51 1245.34 669.24 1248.69 685.03 C 1253.03 706.33 1246.18 730.11 1229.51 744.49 C 1215.45 757.70 1195.01 764.03 1176.01 760.07 C 1157.40 756.99 1140.48 744.65 1132.22 727.65 C 1126.81 717.37 1123.89 705.60 1125.02 693.97 C 1125.36 690.64 1125.15 687.24 1126.07 684.00 C 1128.98 675.28 1132.25 666.43 1138.27 659.31 C 1148.27 647.01 1162.62 637.73 1178.55 635.75 M 1161.16 648.70 C 1163.30 651.02 1165.60 653.20 1167.99 655.29 C 1171.18 650.64 1175.01 646.45 1179.32 642.82 C 1172.98 643.77 1166.75 645.53 1161.16 648.70 M 1173.08 659.05 C 1178.71 662.35 1184.56 665.45 1191.04 666.71 C 1192.51 658.68 1194.62 650.78 1196.34 642.80 C 1185.99 642.90 1178.89 651.58 1173.08 659.05 M 1202.66 644.12 C 1200.41 652.01 1198.97 660.10 1197.08 668.08 C 1203.39 669.25 1209.83 668.99 1216.18 668.18 C 1214.11 659.16 1211.09 649.18 1202.66 644.12 M 1216.94 650.65 C 1219.25 655.80 1221.11 661.18 1222.17 666.75 C 1225.25 665.79 1228.33 664.76 1231.33 663.52 C 1227.52 658.25 1222.40 654.09 1216.94 650.65 M 1133.49 683.12 C 1140.49 684.64 1147.52 686.07 1154.53 687.59 C 1156.97 678.31 1159.77 669.00 1164.98 660.85 C 1161.76 658.13 1158.67 655.27 1155.72 652.29 C 1144.75 659.25 1136.91 670.65 1133.49 683.12 M 1169.97 664.22 C 1165.86 672.01 1162.50 680.20 1160.44 688.80 C 1168.61 690.57 1176.80 692.29 1184.99 693.98 C 1186.44 686.86 1188.11 679.79 1189.56 672.68 C 1182.68 670.72 1176.04 668.02 1169.97 664.22 M 1223.19 673.07 C 1224.12 682.66 1223.60 692.29 1222.00 701.78 C 1228.92 703.30 1235.86 704.79 1242.82 706.16 C 1244.56 693.39 1242.00 680.07 1235.28 669.04 C 1231.24 670.39 1227.27 671.88 1223.19 673.07 M 1195.93 673.99 C 1194.27 681.09 1192.64 688.20 1191.27 695.36 C 1199.41 697.01 1207.52 698.78 1215.65 700.48 C 1217.44 691.81 1217.61 682.93 1217.02 674.13 C 1210.01 675.13 1202.92 675.02 1195.93 673.99 M 1131.97 689.48 C 1130.25 702.42 1132.88 715.90 1139.79 727.03 C 1143.69 725.48 1147.63 724.04 1151.63 722.77 C 1150.41 713.09 1151.58 703.39 1152.77 693.79 C 1145.82 692.43 1138.92 690.83 1131.97 689.48 M 1159.00 695.19 C 1157.63 703.91 1157.19 712.72 1157.85 721.53 C 1164.84 720.69 1171.91 720.57 1178.88 721.74 C 1180.43 714.62 1182.06 707.52 1183.57 700.40 C 1175.40 698.55 1167.20 696.85 1159.00 695.19 M 1189.79 701.64 C 1188.34 708.83 1186.57 715.96 1185.13 723.17 C 1192.08 724.97 1198.67 727.84 1204.84 731.50 C 1209.05 723.73 1212.40 715.47 1214.30 706.82 C 1206.13 705.09 1197.95 703.37 1189.79 701.64 M 1209.71 735.17 C 1212.99 737.88 1216.21 740.68 1219.07 743.85 C 1229.92 736.58 1237.69 725.29 1241.30 712.80 C 1234.34 711.16 1227.31 709.86 1220.34 708.26 C 1218.01 717.65 1214.77 726.88 1209.71 735.17 M 1158.66 728.02 C 1160.59 737.08 1164.04 746.64 1172.25 751.85 C 1174.05 743.86 1175.86 735.87 1177.51 727.84 C 1171.24 727.38 1164.90 727.14 1158.66 728.02 M 1183.70 729.25 C 1182.05 737.33 1180.27 745.38 1178.64 753.47 C 1188.62 752.43 1195.87 744.75 1201.40 737.07 C 1195.99 733.50 1189.98 730.84 1183.70 729.25 M 1143.67 733.00 C 1147.67 738.33 1152.96 742.51 1158.58 746.01 C 1155.61 740.96 1154.27 735.24 1152.68 729.67 C 1149.59 730.54 1146.57 731.65 1143.67 733.00 M 1206.48 740.80 C 1203.05 745.75 1198.96 750.27 1194.00 753.72 C 1200.85 752.89 1207.59 751.01 1213.63 747.59 C 1211.47 745.09 1209.06 742.84 1206.48 740.80 Z" />
</g>
<g id="#3e2723ff">
<path fill="#3e2723" opacity="1.00" d=" M 527.15 328.90 C 539.75 327.74 552.42 327.05 565.06 327.83 C 582.34 329.90 599.46 333.86 615.70 340.17 C 626.74 344.15 638.20 347.42 648.17 353.79 C 660.43 361.56 672.44 370.00 682.55 380.49 C 689.33 387.39 696.68 393.98 701.51 402.48 C 705.03 409.06 707.32 416.45 707.38 423.94 C 707.27 430.69 702.20 435.93 700.92 442.34 C 701.36 446.76 703.62 450.73 704.70 455.01 C 706.98 463.57 709.15 472.22 709.85 481.08 C 711.01 488.59 709.42 496.11 708.15 503.49 C 707.66 505.65 708.05 507.85 708.82 509.90 C 711.91 518.59 715.64 527.05 718.60 535.79 C 725.72 559.36 734.98 582.24 741.70 605.94 C 743.04 611.04 745.32 615.86 746.41 621.03 C 745.72 624.18 744.16 627.04 743.03 630.05 C 739.26 639.98 736.05 650.14 733.96 660.57 C 731.78 668.20 731.68 676.91 726.19 683.17 C 722.70 687.35 716.52 687.16 711.76 685.63 C 711.57 689.67 711.09 694.77 706.84 696.63 C 701.57 698.37 695.85 697.56 690.38 697.64 C 689.25 699.55 688.07 701.44 686.67 703.19 C 678.97 706.34 670.90 703.21 663.63 700.45 C 657.95 697.98 651.85 700.29 645.98 700.43 C 637.65 700.70 629.31 700.53 620.98 700.57 C 613.19 700.66 605.51 699.21 597.84 698.02 C 586.55 696.11 575.35 693.51 564.60 689.53 C 554.33 686.04 543.99 682.72 533.88 678.77 C 529.85 677.04 525.83 675.26 521.61 674.01 C 518.14 671.57 513.77 670.14 511.46 666.33 C 507.89 658.76 503.40 651.67 499.25 644.42 C 497.42 641.02 495.65 637.58 493.84 634.18 C 490.39 627.51 485.89 621.44 482.78 614.59 C 481.75 608.24 481.86 601.72 480.19 595.47 C 478.13 587.22 476.12 578.68 471.32 571.53 C 466.02 563.70 460.27 556.10 453.25 549.72 C 450.81 547.58 447.82 546.29 444.99 544.78 C 434.47 529.90 424.22 514.63 417.03 497.81 C 412.25 489.03 412.18 478.73 412.69 469.01 C 414.39 457.12 416.80 445.08 422.64 434.46 C 427.32 423.86 436.27 415.74 446.24 410.17 C 454.65 405.54 463.02 400.80 471.89 397.09 C 467.82 390.18 467.79 381.60 470.44 374.18 C 477.56 357.47 490.10 342.78 506.50 334.63 C 512.94 331.38 520.07 329.95 527.15 328.90 M 508.02 400.02 C 499.54 401.84 491.19 404.21 482.86 406.63 C 484.55 411.59 487.51 415.96 489.36 420.85 C 493.11 430.83 496.47 441.02 498.00 451.61 C 500.47 462.54 499.96 473.84 499.31 484.95 C 498.63 495.99 492.93 505.75 490.22 516.30 C 488.38 523.23 483.31 529.48 484.25 536.97 C 485.01 547.30 489.25 556.90 492.65 566.57 C 495.10 573.27 497.87 579.99 502.50 585.51 C 507.67 591.64 513.39 597.27 519.09 602.90 C 539.60 622.24 565.62 636.16 593.52 640.86 C 599.62 642.71 605.91 643.82 612.11 645.33 C 620.57 647.35 629.33 646.41 637.94 646.67 C 645.97 647.05 653.74 644.72 661.60 643.50 C 661.66 634.27 660.71 624.98 661.73 615.81 C 666.48 615.20 671.41 615.36 675.95 613.57 C 682.77 610.89 690.34 609.82 696.41 605.45 C 698.47 604.30 700.31 601.97 702.89 602.35 C 710.33 607.74 714.50 616.25 719.82 623.50 C 725.05 612.65 722.98 600.43 723.83 588.85 C 724.81 579.07 723.05 569.23 720.23 559.89 C 717.41 551.25 716.01 542.18 712.16 533.89 C 709.78 526.19 706.89 518.66 704.35 511.01 C 699.74 494.13 693.11 477.87 685.61 462.08 C 683.86 458.75 682.06 455.30 679.24 452.76 C 676.13 450.17 671.83 450.28 668.03 449.91 C 662.54 449.46 657.41 452.04 651.97 452.16 C 647.78 451.44 644.16 448.75 641.42 445.61 C 638.41 442.38 639.89 437.35 642.13 434.14 C 649.03 430.19 657.35 430.49 665.05 430.47 C 654.30 420.63 642.02 411.95 627.91 407.75 C 620.30 405.65 612.83 402.99 605.00 401.83 C 573.25 394.39 540.07 394.73 508.02 400.02 Z" />
<path fill="#3e2723" opacity="1.00" d=" M 547.50 450.37 C 555.57 447.90 563.31 443.33 572.01 443.80 C 577.07 444.08 583.54 443.42 586.58 448.47 C 588.78 452.37 591.32 458.73 586.89 462.04 C 582.65 464.13 577.72 463.89 573.23 465.16 C 560.72 468.54 547.84 473.07 538.56 482.54 C 533.45 487.68 531.33 494.81 527.14 500.58 C 526.47 494.40 526.55 488.17 526.44 481.97 C 526.84 475.72 528.73 469.62 530.98 463.82 C 534.60 457.53 541.22 453.60 547.50 450.37 Z" />
<path fill="#3e2723" opacity="1.00" d=" M 663.65 480.02 C 663.37 474.52 667.60 467.13 673.97 468.57 C 678.83 470.99 683.48 475.02 684.27 480.71 C 685.64 486.01 681.59 491.80 676.01 491.74 C 669.39 492.43 664.67 485.86 663.65 480.02 M 672.47 474.91 C 671.65 477.89 676.28 481.06 677.94 477.93 C 679.42 476.10 676.44 474.47 675.26 473.37 C 674.32 473.88 673.39 474.39 672.47 474.91 Z" />
<path fill="#3e2723" opacity="1.00" d=" M 578.16 482.25 C 581.61 480.99 585.36 481.84 588.94 481.71 C 592.66 483.57 596.21 485.99 598.44 489.60 C 599.25 493.60 600.66 497.99 598.64 501.88 C 594.18 511.50 579.37 513.59 572.49 505.47 C 566.70 498.09 569.91 486.33 578.16 482.25 M 586.41 485.66 C 586.46 487.58 585.80 489.95 587.61 491.32 C 589.30 493.15 592.50 492.51 593.24 490.08 C 594.50 487.62 591.95 485.75 590.19 484.55 C 588.92 484.87 587.65 485.25 586.41 485.66 Z" />
<path fill="#3e2723" opacity="1.00" d=" M 691.25 539.26 C 694.36 536.21 699.43 536.84 702.83 539.06 C 710.05 546.35 712.60 556.53 715.33 566.09 C 712.00 563.30 709.40 558.95 704.78 558.30 C 702.40 558.28 701.89 561.08 700.69 562.60 C 699.42 564.65 697.81 566.52 695.70 567.75 C 688.31 572.23 680.17 575.31 671.88 577.69 C 666.23 579.28 660.76 581.60 654.94 582.56 C 644.61 583.97 634.18 584.87 623.75 584.29 C 622.32 583.24 620.69 582.54 618.94 582.25 C 616.69 587.03 614.21 591.72 612.65 596.79 C 611.29 592.26 609.45 587.78 609.28 583.00 C 609.07 577.66 609.27 572.31 609.58 566.98 C 609.74 564.52 610.01 561.73 611.96 559.97 C 613.84 558.20 616.52 557.73 619.02 557.69 C 626.87 557.55 634.77 557.73 642.57 556.71 C 648.12 555.73 653.48 553.90 659.05 552.98 C 666.19 551.79 672.96 549.05 679.38 545.76 C 683.48 543.86 687.76 542.21 691.25 539.26 Z" />
</g>
<g id="#ba8c5bff">
<path fill="#ba8c5b" opacity="1.00" d=" M 508.02 400.02 C 540.07 394.73 573.25 394.39 605.00 401.83 C 612.83 402.99 620.30 405.65 627.91 407.75 C 642.02 411.95 654.30 420.63 665.05 430.47 C 657.35 430.49 649.03 430.19 642.13 434.14 C 639.89 437.35 638.41 442.38 641.42 445.61 C 644.16 448.75 647.78 451.44 651.97 452.16 C 657.41 452.04 662.54 449.46 668.03 449.91 C 671.83 450.28 676.13 450.17 679.24 452.76 C 682.06 455.30 683.86 458.75 685.61 462.08 C 693.11 477.87 699.74 494.13 704.35 511.01 C 706.89 518.66 709.78 526.19 712.16 533.89 C 716.01 542.18 717.41 551.25 720.23 559.89 C 723.05 569.23 724.81 579.07 723.83 588.85 C 722.98 600.43 725.05 612.65 719.82 623.50 C 714.50 616.25 710.33 607.74 702.89 602.35 C 700.31 601.97 698.47 604.30 696.41 605.45 C 690.34 609.82 682.77 610.89 675.95 613.57 C 671.41 615.36 666.48 615.20 661.73 615.81 C 660.71 624.98 661.66 634.27 661.60 643.50 C 653.74 644.72 645.97 647.05 637.94 646.67 C 629.33 646.41 620.57 647.35 612.11 645.33 C 605.91 643.82 599.62 642.71 593.52 640.86 C 565.62 636.16 539.60 622.24 519.09 602.90 C 513.39 597.27 507.67 591.64 502.50 585.51 C 497.87 579.99 495.10 573.27 492.65 566.57 C 489.25 556.90 485.01 547.30 484.25 536.97 C 483.31 529.48 488.38 523.23 490.22 516.30 C 492.93 505.75 498.63 495.99 499.31 484.95 C 499.96 473.84 500.47 462.54 498.00 451.61 C 496.47 441.02 493.11 430.83 489.36 420.85 C 487.51 415.96 484.55 411.59 482.86 406.63 C 491.19 404.21 499.54 401.84 508.02 400.02 M 547.50 450.37 C 541.22 453.60 534.60 457.53 530.98 463.82 C 528.73 469.62 526.84 475.72 526.44 481.97 C 526.55 488.17 526.47 494.40 527.14 500.58 C 531.33 494.81 533.45 487.68 538.56 482.54 C 547.84 473.07 560.72 468.54 573.23 465.16 C 577.72 463.89 582.65 464.13 586.89 462.04 C 591.32 458.73 588.78 452.37 586.58 448.47 C 583.54 443.42 577.07 444.08 572.01 443.80 C 563.31 443.33 555.57 447.90 547.50 450.37 M 663.08 470.13 C 657.66 474.18 657.47 481.96 658.95 487.98 C 661.50 495.16 667.95 501.94 676.05 501.86 C 680.87 502.10 683.98 497.27 685.12 493.15 C 685.76 489.04 686.12 484.57 684.27 480.71 C 683.48 475.02 678.83 470.99 673.97 468.57 C 670.32 468.13 666.09 467.46 663.08 470.13 M 569.46 484.57 C 565.11 487.32 560.82 490.64 558.59 495.42 C 556.49 500.07 554.30 505.29 555.69 510.47 C 557.38 514.59 559.74 518.98 564.00 520.91 C 569.09 523.63 575.17 524.33 580.69 522.49 C 589.09 520.23 596.68 514.55 600.49 506.64 C 602.77 500.48 601.19 493.55 598.12 487.94 L 598.44 489.60 C 596.21 485.99 592.66 483.57 588.94 481.71 L 588.90 481.17 C 582.34 481.26 575.25 480.95 569.46 484.57 M 673.09 509.24 C 675.53 512.93 678.54 516.53 679.28 521.03 C 679.60 524.07 679.23 527.25 678.16 530.12 C 675.30 535.38 669.59 538.39 663.98 539.85 C 657.96 541.56 652.12 538.57 646.35 537.30 C 642.34 541.49 637.29 545.96 631.05 545.29 C 629.04 544.84 629.42 541.44 627.36 541.22 C 625.64 544.10 626.95 547.71 629.16 549.92 C 632.79 553.57 637.87 555.00 642.57 556.71 C 634.77 557.73 626.87 557.55 619.02 557.69 C 616.52 557.73 613.84 558.20 611.96 559.97 C 610.01 561.73 609.74 564.52 609.58 566.98 C 609.27 572.31 609.07 577.66 609.28 583.00 C 609.45 587.78 611.29 592.26 612.65 596.79 C 614.21 591.72 616.69 587.03 618.94 582.25 C 620.69 582.54 622.32 583.24 623.75 584.29 C 628.86 587.97 634.26 591.27 639.67 594.48 C 645.16 597.81 651.82 596.78 657.90 596.47 C 665.06 596.07 671.72 593.25 678.57 591.44 C 686.10 589.30 693.18 585.36 698.60 579.66 C 699.55 578.60 700.57 577.45 700.68 575.96 C 701.35 571.53 701.23 567.03 700.69 562.60 C 701.89 561.08 702.40 558.28 704.78 558.30 C 709.40 558.95 712.00 563.30 715.33 566.09 C 712.60 556.53 710.05 546.35 702.83 539.06 C 699.43 536.84 694.36 536.21 691.25 539.26 C 687.76 542.21 683.48 543.86 679.38 545.76 C 680.41 542.82 682.67 540.26 682.64 537.03 C 682.74 532.73 682.79 528.42 682.42 524.14 C 681.67 518.05 677.44 513.22 673.09 509.24 Z" />
<path fill="#ba8c5b" opacity="1.00" d=" M 420.90 553.96 C 424.68 545.00 436.21 540.80 444.99 544.78 C 447.82 546.29 450.81 547.58 453.25 549.72 C 460.27 556.10 466.02 563.70 471.32 571.53 C 476.12 578.68 478.13 587.22 480.19 595.47 C 481.86 601.72 481.75 608.24 482.78 614.59 C 482.00 614.54 480.44 614.44 479.66 614.39 C 475.62 617.86 472.61 623.05 467.10 624.35 C 458.56 625.36 449.64 623.42 442.49 618.57 C 433.91 612.75 427.84 604.07 422.77 595.18 C 419.16 588.71 416.12 581.56 416.32 574.02 C 415.99 567.04 418.47 560.37 420.90 553.96 Z" />
<path fill="#ba8c5b" opacity="1.00" d=" M 499.25 644.42 C 503.40 651.67 507.89 658.76 511.46 666.33 C 506.37 659.65 502.58 652.09 499.25 644.42 Z" />
<path fill="#ba8c5b" opacity="1.00" d=" M 521.61 674.01 C 525.83 675.26 529.85 677.04 533.88 678.77 C 543.99 682.72 554.33 686.04 564.60 689.53 C 575.35 693.51 586.55 696.11 597.84 698.02 C 605.51 699.21 613.19 700.66 620.98 700.57 C 629.31 700.53 637.65 700.70 645.98 700.43 C 651.85 700.29 657.95 697.98 663.63 700.45 C 670.90 703.21 678.97 706.34 686.67 703.19 C 686.64 705.76 686.65 708.33 686.65 710.92 C 686.62 712.70 686.40 714.48 686.28 716.27 C 676.98 721.47 667.02 725.31 657.20 729.38 C 645.60 734.07 633.29 737.23 620.77 737.83 C 619.01 748.46 619.11 759.28 618.74 770.02 C 618.41 783.65 620.15 797.95 614.75 810.87 C 612.16 814.99 607.69 818.00 603.02 819.32 C 594.05 821.24 585.70 814.16 582.97 806.02 C 577.79 790.87 579.94 774.67 579.48 758.98 C 579.40 752.97 578.56 746.89 579.94 740.95 C 580.49 738.26 580.81 734.46 577.94 732.98 C 568.65 732.75 559.31 731.98 550.26 729.78 C 541.10 727.61 532.86 722.89 524.79 718.22 C 524.60 715.04 524.43 711.85 524.31 708.68 C 524.53 697.07 524.54 685.33 521.61 674.01 Z" />
<path fill="#ba8c5b" opacity="1.00" d=" M 1269.27 784.28 C 1272.70 778.94 1279.22 774.90 1285.67 777.13 C 1291.85 778.82 1294.73 785.05 1297.53 790.22 C 1299.63 795.91 1300.36 802.02 1301.82 807.91 C 1304.05 805.88 1306.24 803.63 1309.14 802.57 C 1316.00 799.69 1324.74 803.96 1326.93 811.03 C 1330.78 820.58 1329.55 831.04 1329.26 841.08 L 1328.71 841.84 C 1329.20 853.10 1325.83 863.98 1323.61 874.91 C 1321.49 883.82 1319.17 892.99 1313.75 900.55 C 1309.12 908.40 1303.12 915.30 1296.52 921.54 C 1292.45 925.18 1289.45 929.94 1284.84 932.96 C 1281.70 935.12 1279.18 938.34 1275.27 939.15 C 1241.67 950.18 1207.81 960.40 1173.89 970.37 C 1170.91 971.34 1167.78 971.97 1164.65 971.52 C 1155.43 969.50 1146.20 967.55 1136.98 965.54 C 1128.16 963.76 1120.30 959.21 1112.09 955.75 C 1107.52 953.94 1105.02 949.49 1102.30 945.71 C 1098.93 940.69 1095.57 935.63 1092.95 930.17 C 1090.87 924.88 1090.52 919.12 1089.20 913.63 C 1090.17 905.95 1096.12 899.47 1102.77 895.92 C 1105.76 890.33 1112.12 888.26 1117.67 886.15 C 1123.54 884.64 1128.98 881.80 1134.97 880.67 C 1144.70 877.88 1154.86 876.92 1164.53 873.85 C 1170.03 872.21 1175.83 871.56 1181.12 869.23 C 1187.98 866.46 1194.28 861.82 1198.39 855.63 C 1201.27 848.94 1203.54 841.94 1204.98 834.80 C 1206.25 827.17 1208.66 819.77 1211.94 812.78 C 1213.79 808.86 1217.45 806.20 1221.21 804.29 C 1225.91 801.98 1232.40 803.57 1234.77 808.46 C 1237.94 814.81 1235.97 822.16 1237.15 828.93 C 1237.52 839.72 1235.80 850.77 1231.07 860.56 C 1233.37 860.89 1235.72 860.76 1238.06 860.67 C 1241.59 845.55 1245.39 830.45 1247.42 815.04 C 1249.03 806.38 1249.56 797.14 1254.49 789.54 C 1257.72 784.85 1263.83 782.98 1269.27 784.28 Z" />
<path fill="#ba8c5b" opacity="1.00" d=" M 62.21 824.14 C 65.04 818.36 71.37 813.92 78.01 815.26 C 86.71 816.57 90.92 825.35 94.13 832.54 C 96.65 845.33 98.92 858.23 102.97 870.67 C 106.27 880.86 108.93 891.27 112.72 901.30 C 114.41 904.91 115.76 909.25 119.66 911.10 C 118.69 906.05 116.52 901.35 115.21 896.40 C 112.26 886.81 111.99 876.69 109.79 866.95 C 109.50 858.89 109.13 850.60 111.64 842.82 C 113.52 836.68 115.70 830.09 121.02 826.04 C 124.65 822.75 130.63 822.29 134.52 825.39 C 137.97 828.05 141.23 831.50 142.18 835.90 C 143.88 842.80 144.88 849.90 144.62 857.03 C 144.44 862.75 145.06 868.49 146.72 873.99 C 149.95 884.22 150.80 894.99 152.84 905.49 C 155.11 905.14 157.37 904.79 159.64 904.44 C 157.44 895.12 154.78 885.66 155.42 875.99 C 155.72 869.30 155.84 862.61 155.55 855.93 C 155.24 850.82 157.83 845.90 161.67 842.65 C 165.41 839.39 169.64 835.62 175.01 836.25 C 180.44 835.90 185.31 839.86 187.26 844.73 C 189.10 849.24 188.37 854.21 188.87 858.95 C 189.96 867.38 188.34 876.02 190.29 884.37 C 192.07 892.64 193.97 900.90 196.37 909.02 C 197.92 914.64 201.07 919.69 202.42 925.38 C 203.70 932.65 205.21 939.94 204.76 947.38 C 204.10 954.20 199.85 959.70 196.33 965.30 C 191.61 972.76 185.71 979.37 179.95 986.03 C 175.24 991.39 168.37 993.91 162.29 997.31 C 151.57 1003.23 138.77 1003.04 126.96 1001.52 C 117.73 1000.89 108.85 998.15 100.03 995.56 C 95.11 993.66 90.25 991.40 84.92 991.01 C 73.14 988.39 61.06 987.18 49.00 987.59 C 43.48 987.96 39.10 984.13 34.52 981.69 C 29.49 979.03 26.10 973.75 25.81 968.06 C 25.54 961.98 24.36 956.02 23.76 949.98 C 23.51 945.17 21.11 940.88 19.23 936.57 C 17.28 931.83 13.04 928.64 10.67 924.18 C 8.16 919.81 4.95 915.31 5.44 910.00 C 5.90 903.75 9.57 897.29 15.45 894.70 C 20.52 892.48 25.92 894.74 30.69 896.64 C 27.67 889.01 24.97 881.19 23.72 873.06 C 23.42 866.70 23.41 860.31 23.74 853.95 C 24.60 843.85 36.81 836.28 45.99 841.31 C 54.44 844.88 56.11 854.91 57.17 862.99 C 57.66 876.20 62.90 888.51 68.08 900.47 C 69.57 904.66 72.93 907.71 77.07 909.20 C 73.70 900.13 69.34 891.39 66.98 881.97 C 64.97 872.06 63.61 862.01 61.09 852.20 C 58.90 842.95 58.68 833.08 62.21 824.14 Z" />
</g>
<g id="#ffffffff">
<path fill="#ffffff" opacity="1.00" d=" M 663.08 470.13 C 666.09 467.46 670.32 468.13 673.97 468.57 C 667.60 467.13 663.37 474.52 663.65 480.02 C 664.67 485.86 669.39 492.43 676.01 491.74 C 681.59 491.80 685.64 486.01 684.27 480.71 C 686.12 484.57 685.76 489.04 685.12 493.15 C 683.98 497.27 680.87 502.10 676.05 501.86 C 667.95 501.94 661.50 495.16 658.95 487.98 C 657.47 481.96 657.66 474.18 663.08 470.13 Z" />
<path fill="#ffffff" opacity="1.00" d=" M 672.47 474.91 C 673.39 474.39 674.32 473.88 675.26 473.37 C 676.44 474.47 679.42 476.10 677.94 477.93 C 676.28 481.06 671.65 477.89 672.47 474.91 Z" />
<path fill="#ffffff" opacity="1.00" d=" M 569.46 484.57 C 575.25 480.95 582.34 481.26 588.90 481.17 L 588.94 481.71 C 585.36 481.84 581.61 480.99 578.16 482.25 C 569.91 486.33 566.70 498.09 572.49 505.47 C 579.37 513.59 594.18 511.50 598.64 501.88 C 600.66 497.99 599.25 493.60 598.44 489.60 L 598.12 487.94 C 601.19 493.55 602.77 500.48 600.49 506.64 C 596.68 514.55 589.09 520.23 580.69 522.49 C 575.17 524.33 569.09 523.63 564.00 520.91 C 559.74 518.98 557.38 514.59 555.69 510.47 C 554.30 505.29 556.49 500.07 558.59 495.42 C 560.82 490.64 565.11 487.32 569.46 484.57 Z" />
<path fill="#ffffff" opacity="1.00" d=" M 586.41 485.66 C 587.65 485.25 588.92 484.87 590.19 484.55 C 591.95 485.75 594.50 487.62 593.24 490.08 C 592.50 492.51 589.30 493.15 587.61 491.32 C 585.80 489.95 586.46 487.58 586.41 485.66 Z" />
</g>
<g id="#795548ff">
<path fill="#795548" opacity="1.00" d=" M 673.09 509.24 C 677.44 513.22 681.67 518.05 682.42 524.14 C 682.79 528.42 682.74 532.73 682.64 537.03 C 682.67 540.26 680.41 542.82 679.38 545.76 C 672.96 549.05 666.19 551.79 659.05 552.98 C 653.48 553.90 648.12 555.73 642.57 556.71 C 637.87 555.00 632.79 553.57 629.16 549.92 C 626.95 547.71 625.64 544.10 627.36 541.22 C 629.42 541.44 629.04 544.84 631.05 545.29 C 637.29 545.96 642.34 541.49 646.35 537.30 C 652.12 538.57 657.96 541.56 663.98 539.85 C 669.59 538.39 675.30 535.38 678.16 530.12 C 679.23 527.25 679.60 524.07 679.28 521.03 C 678.54 516.53 675.53 512.93 673.09 509.24 Z" />
<path fill="#795548" opacity="1.00" d=" M 695.70 567.75 C 697.81 566.52 699.42 564.65 700.69 562.60 C 701.23 567.03 701.35 571.53 700.68 575.96 C 700.57 577.45 699.55 578.60 698.60 579.66 C 693.18 585.36 686.10 589.30 678.57 591.44 C 671.72 593.25 665.06 596.07 657.90 596.47 C 651.82 596.78 645.16 597.81 639.67 594.48 C 634.26 591.27 628.86 587.97 623.75 584.29 C 634.18 584.87 644.61 583.97 654.94 582.56 C 660.76 581.60 666.23 579.28 671.88 577.69 C 680.17 575.31 688.31 572.23 695.70 567.75 Z" />
</g>
<g id="#4dd0e1ff">
<path fill="#4dd0e1" opacity="1.00" d=" M 511.84 708.46 C 513.23 706.13 514.73 702.75 518.05 703.18 C 521.39 702.84 522.94 706.28 524.31 708.68 C 524.43 711.85 524.60 715.04 524.79 718.22 C 532.86 722.89 541.10 727.61 550.26 729.78 C 559.31 731.98 568.65 732.75 577.94 732.98 C 580.81 734.46 580.49 738.26 579.94 740.95 C 578.56 746.89 579.40 752.97 579.48 758.98 C 579.94 774.67 577.79 790.87 582.97 806.02 C 585.70 814.16 594.05 821.24 603.02 819.32 C 607.69 818.00 612.16 814.99 614.75 810.87 C 620.15 797.95 618.41 783.65 618.74 770.02 C 619.11 759.28 619.01 748.46 620.77 737.83 C 633.29 737.23 645.60 734.07 657.20 729.38 C 667.02 725.31 676.98 721.47 686.28 716.27 C 686.40 714.48 686.62 712.70 686.65 710.92 C 688.29 709.80 689.77 707.94 691.98 708.13 C 694.91 708.77 697.57 710.29 700.47 711.08 C 700.03 716.47 698.90 722.06 700.68 727.35 C 701.93 731.22 703.69 735.69 707.88 737.17 C 718.64 740.79 728.21 747.07 738.51 751.74 C 751.61 758.52 766.02 762.02 779.89 766.82 C 793.50 771.60 807.18 776.20 820.87 780.76 C 829.76 783.96 839.13 785.88 847.52 790.36 C 851.43 792.65 856.06 793.56 859.70 796.30 C 866.03 803.16 865.85 813.16 869.98 821.15 C 872.91 826.91 875.39 832.89 877.77 838.91 C 884.26 855.78 890.84 872.63 897.48 889.45 C 911.49 917.62 924.79 946.20 940.52 973.49 C 948.16 987.38 959.47 998.80 967.35 1012.55 C 977.72 1004.66 986.84 995.29 996.96 987.11 C 1004.98 980.63 1013.78 975.23 1021.94 968.95 C 1029.22 962.97 1036.10 956.54 1043.27 950.44 C 1058.28 937.79 1073.56 925.47 1089.20 913.63 C 1090.52 919.12 1090.87 924.88 1092.95 930.17 C 1095.57 935.63 1098.93 940.69 1102.30 945.71 C 1105.02 949.49 1107.52 953.94 1112.09 955.75 C 1120.30 959.21 1128.16 963.76 1136.98 965.54 C 1146.20 967.55 1155.43 969.50 1164.65 971.52 C 1154.62 982.20 1145.05 993.30 1135.41 1004.32 C 1118.30 1022.23 1101.04 1039.98 1083.69 1057.66 C 1071.84 1070.16 1059.53 1082.22 1047.09 1094.13 C 1033.03 1107.68 1019.19 1121.51 1004.20 1134.04 C 996.23 1141.23 988.08 1148.28 978.72 1153.62 C 971.45 1157.72 964.84 1164.34 956.00 1164.36 C 949.85 1164.79 943.62 1164.93 937.52 1164.00 C 929.50 1162.13 921.15 1159.88 914.98 1154.08 C 901.46 1142.26 888.83 1129.31 877.99 1114.97 C 865.28 1098.17 850.71 1082.87 838.24 1065.89 C 837.52 1071.22 837.79 1076.61 837.76 1081.98 C 837.75 1120.65 837.78 1159.33 837.75 1198.00 L 401.77 1198.00 C 401.68 1162.02 402.60 1125.99 400.64 1090.05 C 399.53 1080.26 398.32 1070.49 397.60 1060.68 C 390.47 1071.40 383.71 1082.43 375.22 1092.17 C 362.42 1107.18 351.44 1123.66 338.19 1138.29 C 333.69 1143.46 328.55 1148.04 324.25 1153.39 C 317.18 1161.23 311.18 1170.17 302.63 1176.55 C 292.30 1184.98 279.08 1188.61 266.23 1191.09 C 254.23 1192.62 241.79 1193.66 229.98 1190.37 C 220.55 1187.82 211.12 1184.52 203.12 1178.81 C 197.50 1174.91 191.22 1171.59 187.07 1165.99 C 185.11 1163.28 183.17 1160.56 181.05 1157.98 C 174.97 1150.43 170.10 1142.01 165.55 1133.48 C 160.34 1124.61 154.62 1115.99 150.44 1106.56 C 140.29 1084.82 130.71 1062.81 121.15 1040.80 C 114.36 1025.60 106.86 1010.74 100.03 995.56 C 108.85 998.15 117.73 1000.89 126.96 1001.52 C 138.77 1003.04 151.57 1003.23 162.29 997.31 C 168.37 993.91 175.24 991.39 179.95 986.03 C 185.71 979.37 191.61 972.76 196.33 965.30 C 199.85 959.70 204.10 954.20 204.76 947.38 C 211.02 959.38 216.98 971.57 223.96 983.19 C 228.87 991.40 231.59 1000.64 235.86 1009.16 C 241.39 1021.04 247.97 1032.39 253.77 1044.14 C 256.23 1042.12 258.40 1039.73 259.85 1036.88 C 264.26 1028.60 268.71 1020.34 272.62 1011.81 C 279.04 998.89 286.05 986.24 292.06 973.13 C 298.25 955.73 304.44 938.32 310.68 920.93 C 318.07 900.55 326.38 880.50 333.44 860.00 C 337.13 849.71 339.55 839.01 343.60 828.85 C 345.51 824.26 347.15 819.58 348.84 814.91 C 350.01 810.62 353.52 807.46 357.04 804.99 C 362.83 802.25 369.05 800.49 374.81 797.69 C 382.47 792.24 391.52 789.31 399.88 785.15 C 413.96 778.38 428.91 773.77 443.19 767.49 C 462.50 759.45 482.57 753.53 502.19 746.32 C 503.93 743.78 506.03 741.48 507.58 738.81 C 509.86 734.97 509.53 730.36 509.84 726.08 C 510.24 719.65 510.60 713.22 510.54 706.79 C 510.87 707.20 511.52 708.04 511.84 708.46 Z" />
</g>
</svg>