<svg id="Laag_1" data-name="Laag 1" xmlns="http://www.w3.org/2000/svg" viewBox="0 0 32 35"><defs><style>.cls-1{fill:#fff;}</style></defs><title>My_Yoast_download_icon</title><path class="cls-1" d="M15.77,28a1.71,1.71,0,0,0,2.46,0l9.25-11.35a1.75,1.75,0,0,0,.38-1.93,1.77,1.77,0,0,0-1.61-1.08h-5V2.27A1.77,1.77,0,0,0,19.5.5h-5a1.77,1.77,0,0,0-1.75,1.77V13.62h-5a1.77,1.77,0,0,0-1.61,1.08,1.75,1.75,0,0,0,.38,1.93Z" transform="translate(-1 -0.5)"/><rect class="cls-1" y="30" width="32" height="5" rx="1.5" ry="1.5"/></svg>