<svg id="sites" xmlns="http://www.w3.org/2000/svg" x="0px" y="0px"
	role="img" aria-hidden="true" focusable="false"
	viewBox="0 0 48 48" style="enable-background:new 0 0 48 48;" xml:space="preserve">
<style type="text/css">
	.st0{fill:#646464;}
</style>
<path class="st0" d="M47.9,22.7c-0.3-5.9-2.8-11.2-6.5-15.2c-0.5-0.6-1.1-1.1-1.8-1.8c-3.8-3.2-8.8-5.4-14.3-5.7l0-0.1L23,0l0,0.1
	C17.3,0.3,12.2,2.5,8.3,5.9C7.7,6.4,7.2,7,6.6,7.7c-3.7,3.9-6.2,9.2-6.5,15.1H0v2.4h0.1C0.4,31,2.8,36.3,6.6,40.3
	C7,41,7.7,41.5,8.3,42.1C12.5,45.8,18.1,48,24,48s11.5-2.2,15.7-5.9c0.6-0.5,1.1-1.1,1.8-1.8c3.7-4,6.2-9.3,6.5-15.2H48L47.9,22.7
	L47.9,22.7z M45.4,22.7h-8.2c-0.1-4-0.8-7.7-1.8-10.9c1.5-0.7,2.9-1.6,4.2-2.5C42.9,12.8,45.1,17.5,45.4,22.7z M25.1,45.2
	C25.1,45.2,25.1,45.2,25.1,45.2l0-9.3c2.6,0.1,5,0.6,7.2,1.4C30.6,41.7,28,44.6,25.1,45.2z M22.3,2.8c0.2,0,0.4,0,0.7,0l-0.1,9.3
	c-2.6-0.1-5-0.7-7.3-1.5C17.3,6.5,19.6,3.7,22.3,2.8z M32.4,10.6c-2.2,0.8-4.6,1.4-7.1,1.5l0.1-9.3c0.1,0,0.3,0,0.4,0
	C28.4,3.7,30.7,6.5,32.4,10.6z M22.9,14.3l-0.1,8.4h-9.6c0.1-3.6,0.7-7,1.6-10C17.3,13.6,20,14.2,22.9,14.3z M22.8,25.1l-0.1,8.4
	c-2.8,0.1-5.4,0.7-7.9,1.6c-0.9-3-1.5-6.4-1.6-10H22.8z M22.7,35.9l-0.1,9.2c-2.8-0.7-5.3-3.6-7-7.8C17.9,36.6,20.2,36.1,22.7,35.9z
	 M25.1,33.5l0.1-8.4h9.6c-0.1,3.6-0.7,7-1.6,10C30.7,34.2,28,33.7,25.1,33.5z M25.2,22.7l0.1-8.4c2.8-0.1,5.4-0.7,7.9-1.6
	c0.9,3,1.5,6.4,1.6,10H25.2z M34.5,9.6c-0.9-2.2-2.1-4.1-3.3-5.7c2.4,0.9,4.7,2.1,6.6,3.7C36.8,8.4,35.7,9,34.5,9.6z M8.5,9.3
	C9,8.6,9.6,8.1,10.2,7.7c1.9-1.7,4.2-2.9,6.6-3.8c-1.3,1.5-2.5,3.5-3.4,5.7c-1.1-0.6-2.2-1.2-3.2-2C9.6,8.1,9,8.8,8.5,9.3
	c1.3,1,2.7,1.8,4.2,2.5c-1.1,3.2-1.7,7-1.8,10.9H2.6C2.9,17.5,5.1,12.8,8.5,9.3z M8.5,38.6C5.1,35,2.9,30.4,2.6,25.1h8.2
	c0.1,4,0.8,7.7,1.8,10.9C11.2,36.8,9.8,37.6,8.5,38.6c0.6,0.6,1.1,1.1,1.8,1.8c1-0.7,2.1-1.4,3.3-2c1,2.3,2.1,4.2,3.5,5.8
	c-2.5-0.9-4.8-2.1-6.8-3.8C9.6,39.9,9,39.2,8.5,38.6z M30.9,44.2c1.4-1.6,2.6-3.5,3.6-5.9c1.2,0.6,2.3,1.3,3.3,2
	C35.8,42.1,33.5,43.4,30.9,44.2z M39.5,38.6c-1.3-1-2.7-1.8-4.2-2.5c1.1-3.2,1.7-7,1.8-10.9h8.2C45.1,30.4,42.9,35,39.5,38.6z"/>
</svg>