<?xml version="1.0" encoding="utf-8"?>
<!-- Generator: Adobe Illustrator 21.0.2, SVG Export Plug-In . SVG Version: 6.00 Build 0)  -->
<svg version="1.1" id="sites" xmlns="http://www.w3.org/2000/svg" xmlns:xlink="http://www.w3.org/1999/xlink" x="0px" y="0px"
	 viewBox="0 0 46 34" style="enable-background:new 0 0 46 34;" xml:space="preserve">
<style type="text/css">
	.st0{fill:none;}
	.st1{fill:#FFFFFF;}
	.st2{fill:none;stroke:#FFFFFF;stroke-width:1.5;stroke-miterlimit:10;}
</style>
<g>
	<g>
		<path class="st0" d="M13.3,7.8C11,10.2,9.6,13.4,9.6,17s1.4,6.8,3.7,9.2c2.6-2,6-3.2,9.7-3.2s7.1,1.2,9.7,3.2
			c2.3-2.4,3.7-5.6,3.7-9.2s-1.4-6.8-3.7-9.2c-2.6,2-6,3.2-9.7,3.2S15.9,9.8,13.3,7.8z"/>
		<path class="st0" d="M14.4,27.3c2.3,2,5.3,3.1,8.6,3.1s6.3-1.2,8.6-3.1c-2.3-1.7-5.3-2.8-8.6-2.8S16.7,25.5,14.4,27.3z"/>
		<path class="st0" d="M31.6,6.7c-2.3-2-5.3-3.1-8.6-3.1s-6.3,1.2-8.6,3.1c2.3,1.8,5.3,2.8,8.6,2.8S29.3,8.5,31.6,6.7z"/>
		<path class="st1" d="M23,9.6c-3.3,0-6.3-1.1-8.6-2.8c-0.4,0.3-0.8,0.7-1.1,1c2.6,2,6,3.2,9.7,3.2s7.1-1.2,9.7-3.2
			c-0.3-0.4-0.7-0.7-1.1-1C29.3,8.5,26.3,9.6,23,9.6z"/>
		<path class="st1" d="M13.3,26.2c0.4,0.4,0.7,0.7,1.1,1.1c2.3-1.7,5.3-2.8,8.6-2.8s6.3,1,8.6,2.8c0.4-0.3,0.8-0.7,1.1-1.1
			c-2.6-2-6-3.2-9.7-3.2S15.9,24.2,13.3,26.2z"/>
		<path class="st1" d="M33.9,6.7c-0.3-0.4-0.7-0.7-1.1-1.1C30.2,3.4,26.8,2,23,2s-7.2,1.4-9.8,3.7c-0.4,0.3-0.7,0.7-1.1,1.1
			C9.6,9.4,8,13,8,17s1.6,7.6,4.1,10.3c0.3,0.4,0.7,0.7,1.1,1.1c2.6,2.3,6.1,3.7,9.8,3.7s7.2-1.4,9.8-3.7c0.4-0.3,0.7-0.7,1.1-1.1
			C36.4,24.6,38,21,38,17S36.4,9.4,33.9,6.7z M32.7,26.2c-0.4,0.4-0.7,0.7-1.1,1.1c-2.3,2-5.3,3.1-8.6,3.1s-6.3-1.2-8.6-3.1
			c-0.4-0.3-0.8-0.7-1.1-1.1C11,23.8,9.6,20.6,9.6,17s1.4-6.8,3.7-9.2c0.3-0.4,0.7-0.7,1.1-1c2.3-2,5.3-3.1,8.6-3.1
			c3.3,0,6.3,1.2,8.6,3.1c0.4,0.3,0.8,0.7,1.1,1c2.3,2.4,3.7,5.6,3.7,9.2S35,23.8,32.7,26.2z"/>
	</g>
	<g>
		<line class="st2" x1="8" y1="17" x2="38" y2="17"/>
	</g>
	<path class="st2" d="M23,31.2c-4.1,0-7.5-6.4-7.5-14.2S18.9,2.8,23,2.8"/>
	<path class="st2" d="M23,31.2c4.1,0,7.5-6.4,7.5-14.2S27.1,2.8,23,2.8"/>
	<g>
		<line class="st2" x1="22.9" y1="32" x2="23.1" y2="2"/>
	</g>
</g>
</svg>
