<?xml version="1.0" encoding="utf-8"?>
<!-- Generator: Adobe Illustrator 21.0.2, SVG Export Plug-In . SVG Version: 6.00 Build 0)  -->
<svg version="1.1" id="subscription" xmlns="http://www.w3.org/2000/svg" xmlns:xlink="http://www.w3.org/1999/xlink" x="0px"
	 y="0px" viewBox="0 0 46 34" style="enable-background:new 0 0 46 34;" xml:space="preserve">
<style type="text/css">
	.st0{fill:#FFFFFF;}
</style>
<g>
	<path class="st0" d="M20.2,26H8.6C6.4,26,5,24.8,5,22.6c0-2.9,0.7-7.5,4.6-7.5c0.4,0,2.2,1.8,4.8,1.8s4.4-1.8,4.8-1.8
		c3.9,0,4.6,4.5,4.6,7.5C23.8,24.8,22.3,26,20.2,26z M14.4,16c-2.8,0-5.1-2.2-5.1-5s2.3-5,5.1-5s5.1,2.2,5.1,5S17.2,16,14.4,16z"/>
</g>
<g>
	<path class="st0" d="M41.2,3.5c1.3,0,2.3,1,2.3,2.3v22.3c0,1.3-1,2.3-2.3,2.3H4.8c-1.3,0-2.3-1-2.3-2.3V5.8c0-1.3,1-2.3,2.3-2.3
		H41.2 M41.2,2H4.8C2.7,2,1,3.7,1,5.8v22.3C1,30.3,2.7,32,4.8,32h36.3c2.1,0,3.8-1.7,3.8-3.8V5.8C45,3.7,43.3,2,41.2,2L41.2,2z"/>
</g>
<rect x="26.3" y="8.7" class="st0" width="14.7" height="2.9"/>
<rect x="26.3" y="14.1" class="st0" width="14.7" height="2.9"/>
<rect x="26.3" y="19.4" class="st0" width="14.7" height="2.9"/>
</svg>
