<svg xmlns="http://www.w3.org/2000/svg" x="0px" y="0px"
	role="img" aria-hidden="true" focusable="false"
	viewBox="0 0 46 34" style="enable-background:new 0 0 46 34;" xml:space="preserve">
<style type="text/css">
	.st0{fill:#FFFFFF;}
</style>
<path class="st0" d="M21.9,25.9c0.6,0.6,1.5,0.6,2.1,0c0,0,0,0,0,0l8.2-10.1c0.5-0.5,0.6-1.1,0.3-1.7c-0.2-0.6-0.8-1-1.4-1h-4.4V3
	c0-0.9-0.7-1.6-1.5-1.6h-4.4c-0.9,0-1.5,0.7-1.5,1.6v10.1h-4.4c-0.6,0-1.2,0.4-1.4,1c-0.2,0.6-0.1,1.3,0.3,1.7L21.9,25.9z"/>
<path class="st0" d="M10.2,28.2h25.6c0.7,0,1.3,0.6,1.3,1.3v1.8c0,0.7-0.6,1.3-1.3,1.3H10.2c-0.7,0-1.3-0.6-1.3-1.3v-1.8
	C8.9,28.8,9.5,28.2,10.2,28.2z"/>
</svg>