<?xml version="1.0" encoding="utf-8"?>
<!-- Generator: Adobe Illustrator 18.1.1, SVG Export Plug-In . SVG Version: 6.00 Build 0)  -->
<!DOCTYPE svg PUBLIC "-//W3C//DTD SVG 1.1//EN" "http://www.w3.org/Graphics/SVG/1.1/DTD/svg11.dtd" [
	<!ENTITY ns_flows "http://ns.adobe.com/Flows/1.0/">
	<!ENTITY ns_extend "http://ns.adobe.com/Extensibility/1.0/">
	<!ENTITY ns_ai "http://ns.adobe.com/AdobeIllustrator/10.0/">
	<!ENTITY ns_graphs "http://ns.adobe.com/Graphs/1.0/">
]>
<svg version="1.1" xmlns:x="&ns_extend;" xmlns:i="&ns_ai;" xmlns:graph="&ns_graphs;"
	 xmlns="http://www.w3.org/2000/svg" xmlns:xlink="http://www.w3.org/1999/xlink" xmlns:a="http://ns.adobe.com/AdobeSVGViewerExtensions/3.0/"
	 x="0px" y="0px" viewBox="0 0 108 108" enable-background="new 0 0 108 108" xml:space="preserve">
<g id="bg">
	<g>
		<g>
			<path fill="#7EADB9" d="M108,108H22C9.9,108,0,98.1,0,86V22C0,9.9,9.9,0,22,0h64c12.1,0,22,9.9,22,22V108z"/>
		</g>
	</g>
</g>
<g id="icon_place" display="none">
	<g id="BG_blue_kopie_2" display="inline">
		<path fill="#EB7D29" d="M54,7.1c-16.7,0-30.3,13.5-30.3,30.3c0,0.5,0,1,0.1,1.5c0.3,3.6,1.8,8.4,3.9,13.6
			c5.2,13.1,14.5,29.3,20.6,39.2c3.4,5.6,5.7,9.3,5.7,9.3s2.4-3.6,5.7-9.3c4.2-6.9,9.9-16.7,14.7-26.5c4-8.1,7.5-16,9-22.2
			c0.5-2.1,0.8-4,0.8-5.6C84.3,20.6,70.7,7.1,54,7.1z"/>
	</g>
</g>
<g id="icon_place_kopie">
	<g id="BG_blue_kopie_3">
		<g>
			<g>
				<path fill="#7E9358" d="M87.7,52.3c-3.8,7.1-8.4,11.3-13.5,13.3c-4.8,9.6-10.4,19.2-14.5,26c-3.4,5.6-5.7,9.3-5.7,9.3
					s-2.4-3.6-5.7-9.3c-6-10-15.3-26.1-20.6-39.2c-0.9-2.1-1.6-4.1-2.2-6.1C17.4,41.5,6.7,50.6,0,59v26.9C0,98,9.8,108,22,108h86
					V31.9C97.4,30.6,91.6,45.5,87.7,52.3z"/>
			</g>
			<path fill="#F6A446" d="M74.3,65.7c0.1-0.2,0.2-0.3,0.2-0.5c4-8.1,7.5-16,9-22.2c0.5-2.1,0.8-4,0.8-5.6
				C84.3,20.6,70.7,7.1,54,7.1S23.7,20.6,23.7,37.3c0,0.5,0,1,0.1,1.5c0.2,2.2,0.8,4.7,1.7,7.6c0.4,0.2,0.7,0.5,1.1,0.7
				C42.1,59.5,60,71.3,74.3,65.7z"/>
			<path fill="#EB7D29" d="M48.3,91.7c3.4,5.6,5.7,9.3,5.7,9.3s2.4-3.6,5.7-9.3c4.1-6.8,9.7-16.4,14.5-26
				C60,71.3,42.1,59.5,26.6,47.1c-0.4-0.3-0.7-0.5-1.1-0.7c0.6,1.9,1.3,3.9,2.2,6.1C32.9,65.5,42.2,81.7,48.3,91.7z"/>
		</g>
	</g>
</g>
<g id="Y_1_">
	<path fill="#FFFFFF" d="M61.6,18.6l-9,25l-4.3-13.4h-6.6L49,48.8c0.6,1.6,0.6,3.3,0,4.9c-0.7,1.7-1.8,3.6-4.9,4.2l-0.5,0.1v5.6
		l0.6,0c2.9-0.1,5.2-1.1,7.1-3c1.9-2,3.6-5,5.2-9.5l12.1-32.3H61.6z"/>
</g>
<g id="BG">
</g>
</svg>
