<?xml version="1.0" encoding="utf-8"?>
<!-- Generator: Adobe Illustrator 18.1.1, SVG Export Plug-In . SVG Version: 6.00 Build 0)  -->
<!DOCTYPE svg PUBLIC "-//W3C//DTD SVG 1.1//EN" "http://www.w3.org/Graphics/SVG/1.1/DTD/svg11.dtd" [
	<!ENTITY ns_flows "http://ns.adobe.com/Flows/1.0/">
	<!ENTITY ns_extend "http://ns.adobe.com/Extensibility/1.0/">
	<!ENTITY ns_ai "http://ns.adobe.com/AdobeIllustrator/10.0/">
	<!ENTITY ns_graphs "http://ns.adobe.com/Graphs/1.0/">
]>
<svg version="1.1" xmlns:x="&ns_extend;" xmlns:i="&ns_ai;" xmlns:graph="&ns_graphs;"
	 xmlns="http://www.w3.org/2000/svg" xmlns:xlink="http://www.w3.org/1999/xlink" xmlns:a="http://ns.adobe.com/AdobeSVGViewerExtensions/3.0/"
	 x="0px" y="0px" viewBox="0 0 108 108" enable-background="new 0 0 108 108" xml:space="preserve">
<g id="BG">
	<g>
		<g>
			<path fill="#FFE083" d="M108,108H22C9.9,108,0,98.1,0,86V22C0,9.9,9.9,0,22,0h64c12.1,0,22,9.9,22,22V108z"/>
		</g>
	</g>
</g>
<g id="BG_dark_1_">
	<g>
		<g>
			<path fill="#F6BA57" d="M108,108H58.9V0H86c12.1,0,22,9.9,22,22V108z"/>
		</g>
	</g>
</g>
<g id="Y">
	<path fill="#EB7D29" d="M58.9,3.4c-10.2,0-18.4,8.2-18.4,18.4c0,0.3,0,0.6,0,0.9c0.7,7.7,9.7,23.7,14.9,32.2
		c2.1,3.4,3.5,5.6,3.5,5.6s1.4-2.2,3.5-5.6c4.6-7.7,12.4-21.3,14.4-29.6c0.3-1.3,0.5-2.4,0.5-3.4C77.4,11.6,69.1,3.4,58.9,3.4z"/>
	<path fill="#FFFFFF" d="M64.2,13.5l-5.5,15.2l-2.6-8.2h-4l4.4,11.3c0.4,1,0.4,2,0,3c-0.4,1.1-1.1,2.2-3,2.5l-0.3,0.1v3.4l0.4,0
		c1.8-0.1,3.2-0.7,4.3-1.8c1.2-1.2,2.2-3,3.2-5.8l7.3-19.7H64.2z"/>
</g>
<g id="cart">
	<g id="Wagentje_1_">
		<g>
			<path fill="#6A7F44" d="M74.3,89.2c-3.5,0-6.4,2.9-6.4,6.4c0,3.5,2.9,6.4,6.4,6.4c3.5,0,6.4-2.9,6.4-6.4
				C80.7,92.1,77.8,89.2,74.3,89.2z"/>
			<path fill="#6A7F44" d="M41.8,89.2c-3.5,0-6.4,2.9-6.4,6.4c0,3.5,2.9,6.4,6.4,6.4c3.5,0,6.4-2.9,6.4-6.4
				C48.2,92.1,45.3,89.2,41.8,89.2z"/>
		</g>
		<polygon fill="#6A7F44" points="103,34.2 93,34.2 83.3,60.8 35.8,60.8 22.6,21.6 5,21.6 5,29.7 15.3,29.7 34.4,85.5 79.9,85.5 
			79.9,78.1 41.7,78.1 39.1,70.5 89.9,70.5 		"/>
	</g>
</g>
<g id="BG_dark">
</g>
</svg>
