<?xml version="1.0" encoding="utf-8"?>
<!-- Generator: Adobe Illustrator 18.1.1, SVG Export Plug-In . SVG Version: 6.00 Build 0)  -->
<!DOCTYPE svg PUBLIC "-//W3C//DTD SVG 1.1//EN" "http://www.w3.org/Graphics/SVG/1.1/DTD/svg11.dtd" [
	<!ENTITY ns_flows "http://ns.adobe.com/Flows/1.0/">
	<!ENTITY ns_extend "http://ns.adobe.com/Extensibility/1.0/">
	<!ENTITY ns_ai "http://ns.adobe.com/AdobeIllustrator/10.0/">
	<!ENTITY ns_graphs "http://ns.adobe.com/Graphs/1.0/">
]>
<svg version="1.1" xmlns:x="&ns_extend;" xmlns:i="&ns_ai;" xmlns:graph="&ns_graphs;"
	 xmlns="http://www.w3.org/2000/svg" xmlns:xlink="http://www.w3.org/1999/xlink" xmlns:a="http://ns.adobe.com/AdobeSVGViewerExtensions/3.0/"
	 x="0px" y="0px" viewBox="0 0 108 108" enable-background="new 0 0 108 108" xml:space="preserve">
<g id="BG">
	<g>
		<g>
			<path fill="#835069" d="M108,108H22C9.9,108,0,98.1,0,86V22C0,9.9,9.9,0,22,0h64c12.1,0,22,9.9,22,22V108z"/>
		</g>
	</g>
</g>
<g id="Layer_4">
	<polygon fill="#5B2942" points="88.1,7 96.7,98.9 74,98.9 	"/>
</g>
<g id="Yoast">
	<g>
		<polygon fill="#D1D0BD" points="21.1,25.2 19.3,37.9 20.8,49.6 19.6,61.4 21.4,75.3 19.6,93.4 26.2,99.2 32.6,97.4 43.8,99.5 
			50.1,100.7 62.8,99.5 75.2,101 88.1,98.9 88.1,7 19.8,7 19.6,15.5 		"/>
		<rect x="27.1" y="54.3" fill="#7172A3" width="20.2" height="3.6"/>
		<g>
			<rect x="66" y="60.6" fill="#9595BA" width="16.3" height="3.6"/>
			<rect x="27.1" y="60.6" fill="#9595BA" width="33.2" height="3.6"/>
		</g>
		<g>
			<rect x="27.1" y="66.4" fill="#9595BA" width="11.7" height="3.6"/>
			<rect x="44.5" y="66.4" fill="#9595BA" width="37.8" height="3.6"/>
		</g>
		<g>
			<rect x="27.1" y="72.2" fill="#9595BA" width="26.6" height="3.6"/>
			<rect x="59.4" y="72.2" fill="#9595BA" width="22.9" height="3.6"/>
		</g>
		<g>
			<rect x="44.6" y="78.1" fill="#9595BA" width="21.7" height="3.6"/>
			<rect x="27.1" y="78.1" fill="#9595BA" width="11.8" height="3.6"/>
			<rect x="72" y="78.1" fill="#9595BA" width="10.3" height="3.6"/>
		</g>
		<g>
			<rect x="53.9" y="83.9" fill="#9595BA" width="28.4" height="3.6"/>
			<rect x="27.1" y="83.9" fill="#9595BA" width="21.2" height="3.6"/>
		</g>
		<g>
			<rect x="27.1" y="89.8" fill="#9595BA" width="49.9" height="3.6"/>
		</g>
	</g>
</g>
<g id="news_bg_light">
	<rect x="27.1" y="14.1" fill="#9595BA" width="55.2" height="33.9"/>
	<path fill="#7172A3" d="M82.3,48H64l-2.8,2l-13.1,0.2L45.8,48H27.1c34.3-8.7,24.4-27.2,55.2-33.9V48z"/>
</g>
<g id="traffic_light_kopie">
	<g>
		<circle fill="#494A7B" cx="54.7" cy="33.7" r="4"/>
		<path fill="#7172A3" d="M56.3,30c-0.5-0.2-1-0.3-1.6-0.3c-2.2,0-4,1.8-4,4c0,0.7,0.2,1.3,0.5,1.9C53.1,33.8,54.7,31.9,56.3,30z"/>
		<circle fill="#7172A3" cx="54.7" cy="24.6" r="4"/>
		<circle fill="#494A7B" cx="54.7" cy="42.7" r="4"/>
	</g>
</g>
<g id="traffic_light_border">
	<g>
		<path fill="none" d="M49.8,48.8h9.8c0.9,0,1.7-0.3,2.3-0.8H47.5C48.2,48.5,49,48.8,49.8,48.8z"/>
		<path fill="none" d="M62.4,19.8c-0.7-0.7-1.7-1.1-2.7-1.1h-9.8c-1,0-2,0.4-2.7,1.1c-0.7,0.7-1.1,1.7-1.1,2.7V40
			c7.9-5.6,11.1-12,17.5-17.4v0C63.5,21.5,63.1,20.5,62.4,19.8z"/>
		<path fill="#7172A3" d="M46,22.5c0-1,0.4-2,1.1-2.7c0.7-0.7,1.7-1.1,2.7-1.1h9.8c1,0,2,0.4,2.7,1.1c0.7,0.7,1.1,1.7,1.1,2.7v0
			c0.6-0.5,1.3-1,2-1.5c-0.7-2.6-3-4.5-5.8-4.5h-9.9c-3.3,0-6,2.7-6,6v18.9c0.8-0.5,1.5-0.9,2.2-1.4V22.5z"/>
		<path fill="#494A7B" d="M65.5,21c-0.7,0.5-1.4,1-2,1.5v22.4c0,1.3-0.6,2.4-1.5,3.1c-0.7,0.5-1.5,0.8-2.3,0.8h-9.8
			c-0.9,0-1.7-0.3-2.3-0.8c-0.9-0.7-1.5-1.8-1.5-3.1v-5c-0.7,0.5-1.4,1-2.2,1.4v3.5c0,1.1,0.3,2.2,0.9,3.1c1.1,1.7,3,2.9,5.1,2.9
			h9.9c2.2,0,4.1-1.2,5.1-2.9c0.6-0.9,0.9-2,0.9-3.1V22.5C65.7,22,65.6,21.5,65.5,21z"/>
	</g>
</g>
</svg>
