<?xml version="1.0" encoding="utf-8"?>
<!-- Generator: Adobe Illustrator 18.1.1, SVG Export Plug-In . SVG Version: 6.00 Build 0)  -->
<!DOCTYPE svg PUBLIC "-//W3C//DTD SVG 1.1//EN" "http://www.w3.org/Graphics/SVG/1.1/DTD/svg11.dtd" [
	<!ENTITY ns_flows "http://ns.adobe.com/Flows/1.0/">
	<!ENTITY ns_extend "http://ns.adobe.com/Extensibility/1.0/">
	<!ENTITY ns_ai "http://ns.adobe.com/AdobeIllustrator/10.0/">
	<!ENTITY ns_graphs "http://ns.adobe.com/Graphs/1.0/">
]>
<svg version="1.1" xmlns:x="&ns_extend;" xmlns:i="&ns_ai;" xmlns:graph="&ns_graphs;"
	 xmlns="http://www.w3.org/2000/svg" xmlns:xlink="http://www.w3.org/1999/xlink" xmlns:a="http://ns.adobe.com/AdobeSVGViewerExtensions/3.0/"
	 x="0px" y="0px" viewBox="0 0 108 108" enable-background="new 0 0 108 108" xml:space="preserve">
<g id="BG" display="none">
	<path display="inline" fill="#442B3B" d="M500,450H60c-33.1,0-60-26.9-60-60V60C0,26.9,26.9,0,60,0h380c33.1,0,60,26.9,60,60V450z"
		/>
</g>
<g id="BG_kopie_5" display="none">
	<g display="inline">
		<path fill="#BE8A5D" d="M440,0h-38.8L0,188.9V390c0,33.1,26.9,60,60,60h1.1L500,243.4V60C500,26.9,473.1,0,440,0z"/>
	</g>
</g>
<g id="BG_kopie" display="none">
	<path display="inline" fill="#442B3B" d="M120,108H14.4C6.4,108,0,101.6,0,93.6V14.4C0,6.4,6.4,0,14.4,0h91.2
		c8,0,14.4,6.4,14.4,14.4V108z"/>
</g>
<g id="Laag_14_kopie">
</g>
<g id="BG_kopie_8" display="none">
	<g display="inline">
		<path fill="#BE8A5D" d="M105.6,0h-9.3L0,45.3v48.3c0,8,6.4,14.4,14.4,14.4h0.3L120,58.4v-44C120,6.4,113.6,0,105.6,0z"/>
	</g>
</g>
<g id="BG_kopie_6">
	<g id="filmrol_kopie">
		<g>
			<path fill="#5B2942" d="M79.7,0H22.1C10,0,0,10,0,22.1v23.2L79.7,2.2V0z"/>
			<path fill="#C88A57" d="M96.5,2.7V7c0,0.8-0.6,1.4-1.4,1.4H95H81.1c-0.8,0-1.4-0.6-1.4-1.4V2.2L0,45.3v40.5
				c0,10.2,7,18.8,16.3,21.4L108,58.4V22.1C108,13.8,103.3,6.5,96.5,2.7z M96.5,60c0,0.8-0.6,1.4-1.4,1.4H95H81.1
				c-0.8,0-1.4-0.6-1.4-1.4V48.1V48c0-0.8,0.6-1.4,1.4-1.4H95c0.8,0,1.4,0.6,1.4,1.4V60z M96.5,33.5c0,0.8-0.6,1.4-1.4,1.4H95H81.1
				c-0.8,0-1.4-0.6-1.4-1.4V21.6v-0.1c0-0.8,0.6-1.4,1.4-1.4H95c0.8,0,1.4,0.6,1.4,1.4V33.5z"/>
			<path fill="#5B2942" d="M95,8.4c0.8,0,1.4-0.6,1.4-1.4V2.7C96,2.5,95.5,2.2,95,2L95,8.4L95,8.4z"/>
			<path fill="#5B2942" d="M95,20H81.1c-0.8,0-1.4,0.6-1.4,1.4v0.1h13.8c0.8,0,1.4,0.6,1.4,1.4v11.9H95c0.8,0,1.4-0.6,1.4-1.4v-12
				C96.5,20.7,95.8,20,95,20z"/>
			<path fill="#5B2942" d="M95,46.6H81.1c-0.8,0-1.4,0.6-1.4,1.4v0.1h13.8c0.8,0,1.4,0.6,1.4,1.4v11.9H95c0.8,0,1.4-0.6,1.4-1.4V48
				C96.5,47.2,95.8,46.6,95,46.6z"/>
			<path fill="#5B2942" d="M22.1,108h57.5v-6.9h13.8c0.8,0,1.4,0.6,1.4,1.4v5.4h1.5H108V58.4l-91.7,48.8
				C18.2,107.7,20.1,108,22.1,108z M79.7,74.6h13.8c0.8,0,1.4,0.6,1.4,1.4V88H81.1c-0.8,0-1.4-0.6-1.4-1.4V74.6z"/>
		</g>
	</g>
</g>
<g id="BG_kopie_3" display="none">
	<g display="inline">
		<path fill="#F7E2CA" d="M3.6,59.4V90c0,8,6.4,14.4,14.4,14.4h61.2v-45H3.6z"/>
		<path fill="#F7E2CA" d="M18,3.6C10,3.6,3.6,10,3.6,18v30.6h75.6v-45H18z"/>
	</g>
</g>
<g id="BG_kopie_7" display="none">
	<g id="filmrol_kopie_2" display="inline">
		<g>
			<path fill="#5B2942" d="M91.7,0H14.4C6.4,0,0,6.4,0,14.4v30.9L91.7,2.2V0z"/>
			<path fill="#C88A57" d="M108.5,0.3V7c0,0.8-0.6,1.4-1.4,1.4H107H93.1c-0.8,0-1.4-0.6-1.4-1.4V2.2L0,45.3v48.3
				c0,8,6.4,14.4,14.4,14.4h0.3L120,58.4v-44C120,7.4,115.1,1.6,108.5,0.3z M108.5,60c0,0.8-0.6,1.4-1.4,1.4H107H93.1
				c-0.8,0-1.4-0.6-1.4-1.4V48.1V48c0-0.8,0.6-1.4,1.4-1.4H107c0.8,0,1.4,0.6,1.4,1.4V60z M108.5,33.5c0,0.8-0.6,1.4-1.4,1.4H107
				H93.1c-0.8,0-1.4-0.6-1.4-1.4V21.6v-0.1c0-0.8,0.6-1.4,1.4-1.4H107c0.8,0,1.4,0.6,1.4,1.4V33.5z"/>
			<path fill="#5B2942" d="M107,8.4L107,8.4c0.9,0,1.5-0.6,1.5-1.4V0.3c-0.5-0.1-1-0.2-1.5-0.2V8.4z"/>
			<path fill="#5B2942" d="M107,20H93.1c-0.8,0-1.4,0.6-1.4,1.4v0.1h13.8c0.8,0,1.4,0.6,1.4,1.4v11.9h0.1c0.8,0,1.4-0.6,1.4-1.4v-12
				C108.5,20.7,107.8,20,107,20z"/>
			<path fill="#5B2942" d="M107,46.6H93.1c-0.8,0-1.4,0.6-1.4,1.4v0.1h13.8c0.8,0,1.4,0.6,1.4,1.4v11.9h0.1c0.8,0,1.4-0.6,1.4-1.4
				V48C108.5,47.2,107.8,46.6,107,46.6z"/>
			<path fill="#5B2942" d="M14.7,108h77v-6.9h13.8c0.8,0,1.4,0.6,1.4,1.4v5.4h1.5H120V58.4L14.7,108z M91.7,74.6h13.8
				c0.8,0,1.4,0.6,1.4,1.4V88H93.1c-0.8,0-1.4-0.6-1.4-1.4V74.6z"/>
		</g>
	</g>
</g>
<g id="BG_kopie_4">
</g>
<g id="Laag_14_kopie_2">
</g>
<g id="Laag_14">
</g>
<g id="BG_kopie_9">
	<g>
		<path fill="#F7E2CA" d="M3.6,59.4v22.9c0,12.2,10,22.1,22.1,22.1h44.5v-45H3.6z"/>
		<g>
			<path fill="#F7E2CA" d="M25.7,3.6c-12.2,0-22.1,10-22.1,22.1v22.9h66.6v-45H25.7z"/>
		</g>
	</g>
</g>
<g id="Y_1_">
	<path display="none" fill="#54385A" d="M218.2,257.5l-53.6,148.8l-25.5-80H100L143.1,437c3.6,9.3,3.6,19.6,0,28.9
		c-4,10.3-10.7,21.4-29.2,24.8l-3,0.6v33.4l3.9-0.2c17.4-0.7,30.9-6.4,42.4-18.1c11.6-11.6,21.4-29.6,31-56.4L260,257.5H218.2z"/>
	<path display="none" fill="#54385A" d="M218.2-84.7L164.7,64.1l-25.5-80H100l43.1,110.8c3.6,9.3,3.6,19.6,0,28.9
		c-4,10.3-10.7,21.4-29.2,24.8l-3,0.6v33.4l3.9-0.2c17.4-0.7,30.9-6.4,42.4-18.1c11.6-11.6,21.4-29.6,31-56.4L260-84.7H218.2z"/>
	<g>
		<polygon fill="#77B227" points="46.4,61.8 33.5,97.5 27.4,78.3 18,78.3 28.2,104.4 40.5,104.4 56.4,61.8 		"/>
	</g>
	<g>
		<path fill="#77B227" d="M35.5,29.7c-1,2.5-2.6,5.1-7,6l-0.7,0.1v8l0.9,0c4.2-0.2,7.4-1.5,10.2-4.3c2.8-2.8,5.1-7.1,7.4-13.5
			l8.3-22.3H45l-4.2,11.8L37,3.6h-8.9l7.5,19.2C36.4,25,36.4,27.5,35.5,29.7z"/>
	</g>
</g>
<g id="filmrol" display="none">
	<path display="inline" fill="#442B3B" d="M446,35h-58c-3.3,0-6-2.7-6-6v-50c0-3.3,2.7-6,6-6h58c3.3,0,6,2.7,6,6v50
		C452,32.3,449.3,35,446,35z"/>
	<path display="inline" fill="#FFFFFF" d="M445.6,35H388c-3.3,0-6-2.7-6-6v-49.7h57.6c3.3,0,6,2.7,6,6V35z"/>
	<path display="inline" fill="#442B3B" d="M446,145.5h-58c-3.3,0-6-2.7-6-6v-50c0-3.3,2.7-6,6-6h58c3.3,0,6,2.7,6,6v50
		C452,142.8,449.3,145.5,446,145.5z"/>
	<path display="inline" fill="#FFFFFF" d="M445.6,145.5H388c-3.3,0-6-2.7-6-6V89.8h57.6c3.3,0,6,2.7,6,6V145.5z"/>
	<path display="inline" fill="#442B3B" d="M446,256h-58c-3.3,0-6-2.7-6-6v-50c0-3.3,2.7-6,6-6h58c3.3,0,6,2.7,6,6v50
		C452,253.3,449.3,256,446,256z"/>
	<path display="inline" fill="#FFFFFF" d="M445.6,256H388c-3.3,0-6-2.7-6-6v-49.7h57.6c3.3,0,6,2.7,6,6V256z"/>
	<path display="inline" fill="#442B3B" d="M446,366.5h-58c-3.3,0-6-2.7-6-6v-50c0-3.3,2.7-6,6-6h58c3.3,0,6,2.7,6,6v50
		C452,363.8,449.3,366.5,446,366.5z"/>
	<path display="inline" fill="#FFFFFF" d="M445.6,366.5H388c-3.3,0-6-2.7-6-6v-49.7h57.6c3.3,0,6,2.7,6,6V366.5z"/>
	<path display="inline" fill="#442B3B" d="M446,477h-58c-3.3,0-6-2.7-6-6v-50c0-3.3,2.7-6,6-6h58c3.3,0,6,2.7,6,6v50
		C452,474.3,449.3,477,446,477z"/>
	<path display="inline" fill="#FFFFFF" d="M445.6,477H388c-3.3,0-6-2.7-6-6v-49.7h57.6c3.3,0,6,2.7,6,6V477z"/>
</g>
<g id="BG_light">
</g>
</svg>
