<?xml version="1.0" encoding="utf-8"?>
<!-- Generator: Adobe Illustrator 18.1.1, SVG Export Plug-In . SVG Version: 6.00 Build 0)  -->
<!DOCTYPE svg PUBLIC "-//W3C//DTD SVG 1.1//EN" "http://www.w3.org/Graphics/SVG/1.1/DTD/svg11.dtd" [
	<!ENTITY ns_flows "http://ns.adobe.com/Flows/1.0/">
	<!ENTITY ns_extend "http://ns.adobe.com/Extensibility/1.0/">
	<!ENTITY ns_ai "http://ns.adobe.com/AdobeIllustrator/10.0/">
	<!ENTITY ns_graphs "http://ns.adobe.com/Graphs/1.0/">
]>
<svg version="1.1" xmlns:x="&ns_extend;" xmlns:i="&ns_ai;" xmlns:graph="&ns_graphs;"
	 xmlns="http://www.w3.org/2000/svg" xmlns:xlink="http://www.w3.org/1999/xlink" xmlns:a="http://ns.adobe.com/AdobeSVGViewerExtensions/3.0/"
	 x="0px" y="0px" viewBox="0 0 108 108" enable-background="new 0 0 108 108" xml:space="preserve">
<g id="BG_light">
	<g>
		<g>
			<path fill="#B5DCF3" d="M108,108H22C9.9,108,0,98.1,0,86V22C0,9.9,9.9,0,22,0h64c12.1,0,22,9.9,22,22V108z"/>
		</g>
	</g>
</g>
<g id="BG_dark">
	<g>
		<path fill="#97BED1" d="M85.9,0H53.2v108H108V22.1C108,10,98,0,85.9,0z"/>
	</g>
</g>
<g id="BG_1_">
</g>
<g id="bullets">
	<g>
		<circle fill="#F49A00" cx="74.4" cy="48.9" r="15.6"/>
		<circle fill="#ED261F" cx="44.2" cy="48.3" r="15.6"/>
	</g>
	<g>
		<path fill="#FEC228" d="M66.6,62.4c-7.5-4.3-10-13.8-5.7-21.3s13.8-10,21.3-5.7"/>
		<path fill="#FF4E47" d="M36.4,61.9c-7.5-4.3-10-13.8-5.7-21.3s13.8-10,21.3-5.7L36.4,61.9z"/>
		<circle fill="#77B227" cx="59.9" cy="26.8" r="18"/>
		<path fill="#9FDA4F" d="M50.9,42.4c-8.6-5-11.6-16-6.6-24.6s16-11.6,24.6-6.6"/>
	</g>
</g>
<g id="cart">
	<g>
		<g>
			<path fill="#5B2942" d="M74.3,88.2c-3.5,0-6.4,2.9-6.4,6.4c0,3.5,2.9,6.4,6.4,6.4c3.5,0,6.4-2.9,6.4-6.4
				C80.7,91.1,77.8,88.2,74.3,88.2z"/>
			<path fill="#5B2942" d="M41.8,88.2c-3.5,0-6.4,2.9-6.4,6.4c0,3.5,2.9,6.4,6.4,6.4c3.5,0,6.4-2.9,6.4-6.4
				C48.2,91.1,45.3,88.2,41.8,88.2z"/>
		</g>
		<polygon fill="#5B2942" points="103,33.7 93,33.7 83.3,60.2 35.8,60.2 22.6,21.1 5,21.1 5,29.1 15.3,29.1 34.4,85 79.9,85 
			79.9,77.6 41.7,77.6 39.1,69.9 89.9,69.9 		"/>
	</g>
</g>
</svg>
