<?xml version="1.0" encoding="UTF-8" ?>
<!DOCTYPE svg PUBLIC "-//W3C//DTD SVG 1.1//EN" "http://www.w3.org/Graphics/SVG/1.1/DTD/svg11.dtd">
<svg width="1331pt" height="438pt" viewBox="0 0 1331 438" version="1.1" xmlns="http://www.w3.org/2000/svg">
<g id="#f17523ff">
<path fill="#f17523" opacity="1.00" d=" M 545.87 24.91 C 557.60 13.26 571.88 2.27 588.97 1.07 C 597.87 -0.49 607.03 0.85 615.54 3.63 C 621.89 5.66 626.68 10.52 631.05 15.32 C 636.95 12.52 643.60 12.07 650.04 12.13 C 655.97 11.90 662.07 13.62 666.89 17.09 C 674.05 24.05 679.85 32.75 682.25 42.52 C 683.51 49.26 684.17 56.48 681.86 63.08 C 683.32 67.21 690.02 67.94 688.87 73.04 C 687.62 77.24 684.24 80.49 681.16 83.48 C 680.89 83.72 680.35 84.20 680.08 84.44 C 675.60 85.58 671.93 88.34 669.66 92.36 C 669.09 88.96 664.98 89.06 662.66 87.33 C 652.08 80.58 643.66 70.48 639.02 58.80 C 636.78 52.72 634.12 46.52 634.64 39.89 C 629.36 41.06 624.02 43.18 620.36 47.32 C 615.09 52.43 612.48 59.41 608.29 65.31 C 605.20 69.44 605.06 74.96 601.99 79.09 C 600.01 82.10 596.68 83.69 593.87 85.77 C 596.31 86.31 599.00 86.43 601.08 87.97 C 603.05 89.64 602.27 93.10 599.96 94.03 C 595.97 94.54 591.86 93.57 587.92 94.57 C 582.92 96.16 579.08 99.92 575.51 103.58 C 573.90 105.41 570.89 103.19 571.19 101.07 C 570.85 98.58 572.88 96.80 574.13 94.91 C 569.35 96.50 564.35 97.05 559.41 97.73 C 556.74 99.93 554.42 102.62 552.29 105.35 C 549.57 102.97 546.88 99.65 542.84 100.20 C 544.97 103.21 547.90 105.49 550.76 107.76 C 551.20 117.30 553.90 126.51 556.55 135.62 C 557.64 139.63 561.01 142.36 564.22 144.71 C 570.49 148.64 577.49 151.33 583.68 155.37 C 586.90 160.73 589.61 166.44 591.59 172.39 C 592.58 174.82 593.37 177.78 596.02 178.91 C 604.23 183.51 613.38 185.99 622.06 189.54 C 629.06 185.88 635.68 181.54 642.47 177.52 C 643.56 176.70 645.13 176.13 645.51 174.68 C 647.38 167.87 648.59 160.90 650.37 154.08 C 651.68 149.40 655.61 146.21 658.70 142.69 C 662.71 138.00 668.55 134.80 671.09 128.93 C 671.54 118.57 671.61 108.14 669.99 97.86 C 672.28 94.97 674.43 91.97 676.71 89.08 C 676.80 94.57 677.66 99.99 678.45 105.41 C 678.91 111.89 679.07 118.40 679.71 124.86 C 679.83 126.18 680.14 127.51 680.92 128.60 C 685.05 133.99 693.45 135.30 699.17 131.72 C 697.40 137.54 692.21 141.21 688.15 145.36 C 688.02 146.52 688.57 147.61 688.85 148.72 C 690.79 153.24 690.91 158.90 686.79 162.26 C 688.46 165.89 689.78 169.91 688.81 173.94 C 688.44 176.53 686.09 177.99 684.20 179.46 C 684.51 183.14 686.04 187.00 684.52 190.60 C 682.55 193.86 678.74 195.20 675.36 196.49 C 674.63 199.43 674.00 202.61 671.75 204.82 C 669.92 206.91 666.93 206.86 664.44 207.46 C 662.44 211.44 659.95 215.70 655.66 217.51 C 651.90 218.48 648.14 216.91 644.44 216.32 C 641.74 219.15 638.95 222.31 634.93 223.15 C 630.70 224.56 626.59 222.09 622.93 220.24 C 620.03 222.39 616.87 224.84 613.02 224.37 C 608.87 224.63 605.99 221.48 603.23 218.93 C 599.48 220.84 595.15 222.47 590.94 221.05 C 587.03 220.10 585.00 216.35 582.79 213.35 C 577.79 213.30 572.21 213.30 568.23 209.80 C 565.23 207.46 564.05 203.74 562.86 200.30 C 559.47 199.76 555.53 199.65 553.08 196.88 C 550.69 194.04 548.99 190.59 548.07 186.99 C 547.07 182.91 549.20 179.03 549.89 175.09 C 548.21 173.17 545.59 172.32 543.55 170.81 C 538.00 168.02 537.27 160.90 539.26 155.64 C 536.49 153.68 534.24 151.13 531.79 148.82 C 537.92 148.78 544.28 145.45 546.00 139.22 C 547.50 135.31 547.42 131.05 547.06 126.94 C 546.30 118.92 544.39 111.07 542.75 103.20 C 541.93 99.53 537.40 99.64 534.88 97.65 C 530.87 94.74 526.75 90.36 527.62 85.00 C 529.61 81.67 533.11 79.22 533.76 75.16 C 528.82 67.59 530.43 58.23 532.12 49.92 C 534.67 40.69 538.90 31.64 545.87 24.91 M 586.19 59.17 C 581.49 64.09 578.42 70.21 575.07 76.06 C 579.09 74.46 582.07 71.09 585.09 68.11 C 591.56 61.09 598.85 53.82 601.03 44.20 C 595.27 48.36 590.86 53.89 586.19 59.17 M 592.81 73.89 C 590.99 76.76 588.59 79.18 586.75 82.03 C 593.75 78.23 599.24 70.93 599.80 62.88 C 596.95 66.21 595.43 70.40 592.81 73.89 Z" />
<path fill="#f17523" opacity="1.00" d=" M 625.41 87.47 C 633.02 83.02 643.24 81.94 650.76 87.23 C 653.40 88.27 654.53 92.27 651.83 93.91 C 649.36 95.86 646.98 93.16 644.62 92.50 C 637.78 90.68 630.84 93.46 624.96 96.81 C 623.45 96.00 621.34 95.01 621.43 92.98 C 621.05 90.33 623.61 88.84 625.41 87.47 Z" />
</g>
<g id="#fccda3ff">
<path fill="#fccda3" opacity="1.00" d=" M 620.36 47.32 C 624.02 43.18 629.36 41.06 634.64 39.89 C 634.12 46.52 636.78 52.72 639.02 58.80 C 643.66 70.48 652.08 80.58 662.66 87.33 C 664.98 89.06 669.09 88.96 669.66 92.36 C 665.97 97.45 661.95 102.31 658.40 107.50 C 655.04 108.64 651.66 109.74 648.17 110.43 C 645.69 102.10 634.37 99.77 627.87 104.78 C 626.16 106.32 625.05 108.38 624.01 110.40 C 621.49 108.10 618.69 105.34 614.97 105.68 C 609.67 106.05 605.48 110.00 602.48 114.07 C 601.07 109.01 596.41 104.99 591.06 105.06 C 584.17 104.29 577.99 110.00 576.82 116.57 C 573.56 116.71 570.27 117.13 567.02 116.76 C 561.69 113.56 556.96 109.42 552.29 105.35 C 554.42 102.62 556.74 99.93 559.41 97.73 C 564.35 97.05 569.35 96.50 574.13 94.91 C 572.88 96.80 570.85 98.58 571.19 101.07 C 570.89 103.19 573.90 105.41 575.51 103.58 C 579.08 99.92 582.92 96.16 587.92 94.57 C 591.86 93.57 595.97 94.54 599.96 94.03 C 602.27 93.10 603.05 89.64 601.08 87.97 C 599.00 86.43 596.31 86.31 593.87 85.77 C 596.68 83.69 600.01 82.10 601.99 79.09 C 605.06 74.96 605.20 69.44 608.29 65.31 C 612.48 59.41 615.09 52.43 620.36 47.32 M 625.41 87.47 C 623.61 88.84 621.05 90.33 621.43 92.98 C 621.34 95.01 623.45 96.00 624.96 96.81 C 630.84 93.46 637.78 90.68 644.62 92.50 C 646.98 93.16 649.36 95.86 651.83 93.91 C 654.53 92.27 653.40 88.27 650.76 87.23 C 643.24 81.94 633.02 83.02 625.41 87.47 Z" />
<path fill="#fccda3" opacity="1.00" d=" M 586.19 59.17 C 590.86 53.89 595.27 48.36 601.03 44.20 C 598.85 53.82 591.56 61.09 585.09 68.11 C 582.07 71.09 579.09 74.46 575.07 76.06 C 578.42 70.21 581.49 64.09 586.19 59.17 Z" />
<path fill="#fccda3" opacity="1.00" d=" M 592.81 73.89 C 595.43 70.40 596.95 66.21 599.80 62.88 C 599.24 70.93 593.75 78.23 586.75 82.03 C 588.59 79.18 590.99 76.76 592.81 73.89 Z" />
<path fill="#fccda3" opacity="1.00" d=" M 680.08 84.44 C 680.35 84.20 680.89 83.72 681.16 83.48 C 684.13 82.54 687.07 85.11 688.40 87.62 C 693.10 95.07 694.40 104.33 692.59 112.88 C 690.75 119.09 687.92 126.16 681.07 128.13 L 680.92 128.60 C 680.14 127.51 679.83 126.18 679.71 124.86 C 679.07 118.40 678.91 111.89 678.45 105.41 C 677.66 99.99 676.80 94.57 676.71 89.08 C 677.91 87.59 679.01 86.03 680.08 84.44 Z" />
<path fill="#fccda3" opacity="1.00" d=" M 531.21 99.23 C 532.17 98.30 533.34 96.36 534.88 97.65 C 537.40 99.64 541.93 99.53 542.75 103.20 C 544.39 111.07 546.30 118.92 547.06 126.94 C 547.42 131.05 547.50 135.31 546.00 139.22 C 543.36 138.79 540.61 138.25 538.56 136.42 C 530.60 129.88 526.88 119.18 527.73 109.05 C 528.16 105.63 528.67 101.80 531.21 99.23 Z" />
<path fill="#fccda3" opacity="1.00" d=" M 662.22 108.23 C 664.65 104.65 667.36 101.28 669.99 97.86 C 671.61 108.14 671.54 118.57 671.09 128.93 C 668.55 134.80 662.71 138.00 658.70 142.69 C 655.61 146.21 651.68 149.40 650.37 154.08 C 648.59 160.90 647.38 167.87 645.51 174.68 C 645.13 176.13 643.56 176.70 642.47 177.52 C 635.68 181.54 629.06 185.88 622.06 189.54 C 613.38 185.99 604.23 183.51 596.02 178.91 C 593.37 177.78 592.58 174.82 591.59 172.39 C 589.61 166.44 586.90 160.73 583.68 155.37 C 577.49 151.33 570.49 148.64 564.22 144.71 C 561.01 142.36 557.64 139.63 556.55 135.62 C 553.90 126.51 551.20 117.30 550.76 107.76 C 556.31 111.66 560.60 117.39 566.89 120.18 C 570.22 120.37 573.55 120.08 576.88 120.04 C 577.12 125.61 580.32 131.25 585.67 133.31 C 589.36 134.57 594.03 135.01 597.16 132.20 C 601.27 129.04 602.76 123.74 603.24 118.79 C 606.37 115.16 609.08 110.43 614.12 109.29 C 618.28 108.49 620.89 112.49 623.25 115.20 C 622.95 119.45 624.45 123.65 627.12 126.93 C 632.13 133.40 644.19 131.76 647.09 124.04 C 648.58 120.96 648.26 117.46 648.30 114.14 C 652.16 113.17 656.02 112.14 659.76 110.74 C 660.93 110.36 661.46 109.11 662.22 108.23 M 615.99 146.23 C 611.18 146.89 606.73 142.93 601.90 144.03 C 605.46 147.49 610.18 150.09 615.00 151.16 C 620.59 149.59 625.49 145.85 628.99 141.28 C 624.23 141.42 620.25 144.46 615.99 146.23 M 640.02 148.75 C 628.07 152.68 616.48 157.91 604.08 160.30 C 605.28 161.73 607.16 161.99 608.94 161.68 C 618.70 160.30 627.79 156.32 637.04 153.13 C 640.03 151.92 643.20 150.61 645.27 148.01 C 643.49 148.07 641.70 148.16 640.02 148.75 Z" />
<path fill="#fccda3" opacity="1.00" d=" M 717.73 278.61 C 722.76 277.42 728.38 276.43 733.21 278.87 C 737.63 281.32 742.32 283.43 746.17 286.77 C 750.84 290.87 754.41 296.03 757.70 301.27 C 760.48 305.96 761.50 311.41 761.80 316.79 C 762.34 319.55 762.33 322.38 761.95 325.17 C 761.06 331.81 761.31 339.00 757.97 345.01 C 754.11 349.29 748.69 351.68 744.16 355.15 C 739.33 358.71 732.82 357.73 727.80 355.11 C 723.38 359.64 715.06 362.16 710.02 357.28 C 706.32 357.81 702.77 359.77 698.96 358.98 C 695.92 358.83 693.50 356.63 691.63 354.43 C 689.75 351.92 691.22 348.80 691.58 346.06 C 693.64 332.42 695.19 318.64 698.83 305.30 C 690.03 306.50 680.71 307.23 672.13 304.49 C 669.04 303.41 665.37 302.28 664.29 298.79 C 662.10 295.12 663.59 289.70 667.99 288.61 C 674.90 288.23 681.70 291.82 688.62 290.55 C 698.03 285.95 707.55 281.30 717.73 278.61 Z" />
<path fill="#fccda3" opacity="1.00" d=" M 547.98 312.17 C 553.90 310.08 560.31 307.82 566.61 309.62 C 570.63 312.09 574.16 315.42 576.98 319.20 C 583.15 327.52 588.87 336.17 593.81 345.29 C 595.23 347.91 597.42 350.86 595.96 353.97 C 594.64 357.63 590.39 358.14 587.06 358.61 C 583.63 359.21 581.14 356.27 579.19 353.91 C 572.77 345.26 568.16 335.02 559.86 327.92 C 564.22 335.40 568.18 343.13 571.57 351.11 C 573.35 355.33 573.75 359.94 575.23 364.24 C 576.42 366.97 575.91 370.61 572.98 371.98 C 568.81 373.06 564.42 373.92 560.10 373.36 C 557.95 373.12 556.25 371.50 554.13 371.20 C 551.40 371.95 548.89 373.39 546.09 373.92 C 541.51 375.04 536.75 373.69 532.16 374.80 C 527.06 376.00 521.76 374.98 516.95 373.16 C 511.34 370.92 507.49 365.88 504.83 360.64 C 503.68 358.40 502.73 356.06 502.06 353.64 C 501.08 348.46 500.87 343.09 501.41 337.86 C 501.78 334.04 505.33 331.98 508.30 330.24 C 521.34 323.82 533.82 315.97 547.98 312.17 Z" />
</g>
<g id="#847972f8">
<path fill="#847972" opacity="0.97" d=" M 669.66 92.36 C 671.93 88.34 675.60 85.58 680.08 84.44 C 679.01 86.03 677.91 87.59 676.71 89.08 C 674.43 91.97 672.28 94.97 669.99 97.86 C 667.36 101.28 664.65 104.65 662.22 108.23 C 661.46 109.11 660.93 110.36 659.76 110.74 C 656.02 112.14 652.16 113.17 648.30 114.14 C 648.27 112.90 648.23 111.66 648.17 110.43 C 651.66 109.74 655.04 108.64 658.40 107.50 C 661.95 102.31 665.97 97.45 669.66 92.36 Z" />
<path fill="#847972" opacity="0.97" d=" M 542.84 100.20 C 546.88 99.65 549.57 102.97 552.29 105.35 C 556.96 109.42 561.69 113.56 567.02 116.76 C 570.27 117.13 573.56 116.71 576.82 116.57 C 576.84 117.44 576.87 119.18 576.88 120.04 C 573.55 120.08 570.22 120.37 566.89 120.18 C 560.60 117.39 556.31 111.66 550.76 107.76 C 547.90 105.49 544.97 103.21 542.84 100.20 Z" />
<path fill="#847972" opacity="0.97" d=" M 602.48 114.07 C 605.48 110.00 609.67 106.05 614.97 105.68 C 618.69 105.34 621.49 108.10 624.01 110.40 C 623.68 111.99 623.42 113.59 623.25 115.20 C 620.89 112.49 618.28 108.49 614.12 109.29 C 609.08 110.43 606.37 115.16 603.24 118.79 C 603.02 117.21 602.77 115.63 602.48 114.07 Z" />
</g>
<g id="#ffffffff">
<path fill="#ffffff" opacity="1.00" d=" M 627.87 104.78 C 634.37 99.77 645.69 102.10 648.17 110.43 C 648.23 111.66 648.27 112.90 648.30 114.14 C 648.26 117.46 648.58 120.96 647.09 124.04 C 644.19 131.76 632.13 133.40 627.12 126.93 C 624.45 123.65 622.95 119.45 623.25 115.20 C 623.42 113.59 623.68 111.99 624.01 110.40 C 625.05 108.38 626.16 106.32 627.87 104.78 M 637.04 115.20 C 632.50 117.49 630.93 124.63 634.62 128.34 C 639.32 131.72 645.00 125.93 644.29 121.01 C 645.25 116.89 640.67 114.00 637.04 115.20 Z" />
<path fill="#ffffff" opacity="1.00" d=" M 576.82 116.57 C 577.99 110.00 584.17 104.29 591.06 105.06 C 596.41 104.99 601.07 109.01 602.48 114.07 C 602.77 115.63 603.02 117.21 603.24 118.79 C 602.76 123.74 601.27 129.04 597.16 132.20 C 594.03 135.01 589.36 134.57 585.67 133.31 C 580.32 131.25 577.12 125.61 576.88 120.04 C 576.87 119.18 576.84 117.44 576.82 116.57 M 590.32 119.27 C 584.95 121.90 585.29 132.31 592.01 132.80 C 598.07 132.81 600.82 124.82 597.93 120.16 C 596.03 118.14 592.65 117.68 590.32 119.27 Z" />
<path fill="#ffffff" opacity="1.00" d=" M 639.47 118.51 C 641.80 117.42 642.62 122.32 640.03 121.78 C 638.38 122.00 637.88 118.82 639.47 118.51 Z" />
<path fill="#ffffff" opacity="1.00" d=" M 593.65 122.51 C 594.99 120.13 598.10 123.59 596.02 124.84 C 594.57 126.52 592.99 123.84 593.65 122.51 Z" />
</g>
<g id="#3e2723ff">
<path fill="#3e2723" opacity="1.00" d=" M 637.04 115.20 C 640.67 114.00 645.25 116.89 644.29 121.01 C 645.00 125.93 639.32 131.72 634.62 128.34 C 630.93 124.63 632.50 117.49 637.04 115.20 M 639.47 118.51 C 637.88 118.82 638.38 122.00 640.03 121.78 C 642.62 122.32 641.80 117.42 639.47 118.51 Z" />
<path fill="#3e2723" opacity="1.00" d=" M 590.32 119.27 C 592.65 117.68 596.03 118.14 597.93 120.16 C 600.82 124.82 598.07 132.81 592.01 132.80 C 585.29 132.31 584.95 121.90 590.32 119.27 M 593.65 122.51 C 592.99 123.84 594.57 126.52 596.02 124.84 C 598.10 123.59 594.99 120.13 593.65 122.51 Z" />
<path fill="#3e2723" opacity="1.00" d=" M 1190.97 268.17 C 1237.65 262.58 1284.34 257.04 1331.00 251.31 L 1331.00 259.70 C 1296.69 264.21 1262.29 268.05 1227.94 272.26 C 1179.69 278.21 1131.32 283.14 1083.04 288.86 C 1020.75 296.08 958.46 303.41 896.44 312.70 C 877.38 315.68 858.17 317.51 839.03 319.82 C 826.53 320.95 814.00 321.86 801.50 322.87 C 788.32 323.70 775.17 325.35 761.95 325.17 C 762.33 322.38 762.34 319.55 761.80 316.79 C 772.88 316.80 783.91 315.70 794.96 314.90 C 816.17 313.12 837.48 312.06 858.55 308.87 C 885.02 306.57 911.16 301.61 937.50 298.26 C 1021.83 286.96 1106.41 277.63 1190.97 268.17 Z" />
<path fill="#3e2723" opacity="1.00" d=" M 661.38 306.57 C 664.94 305.80 668.51 305.01 672.13 304.49 C 680.71 307.23 690.03 306.50 698.83 305.30 C 695.19 318.64 693.64 332.42 691.58 346.06 C 685.04 347.50 678.44 348.65 671.88 350.00 C 671.10 347.05 670.61 344.02 669.69 341.11 C 666.26 340.59 662.62 342.47 659.05 342.53 C 656.80 342.47 653.16 343.72 652.13 340.94 C 651.03 339.39 652.59 337.60 653.93 336.87 C 658.29 334.58 663.33 334.31 667.90 332.59 C 667.09 329.12 666.27 325.66 665.34 322.23 C 659.90 322.92 654.58 324.96 649.05 324.54 C 646.62 323.67 646.35 319.80 648.64 318.65 C 653.21 316.36 658.41 315.81 663.22 314.12 C 662.64 311.59 662.03 309.07 661.38 306.57 Z" />
<path fill="#3e2723" opacity="1.00" d=" M 576.98 319.20 C 586.03 318.08 595.08 316.91 604.12 315.65 C 607.95 329.31 610.33 343.33 612.41 357.35 C 600.17 360.34 587.71 362.51 575.23 364.24 C 573.75 359.94 573.35 355.33 571.57 351.11 C 568.18 343.13 564.22 335.40 559.86 327.92 C 568.16 335.02 572.77 345.26 579.19 353.91 C 581.14 356.27 583.63 359.21 587.06 358.61 C 590.39 358.14 594.64 357.63 595.96 353.97 C 597.42 350.86 595.23 347.91 593.81 345.29 C 588.87 336.17 583.15 327.52 576.98 319.20 Z" />
<path fill="#3e2723" opacity="1.00" d=" M 442.99 356.52 C 456.61 355.27 470.33 355.79 483.95 354.48 C 489.97 353.95 496.01 353.54 502.06 353.64 C 502.73 356.06 503.68 358.40 504.83 360.64 C 498.88 360.85 492.93 361.19 487.02 361.89 C 472.10 363.87 457.01 363.80 442.02 365.05 C 420.70 366.80 399.27 366.03 377.94 367.63 C 377.49 367.82 376.58 368.19 376.13 368.38 C 374.85 367.75 373.43 367.69 372.04 367.80 C 354.05 369.15 336.00 368.57 317.97 368.85 C 273.32 368.91 228.66 368.86 184.01 368.87 C 134.67 368.69 85.33 369.34 36.00 368.33 C 24.14 367.07 12.17 366.32 0.43 364.19 C 0.43 362.47 0.42 360.76 0.43 359.05 C 11.61 359.45 22.81 359.78 33.99 360.27 C 49.32 360.38 64.66 360.44 79.99 360.47 C 162.97 360.40 245.96 360.60 328.94 360.36 C 344.53 360.35 360.15 360.22 375.71 359.44 C 398.08 357.38 420.61 358.47 442.99 356.52 Z" />
</g>
<g id="#dba378fe">
<path fill="#dba378" opacity="1.00" d=" M 615.99 146.23 C 620.25 144.46 624.23 141.42 628.99 141.28 C 625.49 145.85 620.59 149.59 615.00 151.16 C 610.18 150.09 605.46 147.49 601.90 144.03 C 606.73 142.93 611.18 146.89 615.99 146.23 Z" />
<path fill="#dba378" opacity="1.00" d=" M 640.02 148.75 C 641.70 148.16 643.49 148.07 645.27 148.01 C 643.20 150.61 640.03 151.92 637.04 153.13 C 627.79 156.32 618.70 160.30 608.94 161.68 C 607.16 161.99 605.28 161.73 604.08 160.30 C 616.48 157.91 628.07 152.68 640.02 148.75 Z" />
</g>
<g id="#bf360cff">
<path fill="#bf360c" opacity="1.00" d=" M 688.85 148.72 C 707.27 149.96 725.78 150.59 744.00 153.84 C 768.79 158.39 793.45 163.66 817.98 169.49 C 826.54 171.39 834.74 174.56 843.04 177.34 C 848.84 179.35 854.78 181.01 860.31 183.74 C 870.11 188.48 880.99 191.37 889.56 198.36 C 899.49 205.82 906.41 216.74 910.70 228.28 C 913.99 239.74 913.12 252.05 910.23 263.49 C 908.99 270.92 905.48 277.95 900.33 283.44 C 893.81 289.74 885.98 294.46 878.43 299.39 C 872.33 303.56 865.28 305.93 858.55 308.87 C 837.48 312.06 816.17 313.12 794.96 314.90 C 783.91 315.70 772.88 316.80 761.80 316.79 C 761.50 311.41 760.48 305.96 757.70 301.27 C 754.41 296.03 750.84 290.87 746.17 286.77 C 742.32 283.43 737.63 281.32 733.21 278.87 C 728.38 276.43 722.76 277.42 717.73 278.61 C 707.55 281.30 698.03 285.95 688.62 290.55 C 681.70 291.82 674.90 288.23 667.99 288.61 C 663.59 289.70 662.10 295.12 664.29 298.79 C 665.37 302.28 669.04 303.41 672.13 304.49 C 668.51 305.01 664.94 305.80 661.38 306.57 C 662.03 309.07 662.64 311.59 663.22 314.12 C 658.41 315.81 653.21 316.36 648.64 318.65 C 646.35 319.80 646.62 323.67 649.05 324.54 C 654.58 324.96 659.90 322.92 665.34 322.23 C 666.27 325.66 667.09 329.12 667.90 332.59 C 663.33 334.31 658.29 334.58 653.93 336.87 C 652.59 337.60 651.03 339.39 652.13 340.94 C 653.16 343.72 656.80 342.47 659.05 342.53 C 662.62 342.47 666.26 340.59 669.69 341.11 C 670.61 344.02 671.10 347.05 671.88 350.00 C 678.44 348.65 685.04 347.50 691.58 346.06 C 691.22 348.80 689.75 351.92 691.63 354.43 C 693.50 356.63 695.92 358.83 698.96 358.98 C 702.77 359.77 706.32 357.81 710.02 357.28 C 715.06 362.16 723.38 359.64 727.80 355.11 C 732.82 357.73 739.33 358.71 744.16 355.15 C 748.69 351.68 754.11 349.29 757.97 345.01 C 761.31 339.00 761.06 331.81 761.95 325.17 C 775.17 325.35 788.32 323.70 801.50 322.87 C 802.12 336.62 803.54 350.31 804.25 364.04 C 804.20 371.37 805.59 378.60 805.64 385.92 C 805.97 403.12 805.51 420.32 805.55 437.51 C 690.23 437.46 574.91 437.52 459.59 437.48 C 460.18 427.67 460.57 417.85 461.27 408.04 C 461.47 399.05 461.36 390.06 461.40 381.07 C 449.74 384.09 437.53 384.67 425.56 383.72 C 408.20 382.65 390.84 377.79 376.13 368.38 C 376.58 368.19 377.49 367.82 377.94 367.63 C 399.27 366.03 420.70 366.80 442.02 365.05 C 457.01 363.80 472.10 363.87 487.02 361.89 C 492.93 361.19 498.88 360.85 504.83 360.64 C 507.49 365.88 511.34 370.92 516.95 373.16 C 521.76 374.98 527.06 376.00 532.16 374.80 C 536.75 373.69 541.51 375.04 546.09 373.92 C 548.89 373.39 551.40 371.95 554.13 371.20 C 556.25 371.50 557.95 373.12 560.10 373.36 C 564.42 373.92 568.81 373.06 572.98 371.98 C 575.91 370.61 576.42 366.97 575.23 364.24 C 587.71 362.51 600.17 360.34 612.41 357.35 C 610.33 343.33 607.95 329.31 604.12 315.65 C 595.08 316.91 586.03 318.08 576.98 319.20 C 574.16 315.42 570.63 312.09 566.61 309.62 C 560.31 307.82 553.90 310.08 547.98 312.17 C 533.82 315.97 521.34 323.82 508.30 330.24 C 505.33 331.98 501.78 334.04 501.41 337.86 C 500.87 343.09 501.08 348.46 502.06 353.64 C 496.01 353.54 489.97 353.95 483.95 354.48 C 470.33 355.79 456.61 355.27 442.99 356.52 C 420.61 358.47 398.08 357.38 375.71 359.44 C 372.48 359.26 369.24 359.24 366.01 359.34 C 358.42 351.64 353.56 341.63 351.35 331.11 C 350.47 325.97 352.04 320.91 353.13 315.93 C 354.92 306.78 359.70 298.58 364.86 290.94 C 370.49 282.66 378.12 276.10 385.08 269.00 C 389.04 264.36 393.17 259.79 398.16 256.22 C 406.21 249.85 414.49 243.78 422.91 237.89 C 440.68 225.04 459.54 213.83 477.91 201.88 C 486.25 196.10 495.76 192.42 504.73 187.77 C 513.64 183.56 522.30 178.70 531.75 175.76 C 535.80 174.42 539.76 172.79 543.55 170.81 C 545.59 172.32 548.21 173.17 549.89 175.09 C 549.20 179.03 547.07 182.91 548.07 186.99 C 548.99 190.59 550.69 194.04 553.08 196.88 C 555.53 199.65 559.47 199.76 562.86 200.30 C 564.05 203.74 565.23 207.46 568.23 209.80 C 572.21 213.30 577.79 213.30 582.79 213.35 C 585.00 216.35 587.03 220.10 590.94 221.05 C 595.15 222.47 599.48 220.84 603.23 218.93 C 605.99 221.48 608.87 224.63 613.02 224.37 C 616.87 224.84 620.03 222.39 622.93 220.24 C 626.59 222.09 630.70 224.56 634.93 223.15 C 638.95 222.31 641.74 219.15 644.44 216.32 C 648.14 216.91 651.90 218.48 655.66 217.51 C 659.95 215.70 662.44 211.44 664.44 207.46 C 666.93 206.86 669.92 206.91 671.75 204.82 C 674.00 202.61 674.63 199.43 675.36 196.49 C 678.74 195.20 682.55 193.86 684.52 190.60 C 686.04 187.00 684.51 183.14 684.20 179.46 C 686.09 177.99 688.44 176.53 688.81 173.94 C 689.78 169.91 688.46 165.89 686.79 162.26 C 690.91 158.90 690.79 153.24 688.85 148.72 Z" />
</g>
</svg>
