<svg width="1200pt" height="628pt" viewBox="0 0 1200 628" xmlns="http://www.w3.org/2000/svg" role="img" aria-hidden="true" focusable="false">
<g id="#ffffffff">
<path fill="#ffffff" opacity="1.00" d=" M 577.52 243.28 C 576.61 241.26 575.85 238.99 576.89 236.86 C 580.09 236.82 576.36 241.43 578.84 241.36 C 581.17 239.86 583.36 238.13 585.91 236.99 C 583.75 239.49 581.08 241.52 579.21 244.26 C 577.76 246.38 576.17 248.55 573.71 249.56 C 574.54 247.22 576.08 245.26 577.52 243.28 Z" />
<path fill="#ffffff" opacity="1.00" d=" M 584.93 240.91 C 586.05 238.92 588.52 238.94 590.48 238.41 C 590.48 240.60 590.39 242.78 590.11 244.96 C 591.49 243.01 593.65 242.70 595.18 244.73 C 595.71 243.21 596.23 241.70 596.75 240.18 C 595.10 240.68 593.50 241.21 591.86 241.69 C 592.43 238.67 597.93 236.79 597.91 241.01 C 596.66 244.97 594.20 248.47 592.57 252.30 C 592.53 251.44 592.46 249.71 592.43 248.85 C 589.20 249.36 589.78 246.34 589.82 244.18 C 588.57 246.88 586.00 246.97 583.49 246.66 C 583.64 244.69 583.56 242.51 584.93 240.91 M 585.14 245.42 C 586.00 245.12 587.73 244.51 588.59 244.20 C 588.61 242.76 588.58 241.32 588.53 239.88 C 586.06 240.77 585.09 242.96 585.14 245.42 M 592.01 245.20 C 591.42 246.90 591.92 247.49 593.51 246.99 C 594.08 245.30 593.58 244.70 592.01 245.20 Z" />
<path fill="#ffffff" opacity="1.00" d=" M 602.46 240.66 C 604.09 240.27 605.38 241.53 606.68 242.29 C 604.88 242.46 603.09 242.63 601.30 242.80 C 601.99 245.05 602.71 247.28 603.39 249.54 C 605.46 246.28 607.67 243.04 610.74 240.62 C 609.89 243.29 610.27 246.83 607.31 248.22 C 607.34 249.34 607.36 250.47 607.53 251.59 C 608.73 252.13 609.97 252.63 611.23 253.09 C 609.19 254.47 606.85 255.02 604.42 254.79 C 604.37 252.72 604.35 250.64 604.42 248.57 C 603.09 249.93 601.69 251.26 599.83 251.82 C 599.52 250.64 599.22 249.46 598.94 248.27 C 599.85 248.33 601.69 248.45 602.60 248.51 C 601.49 247.26 600.37 246.02 599.25 244.80 C 599.92 243.18 600.57 241.20 602.46 240.66 Z" />
<path fill="#ffffff" opacity="1.00" d=" M 688.21 314.28 C 689.16 315.20 690.00 316.25 690.87 317.27 C 689.58 317.44 688.30 317.60 687.03 317.74 C 687.21 316.51 687.11 315.11 688.21 314.28 Z" />
<path fill="#ffffff" opacity="1.00" d=" M 872.24 364.76 C 875.56 365.59 878.88 366.47 882.20 367.33 C 878.80 367.56 875.41 367.64 872.03 367.67 C 872.08 366.94 872.19 365.49 872.24 364.76 Z" />
</g>
<g id="#706153ff">
<path fill="#706153" opacity="1.00" d=" M 972.24 63.46 C 980.50 63.44 988.76 61.86 997.01 62.97 C 1004.98 63.64 1012.99 63.85 1020.99 63.92 C 1035.65 64.70 1050.29 65.90 1064.95 66.64 C 1067.91 66.86 1071.69 66.20 1073.05 69.61 C 1078.29 70.70 1083.67 70.20 1088.98 70.29 C 1108.86 70.03 1128.69 71.60 1148.54 72.28 C 1149.31 75.49 1148.69 78.76 1148.59 82.00 C 1148.28 98.78 1147.06 115.53 1146.46 132.30 C 1144.90 132.69 1142.90 132.43 1141.97 134.00 C 1141.11 135.52 1141.31 137.34 1141.24 139.02 C 1141.31 159.36 1141.22 179.70 1141.28 200.04 C 1141.08 201.93 1142.34 203.42 1143.25 204.94 C 1141.75 231.26 1141.86 257.64 1140.66 283.98 C 1140.88 288.80 1138.56 293.24 1138.55 298.05 C 1137.63 315.79 1137.74 333.56 1137.78 351.32 C 1133.64 352.31 1129.35 352.02 1125.22 352.86 C 1113.70 355.80 1101.68 355.28 1090.02 357.41 C 1076.60 359.95 1062.89 360.20 1049.47 362.68 C 1042.06 363.72 1034.70 365.07 1027.37 366.51 C 1018.89 367.85 1010.70 370.61 1002.15 371.52 C 989.16 373.14 976.28 376.23 963.17 376.44 C 962.91 364.66 964.26 352.93 964.68 341.17 C 965.61 332.12 965.44 322.97 966.86 313.97 C 962.32 308.44 954.67 309.60 948.39 308.44 C 937.29 306.48 926.02 305.80 914.94 303.77 C 897.84 301.22 880.97 297.38 863.96 294.33 C 861.75 299.98 862.29 306.10 861.98 312.02 C 860.91 326.41 861.66 340.84 861.32 355.25 C 859.58 354.50 857.86 353.76 856.13 353.02 C 856.14 337.34 855.85 321.64 857.13 306.00 C 857.38 302.02 857.92 297.98 857.17 294.03 C 853.26 292.42 848.96 292.29 844.89 291.31 C 837.38 289.52 829.78 288.18 822.23 286.60 C 822.21 285.18 822.21 283.77 822.22 282.36 C 834.19 285.39 846.34 287.68 858.32 290.68 C 859.67 288.34 860.85 285.81 860.61 283.02 C 860.39 273.66 861.77 264.35 861.52 254.99 C 861.83 242.11 860.61 228.97 863.99 216.38 C 862.44 216.25 860.90 216.12 859.37 216.00 C 859.42 214.74 859.48 213.49 859.54 212.24 C 851.60 211.34 843.86 209.22 835.91 208.43 C 827.69 207.95 819.51 207.02 811.31 206.33 C 811.34 204.70 811.36 203.06 811.35 201.43 C 819.20 202.41 827.06 203.25 834.95 203.76 C 843.58 204.31 851.74 207.44 860.21 208.97 C 860.39 199.32 860.27 189.66 860.63 180.01 C 862.15 164.83 861.48 149.56 862.51 134.35 C 843.71 135.74 824.86 135.43 806.04 135.47 C 801.49 135.47 796.93 135.27 792.42 135.92 C 792.16 134.38 791.90 132.85 791.63 131.32 C 809.41 131.12 827.21 131.19 844.99 131.47 C 852.14 131.46 859.42 132.83 866.45 130.89 C 866.66 126.45 866.94 122.00 866.73 117.56 C 865.44 101.39 864.20 85.14 865.16 68.92 C 866.67 69.87 868.31 70.59 870.07 71.02 C 870.37 85.69 870.25 100.35 870.30 115.02 C 870.35 120.42 869.87 125.80 869.17 131.15 C 874.74 131.85 880.36 131.99 885.97 131.85 C 914.24 131.69 942.51 131.56 970.78 131.86 C 970.28 120.53 972.12 109.28 971.87 97.96 C 971.67 86.46 972.23 74.96 972.24 63.46 M 865.01 135.95 C 865.61 150.96 866.14 166.04 864.59 181.01 C 864.67 191.76 863.44 202.45 862.44 213.13 C 876.01 213.68 889.51 215.30 902.97 217.10 C 924.50 221.13 946.49 221.70 968.13 224.97 C 968.19 195.73 968.28 166.49 968.09 137.26 C 949.42 137.48 930.75 137.42 912.08 137.39 C 896.38 137.14 880.64 137.84 865.01 135.95 M 869.02 217.11 C 869.93 235.41 869.40 253.73 869.60 272.04 C 869.49 278.81 870.04 285.64 868.88 292.34 C 890.24 295.35 911.38 299.75 932.81 302.21 C 943.44 303.33 953.95 305.37 964.61 306.14 C 964.20 301.41 964.87 296.71 965.39 292.01 C 965.95 282.03 965.13 272.00 965.96 262.02 C 966.94 251.52 964.46 241.06 965.45 230.56 C 954.43 228.43 943.22 227.71 932.08 226.49 C 910.86 224.80 890.18 219.34 869.02 217.11 Z" />
<path fill="#706153" opacity="1.00" d=" M 181.07 167.18 C 191.91 166.11 202.80 165.90 213.66 166.86 C 213.74 177.92 213.67 188.98 213.82 200.04 C 214.33 208.45 214.92 216.86 214.74 225.30 C 239.48 225.31 264.23 225.17 288.98 225.44 C 293.24 225.51 297.49 225.23 301.73 224.81 C 300.10 207.69 300.99 190.47 301.19 173.31 C 302.47 172.86 303.75 172.40 305.03 171.93 C 306.15 184.13 305.18 196.40 304.24 208.57 C 303.55 213.96 303.60 219.40 304.32 224.78 C 307.86 225.20 311.43 225.52 315.01 225.37 C 332.79 224.38 350.61 224.71 368.42 224.72 L 367.69 226.37 C 367.48 226.87 367.06 227.87 366.85 228.36 C 347.07 228.43 327.27 228.64 307.51 227.51 C 308.29 240.67 308.01 253.87 309.09 267.02 C 309.45 275.09 309.41 283.16 309.61 291.24 C 316.42 289.93 323.04 287.70 329.95 286.94 C 342.39 285.90 354.78 284.44 367.25 283.89 C 367.42 285.21 367.62 286.55 367.82 287.88 C 359.53 288.42 351.23 288.80 342.98 289.80 C 336.62 290.55 330.19 290.53 323.89 291.74 C 319.42 292.60 314.94 293.41 310.43 294.04 C 310.19 295.17 309.94 296.30 309.70 297.43 C 308.88 297.48 307.22 297.58 306.39 297.63 C 309.73 312.62 307.64 328.07 308.75 343.26 C 309.30 349.23 308.49 355.45 310.71 361.16 C 329.19 357.25 347.54 352.77 365.96 348.60 C 366.45 349.40 367.43 351.00 367.92 351.80 C 354.91 354.24 342.15 357.87 329.14 360.33 C 323.93 361.59 318.59 362.29 313.38 363.58 C 311.47 364.00 311.81 366.45 311.77 367.92 C 312.63 383.54 313.69 399.19 312.94 414.85 C 311.44 415.47 309.94 416.11 308.44 416.74 C 308.44 404.47 308.82 392.19 308.02 379.93 C 307.84 374.72 307.88 369.45 306.50 364.38 C 295.85 366.24 285.24 368.33 274.64 370.45 C 257.97 373.51 241.11 375.25 224.35 377.64 C 222.01 378.04 218.92 379.26 218.62 381.93 C 219.30 399.48 221.57 417.00 221.30 434.59 C 210.72 434.45 200.34 432.00 189.88 430.64 C 180.77 429.58 171.96 426.90 162.93 425.41 C 151.98 423.53 141.05 421.39 129.96 420.55 C 119.27 419.70 108.77 417.33 98.06 416.58 C 92.89 416.27 87.76 415.54 82.71 414.41 C 79.15 413.74 75.52 413.70 71.93 413.22 C 71.74 400.89 71.93 388.57 71.65 376.25 C 71.45 371.09 71.60 365.84 70.18 360.83 C 69.23 357.63 69.46 354.25 69.33 350.96 C 68.36 331.29 68.64 311.57 67.44 291.91 C 66.77 288.44 69.09 285.41 68.88 281.98 C 68.81 264.65 68.90 247.31 68.84 229.98 C 68.98 228.37 68.06 227.03 67.31 225.71 C 66.63 225.76 65.27 225.85 64.58 225.89 C 63.88 210.93 63.22 195.97 62.54 181.01 C 62.42 178.81 62.44 176.61 62.65 174.42 C 74.41 173.68 86.20 173.57 97.95 172.75 C 107.68 172.42 117.42 172.91 127.13 172.37 C 127.76 171.51 128.38 170.66 129.01 169.81 C 146.38 169.21 163.68 167.13 181.07 167.18 M 268.05 230.14 C 251.09 230.11 234.13 230.43 217.18 229.86 C 217.16 254.90 217.19 279.95 217.16 304.99 C 231.71 302.94 246.37 301.82 260.97 300.15 C 274.58 297.98 288.25 295.96 302.03 295.23 C 303.89 295.06 305.81 294.99 307.55 294.24 C 306.57 284.50 305.72 274.73 305.57 264.93 C 304.19 252.98 304.79 240.94 305.46 228.97 C 293.02 230.18 280.52 229.63 268.05 230.14 M 263.71 304.44 C 249.04 306.53 234.20 307.23 219.57 309.63 C 220.15 318.80 218.13 327.91 218.99 337.06 C 219.53 343.69 219.33 350.34 219.33 356.99 C 219.26 362.83 220.41 368.61 220.24 374.46 C 225.41 373.96 230.59 373.45 235.72 372.61 C 244.79 371.13 254.00 370.66 263.03 368.87 C 276.04 367.10 288.88 364.27 301.93 362.79 C 300.97 352.90 301.65 342.96 301.48 333.04 C 301.59 321.43 301.27 309.81 301.97 298.21 C 289.16 299.88 276.41 302.04 263.71 304.44 Z" />
<path fill="#706153" opacity="1.00" d=" M 621.52 173.63 C 624.58 171.01 628.77 172.78 631.90 174.32 C 636.01 176.50 640.88 175.54 645.21 176.91 C 647.86 178.17 650.48 180.25 651.41 183.14 C 651.61 183.81 651.81 184.48 652.01 185.16 C 652.85 186.73 653.86 188.26 654.26 190.04 C 653.83 191.37 653.23 192.63 652.63 193.89 C 653.16 195.95 654.82 198.60 652.05 199.81 C 651.22 199.42 649.57 198.63 648.75 198.24 C 647.71 197.48 646.72 196.68 645.73 195.89 C 642.14 203.08 636.49 211.17 640.36 219.44 C 642.27 218.76 644.19 218.09 646.12 217.44 C 645.22 221.26 644.79 225.19 643.75 228.98 C 643.15 231.80 640.63 233.51 638.74 235.45 C 637.13 235.39 635.53 235.33 633.94 235.25 C 634.16 233.26 634.41 231.28 634.64 229.30 C 633.68 227.59 632.43 225.97 632.02 224.02 C 632.49 217.40 636.57 211.61 636.99 204.99 C 637.34 202.75 635.19 200.68 632.99 200.95 C 628.76 201.31 625.97 205.96 626.47 209.95 C 626.99 211.76 627.96 213.40 628.84 215.07 C 623.85 214.29 619.51 216.82 615.07 218.58 C 612.72 218.03 610.37 217.51 608.00 217.05 C 605.67 205.38 605.34 192.15 612.48 181.98 C 614.47 178.25 618.38 176.25 621.52 173.63 Z" />
<path fill="#706153" opacity="1.00" d=" M 789.55 190.82 C 791.39 190.87 793.26 190.92 795.12 190.97 C 795.15 195.65 794.94 200.33 794.75 205.01 C 794.05 204.88 792.65 204.62 791.95 204.49 C 792.31 202.95 792.54 201.38 792.71 199.81 C 793.16 200.06 794.04 200.57 794.48 200.82 C 794.59 197.68 794.64 194.55 794.67 191.42 C 792.96 191.41 791.27 191.40 789.58 191.39 L 789.55 190.82 Z" />
<path fill="#706153" opacity="1.00" d=" M 810.59 441.70 C 813.82 440.69 817.25 440.60 820.59 441.11 C 824.97 441.73 829.54 441.62 833.69 443.38 C 841.92 446.78 849.10 452.40 855.10 458.93 C 857.70 461.63 858.95 465.24 860.55 468.57 C 862.82 473.41 865.05 478.55 864.58 484.04 C 863.87 492.09 863.64 500.32 860.70 507.95 C 857.81 517.78 850.45 525.35 843.07 532.06 C 839.00 536.01 833.29 537.27 828.09 539.04 C 816.90 541.36 804.96 540.96 794.28 536.69 C 787.91 533.39 782.59 528.40 777.58 523.36 C 774.37 519.57 771.30 515.21 770.43 510.24 C 769.92 502.51 769.15 494.61 771.17 487.02 C 773.00 480.23 774.66 473.25 778.21 467.11 C 781.81 460.75 785.26 453.77 791.67 449.77 C 797.56 446.24 804.02 443.67 810.59 441.70 M 821.29 457.34 C 810.49 459.00 799.92 465.11 795.28 475.35 C 790.59 483.40 788.66 492.77 788.84 502.03 C 788.87 507.65 792.19 512.45 795.06 517.03 C 803.88 530.80 824.35 534.76 837.97 526.01 C 849.07 518.97 854.96 506.37 857.95 493.99 C 859.35 485.93 856.43 477.93 853.20 470.68 C 846.64 460.28 833.42 454.21 821.29 457.34 Z" />
<path fill="#706153" opacity="1.00" d=" M 823.24 465.38 C 829.64 463.45 836.10 466.41 841.58 469.51 C 846.58 473.11 849.28 479.14 850.47 485.03 C 851.95 492.30 849.60 499.53 847.34 506.36 C 843.97 512.74 838.21 518.04 831.30 520.32 C 821.37 523.71 809.90 519.61 803.09 511.94 C 798.91 507.38 798.56 500.82 798.81 494.96 C 798.98 487.65 803.54 481.47 808.16 476.19 C 812.43 471.73 817.14 467.12 823.24 465.38 M 824.27 474.22 C 818.18 478.32 812.93 483.91 809.48 490.42 C 806.52 495.86 807.12 503.74 812.47 507.51 C 818.28 511.78 826.75 514.45 833.35 510.34 C 841.67 505.08 844.64 494.39 843.71 485.05 C 842.93 480.58 839.78 475.90 834.98 475.29 C 831.46 474.93 827.72 473.41 824.27 474.22 Z" />
<path fill="#706153" opacity="1.00" d=" M 508.66 490.77 C 519.16 482.87 533.20 477.92 546.24 481.79 C 558.81 484.21 571.00 491.12 577.98 502.07 C 581.50 508.99 585.04 516.18 585.87 524.01 C 586.44 529.27 587.57 534.50 587.52 539.82 C 587.43 549.90 583.21 559.93 575.84 566.85 C 568.93 573.76 561.39 581.08 551.59 583.42 C 547.44 584.65 543.40 586.37 539.11 587.03 C 524.48 586.59 508.19 584.53 497.53 573.41 C 489.33 566.78 486.88 555.87 484.77 546.06 C 484.04 538.31 483.85 530.32 486.61 522.91 C 489.19 509.65 498.65 499.20 508.66 490.77 M 539.41 498.57 C 537.25 498.84 535.08 499.18 533.10 500.11 C 522.60 505.09 514.13 514.20 509.73 524.95 C 506.98 531.26 507.36 538.32 507.64 545.05 C 509.70 560.09 521.80 573.70 537.13 575.81 C 545.22 576.55 553.74 575.08 560.67 570.67 C 570.37 565.32 576.85 555.44 580.05 545.05 C 582.89 529.82 577.57 512.62 565.07 503.03 C 557.72 497.51 548.12 497.43 539.41 498.57 Z" />
<path fill="#706153" opacity="1.00" d=" M 828.39 480.47 C 830.05 479.01 832.11 481.18 831.86 482.97 C 832.14 485.19 829.11 487.99 827.30 485.82 C 825.49 484.31 826.36 481.32 828.39 480.47 Z" />
<path fill="#706153" opacity="1.00" d=" M 820.27 483.41 C 823.49 483.33 823.03 488.75 819.94 489.17 C 816.43 489.13 816.93 483.58 820.27 483.41 Z" />
<path fill="#706153" opacity="1.00" d=" M 833.18 491.03 C 833.52 488.50 836.64 488.89 838.46 488.42 C 838.50 490.47 839.02 492.99 836.99 494.34 C 834.91 495.05 832.50 493.28 833.18 491.03 Z" />
<path fill="#706153" opacity="1.00" d=" M 813.77 491.66 C 815.28 489.90 817.72 492.20 817.63 494.02 C 817.64 496.06 815.36 496.90 814.14 498.20 C 812.87 496.30 811.00 493.25 813.77 491.66 Z" />
<path fill="#706153" opacity="1.00" d=" M 829.15 496.28 C 831.92 495.32 834.33 499.46 832.77 501.79 C 832.06 504.28 827.85 504.29 827.14 501.82 C 826.30 499.88 827.17 497.14 829.15 496.28 Z" />
<path fill="#706153" opacity="1.00" d=" M 819.31 497.42 C 821.96 495.86 825.32 499.21 823.81 501.86 C 822.97 503.72 820.01 505.34 818.41 503.49 C 816.69 501.70 817.33 498.73 819.31 497.42 Z" />
<path fill="#706153" opacity="1.00" d=" M 541.22 505.34 C 547.20 503.60 554.02 504.71 559.55 507.47 C 570.55 515.47 576.55 530.45 572.75 543.72 C 569.73 552.02 564.26 560.10 555.94 563.77 C 548.33 567.28 539.33 566.51 531.77 563.25 C 527.22 561.14 522.74 558.10 520.57 553.42 C 516.41 546.35 516.78 537.57 518.74 529.89 C 522.88 519.43 530.38 509.42 541.22 505.34 M 542.43 514.56 C 536.28 517.46 532.35 523.38 528.90 528.99 C 525.67 534.13 524.28 540.90 526.44 546.68 C 530.23 552.65 537.23 555.73 543.99 556.91 C 549.87 558.02 556.43 555.87 559.99 550.94 C 564.10 545.58 564.84 538.57 564.81 532.03 C 564.95 526.52 562.27 521.32 558.91 517.14 C 554.48 513.36 547.83 513.19 542.43 514.56 Z" />
<path fill="#706153" opacity="1.00" d=" M 547.88 524.90 C 546.67 522.54 550.93 520.99 552.04 522.96 C 553.41 524.64 551.77 526.55 551.20 528.16 C 550.05 527.10 548.86 526.11 547.88 524.90 Z" />
<path fill="#706153" opacity="1.00" d=" M 537.39 523.48 C 541.28 521.25 542.94 527.84 539.70 529.57 C 536.32 531.26 534.69 525.12 537.39 523.48 Z" />
<path fill="#706153" opacity="1.00" d=" M 555.34 531.35 C 558.98 530.92 559.20 537.01 555.75 537.60 C 552.42 537.99 552.01 531.80 555.34 531.35 Z" />
<path fill="#706153" opacity="1.00" d=" M 532.84 536.93 C 534.26 536.27 535.79 535.89 537.30 535.42 C 537.65 537.36 539.10 539.71 537.41 541.43 C 535.15 544.53 530.13 539.45 532.84 536.93 Z" />
<path fill="#706153" opacity="1.00" d=" M 552.31 544.25 C 556.27 543.37 557.52 549.64 553.83 550.82 C 549.97 552.40 548.61 545.21 552.31 544.25 Z" />
<path fill="#706153" opacity="1.00" d=" M 538.15 548.94 C 537.98 547.04 539.79 545.93 540.80 544.60 C 542.30 546.49 544.94 549.25 542.60 551.58 C 540.64 553.73 537.86 551.31 538.15 548.94 Z" />
</g>
<g id="#b88c5bff">
<path fill="#b88c5b" opacity="1.00" d=" M 918.05 66.27 C 936.09 64.95 954.14 63.55 972.24 63.46 C 972.23 74.96 971.67 86.46 971.87 97.96 C 972.12 109.28 970.28 120.53 970.78 131.86 C 942.51 131.56 914.24 131.69 885.97 131.85 C 880.36 131.99 874.74 131.85 869.17 131.15 C 869.87 125.80 870.35 120.42 870.30 115.02 C 870.25 100.35 870.37 85.69 870.07 71.02 C 871.27 69.84 872.49 68.68 873.71 67.50 C 888.49 68.14 903.27 66.75 918.05 66.27 Z" />
<path fill="#b88c5b" opacity="1.00" d=" M 824.84 71.43 C 838.22 69.52 851.73 68.76 865.22 67.99 L 865.16 68.92 C 864.20 85.14 865.44 101.39 866.73 117.56 C 866.94 122.00 866.66 126.45 866.45 130.89 C 859.42 132.83 852.14 131.46 844.99 131.47 C 827.21 131.19 809.41 131.12 791.63 131.32 L 790.86 131.34 C 790.06 129.96 788.65 128.74 788.70 127.03 C 788.49 116.34 788.59 105.64 788.56 94.95 C 788.61 88.38 788.34 81.79 789.18 75.25 C 801.03 73.68 812.97 72.90 824.84 71.43 Z" />
<path fill="#b88c5b" opacity="1.00" d=" M 806.04 135.47 C 824.86 135.43 843.71 135.74 862.51 134.35 C 861.48 149.56 862.15 164.83 860.63 180.01 C 860.27 189.66 860.39 199.32 860.21 208.97 C 851.74 207.44 843.58 204.31 834.95 203.76 C 827.06 203.25 819.20 202.41 811.35 201.43 C 811.30 194.27 811.06 187.11 810.73 179.95 C 810.65 176.31 809.56 172.52 806.94 169.89 C 801.22 168.96 795.43 170.07 789.72 170.55 C 790.59 159.53 789.55 148.48 789.25 137.46 C 790.28 136.91 791.34 136.40 792.42 135.92 C 796.93 135.27 801.49 135.47 806.04 135.47 Z" />
<path fill="#b88c5b" opacity="1.00" d=" M 865.01 135.95 C 880.64 137.84 896.38 137.14 912.08 137.39 C 930.75 137.42 949.42 137.48 968.09 137.26 C 968.28 166.49 968.19 195.73 968.13 224.97 C 946.49 221.70 924.50 221.13 902.97 217.10 C 889.51 215.30 876.01 213.68 862.44 213.13 C 863.44 202.45 864.67 191.76 864.59 181.01 C 866.14 166.04 865.61 150.96 865.01 135.95 Z" />
<path fill="#b88c5b" opacity="1.00" d=" M 213.66 166.86 C 223.72 167.47 233.83 166.98 243.87 168.11 C 261.90 169.27 279.98 170.70 298.06 170.36 C 299.09 171.35 300.14 172.33 301.19 173.31 C 300.99 190.47 300.10 207.69 301.73 224.81 C 297.49 225.23 293.24 225.51 288.98 225.44 C 264.23 225.17 239.48 225.31 214.74 225.30 C 214.92 216.86 214.33 208.45 213.82 200.04 C 213.67 188.98 213.74 177.92 213.66 166.86 Z" />
<path fill="#b88c5b" opacity="1.00" d=" M 304.90 170.64 C 326.80 171.59 348.48 174.88 370.30 176.81 C 371.24 192.09 370.55 207.42 370.66 222.72 C 369.91 223.39 369.16 224.06 368.42 224.72 C 350.61 224.71 332.79 224.38 315.01 225.37 C 311.43 225.52 307.86 225.20 304.32 224.78 C 303.60 219.40 303.55 213.96 304.24 208.57 C 305.18 196.40 306.15 184.13 305.03 171.93 L 304.90 170.64 Z" />
<path fill="#b88c5b" opacity="1.00" d=" M 789.58 191.39 C 791.27 191.40 792.96 191.41 794.67 191.42 C 794.64 194.55 794.59 197.68 794.48 200.82 C 794.04 200.57 793.16 200.06 792.71 199.81 C 791.74 198.88 790.79 197.94 789.86 196.99 C 789.77 195.12 789.68 193.25 789.58 191.39 Z" />
<path fill="#b88c5b" opacity="1.00" d=" M 645.73 195.89 C 646.72 196.68 647.71 197.48 648.75 198.24 C 648.62 202.53 648.39 206.82 647.66 211.05 C 647.18 213.19 646.60 215.30 646.12 217.44 C 644.19 218.09 642.27 218.76 640.36 219.44 C 636.49 211.17 642.14 203.08 645.73 195.89 Z" />
<path fill="#b88c5b" opacity="1.00" d=" M 626.47 209.95 C 625.97 205.96 628.76 201.31 632.99 200.95 C 635.19 200.68 637.34 202.75 636.99 204.99 C 636.57 211.61 632.49 217.40 632.02 224.02 C 632.43 225.97 633.68 227.59 634.64 229.30 C 634.41 231.28 634.16 233.26 633.94 235.25 C 633.31 235.20 632.04 235.12 631.41 235.08 C 626.00 229.55 621.73 222.77 615.07 218.58 C 619.51 216.82 623.85 214.29 628.84 215.07 C 627.96 213.40 626.99 211.76 626.47 209.95 Z" />
<path fill="#b88c5b" opacity="1.00" d=" M 789.88 206.09 C 790.40 205.69 791.43 204.89 791.95 204.49 C 792.65 204.62 794.05 204.88 794.75 205.01 C 794.52 216.25 794.13 227.48 794.19 238.72 C 792.38 238.80 790.58 238.90 788.79 239.01 C 788.55 228.01 790.12 217.09 789.88 206.09 Z" />
<path fill="#b88c5b" opacity="1.00" d=" M 811.31 206.33 C 819.51 207.02 827.69 207.95 835.91 208.43 C 843.86 209.22 851.60 211.34 859.54 212.24 C 859.48 213.49 859.42 214.74 859.37 216.00 C 860.90 216.12 862.44 216.25 863.99 216.38 C 860.61 228.97 861.83 242.11 861.52 254.99 C 861.77 264.35 860.39 273.66 860.61 283.02 C 860.85 285.81 859.67 288.34 858.32 290.68 C 846.34 287.68 834.19 285.39 822.22 282.36 C 822.29 269.54 822.17 256.71 822.30 243.89 C 819.30 240.68 815.01 239.94 810.84 239.64 C 810.73 228.54 810.67 217.43 811.31 206.33 Z" />
<path fill="#b88c5b" opacity="1.00" d=" M 869.02 217.11 C 890.18 219.34 910.86 224.80 932.08 226.49 C 943.22 227.71 954.43 228.43 965.45 230.56 C 964.46 241.06 966.94 251.52 965.96 262.02 C 965.13 272.00 965.95 282.03 965.39 292.01 C 964.87 296.71 964.20 301.41 964.61 306.14 C 953.95 305.37 943.44 303.33 932.81 302.21 C 911.38 299.75 890.24 295.35 868.88 292.34 C 870.04 285.64 869.49 278.81 869.60 272.04 C 869.40 253.73 869.93 235.41 869.02 217.11 Z" />
<path fill="#b88c5b" opacity="1.00" d=" M 366.85 228.36 C 367.06 227.87 367.48 226.87 367.69 226.37 C 367.98 228.18 368.99 229.68 370.18 231.03 C 368.99 247.68 369.81 264.38 369.72 281.05 C 368.89 282.00 368.07 282.94 367.25 283.89 C 354.78 284.44 342.39 285.90 329.95 286.94 C 323.04 287.70 316.42 289.93 309.61 291.24 C 309.41 283.16 309.45 275.09 309.09 267.02 C 308.01 253.87 308.29 240.67 307.51 227.51 C 327.27 228.64 347.07 228.43 366.85 228.36 Z" />
<path fill="#b88c5b" opacity="1.00" d=" M 268.05 230.14 C 280.52 229.63 293.02 230.18 305.46 228.97 C 304.79 240.94 304.19 252.98 305.57 264.93 C 305.72 274.73 306.57 284.50 307.55 294.24 C 305.81 294.99 303.89 295.06 302.03 295.23 C 288.25 295.96 274.58 297.98 260.97 300.15 C 246.37 301.82 231.71 302.94 217.16 304.99 C 217.19 279.95 217.16 254.90 217.18 229.86 C 234.13 230.43 251.09 230.11 268.05 230.14 Z" />
<path fill="#b88c5b" opacity="1.00" d=" M 789.72 261.48 C 791.09 261.50 792.45 261.53 793.84 261.55 C 793.96 275.95 793.79 290.35 793.72 304.75 C 792.31 304.94 790.91 305.13 789.52 305.34 C 790.11 297.23 789.63 289.10 789.78 280.98 C 791.10 279.48 793.48 278.35 793.10 276.00 C 793.76 273.55 791.16 272.35 789.84 270.77 C 789.77 267.67 789.74 264.58 789.72 261.48 Z" />
<path fill="#b88c5b" opacity="1.00" d=" M 672.64 273.50 C 675.33 273.34 678.02 273.04 680.71 272.73 C 682.92 274.58 685.16 276.39 687.40 278.20 C 686.81 278.54 685.63 279.21 685.04 279.54 C 683.50 280.37 682.00 281.23 680.50 282.09 C 683.56 283.53 686.67 284.87 689.73 286.33 C 688.87 287.23 688.03 288.13 687.19 289.04 C 678.92 285.52 670.58 281.67 664.19 275.17 C 666.97 274.44 669.81 274.00 672.64 273.50 Z" />
<path fill="#b88c5b" opacity="1.00" d=" M 705.80 281.56 C 708.12 280.39 711.03 278.88 713.46 280.67 C 716.35 282.95 717.69 286.57 719.69 289.58 C 721.01 291.91 723.13 294.13 722.89 297.02 C 723.23 299.78 719.49 300.56 719.24 303.08 C 718.65 307.11 719.22 311.19 718.85 315.23 C 713.13 315.13 707.42 315.18 701.71 315.35 C 707.12 314.69 712.57 314.71 718.01 314.88 C 718.18 310.40 718.70 305.94 718.96 301.47 C 715.91 303.93 712.70 306.35 708.82 307.30 C 709.38 303.74 710.51 299.36 707.43 296.59 C 704.49 292.91 699.53 293.06 695.33 292.25 C 696.60 290.44 697.85 288.62 699.23 286.89 C 701.11 284.76 703.41 283.07 705.80 281.56 Z" />
<path fill="#b88c5b" opacity="1.00" d=" M 822.23 286.60 C 829.78 288.18 837.38 289.52 844.89 291.31 C 848.96 292.29 853.26 292.42 857.17 294.03 C 857.92 297.98 857.38 302.02 857.13 306.00 C 855.85 321.64 856.14 337.34 856.13 353.02 C 857.86 353.76 859.58 354.50 861.32 355.25 C 861.66 340.84 860.91 326.41 861.98 312.02 C 862.29 306.10 861.75 299.98 863.96 294.33 C 880.97 297.38 897.84 301.22 914.94 303.77 C 926.02 305.80 937.29 306.48 948.39 308.44 C 954.67 309.60 962.32 308.44 966.86 313.97 C 965.44 322.97 965.61 332.12 964.68 341.17 C 964.26 352.93 962.91 364.66 963.17 376.44 C 959.53 376.10 955.91 375.63 952.29 375.20 C 950.79 385.82 952.46 396.61 950.93 407.20 L 950.27 407.29 C 944.10 406.54 938.14 404.66 932.12 403.21 C 914.45 398.51 896.66 394.27 878.93 389.82 C 874.38 388.72 870.06 386.55 865.32 386.43 C 862.33 386.26 859.40 385.56 856.46 385.10 C 864.99 384.56 873.51 383.73 881.92 382.08 C 894.95 385.78 908.21 388.60 921.30 392.08 C 921.12 386.81 921.45 381.53 921.17 376.27 L 920.33 375.26 C 907.63 372.55 895.07 369.12 882.20 367.33 C 878.88 366.47 875.56 365.59 872.24 364.76 C 872.19 365.49 872.08 366.94 872.03 367.67 C 865.74 367.82 859.49 368.52 853.28 369.45 C 853.25 366.74 853.26 364.04 853.28 361.34 C 851.12 360.74 848.99 360.10 846.84 359.54 L 845.47 358.97 C 837.94 356.29 829.93 355.28 822.50 352.26 C 821.96 330.38 822.38 308.49 822.23 286.60 Z" />
<path fill="#b88c5b" opacity="1.00" d=" M 342.98 289.80 C 351.23 288.80 359.53 288.42 367.82 287.88 C 369.75 287.16 369.54 289.85 369.68 290.94 C 369.58 308.73 369.76 326.51 369.59 344.29 C 368.27 345.63 367.02 347.04 365.96 348.60 C 347.54 352.77 329.19 357.25 310.71 361.16 C 308.49 355.45 309.30 349.23 308.75 343.26 C 307.64 328.07 309.73 312.62 306.39 297.63 C 307.22 297.58 308.88 297.48 309.70 297.43 C 309.94 296.30 310.19 295.17 310.43 294.04 C 314.94 293.41 319.42 292.60 323.89 291.74 C 330.19 290.53 336.62 290.55 342.98 289.80 Z" />
<path fill="#b88c5b" opacity="1.00" d=" M 263.71 304.44 C 276.41 302.04 289.16 299.88 301.97 298.21 C 301.27 309.81 301.59 321.43 301.48 333.04 C 301.65 342.96 300.97 352.90 301.93 362.79 C 288.88 364.27 276.04 367.10 263.03 368.87 C 254.00 370.66 244.79 371.13 235.72 372.61 C 230.59 373.45 225.41 373.96 220.24 374.46 C 220.41 368.61 219.26 362.83 219.33 356.99 C 219.33 350.34 219.53 343.69 218.99 337.06 C 218.13 327.91 220.15 318.80 219.57 309.63 C 234.20 307.23 249.04 306.53 263.71 304.44 Z" />
<path fill="#b88c5b" opacity="1.00" d=" M 789.91 312.65 C 791.22 312.71 792.53 312.78 793.86 312.86 C 793.67 321.61 793.24 330.35 792.70 339.08 C 791.63 337.86 789.89 336.87 790.02 335.01 C 789.59 327.57 790.01 320.10 789.91 312.65 Z" />
<path fill="#b88c5b" opacity="1.00" d=" M 367.92 351.80 C 368.49 351.71 369.07 351.63 369.66 351.57 C 369.58 368.01 369.71 384.45 369.56 400.89 C 366.78 402.88 363.64 404.27 360.18 404.49 C 359.65 411.74 360.70 418.96 360.65 426.21 C 350.46 430.71 339.50 432.95 328.90 436.21 C 315.42 439.23 302.12 443.02 288.96 447.19 C 269.79 451.79 250.70 456.77 231.59 461.61 C 231.15 452.24 231.85 442.82 230.69 433.49 C 227.57 433.91 224.45 434.37 221.30 434.59 C 221.57 417.00 219.30 399.48 218.62 381.93 C 218.92 379.26 222.01 378.04 224.35 377.64 C 241.11 375.25 257.97 373.51 274.64 370.45 C 285.24 368.33 295.85 366.24 306.50 364.38 C 307.88 369.45 307.84 374.72 308.02 379.93 C 308.82 392.19 308.44 404.47 308.44 416.74 C 309.94 416.11 311.44 415.47 312.94 414.85 C 313.69 399.19 312.63 383.54 311.77 367.92 C 311.81 366.45 311.47 364.00 313.38 363.58 C 318.59 362.29 323.93 361.59 329.14 360.33 C 342.15 357.87 354.91 354.24 367.92 351.80 M 331.96 417.46 C 326.46 418.89 321.00 420.48 315.43 421.58 C 315.47 425.17 315.53 428.76 315.57 432.36 C 326.04 430.14 336.15 426.58 346.57 424.22 C 346.45 420.81 346.61 417.40 346.88 414.00 C 341.98 415.45 336.95 416.38 331.96 417.46 M 257.13 434.28 C 257.29 438.85 257.34 443.43 257.22 448.00 C 271.19 444.16 285.43 441.38 299.28 437.16 C 299.05 432.97 299.13 428.78 299.32 424.60 C 285.36 428.33 270.98 430.12 257.13 434.28 Z" />
<path fill="#b88c5b" opacity="1.00" d=" M 822.59 365.64 C 828.12 367.18 833.62 368.85 839.05 370.74 C 833.57 371.36 828.10 372.07 822.63 372.72 C 822.61 370.36 822.59 368.00 822.59 365.64 Z" />
</g>
<g id="#322633ff">
<path fill="#322633" opacity="1.00" d=" M 515.03 126.24 C 524.97 125.05 535.01 125.99 544.97 124.95 C 547.29 124.80 549.65 124.49 551.98 124.89 C 569.13 128.81 585.99 133.91 603.01 138.38 C 621.79 143.55 640.35 149.46 659.19 154.39 C 674.55 158.61 689.97 163.00 704.55 169.48 C 710.51 173.95 715.99 179.18 720.70 184.98 C 720.87 181.60 720.13 177.48 722.92 174.94 C 724.75 173.97 726.97 174.34 728.98 174.19 C 740.03 174.55 750.95 172.39 761.99 172.11 C 771.18 170.74 780.51 171.69 789.72 170.55 C 795.43 170.07 801.22 168.96 806.94 169.89 C 809.56 172.52 810.65 176.31 810.73 179.95 C 811.06 187.11 811.30 194.27 811.35 201.43 C 811.36 203.06 811.34 204.70 811.31 206.33 C 810.67 217.43 810.73 228.54 810.84 239.64 C 815.01 239.94 819.30 240.68 822.30 243.89 C 822.17 256.71 822.29 269.54 822.22 282.36 C 822.21 283.77 822.21 285.18 822.23 286.60 C 822.38 308.49 821.96 330.38 822.50 352.26 C 829.93 355.28 837.94 356.29 845.47 358.97 L 846.84 359.54 C 838.74 358.90 830.66 360.50 822.62 361.28 C 822.59 362.73 822.58 364.18 822.59 365.64 C 822.59 368.00 822.61 370.36 822.63 372.72 C 828.10 372.07 833.57 371.36 839.05 370.74 C 843.82 370.79 848.57 370.17 853.28 369.45 C 859.49 368.52 865.74 367.82 872.03 367.67 C 875.41 367.64 878.80 367.56 882.20 367.33 C 895.07 369.12 907.63 372.55 920.33 375.26 L 921.17 376.27 C 908.07 378.12 894.97 379.97 881.92 382.08 C 873.51 383.73 864.99 384.56 856.46 385.10 C 844.93 386.18 833.54 388.37 822.01 389.39 C 816.77 389.98 811.10 389.05 806.25 391.54 C 806.17 401.12 805.61 410.68 805.87 420.26 C 798.92 420.75 791.68 420.60 785.14 423.37 C 780.04 425.91 775.79 429.76 771.79 433.75 C 763.95 431.85 756.27 429.38 748.49 427.35 C 740.30 436.53 736.38 448.46 731.10 459.37 C 737.91 462.33 745.17 463.95 752.36 465.73 C 752.05 480.19 753.13 494.66 752.56 509.12 C 752.50 511.68 751.38 514.03 750.33 516.32 C 749.11 500.69 749.73 484.96 750.40 469.31 C 746.55 469.59 742.70 469.79 738.86 469.84 C 738.72 470.06 738.43 470.49 738.29 470.71 C 729.13 471.09 719.98 472.04 710.86 472.90 C 703.97 474.39 697.48 471.02 691.04 469.16 C 661.78 460.41 632.29 452.03 604.11 440.12 C 594.51 436.11 584.57 433.01 574.95 429.06 C 556.36 420.68 537.67 412.47 518.74 404.86 C 518.50 429.10 519.08 453.34 518.38 477.57 C 523.06 475.79 527.91 474.23 532.97 474.23 C 540.87 474.09 548.99 474.00 556.60 476.43 C 561.18 478.21 566.21 479.55 569.68 483.26 C 580.70 494.33 589.42 507.95 593.45 523.13 C 595.05 529.86 594.42 536.83 594.47 543.68 C 592.53 541.75 590.16 540.46 587.52 539.82 C 587.57 534.50 586.44 529.27 585.87 524.01 C 585.04 516.18 581.50 508.99 577.98 502.07 C 571.00 491.12 558.81 484.21 546.24 481.79 C 533.20 477.92 519.16 482.87 508.66 490.77 C 498.65 499.20 489.19 509.65 486.61 522.91 C 483.85 530.32 484.04 538.31 484.77 546.06 C 483.90 546.23 482.17 546.57 481.30 546.74 C 481.07 547.44 480.62 548.84 480.39 549.53 C 478.95 541.77 478.77 533.77 480.29 526.00 C 481.69 518.54 482.58 510.55 487.18 504.25 C 490.98 498.81 494.68 493.15 499.94 488.99 C 504.80 484.48 510.10 480.35 516.47 478.24 C 515.90 452.16 516.31 426.08 516.23 400.00 C 516.76 385.85 514.95 371.76 515.38 357.60 C 500.34 354.41 485.86 349.20 471.02 345.27 C 462.40 342.59 453.15 337.07 444.02 340.91 C 446.39 329.08 446.92 317.02 448.09 305.03 C 447.94 278.25 452.11 251.69 452.93 224.95 C 454.16 210.15 454.83 195.23 457.89 180.66 C 459.95 169.38 461.89 157.79 467.27 147.54 C 471.60 141.62 475.68 134.94 482.45 131.53 C 485.76 129.95 489.26 128.61 492.94 128.27 C 500.29 127.46 507.64 126.66 515.03 126.24 M 483.23 157.09 C 481.67 160.11 478.98 162.59 478.29 166.01 C 475.26 179.14 474.63 192.66 472.49 205.94 C 469.00 229.50 467.69 253.29 466.08 277.03 C 464.97 297.78 463.15 318.48 462.38 339.25 C 480.07 338.93 497.81 337.96 515.46 339.79 C 515.15 325.85 514.30 311.89 515.28 297.95 C 516.28 283.97 514.58 270.01 514.84 256.03 C 514.74 233.01 514.64 209.97 515.30 186.96 C 516.09 179.97 517.24 173.02 518.05 166.03 C 518.41 161.46 521.32 157.71 522.99 153.58 C 521.67 152.39 519.66 152.44 518.08 151.82 C 510.52 150.10 502.91 147.40 495.05 148.32 C 490.42 150.04 485.36 152.28 483.23 157.09 M 537.56 166.60 C 535.35 170.35 536.42 174.87 536.23 179.00 C 535.73 196.98 534.72 214.95 534.34 232.94 C 533.33 249.26 533.97 265.63 533.74 281.97 C 533.82 301.42 533.36 320.91 535.39 340.28 C 539.26 340.27 543.13 340.24 547.00 340.27 C 546.39 326.17 544.64 312.10 544.71 297.97 C 544.82 291.75 543.91 285.55 544.59 279.34 C 546.47 277.32 547.83 274.48 550.71 273.71 C 553.17 272.86 555.80 272.65 558.39 272.67 C 566.72 274.18 575.24 272.54 583.61 273.65 C 586.97 274.30 589.65 276.64 592.00 278.98 C 597.68 284.21 598.91 292.31 599.68 299.60 C 601.23 314.28 603.30 328.90 606.55 343.30 C 621.01 342.32 635.56 340.03 650.06 341.82 C 652.80 342.20 655.76 343.23 657.43 345.58 C 658.50 347.97 657.57 350.65 657.29 353.13 C 663.05 366.62 669.79 379.67 675.35 393.24 C 681.77 393.63 684.47 386.72 689.95 384.93 C 693.28 389.74 696.26 394.88 699.55 399.76 C 701.65 399.80 703.77 399.83 705.89 399.86 C 714.56 389.38 723.79 379.01 728.92 366.21 C 721.80 364.00 714.95 368.82 709.05 372.27 C 706.31 367.54 703.68 362.74 700.92 358.02 C 697.85 352.83 696.45 346.85 693.31 341.69 C 689.71 335.65 685.94 329.71 682.48 323.58 C 681.22 321.63 680.15 319.08 677.67 318.49 C 675.07 317.79 672.35 317.88 669.70 317.98 C 666.94 316.21 663.70 314.69 662.25 311.55 C 660.70 308.90 661.67 305.79 661.89 302.96 C 673.24 310.67 687.18 313.19 700.68 313.21 C 700.94 313.75 701.45 314.81 701.71 315.35 C 707.42 315.18 713.13 315.13 718.85 315.23 C 719.22 311.19 718.65 307.11 719.24 303.08 C 719.49 300.56 723.23 299.78 722.89 297.02 C 723.13 294.13 721.01 291.91 719.69 289.58 C 719.72 267.36 719.66 245.13 719.81 222.91 C 719.70 220.39 718.09 218.26 717.23 215.95 C 714.15 209.63 711.88 202.92 708.10 196.95 C 706.03 193.59 703.94 189.46 699.73 188.55 C 692.17 187.99 684.59 187.43 677.17 185.84 C 668.71 184.01 660.02 183.76 651.41 183.14 C 650.48 180.25 647.86 178.17 645.21 176.91 C 640.88 175.54 636.01 176.50 631.90 174.32 C 628.77 172.78 624.58 171.01 621.52 173.63 C 618.38 176.25 614.47 178.25 612.48 181.98 C 608.29 177.81 602.20 177.29 596.99 175.06 C 588.03 171.34 578.37 169.91 569.22 166.77 C 559.96 164.24 550.66 161.84 541.64 158.53 C 540.25 161.20 538.90 163.89 537.56 166.60 M 789.80 206.15 L 789.88 206.09 C 790.12 217.09 788.55 228.01 788.79 239.01 C 790.58 238.90 792.38 238.80 794.19 238.72 C 794.13 227.48 794.52 216.25 794.75 205.01 C 794.94 200.33 795.15 195.65 795.12 190.97 C 793.26 190.92 791.39 190.87 789.55 190.82 C 789.41 195.93 789.79 201.04 789.80 206.15 M 771.18 192.77 C 771.37 208.13 771.40 223.49 771.43 238.85 C 774.69 238.80 777.95 238.78 781.21 238.75 C 781.77 223.18 782.78 207.64 782.83 192.06 C 778.94 192.27 775.05 192.42 771.18 192.77 M 735.16 193.09 C 735.29 198.72 735.64 204.35 735.68 209.99 C 735.67 212.15 736.73 214.11 737.50 216.08 C 738.02 208.47 738.21 200.83 738.27 193.20 C 737.49 193.17 735.94 193.12 735.16 193.09 M 744.23 193.30 C 744.45 206.22 744.67 219.15 744.72 232.07 C 744.70 234.30 745.03 236.51 745.46 238.69 C 746.91 238.69 748.36 238.69 749.83 238.69 C 749.27 223.56 751.08 208.41 749.70 193.31 C 747.87 193.31 746.04 193.31 744.23 193.30 M 771.45 260.09 C 771.24 273.99 771.68 287.89 772.50 301.77 C 775.26 302.29 778.05 302.73 780.80 303.35 C 781.37 289.17 781.30 274.94 780.96 260.75 C 777.79 260.49 774.62 260.25 771.45 260.09 M 789.72 261.48 L 788.73 261.46 C 788.74 273.65 788.75 285.83 788.66 298.02 C 788.69 300.48 788.29 303.08 789.52 305.34 C 790.91 305.13 792.31 304.94 793.72 304.75 C 793.79 290.35 793.96 275.95 793.84 261.55 C 792.45 261.53 791.09 261.50 789.72 261.48 M 736.57 263.66 C 735.99 273.89 736.36 284.17 736.42 294.41 C 736.91 294.77 737.90 295.51 738.40 295.87 C 738.80 290.92 738.53 285.95 738.57 280.99 C 738.51 275.18 738.83 269.16 736.57 263.66 M 746.48 292.42 C 746.36 294.07 746.28 295.73 746.23 297.40 C 746.77 297.38 747.86 297.35 748.41 297.34 C 747.76 295.69 747.15 294.04 746.48 292.42 M 736.40 302.60 C 736.21 307.40 736.34 312.20 736.26 317.01 C 735.92 319.92 737.66 322.42 738.50 325.09 C 738.71 317.99 738.79 310.87 738.50 303.79 C 737.98 303.49 736.93 302.89 736.40 302.60 M 746.28 340.25 C 747.44 340.42 748.62 340.59 749.81 340.77 C 749.71 329.13 749.88 317.50 749.75 305.87 C 748.89 305.70 747.17 305.35 746.32 305.18 C 746.27 316.87 746.26 328.56 746.28 340.25 M 772.68 309.77 C 772.80 313.82 772.29 318.05 773.85 321.91 C 775.93 327.52 777.67 333.26 780.12 338.73 C 779.87 329.60 780.57 320.49 780.64 311.37 C 777.98 310.83 775.32 310.32 772.68 309.77 M 788.45 312.62 C 787.74 325.05 787.61 337.50 787.56 349.95 C 789.11 349.85 790.69 349.77 792.27 349.69 C 792.42 346.15 792.62 342.62 792.70 339.08 C 793.24 330.35 793.67 321.61 793.86 312.86 C 792.53 312.78 791.22 312.71 789.91 312.65 L 788.45 312.62 M 688.21 314.28 C 687.11 315.11 687.21 316.51 687.03 317.74 C 688.30 317.60 689.58 317.44 690.87 317.27 C 690.00 316.25 689.16 315.20 688.21 314.28 M 788.48 364.90 C 789.23 367.55 790.02 370.20 790.78 372.86 C 790.92 372.84 791.18 372.81 791.32 372.80 C 791.24 369.97 791.26 367.14 791.40 364.31 C 790.42 364.50 789.44 364.70 788.48 364.90 M 731.06 410.63 C 719.56 412.72 708.02 414.86 696.37 415.91 C 696.22 420.96 696.19 426.03 696.86 431.04 C 698.14 440.85 695.98 450.91 698.44 460.59 C 708.42 460.76 718.40 460.04 728.25 458.49 C 729.83 454.10 732.17 449.97 733.36 445.45 C 736.00 441.09 738.21 436.46 741.32 432.39 C 743.19 429.66 745.67 427.39 747.43 424.57 C 746.97 419.33 745.05 414.30 744.86 409.00 C 740.24 409.32 735.60 409.64 731.06 410.63 Z" />
<path fill="#322633" opacity="1.00" d=" M 646.12 217.44 C 646.60 215.30 647.18 213.19 647.66 211.05 C 651.62 221.51 656.16 231.75 659.46 242.44 C 662.48 251.80 666.35 260.84 669.71 270.07 C 670.13 271.59 671.20 272.84 672.64 273.50 C 669.81 274.00 666.97 274.44 664.19 275.17 C 658.45 270.03 652.41 265.12 647.60 259.05 C 645.05 251.04 641.87 243.25 638.74 235.45 C 640.63 233.51 643.15 231.80 643.75 228.98 C 644.79 225.19 645.22 221.26 646.12 217.44 Z" />
<path fill="#322633" opacity="1.00" d=" M 685.04 279.54 C 691.81 277.82 699.82 277.35 705.80 281.56 C 703.41 283.07 701.11 284.76 699.23 286.89 C 698.36 286.54 697.49 286.20 696.64 285.87 C 694.34 286.12 692.03 286.23 689.73 286.33 C 686.67 284.87 683.56 283.53 680.50 282.09 C 682.00 281.23 683.50 280.37 685.04 279.54 Z" />
<path fill="#322633" opacity="1.00" d=" M 1090.02 357.41 C 1101.68 355.28 1113.70 355.80 1125.22 352.86 C 1125.06 362.65 1125.62 372.47 1124.81 382.24 C 1112.22 384.40 1099.61 386.39 1087.11 389.04 C 1074.43 391.10 1061.74 393.09 1049.04 395.01 C 1030.91 396.89 1013.14 401.27 994.99 403.03 C 985.60 403.71 976.44 406.26 967.02 406.53 C 961.60 406.60 956.29 408.32 950.86 407.62 L 950.93 407.20 C 952.46 396.61 950.79 385.82 952.29 375.20 C 955.91 375.63 959.53 376.10 963.17 376.44 C 976.28 376.23 989.16 373.14 1002.15 371.52 C 1010.70 370.61 1018.89 367.85 1027.37 366.51 C 1034.70 365.07 1042.06 363.72 1049.47 362.68 C 1062.89 360.20 1076.60 359.95 1090.02 357.41 M 1077.94 363.70 C 1071.46 364.57 1064.94 365.18 1058.48 366.12 C 1058.37 372.20 1058.88 378.35 1057.74 384.37 C 1072.85 381.54 1088.07 379.28 1103.29 377.10 C 1103.28 371.22 1103.29 365.34 1103.43 359.47 C 1094.76 359.82 1086.55 362.92 1077.94 363.70 M 976.14 377.86 C 975.74 382.56 977.20 387.71 974.77 392.04 C 975.27 393.27 975.76 394.50 976.25 395.74 C 983.42 394.43 990.73 394.13 997.97 393.29 C 1013.29 391.03 1028.58 388.56 1043.90 386.34 C 1045.07 386.17 1046.90 385.55 1046.47 383.96 C 1046.60 378.71 1046.39 373.45 1046.50 368.19 C 1023.06 371.51 999.57 374.48 976.14 377.86 Z" />
<path fill="#322633" opacity="1.00" d=" M 403.70 391.74 C 415.26 397.37 427.30 402.00 439.72 405.33 C 439.85 413.57 439.86 421.80 439.75 430.04 C 427.27 426.41 414.38 423.34 403.16 416.52 C 403.43 408.26 402.30 399.93 403.70 391.74 Z" />
<path fill="#322633" opacity="1.00" d=" M 82.71 414.41 C 87.76 415.54 92.89 416.27 98.06 416.58 C 108.77 417.33 119.27 419.70 129.96 420.55 C 141.05 421.39 151.98 423.53 162.93 425.41 C 171.96 426.90 180.77 429.58 189.88 430.64 C 200.34 432.00 210.72 434.45 221.30 434.59 C 224.45 434.37 227.57 433.91 230.69 433.49 C 231.85 442.82 231.15 452.24 231.59 461.61 C 226.72 461.35 221.91 460.44 217.03 460.29 C 209.29 459.82 201.74 457.87 194.01 457.30 C 181.88 456.02 169.90 453.66 157.87 451.69 C 132.67 448.71 107.76 443.85 82.79 439.40 C 82.65 431.07 82.70 422.74 82.71 414.41 M 101.46 420.09 C 101.51 425.11 101.54 430.14 101.54 435.16 C 114.54 437.06 127.55 438.97 140.47 441.38 C 139.46 436.19 139.78 430.89 139.70 425.64 C 131.47 424.61 123.18 423.94 115.03 422.33 C 110.58 421.18 106.05 420.37 101.46 420.09 M 150.15 427.44 C 150.50 432.52 149.44 437.79 150.68 442.76 C 168.05 445.32 185.37 448.51 202.87 450.16 C 205.40 450.30 207.92 450.60 210.39 451.21 C 210.57 449.86 211.37 448.52 210.96 447.15 C 210.15 443.43 210.48 439.61 210.49 435.84 C 190.40 432.90 170.24 430.40 150.15 427.44 Z" />
<path fill="#322633" opacity="1.00" d=" M 403.18 427.87 C 407.95 429.57 412.68 431.36 417.37 433.27 C 424.59 436.25 432.34 437.46 439.85 439.48 C 439.70 447.40 440.03 455.32 439.94 463.24 C 434.03 461.93 428.05 460.98 422.14 459.65 C 415.79 458.21 410.06 455.05 404.27 452.20 C 403.47 444.11 403.04 435.99 403.18 427.87 Z" />
<path fill="#322633" opacity="1.00" d=" M 784.64 450.65 C 791.74 444.20 799.60 437.98 809.14 435.73 C 809.59 437.72 810.09 439.71 810.59 441.70 C 804.02 443.67 797.56 446.24 791.67 449.77 C 785.26 453.77 781.81 460.75 778.21 467.11 C 774.66 473.25 773.00 480.23 771.17 487.02 C 769.15 494.61 769.92 502.51 770.43 510.24 C 768.05 510.25 765.67 510.18 763.33 509.82 C 764.53 495.46 764.76 480.14 772.43 467.43 C 776.08 461.56 779.80 455.62 784.64 450.65 Z" />
<path fill="#322633" opacity="1.00" d=" M 821.29 457.34 C 833.42 454.21 846.64 460.28 853.20 470.68 C 856.43 477.93 859.35 485.93 857.95 493.99 C 854.96 506.37 849.07 518.97 837.97 526.01 C 824.35 534.76 803.88 530.80 795.06 517.03 C 792.19 512.45 788.87 507.65 788.84 502.03 C 788.66 492.77 790.59 483.40 795.28 475.35 C 799.92 465.11 810.49 459.00 821.29 457.34 M 823.24 465.38 C 817.14 467.12 812.43 471.73 808.16 476.19 C 803.54 481.47 798.98 487.65 798.81 494.96 C 798.56 500.82 798.91 507.38 803.09 511.94 C 809.90 519.61 821.37 523.71 831.30 520.32 C 838.21 518.04 843.97 512.74 847.34 506.36 C 849.60 499.53 851.95 492.30 850.47 485.03 C 849.28 479.14 846.58 473.11 841.58 469.51 C 836.10 466.41 829.64 463.45 823.24 465.38 Z" />
<path fill="#322633" opacity="1.00" d=" M 824.27 474.22 C 827.72 473.41 831.46 474.93 834.98 475.29 C 839.78 475.90 842.93 480.58 843.71 485.05 C 844.64 494.39 841.67 505.08 833.35 510.34 C 826.75 514.45 818.28 511.78 812.47 507.51 C 807.12 503.74 806.52 495.86 809.48 490.42 C 812.93 483.91 818.18 478.32 824.27 474.22 M 828.39 480.47 C 826.36 481.32 825.49 484.31 827.30 485.82 C 829.11 487.99 832.14 485.19 831.86 482.97 C 832.11 481.18 830.05 479.01 828.39 480.47 M 820.27 483.41 C 816.93 483.58 816.43 489.13 819.94 489.17 C 823.03 488.75 823.49 483.33 820.27 483.41 M 833.18 491.03 C 832.50 493.28 834.91 495.05 836.99 494.34 C 839.02 492.99 838.50 490.47 838.46 488.42 C 836.64 488.89 833.52 488.50 833.18 491.03 M 813.77 491.66 C 811.00 493.25 812.87 496.30 814.14 498.20 C 815.36 496.90 817.64 496.06 817.63 494.02 C 817.72 492.20 815.28 489.90 813.77 491.66 M 829.15 496.28 C 827.17 497.14 826.30 499.88 827.14 501.82 C 827.85 504.29 832.06 504.28 832.77 501.79 C 834.33 499.46 831.92 495.32 829.15 496.28 M 819.31 497.42 C 817.33 498.73 816.69 501.70 818.41 503.49 C 820.01 505.34 822.97 503.72 823.81 501.86 C 825.32 499.21 821.96 495.86 819.31 497.42 Z" />
<path fill="#322633" opacity="1.00" d=" M 539.41 498.57 C 548.12 497.43 557.72 497.51 565.07 503.03 C 577.57 512.62 582.89 529.82 580.05 545.05 C 576.85 555.44 570.37 565.32 560.67 570.67 C 553.74 575.08 545.22 576.55 537.13 575.81 C 521.80 573.70 509.70 560.09 507.64 545.05 C 507.36 538.32 506.98 531.26 509.73 524.95 C 514.13 514.20 522.60 505.09 533.10 500.11 C 535.08 499.18 537.25 498.84 539.41 498.57 M 541.22 505.34 C 530.38 509.42 522.88 519.43 518.74 529.89 C 516.78 537.57 516.41 546.35 520.57 553.42 C 522.74 558.10 527.22 561.14 531.77 563.25 C 539.33 566.51 548.33 567.28 555.94 563.77 C 564.26 560.10 569.73 552.02 572.75 543.72 C 576.55 530.45 570.55 515.47 559.55 507.47 C 554.02 504.71 547.20 503.60 541.22 505.34 Z" />
<path fill="#322633" opacity="1.00" d=" M 542.43 514.56 C 547.83 513.19 554.48 513.36 558.91 517.14 C 562.27 521.32 564.95 526.52 564.81 532.03 C 564.84 538.57 564.10 545.58 559.99 550.94 C 556.43 555.87 549.87 558.02 543.99 556.91 C 537.23 555.73 530.23 552.65 526.44 546.68 C 524.28 540.90 525.67 534.13 528.90 528.99 C 532.35 523.38 536.28 517.46 542.43 514.56 M 547.88 524.90 C 548.86 526.11 550.05 527.10 551.20 528.16 C 551.77 526.55 553.41 524.64 552.04 522.96 C 550.93 520.99 546.67 522.54 547.88 524.90 M 537.39 523.48 C 534.69 525.12 536.32 531.26 539.70 529.57 C 542.94 527.84 541.28 521.25 537.39 523.48 M 555.34 531.35 C 552.01 531.80 552.42 537.99 555.75 537.60 C 559.20 537.01 558.98 530.92 555.34 531.35 M 532.84 536.93 C 530.13 539.45 535.15 544.53 537.41 541.43 C 539.10 539.71 537.65 537.36 537.30 535.42 C 535.79 535.89 534.26 536.27 532.84 536.93 M 552.31 544.25 C 548.61 545.21 549.97 552.40 553.83 550.82 C 557.52 549.64 556.27 543.37 552.31 544.25 M 538.15 548.94 C 537.86 551.31 540.64 553.73 542.60 551.58 C 544.94 549.25 542.30 546.49 540.80 544.60 C 539.79 545.93 537.98 547.04 538.15 548.94 Z" />
</g>
<g id="#9f0b59ff">
<path fill="#9f0b59" opacity="1.00" d=" M 590.96 222.91 C 596.76 221.41 603.05 220.69 608.00 217.05 C 610.37 217.51 612.72 218.03 615.07 218.58 C 621.73 222.77 626.00 229.55 631.41 235.08 C 632.83 236.75 634.55 238.25 635.57 240.23 C 638.17 247.29 642.93 253.25 647.60 259.05 C 652.41 265.12 658.45 270.03 664.19 275.17 C 670.58 281.67 678.92 285.52 687.19 289.04 C 689.85 290.23 692.54 291.38 695.33 292.25 C 699.53 293.06 704.49 292.91 707.43 296.59 C 710.51 299.36 709.38 303.74 708.82 307.30 C 706.84 310.11 703.98 312.22 700.68 313.21 C 687.18 313.19 673.24 310.67 661.89 302.96 C 659.67 301.58 657.49 300.12 655.32 298.68 C 644.88 298.95 634.27 296.84 624.80 292.39 C 622.89 298.61 621.29 304.97 621.21 311.52 C 632.15 311.37 643.10 311.55 654.04 311.34 C 658.82 311.13 662.28 315.12 665.43 318.17 C 666.84 318.11 668.27 318.04 669.70 317.98 C 672.35 317.88 675.07 317.79 677.67 318.49 C 680.15 319.08 681.22 321.63 682.48 323.58 C 685.94 329.71 689.71 335.65 693.31 341.69 C 696.45 346.85 697.85 352.83 700.92 358.02 C 703.68 362.74 706.31 367.54 709.05 372.27 C 714.95 368.82 721.80 364.00 728.92 366.21 C 723.79 379.01 714.56 389.38 705.89 399.86 C 703.77 399.83 701.65 399.80 699.55 399.76 C 696.26 394.88 693.28 389.74 689.95 384.93 C 684.47 386.72 681.77 393.63 675.35 393.24 C 669.79 379.67 663.05 366.62 657.29 353.13 C 657.57 350.65 658.50 347.97 657.43 345.58 C 655.76 343.23 652.80 342.20 650.06 341.82 C 635.56 340.03 621.01 342.32 606.55 343.30 C 603.30 328.90 601.23 314.28 599.68 299.60 C 598.91 292.31 597.68 284.21 592.00 278.98 C 589.65 276.64 586.97 274.30 583.61 273.65 C 575.24 272.54 566.72 274.18 558.39 272.67 C 559.73 265.64 560.87 258.49 563.70 251.86 C 566.20 245.86 568.23 239.46 572.38 234.34 C 577.46 229.07 583.55 224.21 590.96 222.91 M 577.52 243.28 C 576.08 245.26 574.54 247.22 573.71 249.56 C 576.17 248.55 577.76 246.38 579.21 244.26 C 581.08 241.52 583.75 239.49 585.91 236.99 C 583.36 238.13 581.17 239.86 578.84 241.36 C 576.36 241.43 580.09 236.82 576.89 236.86 C 575.85 238.99 576.61 241.26 577.52 243.28 M 584.93 240.91 C 583.56 242.51 583.64 244.69 583.49 246.66 C 586.00 246.97 588.57 246.88 589.82 244.18 C 589.78 246.34 589.20 249.36 592.43 248.85 C 592.46 249.71 592.53 251.44 592.57 252.30 C 594.20 248.47 596.66 244.97 597.91 241.01 C 597.93 236.79 592.43 238.67 591.86 241.69 C 593.50 241.21 595.10 240.68 596.75 240.18 C 596.23 241.70 595.71 243.21 595.18 244.73 C 593.65 242.70 591.49 243.01 590.11 244.96 C 590.39 242.78 590.48 240.60 590.48 238.41 C 588.52 238.94 586.05 238.92 584.93 240.91 M 602.46 240.66 C 600.57 241.20 599.92 243.18 599.25 244.80 C 600.37 246.02 601.49 247.26 602.60 248.51 C 601.69 248.45 599.85 248.33 598.94 248.27 C 599.22 249.46 599.52 250.64 599.83 251.82 C 601.69 251.26 603.09 249.93 604.42 248.57 C 604.35 250.64 604.37 252.72 604.42 254.79 C 606.85 255.02 609.19 254.47 611.23 253.09 C 609.97 252.63 608.73 252.13 607.53 251.59 C 607.36 250.47 607.34 249.34 607.31 248.22 C 610.27 246.83 609.89 243.29 610.74 240.62 C 607.67 243.04 605.46 246.28 603.39 249.54 C 602.71 247.28 601.99 245.05 601.30 242.80 C 603.09 242.63 604.88 242.46 606.68 242.29 C 605.38 241.53 604.09 240.27 602.46 240.66 Z" />
<path fill="#9f0b59" opacity="1.00" d=" M 585.14 245.42 C 585.09 242.96 586.06 240.77 588.53 239.88 C 588.58 241.32 588.61 242.76 588.59 244.20 C 587.73 244.51 586.00 245.12 585.14 245.42 Z" />
<path fill="#9f0b59" opacity="1.00" d=" M 592.01 245.20 C 593.58 244.70 594.08 245.30 593.51 246.99 C 591.92 247.49 591.42 246.90 592.01 245.20 Z" />
</g>
<g id="#e29312ff">
<path fill="#e29312" opacity="1.00" d=" M 444.02 340.91 C 453.15 337.07 462.40 342.59 471.02 345.27 C 485.86 349.20 500.34 354.41 515.38 357.60 C 514.95 371.76 516.76 385.85 516.23 400.00 C 516.31 426.08 515.90 452.16 516.47 478.24 C 510.10 480.35 504.80 484.48 499.94 488.99 C 494.68 493.15 490.98 498.81 487.18 504.25 C 482.58 510.55 481.69 518.54 480.29 526.00 C 478.77 533.77 478.95 541.77 480.39 549.53 C 480.54 550.61 480.68 551.70 480.82 552.79 C 478.46 553.62 476.10 554.42 473.71 555.15 C 475.57 529.14 474.04 503.04 474.99 477.00 C 476.25 458.02 475.21 438.99 475.88 419.99 C 476.67 411.15 476.33 402.25 477.20 393.41 C 481.27 392.03 485.24 390.03 487.57 386.25 C 481.42 387.11 475.29 388.29 469.06 388.26 C 460.38 388.24 451.59 388.72 443.03 386.95 C 435.61 385.40 428.06 384.03 421.10 380.92 C 416.44 378.96 412.18 376.20 407.98 373.41 C 411.61 366.88 415.46 360.31 420.99 355.18 C 424.28 352.37 427.81 349.86 431.10 347.05 C 434.80 343.91 439.49 342.39 444.02 340.91 Z" />
<path fill="#e29312" opacity="1.00" d=" M 518.74 404.86 C 537.67 412.47 556.36 420.68 574.95 429.06 C 584.57 433.01 594.51 436.11 604.11 440.12 C 632.29 452.03 661.78 460.41 691.04 469.16 C 697.48 471.02 703.97 474.39 710.86 472.90 C 719.98 472.04 729.13 471.09 738.29 470.71 C 739.41 470.81 740.54 470.92 741.68 471.04 C 739.46 487.07 740.58 503.29 739.99 519.41 C 730.94 520.76 721.87 521.96 712.82 523.37 C 698.46 525.34 684.35 528.79 670.02 530.98 C 652.08 534.90 633.99 538.08 616.04 541.95 C 608.96 543.58 601.68 543.46 594.47 543.68 C 594.42 536.83 595.05 529.86 593.45 523.13 C 589.42 507.95 580.70 494.33 569.68 483.26 C 566.21 479.55 561.18 478.21 556.60 476.43 C 548.99 474.00 540.87 474.09 532.97 474.23 C 527.91 474.23 523.06 475.79 518.38 477.57 C 519.08 453.34 518.50 429.10 518.74 404.86 Z" />
<path fill="#e29312" opacity="1.00" d=" M 696.37 415.91 C 708.02 414.86 719.56 412.72 731.06 410.63 C 731.46 410.70 732.25 410.82 732.64 410.88 C 732.70 422.41 732.71 433.94 733.36 445.45 C 732.17 449.97 729.83 454.10 728.25 458.49 C 718.40 460.04 708.42 460.76 698.44 460.59 C 695.98 450.91 698.14 440.85 696.86 431.04 C 696.19 426.03 696.22 420.96 696.37 415.91 Z" />
<path fill="#e29312" opacity="1.00" d=" M 805.87 420.26 C 808.39 419.94 810.64 421.31 812.96 422.05 C 822.11 425.24 831.67 427.10 840.94 429.87 C 844.67 430.92 846.97 434.12 848.77 437.32 C 846.47 439.22 843.59 437.92 841.04 437.49 C 830.63 435.09 819.70 433.29 809.14 435.73 C 799.60 437.98 791.74 444.20 784.64 450.65 C 779.80 455.62 776.08 461.56 772.43 467.43 C 764.76 480.14 764.53 495.46 763.33 509.82 C 763.22 512.06 763.03 514.30 762.77 516.53 C 761.22 516.19 759.68 515.89 758.14 515.64 C 755.67 501.94 758.00 487.92 761.88 474.73 C 764.37 468.75 767.04 462.82 770.19 457.17 C 778.42 445.26 790.06 436.17 802.33 428.71 C 796.73 426.47 790.61 425.95 785.14 423.37 C 791.68 420.60 798.92 420.75 805.87 420.26 Z" />
</g>
<g id="#b8720cff">
<path fill="#b8720c" opacity="1.00" d=" M 407.98 373.41 C 412.18 376.20 416.44 378.96 421.10 380.92 C 428.06 384.03 435.61 385.40 443.03 386.95 C 451.59 388.72 460.38 388.24 469.06 388.26 C 475.29 388.29 481.42 387.11 487.57 386.25 C 485.24 390.03 481.27 392.03 477.20 393.41 C 476.33 402.25 476.67 411.15 475.88 419.99 C 475.21 438.99 476.25 458.02 474.99 477.00 C 474.04 503.04 475.57 529.14 473.71 555.15 C 473.15 556.12 471.19 555.82 470.07 556.07 C 463.99 555.79 458.04 558.08 451.98 557.02 C 445.99 555.98 440.21 554.03 434.66 551.57 C 424.31 547.55 414.38 541.57 407.45 532.77 C 407.90 527.15 406.52 521.63 406.75 516.02 C 406.66 506.35 407.14 496.65 406.06 487.02 C 405.02 475.44 404.20 463.84 404.27 452.20 C 410.06 455.05 415.79 458.21 422.14 459.65 C 428.05 460.98 434.03 461.93 439.94 463.24 C 440.03 455.32 439.70 447.40 439.85 439.48 C 432.34 437.46 424.59 436.25 417.37 433.27 C 412.68 431.36 407.95 429.57 403.18 427.87 C 403.22 424.08 403.18 420.30 403.16 416.52 C 414.38 423.34 427.27 426.41 439.75 430.04 C 439.86 421.80 439.85 413.57 439.72 405.33 C 427.30 402.00 415.26 397.37 403.70 391.74 C 405.32 385.68 406.56 379.53 407.98 373.41 Z" />
<path fill="#b8720c" opacity="1.00" d=" M 731.06 410.63 C 735.60 409.64 740.24 409.32 744.86 409.00 C 745.05 414.30 746.97 419.33 747.43 424.57 C 745.67 427.39 743.19 429.66 741.32 432.39 C 738.21 436.46 736.00 441.09 733.36 445.45 C 732.71 433.94 732.70 422.41 732.64 410.88 C 732.25 410.82 731.46 410.70 731.06 410.63 Z" />
<path fill="#b8720c" opacity="1.00" d=" M 771.79 433.75 C 775.79 429.76 780.04 425.91 785.14 423.37 C 790.61 425.95 796.73 426.47 802.33 428.71 C 790.06 436.17 778.42 445.26 770.19 457.17 C 767.04 462.82 764.37 468.75 761.88 474.73 C 758.00 487.92 755.67 501.94 758.14 515.64 C 752.20 517.39 746.02 518.04 739.99 519.41 C 740.58 503.29 739.46 487.07 741.68 471.04 C 740.54 470.92 739.41 470.81 738.29 470.71 C 738.43 470.49 738.72 470.06 738.86 469.84 C 742.70 469.79 746.55 469.59 750.40 469.31 C 749.73 484.96 749.11 500.69 750.33 516.32 C 751.38 514.03 752.50 511.68 752.56 509.12 C 753.13 494.66 752.05 480.19 752.36 465.73 C 745.17 463.95 737.91 462.33 731.10 459.37 C 736.38 448.46 740.30 436.53 748.49 427.35 C 756.27 429.38 763.95 431.85 771.79 433.75 Z" />
</g>
</svg>