<?xml version="1.0" encoding="utf-8"?>
<!-- Generator: Adobe Illustrator 21.0.2, SVG Export Plug-In . SVG Version: 6.00 Build 0)  -->
<svg version="1.1" id="user" xmlns="http://www.w3.org/2000/svg" xmlns:xlink="http://www.w3.org/1999/xlink" x="0px" y="0px"
	 viewBox="0 0 48 48" style="enable-background:new 0 0 48 48;" xml:space="preserve">
<style type="text/css">
	.st0{fill:#DDDDDD;}
	.st1{fill:#646464;}
</style>
<circle class="st0" cx="24" cy="24" r="24"/>
<g>
	<path class="st1" d="M32.7,39H15.3c-3.2,0-5.3-1.9-5.3-5.1c0-4.4,1.1-11.2,6.9-11.2c0.6,0,3.2,2.7,7.1,2.7s6.5-2.7,7.1-2.7
		c5.8,0,6.9,6.8,6.9,11.2C38,37.1,35.9,39,32.7,39z M24,24c-4.2,0-7.6-3.4-7.6-7.5S19.8,9,24,9s7.6,3.4,7.6,7.5S28.2,24,24,24z"/>
</g>
</svg>