<svg xmlns="http://www.w3.org/2000/svg" x="0px" y="0px"
	 viewBox="0 0 794 88" enable-background="new 0 0 794 88" xml:space="preserve"
	 role="img" aria-hidden="true" focusable="false">
<g id="Adademy">
	<path fill="#A4286A" d="M592,72.2h0.4l0-0.4l0.2-2.3l0-0.4l-0.4-0.1l-3.5-0.5l3.6-7.5h13.8l1.1,7.5l-3.6,0.5l-0.4,0.1l0,0.4
		l-0.2,2.3l0,0.5h0.5h12.8h0.4l0-0.4l0.2-2.3l0-0.4l-0.4-0.1l-3.9-0.6l-5.8-35.5l-0.1-0.4h-0.4h-4.6h-0.3l-0.1,0.3l-17.9,35.7
		L580,69l-0.4,0.1l0,0.4l-0.3,2.3l-0.1,0.5h0.5H592z M603.1,37.5l2.9,20.1h0L603.1,37.5l-9.7,20.1L603.1,37.5z M605.5,57h-11.3
		l8.7-18L605.5,57z M592,60.6h14.5l1.2,8.3l-1.2-8.3L592,60.6l-4,8.3L592,60.6z M580,69.5l3.7-0.6L580,69.5l-0.3,2.3L580,69.5z"/>
	<path fill="#A4286A" d="M625.9,72.7c3.5,0,7.4-1.8,9.7-4.5l0.1-0.1l0.2-0.2l-0.1-0.3l-1-2.1l-0.3-0.5l-0.5,0.3l-0.3,0.2
		c-0.6,0.4-1.2,0.8-1.7,1.2c-1.7,1.1-3.4,1.7-5,1.7c-1.6,0-2.8-0.6-3.6-1.9c-2.1-3.1-2-11.5,1.1-16.5c2-3.2,4.4-3.8,6.1-3.8
		c1.7,0,3.4,0.6,4.7,1.8l0.4,0.3l0.6,0.5l0.2-0.7l1.2-4.3l0.1-0.4l-0.3-0.2l-0.2-0.1c-1.6-0.8-3.6-1.3-5.7-1.3
		c-2.7,0-7.7,0.8-11.5,6.4c-2.5,3.8-3.8,8-3.8,12.7c0,4,1,7.1,2.9,9.2C620.9,71.8,623.2,72.7,625.9,72.7z M637.1,43.4l0.2,0.1
		L637.1,43.4c-0.4-0.2-0.8-0.4-1.2-0.5C636.3,43,636.7,43.2,637.1,43.4z M630.7,45.7c1.8,0,3.6,0.7,5,1.9l0.4,0.3l-0.4-0.3
		C634.3,46.3,632.5,45.7,630.7,45.7c-0.5,0-1.1,0.1-1.7,0.2C629.6,45.7,630.2,45.7,630.7,45.7z M634,65.8l0.3-0.2L634,65.8
		c-0.2,0.2-0.5,0.3-0.7,0.5C633.6,66.1,633.8,66,634,65.8z M619.6,69.6c1.6,1.7,3.8,2.7,6.3,2.7c0,0,0,0,0,0c3.4,0,7.1-1.7,9.4-4.4
		c-2.3,2.7-6,4.4-9.4,4.4c0,0,0,0,0,0C623.3,72.3,621.1,71.3,619.6,69.6c-0.7-0.8-1.2-1.6-1.7-2.7C618.3,68,618.9,68.8,619.6,69.6z"
		/>
	<path fill="#A4286A" d="M647,72.8c2.8,0,5.5-1.3,7.7-3.6c0,0.9,0.2,1.8,0.8,2.4c0.6,0.7,1.6,1.1,2.9,1.1c2.4,0,5-2.1,5.7-3.4
		l0.1-0.1l0.1-0.2l-0.1-0.2l-0.9-1.5l-0.3-0.5l-0.4,0.4l-0.3,0.2c-0.4,0.3-1.4,1.3-1.7,1.3c0,0,0,0-0.1,0c0,0,0,0-0.1,0
		c-0.2-0.4,0.3-3.8,1.6-12.1c0.5-3.5,1.2-8,2.1-13.8l0.1-0.5l0.1-0.7l-0.7,0.2l-3.2,0.9c-1.7-0.5-3.3-0.8-4.9-0.8
		c-5.7,0-10.7,3.4-13.9,9.4c-3.4,6.4-3.7,14.1-0.7,18.3C642,71.6,644.4,72.8,647,72.8z M663.5,69.1l0.1-0.1L663.5,69.1
		c-0.1,0.3-0.4,0.7-0.8,1C663.1,69.8,663.4,69.4,663.5,69.1z M661.3,56.3c0.1-0.4,0.1-0.8,0.2-1.3C661.4,55.5,661.4,55.9,661.3,56.3
		c0,0.1,0,0.1,0,0.2C661.3,56.4,661.3,56.4,661.3,56.3z M654.9,45.2c0.8,0,1.5,0.1,2.2,0.3C656.4,45.3,655.6,45.2,654.9,45.2
		c-0.6,0-1.5,0.1-2.6,0.4C653.3,45.3,654.3,45.2,654.9,45.2z M645.5,54.1c2.7-7.6,7.5-8.4,9.4-8.4c1.1,0,2.2,0.3,3,0.8l-2.5,16.4
		c-1.6,2.6-4.5,5.5-7.5,5.5c-1,0-1.8-0.4-2.4-1.3C643.5,64.2,644.2,57.5,645.5,54.1z"/>
	<path fill="#A4286A" d="M676.1,72.8c2.7,0,5.5-1.2,7.7-3.2c0.1,0.8,0.3,1.7,0.9,2.3c0.6,0.6,1.4,0.9,2.5,0.9c2.4,0,4.7-1.6,5.7-3.2
		l0.1-0.2l0.2-0.3l-0.2-0.3l-1-1.6l-0.3-0.5l-0.4,0.4l-0.3,0.2c-0.9,0.8-1.4,1-1.6,1.1c0-1.4,0.8-7.1,2.4-17.7
		c0.8-5.1,1.7-11.6,2.9-19.9l0-0.2l0-0.3l-0.3-0.2l-1.4-0.7l-0.1-0.1l-0.2,0l-6.3,0.9l-0.3,0l-0.1,0.3l-0.5,2.2l-0.1,0.5l0.5,0.1
		l2.8,0.7l-1.2,7.9c-1.2-0.3-2.4-0.4-3.6-0.4c-10.8,0-16.7,11.5-16.7,19.5c0,3.7,0.9,6.7,2.6,8.7C671.5,71.8,673.7,72.8,676.1,72.8z
		 M691.3,50.7c0.1-0.6,0.2-1.3,0.3-2C691.5,49.4,691.4,50.1,691.3,50.7c-0.1,0.7-0.2,1.3-0.3,2C691.1,52.1,691.2,51.4,691.3,50.7z
		 M673.6,71.9c0.8,0.3,1.6,0.4,2.5,0.4C675.3,72.3,674.4,72.2,673.6,71.9z M684.3,68.4L684.3,68.4c0,0.5,0,0.9,0,1.3
		C684.3,69.3,684.3,68.8,684.3,68.4z M687.5,46.3L687.5,46.3c-0.2-0.2-0.5-0.4-0.8-0.5C686.9,46,687.2,46.1,687.5,46.3z M683.5,45.1
		c0.4,0,0.8,0,1.1,0.1C684.2,45.2,683.9,45.1,683.5,45.1L683.5,45.1z M683.5,45.6c1.3,0,2.6,0.3,3.5,0.9l-2.6,17.2
		c-1.5,2.2-4.4,4.6-7.4,4.6c-1.3,0-2.2-0.6-2.9-1.8c-1.8-3.1-1.3-8.6,0-12.4C676.8,46.4,681.6,45.6,683.5,45.6z M673.6,54
		c-0.3,1-0.6,2.1-0.8,3.2C673,56.1,673.3,55,673.6,54z"/>
	<path fill="#A4286A" d="M707.4,72.7c3.1,0,7.9-2,10.3-5.5l0.1-0.2l0.2-0.2l-0.1-0.3l-1.2-2.2l-0.3-0.5l-0.4,0.4l-0.3,0.3
		c-2.4,2.4-5.3,3.8-7.7,3.8c-1.5,0-2.9-0.6-3.8-1.6c-1.3-1.4-1.9-3.5-1.7-6.3c2-0.1,5-0.7,8.1-1.9c2.7-1,6.3-2.9,8.1-6.1
		c1.1-1.9,1.4-4.4,0.6-6.5c-0.5-1.3-1.6-3.1-4.1-4c-1.1-0.4-2.2-0.6-3.4-0.6c-4.2,0-9.8,2.6-13,9.7c-1.4,3-2.1,6.3-2.1,9.6
		C696.6,68.3,700.7,72.7,707.4,72.7z M711,45.6c1.4,0,2.5,0.9,2.8,2.3c0.5,1.8-0.3,4.7-4,6.7c-2.3,1.2-4.7,2-7.3,2.2
		C703.7,48.5,708.2,45.6,711,45.6z M702.2,71.1c-0.6-0.3-1.1-0.7-1.6-1.1C701,70.4,701.6,70.7,702.2,71.1z"/>
	<path fill="#A4286A" d="M765.4,69.1l0.1-0.2l0.2-0.3l-0.2-0.3l-1-1.6l-0.3-0.5l-0.4,0.4l-0.3,0.3c-1,1-1.7,1.4-2,1.5
		c-0.1-0.6,0-2.3,0.8-7.5c0.2-1,0.3-1.9,0.5-2.9c1-5.5,2.1-11.2-0.7-14.5c-1.1-1.3-2.8-2-4.7-2c-3.3,0-6.8,1.9-9.7,5.3
		c-0.6-3.5-2.7-5.3-6.1-5.3c-1.3,0-5.5,0.4-10,5.2l0.4-4.1l0-0.3l-0.3-0.1l-1.3-0.6l-0.1-0.1l-0.2,0l-5.5,1.1l-0.3,0.1l-0.1,0.3
		l-0.4,2.2l-0.1,0.4l0.3,0.2l2.1,1L723,71.7l-0.1,0.5h0.5h4.5h0.4l0.1-0.4l2.5-18.7c3.2-4.6,7.1-6.8,9.4-6.8c0.7,0,1.3,0.2,1.6,0.6
		c1.2,1.7,0.4,7.2-0.9,16.3c-0.3,2.4-0.7,5.1-1.2,8.1l0,0.3l-0.1,0.5h0.5h4.5h0.4l0.1-0.4l0.2-1.6c1.5-10.7,2.2-16.5,2.4-17.7
		c1.1-1.6,4.8-6.1,8.5-6.1c0.6,0,1,0.2,1.4,0.6c1.6,1.9,0.4,8.2-0.5,13.3c-0.6,3.4-1.2,6.6-1.2,9c0,2.1,1.3,3.4,3.3,3.4
		C761.4,72.8,764,71.2,765.4,69.1z M723.4,71.8L723.4,71.8l3-22.5L723.4,71.8z M726.7,46.6l-2.4-1.2v0L726.7,46.6L726.7,46.6z
		 M742.2,46.7c-0.1-0.1-0.2-0.2-0.4-0.4C742,46.4,742.1,46.5,742.2,46.7c0.1,0.1,0.2,0.2,0.2,0.4C742.4,46.9,742.3,46.8,742.2,46.7z
		 M756.4,69.3c0,0.7,0.1,1.3,0.4,1.8C756.6,70.6,756.4,70,756.4,69.3z M757.5,42.1c-1.3,0-2.6,0.3-3.9,0.9
		C754.9,42.4,756.2,42.1,757.5,42.1c0.4,0,0.9,0,1.3,0.1C758.4,42.2,757.9,42.1,757.5,42.1z M761,68.1c0-0.2,0-0.6,0-1
		C761,67.6,761,67.9,761,68.1z"/>
	<path fill="#A4286A" d="M790.2,41.7c-0.8,0-1.5,0.3-2,0.8c-0.5,0.5-0.7,1.1-0.7,1.8c0,1,0.3,1.6,0.5,2.1c0.2,0.6,0.4,1,0.3,1.9
		c-0.5,5-6.2,16.6-8.5,21.1c-0.5-4.3-0.9-7.9-1.3-10.9c-1.8-15.5-1.9-15.8-3.7-16.6c-0.5-0.2-1-0.3-1.6-0.3c-2.3,0-4.8,1.8-5.7,3.4
		l-0.1,0.1l-0.1,0.2l0.1,0.2l0.8,1.7l0.3,0.6l0.5-0.4l0.3-0.3c1.2-1.1,1.5-1.2,1.6-1.2l0.1,0c0,0,0,0,0,0c0.1,0.1,0.3,0.5,0.6,1.9
		c0.6,3.1,4.3,25.5,4.7,27.4c-2.1,5.4-5.5,8-10.4,8h-1.7h-0.5v0.5v3.6v0.5h0.5h1.7c8,0,11-3.1,15-10.6l0-0.1
		c3.2-5.8,12.8-23.5,12.8-30.3C793.7,42.6,791.8,41.7,790.2,41.7z M770.8,45.6c0,0-0.1,0-0.2,0C770.7,45.6,770.7,45.6,770.8,45.6
		l0.1,0L770.8,45.6z M772,47.9c0-0.2-0.1-0.4-0.1-0.6C771.9,47.5,771.9,47.7,772,47.9c0,0.1,0,0.2,0.1,0.3C772,48.1,772,48,772,47.9
		z M776.6,75.4c-0.5,1.4-1.2,2.7-1.9,3.7C775.5,78.1,776.1,76.8,776.6,75.4L776.6,75.4z M790.2,42.2c-0.3,0-0.6,0.1-0.9,0.2
		C789.5,42.2,789.9,42.2,790.2,42.2c0.5,0,0.9,0.1,1.3,0.3C791.1,42.3,790.6,42.2,790.2,42.2z"/>
	<rect x="555" y="83.5" fill="#A4286A" width="201.4" height="4.5"/>
	<path fill="#A4286A" d="M555,49.7c0,11.2,7.8,17.8,16,19.2l3.4-9.2c-4.8-0.6-7.9-4.2-7.9-8.7V30.1h7.4v-9h-7.4V10.2H555v10.9h-5.8
		v9h5.8V49.7z"/>
	<path fill="#A4286A" d="M508.5,32c0-0.6,0-1.1-0.1-1.6c-1-12.6-18.9-12.6-32.8-7.8l4,8.1c9.1-4.3,14.5-3.2,16.4-1.1
		c0,0.1,0.1,0.1,0.1,0.2c0,0,0,0,0,0c1,1.3,0.7,3.4,0.7,5c-11.8,0-24.4,1.6-24.4,14.5c0,9.9,12.4,16.2,25.3,6.8l1.9,4.6h11.1
		c-1-5.4-2.2-10.1-2.2-13.1V32z M497,47.5c-9.1,10.2-17.4,0.6-8.9-3.6c2.5-0.9,5.9-0.9,8.9-0.9V47.5z"/>
	<path fill="#A4286A" d="M526.2,31.1c0-3.9,6.2-5.7,15.9-1.2l3.4-8.2c-13.1-4-31-4.3-31.1,9.4c-0.1,6.6,4.2,10.1,10.2,12.3
		c4.2,1.6,10.3,2.4,10.2,5.7c0,4.4-9.4,5-18-0.8l-3.5,8.9c11.7,5.8,33.4,6,33.2-8.6C546.5,34.3,526.2,36.7,526.2,31.1z"/>
	<path fill="#A4286A" d="M425.1,0l-16.7,46.3l-8-25h-11.9l13.3,34.1c1.1,2.9,1.1,6.1,0,9c-1.5,3.8-4,7.1-10,7.9v10.1
		c11.7,0,18.1-7.2,23.7-23L437.7,0H425.1z"/>
	<path fill="#A4286A" d="M450,19.7c-14.4,0-20.1,10.1-20.1,20.9c0,11.2,5.6,20.3,20.1,20.3c14.4,0,20.1-10.2,20.1-20.3
		C470,28.4,463.8,19.7,450,19.7z M450,52.1c-5.8,0-8.7-4.3-8.7-11.5s3.1-12.2,8.7-12.2c5.6,0,8.6,5.1,8.6,12.2S455.8,52.1,450,52.1z
		"/>
</g>
<g id="My_Yoast">
	<g>
		<path fill="#A4286A" d="M28.2,40.3l0.3-2.3v-0.4l-0.4-0.1l-4.4-0.7l5.4-23.6l1.4-7.8l5.7,35.3l0.1,0.4l0.4-0.1l2.9-0.4h0.2
			l0.1-0.2l12.3-28l2.6-6.7l-0.6,7.7l-0.9,23.4L49,37.6l-0.3,0v0.3l-0.2,2.3l0,0.4h14.5v-0.4l0.2-2.3v-0.4l-0.4-0.1l-3.6-0.7L59.8,4
			l3.9-0.6l0.3,0V3.1l0.4-2.6l0-0.4H52.9l-0.1,0.2l-3,6.9l-6.4,14.5c-1.1,2.4-2.3,5.4-3.7,8.9l-0.2-2.6L35.2,0.3L35.1,0H23l0,0.4
			L22.7,3l0,0.4L23,3.4L26.7,4l-8,32.9l-3.9,0.7l-0.3,0.1v0.3l-0.3,2.3l0,0.5h14V40.3z"/>
		<path fill="#A4286A" d="M86.8,9.5c-0.7,0-1.4,0.3-1.9,0.7c-0.4,0.5-0.7,1.1-0.7,1.7c0,0.7,0.2,1.4,0.5,2.1
			c0.3,0.6,0.4,1.3,0.3,1.9c-0.5,4.9-6.3,16.6-8.5,20.9C76,32.6,75.6,29,75.2,26c-1.8-15.1-1.8-15.4-3.6-16.3
			c-0.5-0.2-1-0.3-1.5-0.3l0.1,0.1c-2.3,0.1-4.3,1.4-5.5,3.3L64.6,13l-0.1,0.2l0.1,0.2l0.8,1.7l0.2,0.5l0.4-0.4l0.3-0.3
			c1.2-1.1,1.5-1.2,1.6-1.2h0.2c0.3,0.6,0.5,1.3,0.6,2c0.6,3,4.3,25.1,4.6,26.8c-2.1,5.3-5.4,7.9-10.2,7.9h-2.1v4.3h2
			c7.8,0,10.7-3,14.7-10.3v-0.1c3.1-5.7,12.6-23,12.6-29.7C90.2,10.4,88.3,9.5,86.8,9.5z"/>
		<rect y="50.4" fill="#A4286A" width="54.1" height="4.3"/>
		<path fill="#A4286A" d="M284.4,51.8V30.7h7.6v-9.2h-7.6V10.4h-11.7v11.1h-5.9v9.2h5.9v20c0,11.4,7.9,18.1,16.3,19.5l3.6-9.4
			C287.9,60.4,284.4,56.5,284.4,51.8z"/>
		<path fill="#A4286A" d="M225.4,32.6c0-0.5,0-1.1-0.1-1.6c-1-12.9-19.3-12.8-33.4-7.9l4.1,8.2c9.2-4.4,14.7-3.3,16.7-1.1l0.1,0.2
			c1,1.3,0.7,3.4,0.7,5.1c-12,0-24.9,1.6-24.9,14.8c0,10,12.6,16.5,25.7,6.9l2,4.7h11.3c-1-5.5-2.2-10.2-2.2-13.4V32.6z M213.7,48.4
			c-9.3,10.4-17.7,0.6-9.1-3.6c2.6-0.9,6-0.9,9.1-0.9V48.4z"/>
		<path fill="#A4286A" d="M243.4,31.7c0-3.9,6.3-5.8,16.2-1.2l3.4-8.3c-13.3-4.1-31.5-4.4-31.7,9.5c-0.1,6.7,4.2,10.3,10.4,12.6
			c4.3,1.6,10.4,2.4,10.4,5.8c0,4.4-9.6,5.1-18.3-0.8l-3.5,9c11.9,5.9,34,6.1,33.8-8.7C264.1,34.9,243.4,37.4,243.4,31.7z"/>
		<path fill="#A4286A" d="M140.5,0l-16.9,47.1l-8.1-25.4h-12.1l13.5,34.7c1.2,3,1.2,6.2,0,9.2c-1.5,3.9-4.1,7.2-10.2,8v10.3
			c11.9,0,18.4-7.3,24.1-23.4L153.4,0H140.5z"/>
		<path fill="#A4286A" d="M165.8,20.1c-14.6,0-20.4,10.3-20.4,21.3c0,11.4,5.7,20.7,20.4,20.7s20.5-10.4,20.4-20.7
			C186.2,28.9,179.9,20.1,165.8,20.1z M165.8,53c-5.9,0-8.8-4.4-8.8-11.7c0-7.3,3.1-12.5,8.8-12.5c5.7,0,8.8,5.2,8.8,12.5
			S171.8,53,165.8,53z"/>
	</g>
</g>
<g id="divider">
	<line fill="#D4D4D4" stroke="#D4D4D4" stroke-width="4" stroke-miterlimit="10" x1="340.6" y1="0" x2="340.6" y2="88"/>
</g>
</svg>