<svg width="1142pt" height="925pt" viewBox="0 0 1142 925" xmlns="http://www.w3.org/2000/svg" role="img" aria-hidden="true" focusable="false">
<g id="#ddb16fff">
<path fill="#ddb16f" opacity="1.00" d=" M 536.80 11.00 C 536.25 7.27 536.36 3.30 538.82 0.23 C 543.58 -0.33 546.64 4.05 550.95 5.14 C 559.91 6.94 569.15 5.60 578.12 7.29 C 584.13 8.31 590.51 8.24 595.92 11.41 C 600.90 13.16 602.04 19.43 606.87 21.37 C 610.98 21.47 614.80 19.06 618.98 19.64 C 627.35 20.18 634.03 26.67 636.80 34.29 C 638.55 34.33 640.69 35.46 642.23 34.27 C 644.62 30.92 643.96 26.32 642.17 22.84 C 640.78 20.55 641.42 17.26 644.06 16.21 C 647.03 16.04 648.24 19.10 649.67 21.14 C 653.66 27.69 657.80 34.20 660.82 41.27 C 662.03 44.25 666.28 44.13 668.60 42.57 C 672.07 40.86 673.79 37.18 676.75 34.86 C 679.06 33.66 682.16 34.24 684.03 36.05 C 687.73 39.34 690.30 43.79 691.89 48.45 C 698.16 49.82 704.45 52.18 709.02 56.87 C 720.92 68.08 725.56 85.36 723.30 101.29 C 731.43 104.01 739.79 108.95 743.35 117.13 C 746.02 124.81 746.09 133.54 742.91 141.09 C 742.07 143.15 740.90 145.06 740.14 147.15 C 742.52 151.91 746.19 156.00 747.95 161.10 C 751.79 170.64 750.43 181.36 747.06 190.82 C 745.20 195.78 743.86 201.12 740.38 205.26 C 739.18 206.39 739.17 208.01 739.30 209.54 C 737.98 208.43 736.67 207.33 735.36 206.23 C 733.38 207.05 731.34 209.08 729.12 207.85 C 727.16 207.16 726.04 204.89 726.56 202.90 C 727.50 200.91 729.18 199.43 730.61 197.80 C 729.58 192.38 733.63 188.39 735.66 183.83 C 737.90 179.63 734.14 175.45 732.93 171.47 C 731.49 171.76 729.68 171.64 728.83 173.09 C 728.44 175.81 730.56 178.59 729.26 181.26 C 727.60 184.00 724.87 185.83 722.44 187.83 C 722.65 188.79 722.88 189.75 723.11 190.71 C 722.48 193.13 722.10 195.61 721.79 198.09 C 721.74 196.28 721.68 194.47 721.65 192.65 C 719.44 190.09 716.53 188.08 715.02 184.99 C 719.83 183.11 725.56 178.96 723.88 173.01 C 721.91 167.27 719.03 161.14 713.47 158.10 C 713.45 160.33 713.29 162.58 713.51 164.81 C 714.17 166.57 715.35 168.09 715.95 169.89 C 715.06 171.83 713.10 173.34 710.94 173.46 C 707.51 173.81 704.13 174.45 700.90 175.66 C 699.27 173.74 697.91 171.59 697.34 169.11 C 701.44 166.32 704.97 162.11 705.30 156.98 C 704.95 151.45 699.87 148.10 695.57 145.52 C 693.58 144.32 690.14 143.45 688.56 145.48 C 686.40 149.87 692.89 150.57 694.37 153.89 C 691.42 155.15 687.85 156.05 686.17 159.07 C 686.59 161.80 688.32 164.15 688.70 166.91 C 688.92 168.98 688.58 171.05 688.36 173.10 C 687.71 173.47 686.41 174.21 685.76 174.57 C 680.88 169.91 680.03 161.86 673.41 158.79 C 671.79 162.48 670.05 166.22 667.20 169.14 C 664.35 172.21 660.42 173.87 656.72 175.66 C 651.47 176.01 646.00 175.10 640.95 176.99 C 632.27 180.99 624.18 186.13 616.04 191.11 C 612.21 193.87 610.15 198.28 607.13 201.80 C 602.70 206.55 597.42 210.86 591.18 212.91 C 586.52 214.50 581.89 216.39 576.92 216.66 C 581.71 214.12 586.67 211.92 591.46 209.37 C 597.97 205.67 603.04 199.88 606.98 193.59 C 602.51 194.44 597.94 194.04 593.46 194.60 C 590.24 196.61 587.61 199.52 584.05 200.98 C 572.94 206.08 560.14 202.53 548.77 206.66 C 544.09 208.21 540.55 211.78 536.98 215.01 C 531.92 219.66 525.90 223.28 519.40 225.50 C 515.87 226.76 512.06 226.69 508.48 227.69 C 505.12 229.20 502.16 231.48 498.78 232.95 C 490.79 236.51 481.54 235.62 473.81 239.84 C 471.15 241.40 468.53 243.27 466.81 245.86 C 465.87 249.32 465.78 253.11 463.58 256.12 C 458.14 261.85 451.18 265.69 443.82 268.36 C 439.10 271.75 437.81 277.87 436.44 283.17 C 435.61 287.51 436.10 292.66 432.43 295.85 C 427.95 300.00 422.33 302.44 417.00 305.23 C 412.85 308.86 409.63 313.55 407.87 318.78 C 406.04 324.18 403.98 329.75 399.85 333.86 C 396.26 337.61 390.90 338.65 385.98 339.34 C 381.96 339.98 378.24 337.86 374.32 337.44 C 377.29 345.46 385.37 351.47 394.04 351.19 C 397.10 351.19 401.17 349.91 403.00 353.27 C 406.95 360.71 397.90 369.91 390.28 366.79 C 387.11 365.94 385.71 362.80 384.47 360.09 C 380.85 361.47 377.09 362.64 373.84 364.80 C 367.18 369.31 364.55 378.36 366.50 385.98 C 367.28 389.09 367.71 393.17 370.98 394.72 C 374.78 393.71 376.05 389.30 378.85 386.87 C 382.93 382.18 389.65 383.83 395.11 383.41 C 391.74 384.56 388.15 385.88 386.11 389.00 C 383.89 392.27 380.54 395.65 381.36 399.97 C 382.05 403.63 384.26 407.58 388.13 408.55 C 392.15 409.66 396.96 410.11 400.54 407.56 C 402.54 406.26 404.40 404.75 406.26 403.26 C 406.28 406.68 405.71 410.81 408.63 413.31 C 412.67 416.69 418.64 415.77 422.97 413.42 C 420.09 411.11 418.01 407.38 419.75 403.72 C 422.37 398.64 429.40 398.95 433.89 401.09 C 437.13 402.56 437.35 406.90 435.73 409.66 C 434.22 412.56 430.80 413.38 428.06 414.65 C 429.55 419.97 433.22 425.25 438.97 426.32 C 445.17 427.67 450.90 424.19 455.59 420.55 C 455.70 425.13 454.73 430.04 451.16 433.23 C 448.27 436.40 443.38 435.17 440.09 437.69 C 446.16 439.38 452.96 440.51 458.96 437.98 C 466.10 434.25 470.16 426.85 473.82 420.01 C 473.93 419.79 474.15 419.36 474.26 419.15 C 482.47 427.53 492.62 433.67 503.00 438.97 C 502.95 442.88 502.96 446.80 503.03 450.72 C 494.28 450.18 485.09 451.59 477.86 456.88 C 471.88 460.91 467.34 467.49 467.10 474.87 C 461.82 472.81 456.79 468.13 457.33 462.00 C 458.56 457.56 460.40 453.32 461.88 448.97 C 457.44 455.22 450.78 462.32 442.29 460.29 C 441.95 461.80 441.60 463.32 441.20 464.83 C 438.54 471.95 435.24 478.84 431.38 485.38 C 428.12 489.93 423.69 494.30 417.99 495.39 C 416.16 495.98 414.81 494.33 413.38 493.54 C 408.11 489.69 400.26 488.74 394.81 492.75 C 392.10 494.52 390.44 497.38 388.74 500.05 C 386.35 494.10 389.32 487.72 392.97 482.99 C 396.04 479.18 400.79 475.53 405.99 476.73 C 409.03 477.05 412.79 478.84 415.38 476.36 C 417.74 473.46 419.12 469.82 419.48 466.11 C 419.57 464.14 419.54 462.17 419.58 460.21 C 415.45 466.31 409.78 472.69 401.91 473.21 C 396.74 473.49 393.66 468.18 389.00 467.39 C 382.61 468.76 379.76 475.46 375.59 479.81 C 370.88 484.77 365.01 489.29 358.07 490.29 C 353.95 490.94 350.66 488.02 347.88 485.46 C 344.13 480.81 335.79 481.40 333.85 487.46 C 332.31 491.73 335.29 495.45 337.95 498.44 C 335.12 499.11 332.03 499.94 329.24 498.65 C 323.69 496.70 319.68 489.69 322.78 484.20 C 325.73 477.71 331.99 473.95 337.79 470.38 C 333.27 466.47 328.01 461.53 328.43 455.01 C 328.35 451.17 331.43 448.27 331.93 444.55 C 327.57 443.70 322.84 445.38 320.74 449.46 C 317.29 456.32 320.80 465.07 326.70 469.41 C 319.31 471.27 312.89 465.75 308.63 460.38 C 305.44 456.65 304.37 451.76 303.86 447.01 C 304.55 436.20 311.32 426.90 319.80 420.63 C 318.10 419.51 316.21 418.52 315.06 416.79 C 312.62 413.64 313.25 409.25 314.78 405.85 C 316.65 402.52 318.10 398.96 319.14 395.29 C 319.70 393.00 318.20 390.93 316.77 389.33 C 316.21 389.37 315.09 389.45 314.53 389.49 C 315.30 398.63 314.73 409.06 308.14 416.12 C 304.94 418.65 300.34 421.59 296.30 419.31 C 296.29 417.32 296.35 415.33 296.51 413.36 C 291.73 418.84 284.41 422.57 277.01 421.70 C 271.54 421.40 265.85 419.24 262.98 414.31 C 272.52 417.77 281.93 407.17 280.07 397.94 C 279.15 392.60 275.24 388.59 271.63 384.85 C 270.08 379.43 274.20 374.46 278.21 371.32 C 284.89 366.35 291.42 361.08 296.79 354.66 C 292.09 355.20 290.15 350.32 286.79 348.08 C 284.21 346.41 282.16 341.99 278.56 343.65 C 273.46 348.01 274.41 355.67 270.60 360.87 C 266.92 366.42 260.05 368.36 253.81 369.22 C 251.47 369.20 247.44 368.23 248.34 365.05 C 249.26 362.83 252.21 363.83 254.08 363.48 C 257.83 363.33 259.90 359.73 261.62 356.87 C 263.36 354.11 262.15 349.86 259.12 348.60 C 255.01 346.60 252.05 342.87 250.11 338.83 C 248.78 335.74 249.32 332.01 251.51 329.46 C 256.59 323.04 264.56 318.05 272.99 318.73 C 277.08 318.87 281.04 320.00 285.06 320.60 C 287.44 320.33 289.17 318.36 291.00 317.00 C 297.20 312.18 299.74 304.39 302.19 297.25 C 298.84 296.75 295.42 296.19 292.05 296.71 C 289.20 297.23 287.72 300.00 286.02 302.03 C 282.09 307.84 276.97 313.57 269.98 315.49 C 262.41 316.38 253.92 315.26 248.10 309.89 C 244.60 306.46 241.18 302.16 241.37 296.98 C 241.13 296.39 240.63 295.21 240.39 294.62 C 243.91 293.96 246.60 296.97 250.04 297.21 C 254.45 297.77 259.50 298.70 263.47 296.17 C 264.00 291.28 262.93 286.19 264.69 281.48 C 266.99 274.83 272.16 269.48 278.04 265.80 C 281.95 263.33 285.34 260.17 288.93 257.28 C 285.77 258.55 282.20 258.43 279.21 260.19 C 273.04 263.01 268.77 268.40 264.17 273.15 C 257.97 278.76 249.95 284.39 241.11 282.42 C 233.06 281.10 227.68 273.73 226.27 266.08 C 229.06 266.44 231.03 268.69 233.58 269.67 C 237.43 271.47 242.91 271.50 245.42 267.53 C 248.51 261.67 248.54 254.67 251.96 248.96 C 255.19 243.27 261.67 240.18 267.92 239.21 C 264.38 235.18 262.18 229.48 264.08 224.20 C 267.38 214.90 276.25 208.93 285.06 205.43 C 297.87 201.15 312.84 200.93 324.72 208.00 C 320.42 201.89 317.73 194.46 317.78 186.95 C 319.03 179.98 321.71 173.10 326.79 168.01 C 324.44 169.13 321.80 170.06 320.26 172.29 C 318.05 175.51 317.21 179.54 314.54 182.47 C 310.93 186.55 306.63 190.66 301.02 191.50 C 295.16 192.46 289.52 190.24 284.00 188.66 C 281.29 187.61 279.84 190.69 278.22 192.25 C 273.05 197.51 268.64 204.04 261.41 206.66 C 267.09 197.14 273.08 187.31 274.61 176.12 C 275.17 172.32 277.43 168.54 281.03 166.93 C 286.16 164.62 291.93 166.21 297.30 165.07 C 300.68 164.24 304.72 164.20 307.29 161.52 C 309.19 158.58 309.92 154.72 308.52 151.41 C 303.99 151.83 299.46 152.82 294.89 152.25 C 291.41 151.54 288.88 148.92 286.55 146.45 C 296.39 145.70 306.47 141.79 312.69 133.84 C 314.87 131.30 315.67 127.96 317.43 125.18 C 322.16 120.42 328.22 116.83 334.92 115.80 C 337.13 115.67 339.74 116.28 341.44 114.44 C 345.35 111.05 348.47 106.82 352.67 103.75 C 357.22 100.59 362.32 98.01 367.90 97.42 C 363.85 94.72 360.79 90.48 356.10 88.80 C 351.79 87.96 348.99 91.82 345.61 93.67 C 338.81 97.66 333.21 103.43 326.17 107.04 C 324.70 107.96 322.94 107.69 321.31 107.63 C 321.46 106.50 320.92 105.04 322.03 104.27 C 326.33 100.40 332.11 97.77 334.43 92.10 C 334.80 87.30 333.72 81.38 338.07 78.00 C 345.11 75.18 352.14 70.94 360.03 71.68 C 367.16 72.29 372.74 77.36 378.00 81.73 C 378.25 77.17 381.74 73.83 384.55 70.58 C 392.78 62.26 403.36 56.15 414.89 53.87 C 425.10 51.93 435.66 51.10 446.00 52.49 C 449.24 53.21 451.63 50.41 454.27 49.05 C 455.87 47.73 458.46 46.52 458.71 44.32 C 454.26 42.00 448.76 40.35 444.06 42.99 C 437.30 46.40 428.85 47.96 421.93 44.12 C 430.15 41.56 437.01 36.07 443.11 30.18 C 447.74 25.51 454.55 23.55 460.99 23.45 C 466.14 23.25 470.78 25.94 474.75 28.95 C 480.12 18.28 491.05 11.96 502.09 8.55 C 509.27 6.83 516.92 5.96 524.06 8.40 C 528.89 9.95 533.50 12.18 537.87 14.75 C 537.52 13.49 537.18 12.24 536.80 11.00 M 540.31 5.04 C 540.31 8.39 543.33 3.63 540.31 5.04 M 649.24 34.20 C 649.76 34.75 649.76 34.75 649.24 34.20 M 609.05 145.64 C 603.12 147.20 597.53 150.21 592.70 153.95 C 599.01 155.56 605.52 155.89 611.96 156.67 C 617.74 157.36 623.32 155.42 628.91 154.31 C 631.09 153.67 633.84 153.55 635.20 151.43 C 630.58 149.00 626.03 146.26 620.99 144.76 C 617.01 144.79 613.00 145.17 609.05 145.64 M 555.62 181.34 C 551.77 181.98 547.84 181.34 543.98 181.90 C 541.42 183.23 539.47 185.44 537.22 187.21 C 530.80 192.78 523.33 196.92 516.04 201.19 C 520.77 202.50 525.89 203.09 530.60 201.35 C 536.21 199.65 540.30 195.18 545.40 192.54 C 551.58 191.96 557.85 192.32 563.98 193.25 C 576.25 194.47 588.79 188.39 595.91 178.43 C 587.92 179.17 580.20 176.62 573.01 173.44 C 566.89 175.32 561.96 180.01 555.62 181.34 M 481.76 217.04 C 486.95 217.93 492.26 219.25 497.54 218.37 C 501.50 216.46 504.71 213.25 508.79 211.50 C 499.59 211.66 489.84 212.19 481.76 217.04 M 390.24 313.37 C 387.08 315.24 385.08 319.25 380.99 319.39 C 378.62 319.99 376.27 318.26 374.00 318.93 C 372.63 320.26 374.57 321.75 375.01 323.06 C 377.45 327.32 382.29 329.84 387.04 330.44 C 394.72 330.31 399.81 320.71 397.07 313.92 C 395.17 312.35 392.41 312.48 390.24 313.37 M 361.10 331.98 C 356.83 333.32 352.52 337.17 352.88 342.00 C 353.27 344.57 354.81 348.21 357.99 347.77 C 360.43 347.79 360.68 344.65 362.38 343.43 C 364.83 341.42 368.85 339.81 368.69 336.05 C 369.06 332.14 364.05 330.97 361.10 331.98 Z" />
<path fill="#ddb16f" opacity="1.00" d=" M 397.40 387.50 C 401.15 384.95 407.18 387.45 407.51 392.10 C 408.10 396.00 405.27 400.76 401.03 400.70 C 396.81 401.28 393.09 396.99 393.73 392.92 C 394.11 390.69 395.47 388.67 397.40 387.50 Z" />
</g>
<g id="#715032ff">
<path fill="#715032" opacity="1.00" d=" M 540.31 5.04 C 543.33 3.63 540.31 8.39 540.31 5.04 Z" />
<path fill="#715032" opacity="1.00" d=" M 649.24 34.20 C 649.76 34.75 649.76 34.75 649.24 34.20 Z" />
<path fill="#715032" opacity="1.00" d=" M 609.05 145.64 C 613.00 145.17 617.01 144.79 620.99 144.76 C 626.03 146.26 630.58 149.00 635.20 151.43 C 633.84 153.55 631.09 153.67 628.91 154.31 C 623.32 155.42 617.74 157.36 611.96 156.67 C 605.52 155.89 599.01 155.56 592.70 153.95 C 597.53 150.21 603.12 147.20 609.05 145.64 Z" />
<path fill="#715032" opacity="1.00" d=" M 555.62 181.34 C 561.96 180.01 566.89 175.32 573.01 173.44 C 580.20 176.62 587.92 179.17 595.91 178.43 C 588.79 188.39 576.25 194.47 563.98 193.25 C 557.85 192.32 551.58 191.96 545.40 192.54 C 540.30 195.18 536.21 199.65 530.60 201.35 C 525.89 203.09 520.77 202.50 516.04 201.19 C 523.33 196.92 530.80 192.78 537.22 187.21 C 539.47 185.44 541.42 183.23 543.98 181.90 C 547.84 181.34 551.77 181.98 555.62 181.34 Z" />
<path fill="#715032" opacity="1.00" d=" M 640.95 176.99 C 646.00 175.10 651.47 176.01 656.72 175.66 C 656.74 181.80 656.19 187.96 656.81 194.08 C 658.00 197.82 661.38 200.38 663.04 203.93 C 669.64 215.52 670.63 229.10 671.53 242.11 C 671.46 248.69 667.62 254.47 666.99 260.95 C 666.56 265.69 665.12 270.29 664.86 275.04 C 665.04 282.23 670.65 287.93 671.34 294.99 C 669.83 298.50 665.74 300.85 665.80 305.00 C 666.04 307.64 668.54 308.95 670.57 310.15 C 669.65 304.53 673.72 300.36 675.45 295.44 C 677.63 289.62 672.81 284.02 674.18 278.16 C 675.02 274.17 676.16 270.26 677.36 266.38 C 679.72 258.63 684.88 252.15 690.17 246.18 C 694.75 243.15 701.10 242.34 706.07 245.00 C 711.87 247.90 715.87 253.40 718.16 259.34 C 721.54 268.14 721.78 277.77 721.24 287.07 C 719.58 298.30 715.95 309.67 708.45 318.42 C 701.28 326.41 689.06 330.92 678.82 326.49 C 680.14 345.43 677.75 364.38 675.37 383.14 C 673.41 390.40 671.84 397.82 668.76 404.73 C 666.20 411.84 661.28 417.71 656.66 423.57 C 653.31 427.53 650.04 431.83 645.28 434.17 C 645.10 440.30 645.42 446.43 645.10 452.55 C 643.62 465.89 644.82 479.33 643.63 492.68 C 643.30 504.94 639.94 516.86 636.29 528.49 C 630.74 546.37 617.98 561.26 602.81 571.87 C 595.64 577.03 586.53 577.93 577.98 578.43 C 569.18 578.75 560.39 577.53 551.82 575.57 C 541.97 573.37 533.19 567.88 525.66 561.31 C 520.24 556.40 516.93 549.75 513.76 543.29 C 504.50 523.30 501.45 500.88 502.69 479.02 C 502.98 470.11 502.72 461.20 502.94 452.29 C 505.32 452.37 507.84 452.63 509.77 454.20 C 512.24 456.35 513.85 459.34 516.50 461.33 C 524.30 467.48 534.19 470.54 543.97 471.50 C 550.37 471.30 556.73 473.19 563.11 472.07 C 584.92 470.42 607.85 465.37 624.90 450.81 C 628.84 447.76 631.51 443.35 635.70 440.61 C 638.22 438.91 640.74 437.20 643.01 435.18 C 638.43 436.84 634.07 439.05 629.51 440.78 C 619.87 444.68 609.67 446.88 599.48 448.74 C 595.91 449.30 592.22 449.51 588.92 451.08 C 582.27 453.97 575.50 456.78 568.26 457.75 C 554.74 459.65 540.24 458.84 528.14 451.94 C 523.15 449.48 519.47 444.86 514.08 443.17 C 510.71 442.08 507.35 440.94 504.15 439.42 C 504.23 442.83 504.45 446.27 504.04 449.67 C 503.79 450.08 503.28 450.90 503.02 451.31 L 503.03 450.72 C 502.96 446.80 502.95 442.88 503.00 438.97 C 492.62 433.67 482.47 427.53 474.26 419.15 C 474.15 419.36 473.93 419.79 473.82 420.01 C 471.95 415.25 467.57 412.36 464.45 408.54 C 457.86 400.61 453.96 390.89 450.91 381.15 C 448.81 374.23 446.79 367.25 445.82 360.08 C 444.86 353.10 444.31 346.06 442.94 339.14 C 439.27 338.72 435.33 338.15 432.61 335.38 C 424.00 327.60 419.77 316.23 417.00 305.23 C 422.33 302.44 427.95 300.00 432.43 295.85 C 434.08 300.26 435.99 304.58 438.23 308.73 C 439.38 311.05 440.79 313.39 440.90 316.05 C 440.56 318.46 439.08 320.56 438.82 322.99 C 439.38 326.00 441.45 328.42 443.98 330.03 C 443.16 327.67 442.02 325.41 441.41 322.98 C 441.98 320.72 444.10 319.14 444.76 316.88 C 446.25 311.27 445.28 305.42 444.28 299.82 C 442.28 289.43 443.66 278.83 443.82 268.36 C 451.18 265.69 458.14 261.85 463.58 256.12 C 470.16 255.25 474.53 249.14 480.93 247.81 C 489.00 247.72 496.98 249.30 504.99 250.10 C 509.85 250.60 514.85 249.43 519.02 246.90 C 521.97 245.15 523.15 240.80 521.09 237.95 C 519.28 235.36 516.10 234.29 513.13 233.75 C 508.40 232.93 503.57 232.59 498.78 232.95 C 502.16 231.48 505.12 229.20 508.48 227.69 C 512.06 226.69 515.87 226.76 519.40 225.50 C 525.90 223.28 531.92 219.66 536.98 215.01 C 540.55 211.78 544.09 208.21 548.77 206.66 C 560.14 202.53 572.94 206.08 584.05 200.98 C 587.61 199.52 590.24 196.61 593.46 194.60 C 597.94 194.04 602.51 194.44 606.98 193.59 C 603.04 199.88 597.97 205.67 591.46 209.37 C 586.67 211.92 581.71 214.12 576.92 216.66 C 581.89 216.39 586.52 214.50 591.18 212.91 C 593.31 218.98 600.68 219.14 606.05 219.28 C 616.03 218.77 626.03 218.51 636.02 218.59 C 642.70 218.67 645.01 226.96 651.05 228.54 L 652.15 228.17 C 652.96 220.08 650.25 210.60 642.95 206.16 C 631.93 200.60 619.15 200.34 607.13 201.80 C 610.15 198.28 612.21 193.87 616.04 191.11 C 624.18 186.13 632.27 180.99 640.95 176.99 M 599.67 269.67 C 594.48 273.40 589.36 278.04 587.39 284.32 C 586.99 285.45 588.07 286.34 588.48 287.30 C 588.01 293.14 589.77 299.88 595.01 303.17 C 604.64 308.10 616.73 307.54 625.96 301.92 C 631.13 299.35 633.87 293.60 634.49 288.08 C 635.06 287.97 636.20 287.76 636.77 287.65 C 635.77 282.69 635.67 276.95 631.82 273.18 C 623.15 265.51 609.81 264.48 599.67 269.67 M 474.17 293.18 C 474.95 292.86 475.72 292.49 476.48 292.09 C 476.84 295.64 477.51 299.33 479.72 302.25 C 483.83 308.03 491.13 310.68 498.03 310.78 C 505.16 311.05 513.35 310.13 518.25 304.31 C 520.98 300.80 523.50 296.11 521.83 291.59 C 523.79 289.83 522.69 287.15 521.95 285.07 C 518.74 277.07 510.50 271.69 502.00 271.18 C 488.96 269.67 474.62 279.48 474.17 293.18 M 625.19 326.11 C 621.46 327.89 625.81 333.55 628.44 330.40 C 630.85 328.45 627.50 324.34 625.19 326.11 M 602.43 330.63 C 604.72 331.30 606.39 329.68 605.53 327.39 C 603.21 326.65 601.72 328.38 602.43 330.63 M 484.34 329.40 C 482.09 330.22 483.10 334.48 485.58 333.57 C 487.95 332.75 486.92 328.56 484.34 329.40 M 500.20 333.20 C 500.18 334.41 500.17 335.62 500.16 336.83 C 501.39 336.80 502.63 336.77 503.87 336.74 C 503.88 335.56 503.89 334.39 503.90 333.22 C 502.66 333.21 501.43 333.20 500.20 333.20 M 609.10 337.03 C 609.10 338.32 609.10 339.62 609.12 340.92 C 611.04 340.84 613.45 340.53 613.34 338.00 C 612.43 336.34 610.59 336.95 609.10 337.03 M 582.00 346.13 C 579.30 347.51 576.15 346.98 573.26 347.41 C 568.89 350.23 566.28 355.69 560.99 357.05 C 556.37 357.66 551.63 357.59 547.01 357.01 C 542.60 356.53 539.92 352.55 536.05 350.89 C 533.76 349.80 531.17 349.86 528.74 349.35 C 527.50 347.89 528.60 344.26 525.96 344.26 C 523.50 345.07 523.06 348.43 523.55 350.65 C 524.65 354.75 523.88 359.43 526.65 362.95 C 526.38 360.17 525.92 357.40 525.60 354.62 C 527.78 354.73 530.63 353.73 532.19 355.83 C 535.04 359.26 537.67 363.21 541.97 364.97 C 548.24 367.54 555.21 369.30 561.99 368.05 C 568.33 366.53 573.00 361.47 575.84 355.85 C 579.89 354.19 584.68 353.27 587.39 349.47 C 589.60 346.81 589.08 341.62 584.98 341.34 C 584.02 342.96 583.16 344.65 582.00 346.13 M 492.33 343.33 C 490.36 344.25 493.45 347.65 494.62 345.63 C 496.70 344.64 493.37 341.30 492.33 343.33 M 605.95 352.36 C 609.17 356.96 613.28 360.84 617.09 364.95 C 624.00 373.24 630.43 382.53 632.62 393.28 C 633.62 397.69 632.91 402.25 633.51 406.70 C 633.69 407.73 634.19 409.67 635.65 408.72 C 636.95 406.71 636.68 404.21 636.79 401.94 C 637.09 393.93 634.60 386.02 630.87 379.02 C 625.70 370.52 618.78 363.24 611.57 356.45 C 609.89 354.83 607.95 353.53 605.95 352.36 M 596.26 372.37 C 593.05 372.82 590.64 375.15 587.82 376.50 C 583.61 376.04 579.31 375.07 575.13 376.30 C 567.86 378.32 560.11 381.11 555.47 387.43 C 551.68 392.25 549.31 399.25 551.79 405.15 C 555.87 410.31 562.07 413.26 567.84 416.13 C 582.91 421.58 598.83 425.74 614.99 425.01 C 618.61 424.60 623.05 424.65 625.41 421.36 C 628.33 417.89 626.85 413.13 626.34 409.10 C 625.64 403.04 621.51 398.29 618.87 393.02 C 616.01 387.74 614.02 381.68 609.20 377.78 C 605.74 374.48 601.44 370.79 596.26 372.37 Z" />
<path fill="#715032" opacity="1.00" d=" M 481.76 217.04 C 489.84 212.19 499.59 211.66 508.79 211.50 C 504.71 213.25 501.50 216.46 497.54 218.37 C 492.26 219.25 486.95 217.93 481.76 217.04 Z" />
<path fill="#715032" opacity="1.00" d=" M 26.12 458.06 C 28.21 454.02 32.06 450.24 36.92 450.44 C 41.50 450.01 45.61 453.01 47.87 456.79 C 51.41 456.39 55.19 456.58 58.20 458.74 C 62.38 461.44 63.27 466.65 65.04 470.94 C 66.38 478.94 67.60 486.98 68.94 495.00 C 71.26 504.46 72.45 514.23 75.74 523.43 C 77.38 523.38 79.03 523.34 80.67 523.31 C 80.89 520.05 78.61 517.44 77.92 514.38 C 76.50 507.39 75.44 500.20 76.32 493.08 C 76.59 488.32 75.79 483.33 77.65 478.80 C 79.13 475.17 83.09 472.69 87.03 473.44 C 94.39 474.94 99.44 481.86 100.36 489.08 C 100.97 495.53 103.52 501.53 105.32 507.70 C 107.71 513.50 108.82 520.02 113.22 524.78 C 127.64 541.33 149.49 547.94 169.99 553.37 C 177.23 554.69 183.01 560.17 186.62 566.33 C 189.71 573.79 190.89 581.93 190.75 589.98 C 190.81 593.17 191.12 596.43 190.36 599.57 C 189.01 604.25 185.68 608.22 181.52 610.68 C 174.46 614.83 166.78 617.83 158.94 620.15 C 152.47 622.07 145.64 621.71 138.97 621.74 C 132.81 621.77 126.80 620.24 120.81 619.01 C 117.39 618.31 114.76 615.94 112.12 613.85 C 108.86 611.19 104.50 610.17 101.65 606.97 C 101.43 607.11 100.99 607.40 100.77 607.55 C 84.61 600.19 68.09 593.65 51.50 587.35 C 48.37 586.12 45.55 584.23 43.10 581.94 C 30.34 569.67 16.38 558.64 4.50 545.47 C 2.86 542.28 3.76 538.46 3.29 535.01 C 1.59 516.40 0.46 497.73 0.67 479.03 C -0.02 474.16 5.99 471.92 9.98 472.25 C 14.15 471.91 17.52 474.78 20.14 477.66 C 21.79 471.05 21.99 463.77 26.12 458.06 Z" />
<path fill="#715032" opacity="1.00" d=" M 1094.32 456.54 C 1097.15 451.54 1103.54 448.91 1108.97 451.18 C 1113.77 453.09 1115.93 458.16 1118.31 462.36 C 1119.95 467.33 1120.75 472.55 1121.86 477.67 C 1124.46 474.81 1127.80 471.94 1131.95 472.25 C 1135.44 472.01 1139.81 473.37 1141.23 476.84 C 1141.95 499.14 1139.67 521.37 1138.23 543.58 C 1137.64 546.42 1134.90 548.06 1133.10 550.12 C 1122.50 561.22 1110.46 570.77 1099.45 581.44 C 1096.70 584.08 1093.51 586.26 1089.93 587.59 C 1074.05 593.50 1058.38 599.96 1042.85 606.72 C 1038.99 608.49 1035.20 610.44 1031.58 612.66 C 1028.80 614.36 1026.58 616.91 1023.58 618.24 C 1012.17 621.83 1000.04 622.47 988.20 621.26 C 981.73 620.23 975.59 617.76 969.57 615.28 C 963.57 612.42 956.78 609.71 953.35 603.62 C 950.24 598.78 951.37 592.83 951.14 587.42 C 951.34 580.49 952.62 573.56 955.03 567.06 C 957.71 561.82 962.19 557.34 967.48 554.75 C 979.72 551.07 992.32 548.22 1003.89 542.63 C 1013.15 538.68 1021.50 532.71 1028.33 525.32 C 1030.49 522.73 1032.46 519.89 1033.50 516.65 C 1036.60 507.23 1040.60 497.97 1041.85 488.05 C 1042.96 481.20 1048.00 474.89 1054.94 473.45 C 1059.45 472.55 1063.84 475.93 1064.86 480.26 C 1066.31 485.71 1065.10 491.44 1066.06 496.98 C 1065.79 505.11 1065.24 513.56 1061.48 520.94 C 1060.06 524.20 1064.44 523.21 1066.27 523.48 C 1068.74 516.81 1069.79 509.76 1071.34 502.85 C 1073.90 492.36 1075.07 481.59 1076.93 470.99 C 1078.76 466.49 1079.75 460.91 1084.41 458.37 C 1087.33 456.30 1090.96 456.81 1094.32 456.54 Z" />
</g>
<g id="#3e2723ff">
<path fill="#3e2723" opacity="1.00" d=" M 688.56 145.48 C 690.14 143.45 693.58 144.32 695.57 145.52 C 699.87 148.10 704.95 151.45 705.30 156.98 C 704.97 162.11 701.44 166.32 697.34 169.11 C 697.91 171.59 699.27 173.74 700.90 175.66 C 704.13 174.45 707.51 173.81 710.94 173.46 C 713.10 173.34 715.06 171.83 715.95 169.89 C 715.35 168.09 714.17 166.57 713.51 164.81 C 713.29 162.58 713.45 160.33 713.47 158.10 C 719.03 161.14 721.91 167.27 723.88 173.01 C 725.56 178.96 719.83 183.11 715.02 184.99 C 716.53 188.08 719.44 190.09 721.65 192.65 C 721.68 194.47 721.74 196.28 721.79 198.09 C 722.10 195.61 722.48 193.13 723.11 190.71 C 722.88 189.75 722.65 188.79 722.44 187.83 C 724.87 185.83 727.60 184.00 729.26 181.26 C 730.56 178.59 728.44 175.81 728.83 173.09 C 729.68 171.64 731.49 171.76 732.93 171.47 C 734.14 175.45 737.90 179.63 735.66 183.83 C 733.63 188.39 729.58 192.38 730.61 197.80 C 729.18 199.43 727.50 200.91 726.56 202.90 C 726.04 204.89 727.16 207.16 729.12 207.85 C 731.34 209.08 733.38 207.05 735.36 206.23 C 736.67 207.33 737.98 208.43 739.30 209.54 C 740.65 214.89 741.27 220.43 741.28 225.94 C 741.39 231.42 738.76 237.03 734.12 240.05 C 732.39 241.32 730.28 242.45 729.76 244.73 C 727.82 250.83 723.27 255.67 718.16 259.34 C 715.87 253.40 711.87 247.90 706.07 245.00 C 701.10 242.34 694.75 243.15 690.17 246.18 C 684.88 252.15 679.72 258.63 677.36 266.38 C 676.16 270.26 675.02 274.17 674.18 278.16 C 672.81 284.02 677.63 289.62 675.45 295.44 C 673.72 300.36 669.65 304.53 670.57 310.15 C 668.54 308.95 666.04 307.64 665.80 305.00 C 665.74 300.85 669.83 298.50 671.34 294.99 C 670.65 287.93 665.04 282.23 664.86 275.04 C 665.12 270.29 666.56 265.69 666.99 260.95 C 667.62 254.47 671.46 248.69 671.53 242.11 C 670.63 229.10 669.64 215.52 663.04 203.93 C 661.38 200.38 658.00 197.82 656.81 194.08 C 656.19 187.96 656.74 181.80 656.72 175.66 C 660.42 173.87 664.35 172.21 667.20 169.14 C 670.05 166.22 671.79 162.48 673.41 158.79 C 680.03 161.86 680.88 169.91 685.76 174.57 C 686.41 174.21 687.71 173.47 688.36 173.10 C 688.58 171.05 688.92 168.98 688.70 166.91 C 688.32 164.15 686.59 161.80 686.17 159.07 C 687.85 156.05 691.42 155.15 694.37 153.89 C 692.89 150.57 686.40 149.87 688.56 145.48 Z" />
<path fill="#3e2723" opacity="1.00" d=" M 607.13 201.80 C 619.15 200.34 631.93 200.60 642.95 206.16 C 650.25 210.60 652.96 220.08 652.15 228.17 L 651.05 228.54 C 645.01 226.96 642.70 218.67 636.02 218.59 C 626.03 218.51 616.03 218.77 606.05 219.28 C 600.68 219.14 593.31 218.98 591.18 212.91 C 597.42 210.86 602.70 206.55 607.13 201.80 Z" />
<path fill="#3e2723" opacity="1.00" d=" M 473.81 239.84 C 481.54 235.62 490.79 236.51 498.78 232.95 C 503.57 232.59 508.40 232.93 513.13 233.75 C 516.10 234.29 519.28 235.36 521.09 237.95 C 523.15 240.80 521.97 245.15 519.02 246.90 C 514.85 249.43 509.85 250.60 504.99 250.10 C 496.98 249.30 489.00 247.72 480.93 247.81 C 474.53 249.14 470.16 255.25 463.58 256.12 C 465.78 253.11 465.87 249.32 466.81 245.86 C 468.53 243.27 471.15 241.40 473.81 239.84 Z" />
<path fill="#3e2723" opacity="1.00" d=" M 599.67 269.67 C 609.81 264.48 623.15 265.51 631.82 273.18 C 635.67 276.95 635.77 282.69 636.77 287.65 C 636.20 287.76 635.06 287.97 634.49 288.08 C 631.99 281.87 624.99 279.36 618.95 278.00 C 620.54 279.64 622.65 280.93 623.70 283.02 C 625.11 287.20 625.44 292.20 622.98 296.06 C 619.06 300.91 612.06 303.67 606.03 301.37 C 601.38 299.79 597.58 295.10 598.14 290.03 C 598.17 285.88 599.99 281.63 603.35 279.11 C 607.18 276.96 611.75 277.01 615.99 276.33 C 609.66 276.80 603.10 277.40 597.40 280.43 C 594.01 282.13 591.42 284.97 588.48 287.30 C 588.07 286.34 586.99 285.45 587.39 284.32 C 589.36 278.04 594.48 273.40 599.67 269.67 M 613.28 282.19 C 609.75 284.12 612.02 289.61 615.04 290.94 C 618.48 293.12 621.79 288.09 620.15 285.06 C 619.55 282.11 615.78 280.42 613.28 282.19 Z" />
<path fill="#3e2723" opacity="1.00" d=" M 436.44 283.17 C 437.81 277.87 439.10 271.75 443.82 268.36 C 443.66 278.83 442.28 289.43 444.28 299.82 C 445.28 305.42 446.25 311.27 444.76 316.88 C 444.10 319.14 441.98 320.72 441.41 322.98 C 442.02 325.41 443.16 327.67 443.98 330.03 C 441.45 328.42 439.38 326.00 438.82 322.99 C 439.08 320.56 440.56 318.46 440.90 316.05 C 440.79 313.39 439.38 311.05 438.23 308.73 C 435.99 304.58 434.08 300.26 432.43 295.85 C 436.10 292.66 435.61 287.51 436.44 283.17 Z" />
<path fill="#3e2723" opacity="1.00" d=" M 474.17 293.18 C 474.62 279.48 488.96 269.67 502.00 271.18 C 510.50 271.69 518.74 277.07 521.95 285.07 C 522.69 287.15 523.79 289.83 521.83 291.59 C 517.63 286.99 511.81 284.37 506.31 281.71 C 500.70 280.84 494.64 281.14 489.45 283.70 C 484.81 285.98 480.79 289.28 476.48 292.09 C 475.72 292.49 474.95 292.86 474.17 293.18 Z" />
<path fill="#3e2723" opacity="1.00" d=" M 488.00 288.06 C 490.41 284.42 494.38 281.16 499.00 281.54 C 502.39 281.16 505.56 282.47 508.76 283.33 C 511.85 285.09 513.03 288.80 514.18 291.95 C 515.62 296.91 512.62 301.82 509.04 305.02 C 505.26 307.87 500.23 306.70 495.94 306.05 C 491.01 305.04 488.24 300.37 486.77 295.95 C 487.12 293.32 487.11 290.58 488.00 288.06 M 502.03 288.99 C 499.27 293.24 503.38 298.69 508.25 297.67 C 509.97 295.72 511.57 292.82 509.63 290.43 C 508.34 287.65 503.96 285.90 502.03 288.99 Z" />
<path fill="#3e2723" opacity="1.00" d=" M 407.87 318.78 C 409.63 313.55 412.85 308.86 417.00 305.23 C 419.77 316.23 424.00 327.60 432.61 335.38 C 435.33 338.15 439.27 338.72 442.94 339.14 C 444.31 346.06 444.86 353.10 445.82 360.08 C 446.79 367.25 448.81 374.23 450.91 381.15 C 453.96 390.89 457.86 400.61 464.45 408.54 C 467.57 412.36 471.95 415.25 473.82 420.01 C 470.16 426.85 466.10 434.25 458.96 437.98 C 452.96 440.51 446.16 439.38 440.09 437.69 C 443.38 435.17 448.27 436.40 451.16 433.23 C 454.73 430.04 455.70 425.13 455.59 420.55 C 450.90 424.19 445.17 427.67 438.97 426.32 C 433.22 425.25 429.55 419.97 428.06 414.65 C 430.80 413.38 434.22 412.56 435.73 409.66 C 437.35 406.90 437.13 402.56 433.89 401.09 C 429.40 398.95 422.37 398.64 419.75 403.72 C 418.01 407.38 420.09 411.11 422.97 413.42 C 418.64 415.77 412.67 416.69 408.63 413.31 C 405.71 410.81 406.28 406.68 406.26 403.26 C 404.40 404.75 402.54 406.26 400.54 407.56 C 396.96 410.11 392.15 409.66 388.13 408.55 C 384.26 407.58 382.05 403.63 381.36 399.97 C 380.54 395.65 383.89 392.27 386.11 389.00 C 388.15 385.88 391.74 384.56 395.11 383.41 C 389.65 383.83 382.93 382.18 378.85 386.87 C 376.05 389.30 374.78 393.71 370.98 394.72 C 367.71 393.17 367.28 389.09 366.50 385.98 C 364.55 378.36 367.18 369.31 373.84 364.80 C 377.09 362.64 380.85 361.47 384.47 360.09 C 385.71 362.80 387.11 365.94 390.28 366.79 C 397.90 369.91 406.95 360.71 403.00 353.27 C 401.17 349.91 397.10 351.19 394.04 351.19 C 385.37 351.47 377.29 345.46 374.32 337.44 C 378.24 337.86 381.96 339.98 385.98 339.34 C 390.90 338.65 396.26 337.61 399.85 333.86 C 403.98 329.75 406.04 324.18 407.87 318.78 M 397.40 387.50 C 395.47 388.67 394.11 390.69 393.73 392.92 C 393.09 396.99 396.81 401.28 401.03 400.70 C 405.27 400.76 408.10 396.00 407.51 392.10 C 407.18 387.45 401.15 384.95 397.40 387.50 Z" />
<path fill="#3e2723" opacity="1.00" d=" M 390.24 313.37 C 392.41 312.48 395.17 312.35 397.07 313.92 C 399.81 320.71 394.72 330.31 387.04 330.44 C 382.29 329.84 377.45 327.32 375.01 323.06 C 374.57 321.75 372.63 320.26 374.00 318.93 C 376.27 318.26 378.62 319.99 380.99 319.39 C 385.08 319.25 387.08 315.24 390.24 313.37 Z" />
<path fill="#3e2723" opacity="1.00" d=" M 625.19 326.11 C 627.50 324.34 630.85 328.45 628.44 330.40 C 625.81 333.55 621.46 327.89 625.19 326.11 Z" />
<path fill="#3e2723" opacity="1.00" d=" M 602.43 330.63 C 601.72 328.38 603.21 326.65 605.53 327.39 C 606.39 329.68 604.72 331.30 602.43 330.63 Z" />
<path fill="#3e2723" opacity="1.00" d=" M 484.34 329.40 C 486.92 328.56 487.95 332.75 485.58 333.57 C 483.10 334.48 482.09 330.22 484.34 329.40 Z" />
<path fill="#3e2723" opacity="1.00" d=" M 361.10 331.98 C 364.05 330.97 369.06 332.14 368.69 336.05 C 368.85 339.81 364.83 341.42 362.38 343.43 C 360.68 344.65 360.43 347.79 357.99 347.77 C 354.81 348.21 353.27 344.57 352.88 342.00 C 352.52 337.17 356.83 333.32 361.10 331.98 Z" />
<path fill="#3e2723" opacity="1.00" d=" M 500.20 333.20 C 501.43 333.20 502.66 333.21 503.90 333.22 C 503.89 334.39 503.88 335.56 503.87 336.74 C 502.63 336.77 501.39 336.80 500.16 336.83 C 500.17 335.62 500.18 334.41 500.20 333.20 Z" />
<path fill="#3e2723" opacity="1.00" d=" M 609.10 337.03 C 610.59 336.95 612.43 336.34 613.34 338.00 C 613.45 340.53 611.04 340.84 609.12 340.92 C 609.10 339.62 609.10 338.32 609.10 337.03 Z" />
<path fill="#3e2723" opacity="1.00" d=" M 582.00 346.13 C 583.16 344.65 584.02 342.96 584.98 341.34 C 589.08 341.62 589.60 346.81 587.39 349.47 C 584.68 353.27 579.89 354.19 575.84 355.85 C 573.00 361.47 568.33 366.53 561.99 368.05 C 555.21 369.30 548.24 367.54 541.97 364.97 C 537.67 363.21 535.04 359.26 532.19 355.83 C 530.63 353.73 527.78 354.73 525.60 354.62 C 525.92 357.40 526.38 360.17 526.65 362.95 C 523.88 359.43 524.65 354.75 523.55 350.65 C 523.06 348.43 523.50 345.07 525.96 344.26 C 528.60 344.26 527.50 347.89 528.74 349.35 C 531.17 349.86 533.76 349.80 536.05 350.89 C 539.92 352.55 542.60 356.53 547.01 357.01 C 551.63 357.59 556.37 357.66 560.99 357.05 C 566.28 355.69 568.89 350.23 573.26 347.41 C 576.15 346.98 579.30 347.51 582.00 346.13 Z" />
<path fill="#3e2723" opacity="1.00" d=" M 492.33 343.33 C 493.37 341.30 496.70 344.64 494.62 345.63 C 493.45 347.65 490.36 344.25 492.33 343.33 Z" />
<path fill="#3e2723" opacity="1.00" d=" M 605.95 352.36 C 607.95 353.53 609.89 354.83 611.57 356.45 C 618.78 363.24 625.70 370.52 630.87 379.02 C 634.60 386.02 637.09 393.93 636.79 401.94 C 636.68 404.21 636.95 406.71 635.65 408.72 C 634.19 409.67 633.69 407.73 633.51 406.70 C 632.91 402.25 633.62 397.69 632.62 393.28 C 630.43 382.53 624.00 373.24 617.09 364.95 C 613.28 360.84 609.17 356.96 605.95 352.36 Z" />
<path fill="#3e2723" opacity="1.00" d=" M 596.26 372.37 C 601.44 370.79 605.74 374.48 609.20 377.78 C 614.02 381.68 616.01 387.74 618.87 393.02 C 621.51 398.29 625.64 403.04 626.34 409.10 C 626.85 413.13 628.33 417.89 625.41 421.36 C 623.05 424.65 618.61 424.60 614.99 425.01 C 598.83 425.74 582.91 421.58 567.84 416.13 C 562.07 413.26 555.87 410.31 551.79 405.15 C 549.31 399.25 551.68 392.25 555.47 387.43 C 560.11 381.11 567.86 378.32 575.13 376.30 C 579.31 375.07 583.61 376.04 587.82 376.50 C 590.64 375.15 593.05 372.82 596.26 372.37 M 569.15 390.27 C 562.79 393.79 556.77 398.41 552.85 404.65 C 557.38 401.69 562.97 401.02 568.12 399.66 C 577.56 397.53 586.42 402.18 594.98 405.42 C 600.46 408.06 606.62 408.45 612.61 408.76 C 612.64 406.28 613.01 403.84 613.41 401.41 C 614.62 401.00 616.11 401.05 617.15 400.22 C 617.29 398.41 617.27 396.60 617.30 394.79 C 610.97 391.02 603.93 388.75 596.90 386.68 C 587.55 385.24 578.02 387.39 569.15 390.27 Z" />
<path fill="#3e2723" opacity="1.00" d=" M 629.51 440.78 C 634.07 439.05 638.43 436.84 643.01 435.18 C 640.74 437.20 638.22 438.91 635.70 440.61 C 631.51 443.35 628.84 447.76 624.90 450.81 C 607.85 465.37 584.92 470.42 563.11 472.07 C 556.73 473.19 550.37 471.30 543.97 471.50 C 534.19 470.54 524.30 467.48 516.50 461.33 C 513.85 459.34 512.24 456.35 509.77 454.20 C 507.84 452.63 505.32 452.37 502.94 452.29 L 503.02 451.31 L 503.02 451.31 C 503.28 450.90 503.79 450.08 504.04 449.67 C 504.45 446.27 504.23 442.83 504.15 439.42 C 507.35 440.94 510.71 442.08 514.08 443.17 C 519.47 444.86 523.15 449.48 528.14 451.94 C 540.24 458.84 554.74 459.65 568.26 457.75 C 575.50 456.78 582.27 453.97 588.92 451.08 C 592.22 449.51 595.91 449.30 599.48 448.74 C 609.67 446.88 619.87 444.68 629.51 440.78 Z" />
</g>
<g id="#ffffffff">
<path fill="#ffffff" opacity="1.00" d=" M 597.40 280.43 C 603.10 277.40 609.66 276.80 615.99 276.33 C 611.75 277.01 607.18 276.96 603.35 279.11 C 599.99 281.63 598.17 285.88 598.14 290.03 C 597.58 295.10 601.38 299.79 606.03 301.37 C 612.06 303.67 619.06 300.91 622.98 296.06 C 625.44 292.20 625.11 287.20 623.70 283.02 C 622.65 280.93 620.54 279.64 618.95 278.00 C 624.99 279.36 631.99 281.87 634.49 288.08 C 633.87 293.60 631.13 299.35 625.96 301.92 C 616.73 307.54 604.64 308.10 595.01 303.17 C 589.77 299.88 588.01 293.14 588.48 287.30 C 591.42 284.97 594.01 282.13 597.40 280.43 Z" />
<path fill="#ffffff" opacity="1.00" d=" M 489.45 283.70 C 494.64 281.14 500.70 280.84 506.31 281.71 C 511.81 284.37 517.63 286.99 521.83 291.59 C 523.50 296.11 520.98 300.80 518.25 304.31 C 513.35 310.13 505.16 311.05 498.03 310.78 C 491.13 310.68 483.83 308.03 479.72 302.25 C 477.51 299.33 476.84 295.64 476.48 292.09 C 480.79 289.28 484.81 285.98 489.45 283.70 M 488.00 288.06 C 487.11 290.58 487.12 293.32 486.77 295.95 C 488.24 300.37 491.01 305.04 495.94 306.05 C 500.23 306.70 505.26 307.87 509.04 305.02 C 512.62 301.82 515.62 296.91 514.18 291.95 C 513.03 288.80 511.85 285.09 508.76 283.33 C 505.56 282.47 502.39 281.16 499.00 281.54 C 494.38 281.16 490.41 284.42 488.00 288.06 Z" />
<path fill="#ffffff" opacity="1.00" d=" M 613.28 282.19 C 615.78 280.42 619.55 282.11 620.15 285.06 C 621.79 288.09 618.48 293.12 615.04 290.94 C 612.02 289.61 609.75 284.12 613.28 282.19 Z" />
<path fill="#ffffff" opacity="1.00" d=" M 502.03 288.99 C 503.96 285.90 508.34 287.65 509.63 290.43 C 511.57 292.82 509.97 295.72 508.25 297.67 C 503.38 298.69 499.27 293.24 502.03 288.99 Z" />
<path fill="#ffffff" opacity="1.00" d=" M 569.15 390.27 C 578.02 387.39 587.55 385.24 596.90 386.68 C 603.93 388.75 610.97 391.02 617.30 394.79 C 617.27 396.60 617.29 398.41 617.15 400.22 C 616.11 401.05 614.62 401.00 613.41 401.41 C 613.01 403.84 612.64 406.28 612.61 408.76 C 606.62 408.45 600.46 408.06 594.98 405.42 C 586.42 402.18 577.56 397.53 568.12 399.66 C 562.97 401.02 557.38 401.69 552.85 404.65 C 556.77 398.41 562.79 393.79 569.15 390.27 Z" />
</g>
<g id="#000000ff">
<path fill="#000000" opacity="1.00" d=" M 477.86 456.88 C 486.20 454.80 494.61 453.06 503.02 451.31 L 502.94 452.29 C 502.72 461.20 502.98 470.11 502.69 479.02 C 501.45 500.88 504.50 523.30 513.76 543.29 C 516.93 549.75 520.24 556.40 525.66 561.31 C 533.19 567.88 541.97 573.37 551.82 575.57 C 560.39 577.53 569.18 578.75 577.98 578.43 C 586.53 577.93 595.64 577.03 602.81 571.87 C 617.98 561.26 630.74 546.37 636.29 528.49 C 639.94 516.86 643.30 504.94 643.63 492.68 C 644.82 479.33 643.62 465.89 645.10 452.55 C 658.62 455.30 671.98 458.71 685.40 461.87 C 702.09 464.95 718.55 469.12 734.93 473.54 C 737.12 474.24 739.37 474.95 741.72 474.56 C 741.20 474.79 740.70 475.02 740.21 475.26 C 749.17 477.09 758.05 479.38 767.14 480.54 C 775.75 482.02 784.44 483.02 792.94 485.09 C 797.67 485.53 802.43 485.79 807.01 487.21 C 810.47 488.18 813.54 485.29 817.02 485.50 C 824.55 484.78 830.83 490.65 834.06 496.87 C 837.86 513.08 843.85 528.67 848.30 544.70 C 852.58 558.24 855.26 572.28 860.67 585.45 C 871.54 613.09 884.83 639.68 895.91 667.23 C 902.46 683.87 909.52 700.31 916.32 716.85 C 919.07 702.96 922.73 689.26 926.39 675.57 C 929.79 663.81 932.19 651.76 936.08 640.14 C 938.85 631.96 939.50 623.32 940.94 614.86 C 941.86 608.88 941.11 602.80 941.85 596.81 C 944.22 593.11 947.35 589.70 951.14 587.42 C 951.37 592.83 950.24 598.78 953.35 603.62 C 956.78 609.71 963.57 612.42 969.57 615.28 C 975.59 617.76 981.73 620.23 988.20 621.26 C 1000.04 622.47 1012.17 621.83 1023.58 618.24 C 1026.58 616.91 1028.80 614.36 1031.58 612.66 C 1035.20 610.44 1038.99 608.49 1042.85 606.72 C 1042.72 610.83 1042.67 614.96 1041.92 619.02 C 1039.30 633.58 1038.32 648.37 1036.44 663.03 C 1036.34 664.30 1036.31 665.59 1036.34 666.88 C 1036.08 665.95 1035.82 665.04 1035.59 664.13 C 1036.08 669.05 1034.61 673.87 1034.11 678.73 C 1028.35 721.15 1022.80 763.60 1016.81 805.99 C 1015.23 815.82 1012.57 825.43 1009.95 835.02 C 1006.77 849.80 1002.53 864.32 998.21 878.81 C 995.86 886.87 992.37 894.52 989.18 902.27 C 985.18 911.26 977.13 917.92 968.13 921.58 C 963.47 924.03 958.06 922.84 953.04 923.10 C 944.02 922.87 934.76 923.85 926.00 921.19 C 915.54 918.31 904.35 916.95 895.06 910.95 C 887.22 906.30 880.41 900.22 873.12 894.81 C 863.10 884.76 854.01 873.77 845.80 862.20 C 837.23 852.48 828.52 842.79 821.39 831.93 C 821.34 857.94 821.45 883.95 821.31 909.96 C 821.43 914.30 820.39 918.59 820.59 922.95 C 766.05 922.89 711.52 922.97 656.98 922.92 C 588.66 922.89 520.33 923.24 452.00 923.10 C 408.44 923.12 364.89 922.85 321.33 922.88 C 321.61 918.89 320.59 914.98 320.70 911.01 C 320.56 883.60 320.63 856.19 320.64 828.78 C 313.79 841.11 304.46 851.74 295.34 862.40 C 285.63 874.60 276.50 887.46 264.50 897.58 C 258.08 903.70 250.84 908.95 243.03 913.15 C 234.21 917.51 224.32 918.83 214.93 921.46 C 208.46 923.42 201.64 922.94 194.98 923.11 C 187.73 922.90 179.99 924.13 173.33 920.53 C 168.40 917.75 163.22 914.95 159.64 910.42 C 156.93 907.13 154.86 903.36 153.34 899.39 C 150.91 892.72 145.93 887.35 143.59 880.64 C 140.07 870.84 138.65 860.47 135.91 850.46 C 132.24 833.75 129.86 816.78 126.27 800.06 C 125.80 797.94 125.47 795.80 125.28 793.65 C 125.16 793.57 124.91 793.42 124.78 793.34 C 119.32 761.36 112.97 729.50 108.47 697.35 C 105.49 678.70 103.22 659.90 102.59 641.01 C 101.41 630.69 100.58 620.32 100.17 609.94 C 100.54 609.20 101.28 607.71 101.65 606.97 C 104.50 610.17 108.86 611.19 112.12 613.85 C 114.76 615.94 117.39 618.31 120.81 619.01 C 126.80 620.24 132.81 621.77 138.97 621.74 C 145.64 621.71 152.47 622.07 158.94 620.15 C 166.78 617.83 174.46 614.83 181.52 610.68 C 185.68 608.22 189.01 604.25 190.36 599.57 C 191.12 596.43 190.81 593.17 190.75 589.98 C 192.90 590.48 194.93 591.35 196.88 592.40 C 197.92 593.79 199.06 595.12 200.22 596.42 C 200.63 604.95 200.31 613.55 202.18 621.94 C 203.08 633.73 207.77 644.67 210.51 656.06 C 215.56 676.32 221.61 696.35 225.67 716.85 C 239.89 683.14 253.01 648.95 268.56 615.82 C 275.03 600.73 281.99 585.77 286.61 569.98 C 290.91 554.01 295.41 538.09 300.58 522.38 C 303.05 514.60 305.59 506.83 307.38 498.86 C 308.18 494.59 311.64 491.48 314.69 488.68 C 316.99 486.46 320.67 486.58 322.78 484.20 C 319.68 489.69 323.69 496.70 329.24 498.65 C 332.03 499.94 335.12 499.11 337.95 498.44 C 335.29 495.45 332.31 491.73 333.85 487.46 C 338.40 486.08 343.11 485.24 347.88 485.46 C 350.66 488.02 353.95 490.94 358.07 490.29 C 365.01 489.29 370.88 484.77 375.59 479.81 C 385.35 479.74 394.79 476.64 404.21 474.37 C 408.71 472.73 413.88 472.68 417.87 469.83 C 418.48 468.62 419.00 467.37 419.48 466.11 C 419.12 469.82 417.74 473.46 415.38 476.36 C 412.79 478.84 409.03 477.05 405.99 476.73 C 400.79 475.53 396.04 479.18 392.97 482.99 C 389.32 487.72 386.35 494.10 388.74 500.05 C 390.44 497.38 392.10 494.52 394.81 492.75 C 400.26 488.74 408.11 489.69 413.38 493.54 C 414.81 494.33 416.16 495.98 417.99 495.39 C 423.69 494.30 428.12 489.93 431.38 485.38 C 435.24 478.84 438.54 471.95 441.20 464.83 C 446.62 464.13 451.88 462.53 457.33 462.00 C 456.79 468.13 461.82 472.81 467.10 474.87 C 467.34 467.49 471.88 460.91 477.86 456.88 Z" />
</g>
</svg>