<?xml version="1.0" encoding="UTF-8" ?>
<!DOCTYPE svg PUBLIC "-//W3C//DTD SVG 1.1//EN" "http://www.w3.org/Graphics/SVG/1.1/DTD/svg11.dtd">
<svg width="384pt" height="348pt" viewBox="0 0 1161 934" version="1.1" xmlns="http://www.w3.org/2000/svg">
<g id="#3e2723ff">
<path fill="#3e2723" opacity="1.00" d=" M 719.14 2.13 C 724.02 1.08 729.03 1.60 733.97 1.74 C 739.21 1.71 743.63 4.81 748.40 6.49 C 753.03 8.35 758.17 9.65 761.75 13.36 C 767.32 18.81 772.70 24.55 776.81 31.21 C 781.53 38.61 787.06 46.04 788.35 54.96 C 789.18 64.83 788.93 74.89 786.27 84.48 C 784.35 89.94 781.95 95.21 779.55 100.47 C 774.57 109.01 766.79 115.51 758.48 120.65 C 750.05 123.89 741.10 125.43 732.20 126.75 C 735.82 128.28 739.10 130.49 742.15 132.97 C 746.30 136.41 749.39 140.97 753.68 144.27 C 762.10 150.80 771.51 156.06 781.52 159.70 C 786.36 162.33 792.02 163.31 796.46 166.68 C 803.00 172.28 808.78 179.12 811.52 187.41 C 816.02 196.76 817.41 207.10 819.33 217.19 C 821.32 229.04 824.09 240.92 823.53 253.02 C 823.05 274.66 816.65 295.54 813.58 316.85 C 813.85 317.23 814.39 318.01 814.66 318.40 C 814.07 318.88 813.52 319.39 813.01 319.94 C 812.11 327.31 811.46 334.73 810.00 342.02 C 809.83 341.25 809.49 339.72 809.32 338.95 C 806.29 336.05 805.25 331.88 803.65 328.15 C 800.58 320.08 796.65 312.33 791.76 305.20 C 786.82 297.95 782.87 290.12 778.93 282.30 C 773.43 271.00 765.33 260.96 761.56 248.85 C 759.27 238.06 759.39 226.98 758.69 216.03 C 758.77 208.63 758.60 201.19 757.08 193.92 C 746.02 202.66 739.25 215.47 729.53 225.53 C 717.09 238.41 704.49 251.15 691.44 263.41 C 677.76 274.66 663.40 285.14 648.02 293.94 C 640.41 298.96 631.78 302.01 623.46 305.60 C 616.24 308.61 608.12 309.25 601.43 313.50 C 592.81 318.17 584.26 323.41 577.71 330.81 C 573.49 336.81 571.91 344.21 570.86 351.35 C 568.01 340.04 565.80 328.57 562.68 317.32 C 561.70 317.34 560.92 317.01 560.31 316.34 C 560.85 316.22 561.92 316.00 562.46 315.89 C 560.36 304.29 557.66 292.80 555.89 281.14 C 553.83 261.94 557.33 242.79 559.97 223.83 C 563.44 210.42 568.20 196.93 576.95 185.99 C 579.58 182.89 582.09 179.70 584.60 176.50 C 588.43 171.57 593.83 168.19 599.29 165.31 C 608.11 160.50 617.10 155.95 626.47 152.28 C 634.77 148.32 642.74 143.64 650.19 138.23 C 655.71 134.12 660.27 128.70 666.34 125.34 C 671.57 123.27 676.89 121.39 682.37 120.10 C 676.46 116.12 670.16 112.73 664.22 108.79 C 658.53 104.21 653.24 98.36 651.68 91.00 C 649.34 79.50 650.36 67.39 654.53 56.42 C 660.44 39.34 671.82 24.11 686.73 13.85 C 696.85 8.35 707.82 4.35 719.14 2.13 Z" />
<path fill="#3e2723" opacity="1.00" d=" M 725.01 294.21 C 731.71 294.22 738.34 292.51 745.05 293.46 C 748.08 293.39 750.66 295.26 752.60 297.42 C 754.63 299.72 757.36 301.24 759.48 303.44 C 764.44 309.52 768.61 316.33 770.86 323.90 C 769.46 321.73 767.69 319.81 765.43 318.53 C 762.04 316.63 760.40 312.89 757.49 310.45 C 754.88 307.34 750.44 308.58 746.93 307.71 C 740.50 306.48 734.46 309.94 728.07 309.78 C 720.75 309.54 712.69 311.00 706.36 306.41 C 703.93 303.62 706.13 299.46 709.20 298.23 C 714.25 296.22 719.46 294.03 725.01 294.21 Z" />
<path fill="#3e2723" opacity="1.00" d=" M 601.51 334.18 C 608.32 330.10 616.52 332.36 624.01 331.77 C 630.70 330.96 637.25 332.98 643.92 333.07 C 646.92 333.21 649.96 332.86 652.95 333.38 C 655.36 334.30 656.68 336.74 657.64 339.00 C 656.36 342.63 653.15 345.79 649.15 345.93 C 641.79 346.71 634.11 346.82 627.08 344.23 C 622.50 343.68 618.61 340.66 613.94 340.56 C 607.93 340.36 600.93 339.67 596.30 344.34 C 594.23 345.96 594.20 348.58 594.37 350.98 C 592.45 348.79 590.79 346.05 591.84 343.04 C 593.71 338.92 597.34 335.82 601.51 334.18 Z" />
<path fill="#3e2723" opacity="1.00" d=" M 763.95 364.69 C 766.00 364.09 767.69 362.56 769.83 362.11 C 769.20 366.95 766.42 372.23 760.85 372.25 C 754.99 372.70 749.09 371.98 743.25 372.68 C 737.57 374.40 731.33 375.68 726.87 379.88 C 724.03 382.63 722.08 386.21 721.24 390.06 C 720.61 389.81 719.34 389.31 718.71 389.06 C 718.28 385.33 717.90 381.31 719.95 377.95 C 723.18 371.71 730.03 368.17 736.65 366.64 C 745.33 363.06 754.86 365.16 763.95 364.69 Z" />
<path fill="#3e2723" opacity="1.00" d=" M 616.43 365.65 C 622.31 364.29 628.28 365.57 633.99 367.07 C 640.83 367.84 647.28 371.02 652.49 375.44 C 656.02 378.77 653.04 383.78 653.69 387.90 C 653.24 387.74 652.32 387.44 651.87 387.29 C 649.91 385.15 648.51 382.55 646.48 380.48 C 642.33 377.12 637.59 374.06 632.14 373.54 C 628.06 373.21 624.15 371.49 620.02 371.83 C 617.33 372.29 614.97 373.86 612.27 374.32 C 608.24 373.63 602.82 374.82 600.14 370.99 C 600.27 370.33 600.52 369.02 600.65 368.37 C 603.79 368.72 606.95 369.66 610.10 368.83 C 612.56 368.61 614.30 366.66 616.43 365.65 Z" />
<path fill="#3e2723" opacity="1.00" d=" M 624.03 380.03 C 626.43 377.60 629.89 376.81 632.99 375.68 C 638.36 376.41 642.69 380.05 645.69 384.37 C 647.44 387.01 646.04 390.24 644.75 392.75 C 640.50 394.84 635.29 395.33 630.69 394.27 C 627.76 392.34 624.37 391.47 621.32 389.84 C 621.43 386.45 621.93 382.80 624.03 380.03 M 634.45 382.67 C 634.05 385.72 636.91 389.21 640.18 388.44 C 640.48 387.81 641.09 386.56 641.39 385.93 C 640.65 383.24 636.90 380.08 634.45 382.67 Z" />
<path fill="#3e2723" opacity="1.00" d=" M 727.94 385.95 C 730.70 381.36 735.17 376.89 740.97 377.30 C 746.77 376.57 751.61 381.13 753.88 386.06 C 754.56 388.05 755.04 390.72 753.16 392.24 C 750.98 393.42 748.64 394.25 746.47 395.43 C 741.23 397.83 735.45 396.44 729.98 396.08 C 729.14 395.44 728.30 394.80 727.48 394.17 C 727.26 391.46 726.42 388.44 727.94 385.95 M 741.00 384.93 C 742.15 386.85 743.64 389.87 746.38 388.59 C 749.16 385.52 745.51 382.67 742.86 381.43 C 741.77 382.17 739.68 383.34 741.00 384.93 Z" />
</g>
<g id="#ffedd3ff">
<path fill="#ffedd3" opacity="1.00" d=" M 237.59 171.96 C 237.63 170.11 238.01 168.29 238.47 166.50 C 243.59 167.66 248.87 167.90 254.02 168.96 C 273.62 172.64 293.53 174.38 313.16 177.88 C 321.83 179.08 330.40 181.01 339.13 181.78 L 339.81 182.22 C 353.10 184.06 366.43 185.65 379.73 187.35 C 385.06 188.74 390.57 188.93 396.04 189.24 C 409.18 190.55 422.27 192.46 435.45 193.29 C 435.85 189.71 435.47 186.11 435.50 182.51 C 435.64 186.40 436.09 190.26 436.64 194.11 C 440.51 194.33 444.37 194.63 448.24 194.77 L 448.95 195.26 C 456.82 195.58 464.83 194.86 472.55 196.74 C 470.91 206.20 468.98 215.60 467.42 225.07 C 459.28 261.56 453.39 298.50 447.39 335.39 C 442.46 358.41 440.90 381.99 435.91 405.00 C 433.64 416.91 431.01 428.74 428.57 440.61 C 424.26 466.04 421.09 491.66 415.98 516.94 C 414.71 521.44 414.32 526.21 412.57 530.57 C 412.08 532.12 410.27 531.93 409.00 532.13 C 403.63 532.48 398.34 531.09 392.97 531.11 C 382.96 530.97 372.91 531.24 362.96 529.80 C 339.59 527.88 316.38 524.52 293.00 522.72 C 280.04 521.19 267.23 518.56 254.34 516.55 C 235.38 513.07 216.24 510.23 197.70 504.84 C 194.19 504.28 190.57 504.11 187.33 502.53 C 191.22 488.51 194.87 474.36 196.43 459.86 C 199.73 460.09 202.57 458.45 204.90 456.26 C 205.90 456.62 206.90 456.99 207.90 457.37 C 213.18 463.07 219.80 467.31 226.04 471.89 C 233.68 476.23 240.72 483.38 250.10 483.08 C 246.30 478.15 241.69 473.81 236.39 470.53 C 233.21 468.38 229.72 466.69 226.74 464.25 C 225.61 463.58 225.74 462.20 225.58 461.10 C 232.98 463.13 240.97 463.16 248.08 460.05 C 251.74 458.11 254.62 454.24 254.66 450.00 C 254.96 445.37 251.55 441.28 247.67 439.21 C 233.84 433.67 218.15 434.87 204.70 428.19 C 204.69 427.21 204.68 425.24 204.67 424.25 C 214.85 428.07 225.18 431.78 235.99 433.38 C 240.18 433.73 244.54 432.55 248.58 434.17 C 253.99 435.78 259.87 439.08 265.48 436.27 C 272.85 433.44 275.56 424.18 272.31 417.30 C 277.03 420.50 283.80 420.73 288.40 417.17 C 294.80 412.75 295.75 402.25 289.99 396.94 C 287.76 394.89 285.09 393.42 282.61 391.70 C 286.90 391.39 291.12 390.34 294.83 388.12 C 308.30 382.39 322.70 378.32 334.76 369.74 C 336.33 368.78 336.76 366.97 337.25 365.33 C 328.55 365.63 320.97 370.24 312.87 372.85 C 308.92 374.17 305.15 375.98 301.20 377.30 C 300.27 375.80 299.33 374.30 298.43 372.78 C 291.19 359.38 278.63 350.13 266.19 341.93 C 257.62 337.17 249.75 330.96 240.29 327.98 C 233.87 325.61 226.99 324.73 220.17 324.62 C 222.17 306.96 226.29 289.64 228.28 271.98 C 230.14 260.74 230.60 249.33 231.75 238.00 C 232.71 227.33 234.04 216.70 235.09 206.04 C 235.42 203.40 234.90 200.78 234.58 198.17 C 235.07 197.20 235.52 196.18 235.48 195.06 C 235.75 187.33 237.36 179.70 237.59 171.96 Z" />
<path fill="#ffedd3" opacity="1.00" d=" M 216.39 356.40 C 222.27 356.26 228.15 356.37 234.03 356.25 C 236.92 356.04 239.23 358.01 241.61 359.33 C 246.36 362.27 251.61 364.36 256.15 367.64 C 259.74 370.10 263.08 372.89 266.45 375.63 C 270.31 378.79 272.92 383.13 275.91 387.05 C 272.55 386.18 270.06 383.56 266.86 382.31 C 259.05 378.80 251.79 374.12 243.71 371.20 C 238.20 369.22 232.55 367.65 226.98 365.85 C 222.83 364.58 219.33 361.83 215.15 360.65 C 215.41 359.19 215.83 357.77 216.39 356.40 Z" />
<path fill="#ffedd3" opacity="1.00" d=" M 650.02 654.01 C 725.75 665.30 801.45 676.85 877.21 687.99 C 877.56 688.42 878.27 689.27 878.63 689.70 C 782.06 706.84 685.57 724.37 589.00 741.49 C 589.07 714.56 588.86 687.62 589.11 660.69 C 595.70 661.91 602.29 663.19 608.89 664.42 C 608.93 663.57 609.01 661.85 609.05 661.00 C 615.66 662.00 622.27 663.01 628.89 663.97 C 628.92 661.97 628.97 659.99 629.01 658.01 C 635.96 659.03 642.90 660.10 649.86 661.12 C 649.90 658.75 649.96 656.37 650.02 654.01 Z" />
</g>
<g id="#f8deb8ff">
<path fill="#f8deb8" opacity="1.00" d=" M 408.00 186.01 C 417.23 185.32 426.19 182.33 435.50 182.51 C 435.47 186.11 435.85 189.71 435.45 193.29 C 422.27 192.46 409.18 190.55 396.04 189.24 C 390.57 188.93 385.06 188.74 379.73 187.35 C 389.18 188.19 398.59 186.67 408.00 186.01 Z" />
<path fill="#f8deb8" opacity="1.00" d=" M 198.44 199.55 C 210.47 198.66 222.52 198.39 234.58 198.17 C 234.90 200.78 235.42 203.40 235.09 206.04 C 234.04 216.70 232.71 227.33 231.75 238.00 C 230.60 249.33 230.14 260.74 228.28 271.98 C 226.29 289.64 222.17 306.96 220.17 324.62 C 216.36 324.71 212.54 324.67 208.75 324.31 C 208.75 319.19 208.41 314.08 208.21 308.96 C 207.13 299.04 208.01 288.99 206.89 279.07 C 206.80 269.61 204.68 260.33 204.24 250.89 L 203.74 250.17 C 203.69 244.47 202.97 238.83 202.47 233.16 C 201.40 225.44 201.26 217.64 200.16 209.91 C 199.50 206.47 199.15 202.98 198.44 199.55 Z" />
<path fill="#f8deb8" opacity="1.00" d=" M 242.75 403.42 C 249.52 402.31 255.40 406.49 260.90 409.78 C 254.72 408.09 248.53 406.21 242.75 403.42 Z" />
<path fill="#f8deb8" opacity="1.00" d=" M 445.88 458.91 C 447.29 455.03 447.89 450.69 450.72 447.48 C 451.66 452.27 451.54 457.18 452.19 462.02 C 453.12 476.20 454.75 490.35 454.76 504.58 C 454.61 509.78 455.70 514.93 455.19 520.14 C 449.71 522.35 443.67 521.68 438.00 523.06 C 434.81 523.59 431.64 524.19 428.45 524.61 C 430.00 517.57 431.78 510.59 433.61 503.62 C 437.71 488.72 440.96 473.58 445.88 458.91 Z" />
<path fill="#f8deb8" opacity="1.00" d=" M 225.30 522.58 C 234.33 525.20 243.15 528.52 252.34 530.58 C 259.91 532.96 267.75 534.35 275.29 536.83 C 264.17 537.56 253.01 537.30 241.90 536.53 C 237.08 536.06 232.10 536.97 227.40 535.66 C 226.40 532.80 227.02 529.50 225.86 526.60 C 225.65 525.25 225.46 523.91 225.30 522.58 Z" />
</g>
<g id="#c8a06bff">
<path fill="#c8a06b" opacity="1.00" d=" M 729.53 225.53 C 739.25 215.47 746.02 202.66 757.08 193.92 C 758.60 201.19 758.77 208.63 758.69 216.03 C 759.39 226.98 759.27 238.06 761.56 248.85 C 765.33 260.96 773.43 271.00 778.93 282.30 C 782.87 290.12 786.82 297.95 791.76 305.20 C 796.65 312.33 800.58 320.08 803.65 328.15 C 805.25 331.88 806.29 336.05 809.32 338.95 C 809.49 339.72 809.83 341.25 810.00 342.02 C 811.46 334.73 812.11 327.31 813.01 319.94 C 813.52 319.39 814.07 318.88 814.66 318.40 C 817.76 315.86 820.36 312.51 824.06 310.81 C 827.59 310.00 831.26 310.18 834.86 310.35 C 839.24 310.59 843.82 313.87 844.21 318.49 C 845.99 328.34 846.43 338.74 843.63 348.45 C 842.38 353.09 839.23 356.83 837.10 361.06 C 834.98 365.18 832.60 369.16 830.04 373.02 C 825.97 378.83 821.59 384.92 814.87 387.85 C 810.44 390.55 805.17 390.45 800.18 390.22 C 798.93 396.49 796.44 402.38 794.31 408.38 C 788.59 427.69 780.14 446.07 770.95 463.95 C 765.93 473.70 758.91 482.31 754.34 492.32 C 752.18 496.88 748.45 500.40 745.12 504.10 C 739.45 510.13 731.74 513.90 723.68 515.48 C 716.08 516.86 708.84 520.16 701.01 520.14 C 690.35 520.29 679.34 520.47 669.18 516.79 C 662.73 514.13 655.48 512.69 650.42 507.52 C 641.61 498.99 632.58 490.55 625.32 480.60 C 618.71 471.49 611.87 462.49 606.49 452.57 C 603.41 447.19 601.31 441.27 597.57 436.27 C 592.99 421.98 584.54 409.23 579.91 394.94 C 579.18 393.19 578.70 390.92 576.79 390.10 C 573.63 389.24 569.89 390.08 567.25 387.74 C 562.14 383.15 557.71 377.72 554.90 371.41 C 551.13 364.27 547.19 357.21 544.00 349.79 C 542.26 345.76 542.32 341.30 542.43 337.00 C 542.76 329.26 544.43 320.97 550.22 315.38 C 553.28 313.48 557.53 314.16 560.31 316.34 C 560.92 317.01 561.70 317.34 562.68 317.32 C 565.80 328.57 568.01 340.04 570.86 351.35 C 571.91 344.21 573.49 336.81 577.71 330.81 C 584.26 323.41 592.81 318.17 601.43 313.50 C 608.12 309.25 616.24 308.61 623.46 305.60 C 631.78 302.01 640.41 298.96 648.02 293.94 C 663.40 285.14 677.76 274.66 691.44 263.41 C 704.49 251.15 717.09 238.41 729.53 225.53 M 725.01 294.21 C 719.46 294.03 714.25 296.22 709.20 298.23 C 706.13 299.46 703.93 303.62 706.36 306.41 C 712.69 311.00 720.75 309.54 728.07 309.78 C 734.46 309.94 740.50 306.48 746.93 307.71 C 750.44 308.58 754.88 307.34 757.49 310.45 C 760.40 312.89 762.04 316.63 765.43 318.53 C 767.69 319.81 769.46 321.73 770.86 323.90 C 768.61 316.33 764.44 309.52 759.48 303.44 C 757.36 301.24 754.63 299.72 752.60 297.42 C 750.66 295.26 748.08 293.39 745.05 293.46 C 738.34 292.51 731.71 294.22 725.01 294.21 M 601.51 334.18 C 597.34 335.82 593.71 338.92 591.84 343.04 C 590.79 346.05 592.45 348.79 594.37 350.98 C 594.20 348.58 594.23 345.96 596.30 344.34 C 600.93 339.67 607.93 340.36 613.94 340.56 C 618.61 340.66 622.50 343.68 627.08 344.23 C 634.11 346.82 641.79 346.71 649.15 345.93 C 653.15 345.79 656.36 342.63 657.64 339.00 C 656.68 336.74 655.36 334.30 652.95 333.38 C 649.96 332.86 646.92 333.21 643.92 333.07 C 637.25 332.98 630.70 330.96 624.01 331.77 C 616.52 332.36 608.32 330.10 601.51 334.18 M 763.95 364.69 C 754.86 365.16 745.33 363.06 736.65 366.64 C 730.03 368.17 723.18 371.71 719.95 377.95 C 717.90 381.31 718.28 385.33 718.71 389.06 C 719.34 389.31 720.61 389.81 721.24 390.06 C 720.82 391.33 721.64 392.64 722.83 393.10 C 725.09 394.37 727.52 395.29 729.98 396.08 C 735.45 396.44 741.23 397.83 746.47 395.43 C 748.64 394.25 750.98 393.42 753.16 392.24 C 755.04 390.72 754.56 388.05 753.88 386.06 C 754.09 386.50 754.53 387.40 754.75 387.85 C 756.63 387.88 758.24 387.10 757.90 384.96 C 757.77 382.14 760.11 380.35 761.38 378.12 C 761.94 376.15 761.22 374.17 760.85 372.25 C 766.42 372.23 769.20 366.95 769.83 362.11 C 767.69 362.56 766.00 364.09 763.95 364.69 M 616.43 365.65 C 614.30 366.66 612.56 368.61 610.10 368.83 C 606.95 369.66 603.79 368.72 600.65 368.37 C 600.52 369.02 600.27 370.33 600.14 370.99 C 602.82 374.82 608.24 373.63 612.27 374.32 L 611.44 374.51 C 608.19 381.80 615.66 387.73 621.30 390.84 L 621.32 389.84 C 624.37 391.47 627.76 392.34 630.69 394.27 C 635.29 395.33 640.50 394.84 644.75 392.75 C 648.04 392.95 651.40 391.32 652.52 388.07 L 651.87 387.29 C 652.32 387.44 653.24 387.74 653.69 387.90 C 653.04 383.78 656.02 378.77 652.49 375.44 C 647.28 371.02 640.83 367.84 633.99 367.07 C 628.28 365.57 622.31 364.29 616.43 365.65 M 657.31 432.37 C 655.29 432.65 655.17 434.92 655.44 436.50 C 658.44 436.95 661.47 437.23 664.51 437.37 C 666.53 440.31 668.24 443.80 671.71 445.29 C 675.94 448.10 681.15 447.54 685.97 447.51 C 689.84 447.34 694.13 447.88 697.48 445.50 C 700.27 443.95 702.07 441.27 703.94 438.77 C 707.44 438.54 711.83 437.55 713.38 434.02 C 713.85 430.83 709.89 431.30 708.09 432.29 C 704.71 433.91 700.94 433.16 697.36 433.56 C 694.61 434.42 694.31 438.10 691.97 439.48 C 687.65 439.61 683.31 439.53 679.00 439.33 C 674.23 438.56 672.92 432.89 668.65 431.44 C 664.86 431.40 661.04 431.77 657.31 432.37 M 686.94 460.78 C 683.51 461.11 680.36 459.27 676.96 459.46 C 671.51 459.04 667.42 463.37 663.80 466.83 C 659.74 466.28 654.51 466.90 652.41 470.91 C 653.71 473.41 656.35 472.47 658.57 472.17 C 659.16 473.61 659.36 475.33 660.48 476.51 C 668.30 483.12 678.89 485.29 688.92 484.49 C 694.19 484.64 698.76 481.44 703.95 481.24 C 711.96 481.36 717.48 474.07 720.40 467.41 C 723.01 466.95 727.58 467.15 726.77 463.20 C 723.72 461.02 720.10 462.22 716.71 462.51 C 712.90 461.68 709.65 459.26 706.06 457.83 C 699.38 456.35 693.53 461.22 686.94 460.78 Z" />
<path fill="#c8a06b" opacity="1.00" d=" M 208.75 324.31 C 212.54 324.67 216.36 324.71 220.17 324.62 C 226.99 324.73 233.87 325.61 240.29 327.98 C 249.75 330.96 257.62 337.17 266.19 341.93 C 278.63 350.13 291.19 359.38 298.43 372.78 C 298.79 375.03 299.37 377.30 299.23 379.60 C 298.59 382.79 296.68 385.52 294.83 388.12 C 291.12 390.34 286.90 391.39 282.61 391.70 C 285.09 393.42 287.76 394.89 289.99 396.94 C 295.75 402.25 294.80 412.75 288.40 417.17 C 283.80 420.73 277.03 420.50 272.31 417.30 C 275.56 424.18 272.85 433.44 265.48 436.27 C 259.87 439.08 253.99 435.78 248.58 434.17 C 244.54 432.55 240.18 433.73 235.99 433.38 C 225.18 431.78 214.85 428.07 204.67 424.25 C 204.68 425.24 204.69 427.21 204.70 428.19 C 218.15 434.87 233.84 433.67 247.67 439.21 C 251.55 441.28 254.96 445.37 254.66 450.00 C 254.62 454.24 251.74 458.11 248.08 460.05 C 240.97 463.16 232.98 463.13 225.58 461.10 C 219.65 460.03 213.68 459.12 207.90 457.37 C 206.90 456.99 205.90 456.62 204.90 456.26 C 202.57 458.45 199.73 460.09 196.43 459.86 C 193.34 458.76 190.32 457.21 186.94 457.46 C 185.11 457.66 184.20 455.68 183.43 454.38 C 180.51 447.97 179.85 440.87 177.95 434.15 C 177.58 432.76 177.17 431.38 176.76 430.01 C 176.27 423.91 176.64 417.79 176.41 411.69 C 175.44 410.18 174.50 408.65 173.56 407.13 C 173.28 403.33 172.75 399.18 174.92 395.79 C 176.45 392.52 179.86 390.65 181.50 387.51 C 182.40 383.04 180.50 378.41 181.86 373.97 C 183.32 369.13 182.76 363.31 186.60 359.50 C 188.93 356.93 192.40 356.03 195.69 355.46 C 195.47 351.67 195.70 347.84 194.91 344.11 C 194.33 340.97 193.95 337.44 195.81 334.64 C 198.57 330.13 202.65 325.52 208.27 325.09 L 208.75 324.31 M 216.39 356.40 C 215.83 357.77 215.41 359.19 215.15 360.65 C 219.33 361.83 222.83 364.58 226.98 365.85 C 232.55 367.65 238.20 369.22 243.71 371.20 C 251.79 374.12 259.05 378.80 266.86 382.31 C 270.06 383.56 272.55 386.18 275.91 387.05 C 272.92 383.13 270.31 378.79 266.45 375.63 C 263.08 372.89 259.74 370.10 256.15 367.64 C 251.61 364.36 246.36 362.27 241.61 359.33 C 239.23 358.01 236.92 356.04 234.03 356.25 C 228.15 356.37 222.27 356.26 216.39 356.40 M 242.75 403.42 C 248.53 406.21 254.72 408.09 260.90 409.78 C 255.40 406.49 249.52 402.31 242.75 403.42 Z" />
<path fill="#c8a06b" opacity="1.00" d=" M 862.21 582.64 C 865.21 581.63 867.57 578.80 870.98 578.67 C 875.79 577.84 879.51 581.25 882.96 583.97 C 892.61 587.17 901.70 593.32 912.27 592.54 C 917.84 592.82 923.50 592.08 929.02 592.95 C 934.28 594.90 940.44 597.33 942.55 603.03 C 944.01 607.02 947.08 610.03 949.29 613.58 C 952.01 617.87 955.15 621.88 957.97 626.12 C 960.19 629.38 960.52 633.73 963.50 636.51 C 965.53 638.45 967.58 640.46 968.73 643.09 C 970.49 647.01 973.48 650.16 975.78 653.76 C 978.42 659.03 983.24 662.58 987.10 666.89 C 989.20 669.19 991.51 671.29 993.82 673.40 C 996.52 675.86 998.06 679.26 999.66 682.49 C 1001.14 685.76 1003.15 689.16 1002.42 692.90 C 1001.47 698.59 1002.05 704.39 1001.25 710.09 C 1000.45 716.21 995.32 720.34 990.75 723.87 C 987.48 726.61 983.06 727.12 979.46 729.26 C 977.15 730.62 974.70 731.87 971.98 732.00 C 967.10 732.26 962.38 734.01 957.46 733.40 C 955.57 731.97 953.58 730.65 951.84 729.05 C 950.80 721.43 950.89 713.67 950.86 705.99 C 950.88 686.30 950.82 666.60 950.90 646.91 C 951.01 644.51 950.47 642.00 948.71 640.27 C 939.00 637.99 929.08 636.61 919.39 634.23 C 920.23 639.88 923.71 644.60 926.33 649.54 C 928.11 652.38 927.90 656.29 925.93 659.00 C 921.79 664.66 912.98 667.36 907.13 662.69 C 903.71 659.56 901.22 655.40 899.60 651.09 C 899.75 656.57 895.69 662.06 890.07 662.59 C 881.69 663.07 874.37 658.09 868.05 653.18 C 869.18 656.80 870.19 660.83 868.25 664.39 C 865.53 671.54 855.59 674.00 849.63 669.39 C 845.20 665.61 842.93 659.99 840.05 655.06 C 838.11 658.28 835.20 661.67 831.08 661.55 C 826.36 661.90 822.90 658.14 819.56 655.41 C 812.16 649.10 807.29 640.27 804.89 630.93 C 803.92 625.08 804.83 619.15 805.85 613.38 C 807.20 609.30 810.08 606.00 812.93 602.89 C 815.58 599.80 819.96 599.48 823.13 597.11 C 826.45 594.73 829.64 592.14 833.26 590.19 C 839.29 586.87 844.18 581.35 850.98 579.54 C 855.10 578.54 858.76 580.74 862.21 582.64 M 829.52 621.92 C 828.63 626.27 831.01 630.03 832.51 633.92 C 832.54 628.00 834.88 622.24 837.80 617.17 C 835.25 619.09 832.47 620.70 829.52 621.92 M 879.67 629.94 C 884.26 636.17 892.64 638.09 896.76 644.82 C 894.95 639.27 894.46 633.44 894.50 627.64 C 889.94 626.68 885.42 625.32 880.72 625.25 C 880.22 626.75 879.24 628.28 879.67 629.94 Z" />
</g>
<g id="#fde5c2ff">
<path fill="#fde5c2" opacity="1.00" d=" M 447.39 335.39 C 453.39 298.50 459.28 261.56 467.42 225.07 C 475.09 225.75 482.43 228.46 490.15 228.79 L 490.88 229.23 C 497.22 229.53 503.54 230.43 509.70 231.99 C 508.11 239.05 505.82 245.92 503.85 252.89 C 499.53 267.97 494.77 282.92 490.16 297.92 C 484.70 317.59 479.12 337.23 474.12 357.03 C 472.52 363.58 470.26 369.97 469.04 376.60 C 468.91 376.17 468.66 375.31 468.53 374.88 C 468.44 376.50 468.37 378.12 468.27 379.75 C 465.89 384.96 464.95 390.65 463.54 396.16 C 460.44 408.48 457.70 420.91 453.90 433.04 C 452.62 437.79 450.50 442.46 450.72 447.48 C 447.89 450.69 447.29 455.03 445.88 458.91 C 440.96 473.58 437.71 488.72 433.61 503.62 C 431.78 510.59 430.00 517.57 428.45 524.61 C 426.36 530.59 424.85 536.75 423.16 542.85 C 420.98 549.10 419.48 555.58 416.79 561.65 C 411.08 562.14 405.66 559.96 400.02 559.62 C 366.57 556.77 334.01 548.15 300.95 542.76 C 292.28 541.32 283.86 538.74 275.29 536.83 C 267.75 534.35 259.91 532.96 252.34 530.58 C 243.15 528.52 234.33 525.20 225.30 522.58 C 215.70 518.90 205.75 516.26 195.95 513.19 C 196.58 510.41 197.17 507.63 197.70 504.84 C 216.24 510.23 235.38 513.07 254.34 516.55 C 267.23 518.56 280.04 521.19 293.00 522.72 C 316.38 524.52 339.59 527.88 362.96 529.80 C 372.91 531.24 382.96 530.97 392.97 531.11 C 398.34 531.09 403.63 532.48 409.00 532.13 C 410.27 531.93 412.08 532.12 412.57 530.57 C 414.32 526.21 414.71 521.44 415.98 516.94 C 421.09 491.66 424.26 466.04 428.57 440.61 C 431.01 428.74 433.64 416.91 435.91 405.00 C 440.90 381.99 442.46 358.41 447.39 335.39 Z" />
<path fill="#fde5c2" opacity="1.00" d=" M 312.87 372.85 C 320.97 370.24 328.55 365.63 337.25 365.33 C 336.76 366.97 336.33 368.78 334.76 369.74 C 322.70 378.32 308.30 382.39 294.83 388.12 C 296.68 385.52 298.59 382.79 299.23 379.60 C 299.37 377.30 298.79 375.03 298.43 372.78 C 299.33 374.30 300.27 375.80 301.20 377.30 C 305.15 375.98 308.92 374.17 312.87 372.85 Z" />
<path fill="#fde5c2" opacity="1.00" d=" M 207.90 457.37 C 213.68 459.12 219.65 460.03 225.58 461.10 C 225.74 462.20 225.61 463.58 226.74 464.25 C 229.72 466.69 233.21 468.38 236.39 470.53 C 241.69 473.81 246.30 478.15 250.10 483.08 C 240.72 483.38 233.68 476.23 226.04 471.89 C 219.80 467.31 213.18 463.07 207.90 457.37 Z" />
</g>
<g id="#5c6bc0ff">
<path fill="#5c6bc0" opacity="1.00" d=" M 513.28 372.64 C 527.08 370.86 541.02 371.35 554.90 371.41 C 557.71 377.72 562.14 383.15 567.25 387.74 C 569.89 390.08 573.63 389.24 576.79 390.10 C 578.70 390.92 579.18 393.19 579.91 394.94 C 584.54 409.23 592.99 421.98 597.57 436.27 C 596.94 449.12 599.29 461.99 603.93 473.96 C 612.20 492.74 627.45 507.25 643.67 519.28 C 646.61 521.02 649.80 522.32 652.62 524.30 C 657.98 528.24 664.82 528.85 670.84 531.38 C 683.00 534.40 695.37 537.37 707.99 537.13 C 714.86 537.07 721.79 537.45 728.63 536.53 C 737.14 535.01 745.58 533.08 753.86 530.56 C 763.19 528.39 772.79 526.22 781.00 521.03 C 787.97 516.46 794.14 510.82 800.55 505.51 C 806.75 500.41 812.39 494.62 817.27 488.25 C 823.54 478.03 828.48 466.93 831.25 455.24 C 834.69 441.77 834.48 427.77 834.79 413.98 C 836.31 400.56 835.40 387.02 834.06 373.62 C 843.67 375.56 853.27 377.60 862.91 379.48 C 876.16 382.38 889.69 384.29 902.57 388.68 C 922.38 395.16 941.85 402.66 960.97 410.97 C 966.56 413.40 971.07 417.61 975.96 421.15 C 991.30 432.92 1007.14 444.37 1020.06 458.88 C 1027.45 466.81 1035.39 474.23 1042.36 482.55 C 1053.72 496.56 1064.96 510.67 1076.18 524.80 C 1080.71 530.61 1085.53 536.21 1089.65 542.33 C 1100.96 558.71 1112.35 575.03 1123.48 591.54 C 1128.07 598.27 1131.39 605.74 1135.10 612.97 C 1140.01 622.74 1144.77 632.60 1149.55 642.44 C 1152.61 648.44 1153.56 655.17 1155.35 661.59 C 1157.43 669.24 1159.20 677.04 1159.41 685.00 C 1159.86 693.80 1157.91 702.46 1156.43 711.08 C 1153.15 722.23 1144.74 731.03 1135.34 737.48 C 1125.72 744.38 1115.02 749.80 1103.69 753.24 C 1092.90 756.10 1082.14 759.43 1070.99 760.59 C 1063.98 760.60 1057.01 761.61 1050.00 761.43 C 1039.58 761.64 1029.22 760.39 1018.88 759.39 C 1008.43 758.17 998.00 756.03 988.33 751.79 C 977.44 746.80 965.98 742.14 957.46 733.40 C 962.38 734.01 967.10 732.26 971.98 732.00 C 974.70 731.87 977.15 730.62 979.46 729.26 C 983.06 727.12 987.48 726.61 990.75 723.87 C 995.32 720.34 1000.45 716.21 1001.25 710.09 C 1002.05 704.39 1001.47 698.59 1002.42 692.90 C 1003.15 689.16 1001.14 685.76 999.66 682.49 C 998.06 679.26 996.52 675.86 993.82 673.40 C 991.51 671.29 989.20 669.19 987.10 666.89 C 983.24 662.58 978.42 659.03 975.78 653.76 C 986.18 655.04 996.62 653.54 1007.03 653.26 C 1013.60 652.58 1020.21 652.49 1026.79 652.02 C 1022.59 646.04 1017.42 640.82 1012.99 635.01 C 993.85 611.80 975.86 587.62 955.65 565.31 C 946.95 555.40 938.40 545.33 928.90 536.17 C 925.43 548.13 921.19 559.87 918.27 571.99 C 916.30 578.85 914.64 585.80 912.27 592.54 C 901.70 593.32 892.61 587.17 882.96 583.97 C 879.51 581.25 875.79 577.84 870.98 578.67 C 867.57 578.80 865.21 581.63 862.21 582.64 C 858.76 580.74 855.10 578.54 850.98 579.54 C 844.18 581.35 839.29 586.87 833.26 590.19 C 829.64 592.14 826.45 594.73 823.13 597.11 C 819.96 599.48 815.58 599.80 812.93 602.89 C 810.08 606.00 807.20 609.30 805.85 613.38 C 754.95 605.42 704.11 597.03 653.21 589.06 C 652.95 603.21 652.92 617.37 652.64 631.52 C 631.42 634.56 610.20 637.62 589.00 640.74 C 588.97 620.11 589.08 599.49 588.95 578.86 C 588.64 578.79 588.01 578.64 587.70 578.57 C 558.06 572.05 528.40 565.62 498.72 559.32 C 500.58 551.01 500.06 542.38 501.19 533.96 C 502.20 523.19 505.60 512.31 502.57 501.54 C 497.05 501.74 491.58 502.56 486.05 502.67 C 475.65 503.84 465.13 503.06 454.76 504.58 C 454.75 490.35 453.12 476.20 452.19 462.02 C 451.54 457.18 451.66 452.27 450.72 447.48 C 450.50 442.46 452.62 437.79 453.90 433.04 C 457.70 420.91 460.44 408.48 463.54 396.16 C 464.95 390.65 465.89 384.96 468.27 379.75 C 469.14 379.02 469.44 378.04 469.17 376.83 C 477.26 375.87 485.32 374.67 493.46 374.20 C 500.02 373.17 506.77 374.06 513.28 372.64 Z" />
<path fill="#5c6bc0" opacity="1.00" d=" M 177.95 434.15 C 179.85 440.87 180.51 447.97 183.43 454.38 C 184.20 455.68 185.11 457.66 186.94 457.46 C 190.32 457.21 193.34 458.76 196.43 459.86 C 194.87 474.36 191.22 488.51 187.33 502.53 C 190.57 504.11 194.19 504.28 197.70 504.84 C 197.17 507.63 196.58 510.41 195.95 513.19 C 205.75 516.26 215.70 518.90 225.30 522.58 C 225.46 523.91 225.65 525.25 225.86 526.60 C 226.22 529.39 226.39 532.20 226.36 535.02 C 209.19 537.03 192.01 538.95 174.84 540.96 C 170.53 537.01 164.63 534.49 162.00 528.98 C 159.20 523.79 155.83 518.73 154.62 512.86 C 153.06 503.17 155.89 493.51 157.33 483.97 C 159.98 465.86 171.25 450.79 177.95 434.15 Z" />
</g>
<g id="#ffffffff">
<path fill="#ffffff" opacity="1.00" d=" M 612.27 374.32 C 614.97 373.86 617.33 372.29 620.02 371.83 C 624.15 371.49 628.06 373.21 632.14 373.54 C 637.59 374.06 642.33 377.12 646.48 380.48 C 648.51 382.55 649.91 385.15 651.87 387.29 L 652.52 388.07 C 651.40 391.32 648.04 392.95 644.75 392.75 C 646.04 390.24 647.44 387.01 645.69 384.37 C 642.69 380.05 638.36 376.41 632.99 375.68 C 629.89 376.81 626.43 377.60 624.03 380.03 C 621.93 382.80 621.43 386.45 621.32 389.84 L 621.30 390.84 C 615.66 387.73 608.19 381.80 611.44 374.51 L 612.27 374.32 Z" />
<path fill="#ffffff" opacity="1.00" d=" M 726.87 379.88 C 731.33 375.68 737.57 374.40 743.25 372.68 C 749.09 371.98 754.99 372.70 760.85 372.25 C 761.22 374.17 761.94 376.15 761.38 378.12 C 760.11 380.35 757.77 382.14 757.90 384.96 C 758.24 387.10 756.63 387.88 754.75 387.85 C 754.53 387.40 754.09 386.50 753.88 386.06 C 751.61 381.13 746.77 376.57 740.97 377.30 C 735.17 376.89 730.70 381.36 727.94 385.95 C 726.42 388.44 727.26 391.46 727.48 394.17 C 728.30 394.80 729.14 395.44 729.98 396.08 C 727.52 395.29 725.09 394.37 722.83 393.10 C 721.64 392.64 720.82 391.33 721.24 390.06 C 722.08 386.21 724.03 382.63 726.87 379.88 Z" />
<path fill="#ffffff" opacity="1.00" d=" M 634.45 382.67 C 636.90 380.08 640.65 383.24 641.39 385.93 C 641.09 386.56 640.48 387.81 640.18 388.44 C 636.91 389.21 634.05 385.72 634.45 382.67 Z" />
<path fill="#ffffff" opacity="1.00" d=" M 741.00 384.93 C 739.68 383.34 741.77 382.17 742.86 381.43 C 745.51 382.67 749.16 385.52 746.38 388.59 C 743.64 389.87 742.15 386.85 741.00 384.93 Z" />
</g>
<g id="#455a64ff">
<path fill="#455a64" opacity="1.00" d=" M 469.04 376.60 C 483.71 374.53 498.47 373.10 513.28 372.64 C 506.77 374.06 500.02 373.17 493.46 374.20 C 485.32 374.67 477.26 375.87 469.17 376.83 C 469.44 378.04 469.14 379.02 468.27 379.75 C 468.37 378.12 468.44 376.50 468.53 374.88 C 468.66 375.31 468.91 376.17 469.04 376.60 Z" />
<path fill="#455a64" opacity="1.00" d=" M 653.21 589.06 C 704.11 597.03 754.95 605.42 805.85 613.38 C 804.83 619.15 803.92 625.08 804.89 630.93 C 807.29 640.27 812.16 649.10 819.56 655.41 C 822.90 658.14 826.36 661.90 831.08 661.55 C 835.20 661.67 838.11 658.28 840.05 655.06 C 842.93 659.99 845.20 665.61 849.63 669.39 C 855.59 674.00 865.53 671.54 868.25 664.39 C 870.19 660.83 869.18 656.80 868.05 653.18 C 874.37 658.09 881.69 663.07 890.07 662.59 C 895.69 662.06 899.75 656.57 899.60 651.09 C 901.22 655.40 903.71 659.56 907.13 662.69 C 912.98 667.36 921.79 664.66 925.93 659.00 C 927.90 656.29 928.11 652.38 926.33 649.54 C 923.71 644.60 920.23 639.88 919.39 634.23 C 929.08 636.61 939.00 637.99 948.71 640.27 C 950.47 642.00 951.01 644.51 950.90 646.91 C 950.82 666.60 950.88 686.30 950.86 705.99 C 950.89 713.67 950.80 721.43 951.84 729.05 C 951.90 729.79 952.01 731.28 952.07 732.02 C 951.51 783.34 951.00 834.66 950.52 885.98 C 933.64 883.07 916.86 879.50 899.94 876.91 C 912.47 873.88 925.05 871.06 937.56 867.91 C 937.58 804.94 937.89 741.97 937.98 679.01 C 924.19 681.47 910.40 683.95 896.61 686.42 C 890.18 687.38 883.73 689.65 877.21 687.99 C 801.45 676.85 725.75 665.30 650.02 654.01 C 649.96 656.37 649.90 658.75 649.86 661.12 C 642.90 660.10 635.96 659.03 629.01 658.01 C 628.97 659.99 628.92 661.97 628.89 663.97 C 622.27 663.01 615.66 662.00 609.05 661.00 C 609.01 661.85 608.93 663.57 608.89 664.42 C 602.29 663.19 595.70 661.91 589.11 660.69 C 588.95 654.04 589.00 647.39 589.00 640.74 C 610.20 637.62 631.42 634.56 652.64 631.52 C 652.92 617.37 652.95 603.21 653.21 589.06 Z" />
<path fill="#455a64" opacity="1.00" d=" M 829.52 621.92 C 832.47 620.70 835.25 619.09 837.80 617.17 C 834.88 622.24 832.54 628.00 832.51 633.92 C 831.01 630.03 828.63 626.27 829.52 621.92 Z" />
<path fill="#455a64" opacity="1.00" d=" M 879.67 629.94 C 879.24 628.28 880.22 626.75 880.72 625.25 C 885.42 625.32 889.94 626.68 894.50 627.64 C 894.46 633.44 894.95 639.27 896.76 644.82 C 892.64 638.09 884.26 636.17 879.67 629.94 Z" />
</g>
<g id="#a48358ff">
<path fill="#a48358" opacity="1.00" d=" M 814.87 387.85 C 821.59 384.92 825.97 378.83 830.04 373.02 C 831.38 373.20 832.70 373.39 834.06 373.62 C 835.40 387.02 836.31 400.56 834.79 413.98 C 834.48 427.77 834.69 441.77 831.25 455.24 C 828.48 466.93 823.54 478.03 817.27 488.25 C 812.39 494.62 806.75 500.41 800.55 505.51 C 794.14 510.82 787.97 516.46 781.00 521.03 C 772.79 526.22 763.19 528.39 753.86 530.56 C 745.58 533.08 737.14 535.01 728.63 536.53 C 721.79 537.45 714.86 537.07 707.99 537.13 C 695.37 537.37 683.00 534.40 670.84 531.38 C 664.82 528.85 657.98 528.24 652.62 524.30 C 649.80 522.32 646.61 521.02 643.67 519.28 C 627.45 507.25 612.20 492.74 603.93 473.96 C 599.29 461.99 596.94 449.12 597.57 436.27 C 601.31 441.27 603.41 447.19 606.49 452.57 C 611.87 462.49 618.71 471.49 625.32 480.60 C 632.58 490.55 641.61 498.99 650.42 507.52 C 655.48 512.69 662.73 514.13 669.18 516.79 C 679.34 520.47 690.35 520.29 701.01 520.14 C 708.84 520.16 716.08 516.86 723.68 515.48 C 731.74 513.90 739.45 510.13 745.12 504.10 C 748.45 500.40 752.18 496.88 754.34 492.32 C 758.91 482.31 765.93 473.70 770.95 463.95 C 780.14 446.07 788.59 427.69 794.31 408.38 C 796.44 402.38 798.93 396.49 800.18 390.22 C 805.17 390.45 810.44 390.55 814.87 387.85 Z" />
</g>
<g id="#8b6b48ff">
<path fill="#8b6b48" opacity="1.00" d=" M 657.31 432.37 C 661.04 431.77 664.86 431.40 668.65 431.44 C 672.92 432.89 674.23 438.56 679.00 439.33 C 683.31 439.53 687.65 439.61 691.97 439.48 C 694.31 438.10 694.61 434.42 697.36 433.56 C 700.94 433.16 704.71 433.91 708.09 432.29 C 709.89 431.30 713.85 430.83 713.38 434.02 C 711.83 437.55 707.44 438.54 703.94 438.77 C 702.07 441.27 700.27 443.95 697.48 445.50 C 694.13 447.88 689.84 447.34 685.97 447.51 C 681.15 447.54 675.94 448.10 671.71 445.29 C 668.24 443.80 666.53 440.31 664.51 437.37 C 661.47 437.23 658.44 436.95 655.44 436.50 C 655.17 434.92 655.29 432.65 657.31 432.37 Z" />
<path fill="#8b6b48" opacity="1.00" d=" M 686.94 460.78 C 693.53 461.22 699.38 456.35 706.06 457.83 C 709.65 459.26 712.90 461.68 716.71 462.51 C 720.10 462.22 723.72 461.02 726.77 463.20 C 727.58 467.15 723.01 466.95 720.40 467.41 C 717.48 474.07 711.96 481.36 703.95 481.24 C 698.76 481.44 694.19 484.64 688.92 484.49 C 678.89 485.29 668.30 483.12 660.48 476.51 C 659.36 475.33 659.16 473.61 658.57 472.17 C 656.35 472.47 653.71 473.41 652.41 470.91 C 654.51 466.90 659.74 466.28 663.80 466.83 C 667.42 463.37 671.51 459.04 676.96 459.46 C 680.36 459.27 683.51 461.11 686.94 460.78 Z" />
</g>
<g id="#b0bec5ff">
<path fill="#b0bec5" opacity="1.00" d=" M 225.86 526.60 C 227.02 529.50 226.40 532.80 227.40 535.66 C 232.10 536.97 237.08 536.06 241.90 536.53 C 253.01 537.30 264.17 537.56 275.29 536.83 C 283.86 538.74 292.28 541.32 300.95 542.76 C 334.01 548.15 366.57 556.77 400.02 559.62 C 405.66 559.96 411.08 562.14 416.79 561.65 C 419.48 555.58 420.98 549.10 423.16 542.85 C 448.32 548.44 473.57 553.68 498.72 559.32 C 528.40 565.62 558.06 572.05 587.70 578.57 C 585.51 579.32 583.26 579.90 580.97 580.25 C 474.63 597.58 368.33 615.19 262.02 632.73 C 258.40 633.36 254.77 634.10 251.09 634.08 C 170.37 610.37 89.56 586.98 8.86 563.22 C 6.01 562.21 3.02 561.69 0.00 561.64 L 0.00 561.15 C 7.28 559.80 14.77 559.51 22.12 558.47 C 73.03 552.63 123.93 546.78 174.84 540.96 C 192.01 538.95 209.19 537.03 226.36 535.02 C 226.39 532.20 226.22 529.39 225.86 526.60 Z" />
<path fill="#b0bec5" opacity="1.00" d=" M 896.61 686.42 C 910.40 683.95 924.19 681.47 937.98 679.01 C 937.89 741.97 937.58 804.94 937.56 867.91 C 925.05 871.06 912.47 873.88 899.94 876.91 C 827.92 893.97 755.91 911.05 683.89 928.12 C 676.13 929.74 668.53 932.21 660.67 933.24 C 637.86 932.69 615.01 933.32 592.20 933.47 L 593.36 932.27 C 642.40 920.79 691.61 910.09 740.57 898.30 C 771.75 891.37 803.23 885.46 833.75 875.92 C 843.45 872.93 853.28 870.40 863.06 867.66 C 876.28 863.75 889.14 858.66 902.51 855.24 C 907.82 853.63 913.87 852.99 918.10 849.08 C 919.30 845.47 921.85 839.13 916.87 837.34 C 906.50 839.60 896.27 842.55 885.92 844.90 C 877.82 846.74 869.71 848.52 861.70 850.70 C 849.90 853.63 838.41 857.66 826.67 860.81 C 808.43 865.43 789.90 868.87 771.76 873.90 C 758.21 877.35 744.76 881.23 731.02 883.89 C 709.91 888.48 689.06 894.20 667.88 898.47 C 641.60 904.49 615.40 910.87 589.23 917.33 C 588.72 904.92 589.13 892.49 589.00 880.07 C 589.00 833.87 589.00 787.68 589.00 741.49 C 685.57 724.37 782.06 706.84 878.63 689.70 C 878.27 689.27 877.56 688.42 877.21 687.99 C 883.73 689.65 890.18 687.38 896.61 686.42 Z" />
<path fill="#b0bec5" opacity="1.00" d=" M 903.68 845.72 C 907.58 844.62 911.13 842.34 915.25 842.04 C 914.76 843.20 914.48 844.69 913.02 845.01 C 908.94 846.69 904.50 847.21 900.24 848.24 C 890.71 850.07 881.55 853.33 872.25 856.03 C 859.35 860.30 845.99 862.94 832.97 866.81 C 801.59 876.29 769.37 882.55 737.40 889.63 C 688.08 901.50 638.48 912.15 589.14 923.92 C 589.19 923.08 589.23 922.25 589.28 921.43 C 602.70 919.03 615.87 915.46 629.16 912.45 C 652.79 907.08 676.26 900.93 700.04 896.22 C 711.59 893.77 723.24 891.76 734.62 888.59 C 746.75 885.67 758.73 882.10 771.04 879.96 C 781.98 877.69 793.10 876.13 803.84 872.96 C 824.41 867.39 844.97 861.76 865.71 856.81 C 878.53 853.68 890.98 849.28 903.68 845.72 Z" />
</g>
<g id="#546e7aff">
<path fill="#546e7a" opacity="1.00" d=" M 0.00 561.64 C 3.02 561.69 6.01 562.21 8.86 563.22 C 89.56 586.98 170.37 610.37 251.09 634.08 C 250.89 734.05 251.05 834.03 251.01 934.00 L 0.00 934.00 L 0.00 561.64 Z" />
<path fill="#546e7a" opacity="1.00" d=" M 885.92 844.90 C 896.27 842.55 906.50 839.60 916.87 837.34 C 921.85 839.13 919.30 845.47 918.10 849.08 C 913.87 852.99 907.82 853.63 902.51 855.24 C 889.14 858.66 876.28 863.75 863.06 867.66 C 853.28 870.40 843.45 872.93 833.75 875.92 C 803.23 885.46 771.75 891.37 740.57 898.30 C 691.61 910.09 642.40 920.79 593.36 932.27 C 591.91 932.20 590.47 932.13 589.03 932.06 C 588.96 929.34 588.96 926.62 589.14 923.92 C 638.48 912.15 688.08 901.50 737.40 889.63 C 769.37 882.55 801.59 876.29 832.97 866.81 C 845.99 862.94 859.35 860.30 872.25 856.03 C 881.55 853.33 890.71 850.07 900.24 848.24 C 904.50 847.21 908.94 846.69 913.02 845.01 C 914.48 844.69 914.76 843.20 915.25 842.04 C 911.13 842.34 907.58 844.62 903.68 845.72 C 890.98 849.28 878.53 853.68 865.71 856.81 C 844.97 861.76 824.41 867.39 803.84 872.96 C 793.10 876.13 781.98 877.69 771.04 879.96 C 758.73 882.10 746.75 885.67 734.62 888.59 C 723.24 891.76 711.59 893.77 700.04 896.22 C 676.26 900.93 652.79 907.08 629.16 912.45 C 615.87 915.46 602.70 919.03 589.28 921.43 C 589.30 920.05 589.28 918.69 589.23 917.33 C 615.40 910.87 641.60 904.49 667.88 898.47 C 689.06 894.20 709.91 888.48 731.02 883.89 C 744.76 881.23 758.21 877.35 771.76 873.90 C 789.90 868.87 808.43 865.43 826.67 860.81 C 838.41 857.66 849.90 853.63 861.70 850.70 C 869.71 848.52 877.82 846.74 885.92 844.90 Z" />
<path fill="#546e7a" opacity="1.00" d=" M 588.67 934.00 C 589.84 933.85 591.01 933.66 592.20 933.47 C 615.01 933.32 637.86 932.69 660.67 933.24 L 662.13 934.00 L 588.67 934.00 Z" />
</g>
<g id="#78909cff">
<path fill="#78909c" opacity="1.00" d=" M 587.70 578.57 C 588.01 578.64 588.64 578.79 588.95 578.86 C 589.08 599.49 588.97 620.11 589.00 640.74 C 589.00 647.39 588.95 654.04 589.11 660.69 C 588.86 687.62 589.07 714.56 589.00 741.49 C 589.00 787.68 589.00 833.87 589.00 880.07 C 589.13 892.49 588.72 904.92 589.23 917.33 C 589.28 918.69 589.30 920.05 589.28 921.43 C 589.23 922.25 589.19 923.08 589.14 923.92 C 588.96 926.62 588.96 929.34 589.03 932.06 C 590.47 932.13 591.91 932.20 593.36 932.27 L 592.20 933.47 C 591.01 933.66 589.84 933.85 588.67 934.00 L 251.01 934.00 C 251.05 834.03 250.89 734.05 251.09 634.08 C 254.77 634.10 258.40 633.36 262.02 632.73 C 368.33 615.19 474.63 597.58 580.97 580.25 C 583.26 579.90 585.51 579.32 587.70 578.57 Z" />
</g>
</svg>
