<svg role="img" aria-hidden="true" focusable="false" xmlns="http://www.w3.org/2000/svg" xmlns:xlink="http://www.w3.org/1999/xlink" viewBox="0 0 248.71 176"><defs><path d="M185.65,18.39,157,13.8a5.08,5.08,0,0,1-2.29.58,4,4,0,0,1-2.29-1.15s-9.75-2.87-15.48,1.15l-.28,76.54h49Z" fill="none"></path><path d="M164.29,3,135.36,21.69S124.28,27.75,120.31,23l31.52,67c5.73.58,10.32,0,16.62-.57L195.67,70.7Z" fill="none"></path><path d="M218,17.67l-28.7-4.59a5.08,5.08,0,0,1-2.29.58,4,4,0,0,1-2.29-1.15S175,9.64,169.25,13.66L169,90.2h49Z" fill="none"></path><path d="M235.3,19.6l-31.13-6.35-2.3-1.16s-9.8-2.89-15.57,1.16L186,90.6h49.3Z" fill="none"></path><path d="M134.07,126.33h5l.69-29.43H109.42C109.42,111.52,121.46,126.33,134.07,126.33Z" fill="none"></path><path d="M220,126.33h5.05l.68-29.43H195.39C195.39,111.52,207.42,126.33,220,126.33Z" fill="none"></path></defs><g><path id="8ecb592f-55f2-4265-8fd7-ede61cd1baf8" d="M167.88,18.24l-28.66-4.59a5.2,5.2,0,0,1-2.29.57,4,4,0,0,1-2.29-1.14s-9.74-2.87-15.47,1.14l-.29,76.7h49Z" fill="#084a67"></path><path id="e7e10dd7-695b-43b9-ac73-c45d88a877e1" d="M185.65,18.39,157,13.8a5.08,5.08,0,0,1-2.29.58,4,4,0,0,1-2.29-1.15s-9.75-2.87-15.48,1.15l-.28,76.54h49Z" fill="#5d237a"></path><g><polygon points="152.43 8.64 152.43 91.14 154.83 91.14 154.83 10.94 152.43 8.64" fill="#4b7d08"></polygon><polygon points="154.72 9.22 154.72 91.71 156.44 91.71 156.32 11.51 154.72 9.22" fill="#a2ca6c"></polygon></g><path d="M148.32,3.83l1.22,3.1,12.61-1.72,21.2,45.84s-33.24,35-33.81,32.67S120.31,23,120.31,23Z" fill="#6c2548"></path><path id="362551a7-5d5b-4309-a2f8-a6d65110e9a7" d="M164.29,3,135.36,21.69S124.28,27.75,120.31,23l31.52,67c5.73.58,10.32,0,16.62-.57L195.67,70.7Z" fill="#a4286a"></path><g><polygon points="130.13 10.92 168.47 89.45 169.62 87.16 133.3 11.94 130.13 10.92" fill="#bebebe"></polygon></g><path id="e9717d23-6aa3-4660-bd83-91c755e71a92" d="M218,17.67l-28.7-4.59a5.08,5.08,0,0,1-2.29.58,4,4,0,0,1-2.29-1.15S175,9.64,169.25,13.66L169,90.2h49Z" fill="#d93f69"></path><g><polygon points="187.03 8.5 187.03 90.99 189.44 90.99 189.33 10.79 187.03 8.5" fill="#a2ca6c"></polygon></g><path id="73aa1ee2-9885-4597-af70-606a1cf747cb" d="M235.3,19.6l-31.13-6.35-2.3-1.16s-9.8-2.89-15.57,1.16L186,90.6h49.3Z" fill="#77b227"></path><g><polygon points="202.08 7.5 202.08 90.6 204.31 90.82 204.31 9.78 202.08 7.5" fill="#bebebe"></polygon></g><path d="M122.82,24c6-1.69,9.38-3.3,12.54-2.34L161,5.21,149.44,6.42Z" fill="#f2f2f2"></path><rect x="96.26" y="90.02" width="151.87" height="6.88" fill="#bebebe"></rect><rect x="206.3" y="90.02" width="42.41" height="6.88" fill="#646464"></rect><path id="de969ae6-bdc0-49b5-9d80-6f2c0b92bb5a" d="M134.07,126.33h5l.69-29.43H109.42C109.42,111.52,121.46,126.33,134.07,126.33Z" fill="#bebebe"></path><g><rect x="104.86" y="92.32" width="26.36" height="10.89" fill="#bebebe"></rect></g><path d="M139.22,126.13l.29-29.51H114.58C114.58,111.23,126.62,126.13,139.22,126.13Z" fill="#646464"></path><path id="3b88b22c-6f10-4aad-bbb0-05d841af1fdf" d="M220,126.33h5.05l.68-29.43H195.39C195.39,111.52,207.42,126.33,220,126.33Z" fill="#bebebe"></path><g><rect x="190.82" y="92.32" width="26.36" height="10.89" fill="#bebebe"></rect></g><path d="M225.19,126.13l.28-29.51H200.55C200.55,111.23,212.58,126.13,225.19,126.13Z" fill="#646464"></path><path d="M213.51,58.32v3.16a5.35,5.35,0,0,0,4-2,18.73,18.73,0,0,0,3.06-6.59l7.09-22.44h-3.43l-5.71,18.74-2.84-10.51h-3.14l4.17,12.65a6.1,6.1,0,0,1,0,3.78A4.29,4.29,0,0,1,213.51,58.32Z" fill="#fff"></path><path d="M132.24,60.86a2.1,2.1,0,0,1-.15-.3A.85.85,0,0,0,132.24,60.86Z" fill="#fbb03b"></path><path d="M166.64,55.79c-.93-2.75,1-7.71-1.17-7.35-1.76.28-2.22,2.79-3,6.1,0-.29.73-4.56.74-4.85.21-6.11,1.77-9.36,0-9-1.07.19-3.89,1-5.19,9.92-.33,2.21-2.08,4.86-3,7.83-2.71-.78.81-5,.88-10s2.54-10.14,0-11.6c-2.05-.53-4.31,3.8-5.5,10.38-.77,4.29-1.3,7-3.73,10-.88,1.09-5.21,3.51-6.75,2.52A17.65,17.65,0,0,1,136.81,57c-1.41-1.83-2.15-4.14-3.8-6.18,2.46,7,0,13.63,4.15,20.7,3.59,6.14,1.37,14.31-1.37,17.6-2.27,2.71,11,7.1,12.6,5C152.6,88.31,158.71,79.9,164,72,167.7,66.59,168.78,57.09,166.64,55.79Z" fill="#edb469"></path><path d="M136.93,86.78c-1.91,3.63-18.34,31.71-18.34,31.71s-1.86,3-2.82,3.26c-1.51.46-4.44-1-4.44-1l-36.67-18s1.91-6.11.76-6.49S11.7,78.79,6.84,89.45C-13.79,134.73,22.32,142.64,24,170.83A49.53,49.53,0,0,1,24,176l65.5-.22c.83-4.25,8.8-11.16,7.81-18.13C96.12,149.3,87,140.46,87,140.46s38.78,16.23,44.9,5.15S151,91.36,151,91.36C151.07,83.34,138.84,83.15,136.93,86.78Z" fill="#00a5c9"></path><path d="M66.73,8.07c10,3.85,15.11,14.91,16,18.91.74,3.14-1.29,5.16-.17,7.9,2.78,6.8,11.35,10.63,11,14.81l-4.24,2.52a69.59,69.59,0,0,1-1.7,21.67c-3.74,2.89-20.33.78-20.33.78S62.62,86.24,61,91.46c-12.69-.87-12.11-1.29-24.93-2,6.62-13.61-8.2-19.6.22-33.9S50.16,1.7,66.73,8.07Z" fill="#edb469"></path><path d="M78.48,9.22c.69,7.77-9.17,7.16-10.13,18.09-.54,6.12.66,10.56-.36,15.92-2.41,12.7,2.46,24.44,2.46,24.44-3.08-.52-9.68-13.32-10-24-.21-6.18-8.88-5.62-8.58,2s6.26,13,9.45,19.2c2.9,5.63,10.13,19.67,11.08,30.56L61,92.6c-18.67,19.28,4.5,50.67-37.82,46.06C12.43,137.49-7.64,131.16,3,99.36c6.81-20.28,23.61-41.49,18.7-56C14.29,21.25,34.92,1.19,46.38,5.21,53.26-1.38,77.35-3.37,78.48,9.22Z" fill="#a36904"></path><path d="M59,43.22s.64-4-5-5c-6.87-1.14-6.49,5-5.73,7.64s1.74,4.37,4.78,7.65c5,5.35,8.21,3.05,8.21,3.05Z" fill="#edb469"></path><path d="M79.85,40.7c.6-.38.88-6.23-.6-5.79a8.57,8.57,0,0,0-4.88,4.48S78.31,41.68,79.85,40.7Z" fill="#fff"></path><path d="M80.59,35.28a7,7,0,0,0-1.8.45,10.52,10.52,0,0,0-1.75.86,9,9,0,0,0-1.57,1.18,4.1,4.1,0,0,0-1.1,1.62,4.11,4.11,0,0,1,.89-1.81,9.53,9.53,0,0,1,1.45-1.46A11.44,11.44,0,0,1,78.42,35a7.68,7.68,0,0,1,2-.8.57.57,0,0,1,.69.42h0a.58.58,0,0,1-.44.69Z"></path><path d="M90.05,59.06c-.48.09-.38,1.27-1.45,1.37-2.32.23-7.52-1.64-9.38-2.72C79.46,57.78,87.17,59.6,90.05,59.06Z" fill="#534741"></path><path d="M78.79,25.51c-5.62,1.33-8,7.94-7.25,8.08,1.88-2.82,4.07-5.89,8.07-5.81C81.26,27.82,80.27,25.16,78.79,25.51Z" fill="#a36904"></path><path d="M78.7,36.31a3.35,3.35,0,0,0-.26,2.31c.17.61.7,1.75,1.5,1.86C80.93,40.63,80.74,33.35,78.7,36.31Z"></path></g></svg>