<svg role="img" aria-hidden="true" focusable="false" xmlns="http://www.w3.org/2000/svg" xmlns:xlink="http://www.w3.org/1999/xlink" viewBox="0 0 233.5 175.21"><defs><path d="M86.56,50.83c0-.06,2-4-2-5-3-.74-6.6,3-6.6,3Z" fill="none"></path><path d="M96.62,52.12s3.92-3.57,6.29-2.87c2.71.8.91,4.29.91,4.29Z" fill="none"></path><path d="M157.73,67c-.54-1.84-.7-5.12,1.62-5.35s5.36,3,5.24,7.1C159.35,68.86,157.73,67,157.73,67Z" fill="none"></path><path d="M142.94,61.88c-.54-1.84.24-5.12,2.56-5.35s3.73,2.56,3.61,6.63C143.87,63.28,142.94,61.88,142.94,61.88Z" fill="none"></path><polygon points="188.27 122.71 174.7 167.25 139.92 170.97 139.45 175.05 218.6 175.05 219.06 169.04 221.86 166.71 233.5 124.34 231.17 122.71 188.27 122.71" fill="none"></polygon></defs><g><path d="M101.09,90.68c2.45,5.46,9.91,31.89,11,36.32s13.56,30.21,13.56,30.21l-9.43,7.64s-20.66-10.36-24.43-16.27S81.44,121.5,81.44,121.5l6.47-30.29S98.65,85.23,101.09,90.68Z" fill="#c1272d"></path><path d="M18.13,175.05l8.59-90.27S45.86,71,63.38,72.74,97.67,85.3,99.82,90.23s-4.85,18-4.85,18c.77,43.37.78,48.13,1.17,66.84Z" fill="#c1272d"></path><path d="M26.72,84.78C-3.5,108.37-6.13,160,9.08,166c11.35,4.49,49.1-30.71,48.56-31.44s-7.55-13.3-7.55-13.3L22.33,132.09s6.06-13.4,6.6-14.14,4.7-17,4.43-17.69S26.72,84.78,26.72,84.78Z" fill="#c1272d"></path><path d="M57.16,122.7c2.33,3.3,3.52,13.15,1.08,14.61s-8.15-4.09-9.4-8.54c-1.1-3.89-2.25-8.47.19-9.93S54.82,119.41,57.16,122.7Z" fill="#911d22"></path><path d="M48.45,119.44s20.58-15.94,22.06-15c1.09-3.53,5.79-2.75,5.79-2.75s5.23-1.8,8.48-1.48,15,7.1,15,7.1a2.3,2.3,0,0,1-2,2.32c-2.14.36-12.83-3-12.83-3l-6.7.85s5.52,7.35,5.6,8.83-1.67,3.79-1.67,3.79l-2.42.12A2.6,2.6,0,0,1,78,122.78a12.56,12.56,0,0,1-4,.46s-.93,3.28-2.5,4.1-5.38.51-6.75.09-2.64-4-2.64-4l-10.11,3C48.26,125.74,46.69,121.58,48.45,119.44Z" fill="#eaad63"></path><path d="M56.37,73.24l8.36-24.63-.27-19.95,6.47-14.77,17.79-6.4L106,19.55l5.39,7.39s0,18.22-1.08,22.66-9.17,9.6-9.17,9.6c-2.44,4.34-4.88,27.85-17.78,23.64-3.78-1.23-10.25-7.39-10.25-7.39L72,79.15s7,4.18,7,7.88S77.4,98.85,68,98.6s-16.25-3.21-18.9-7.88C42.12,78.47,54.56,75.14,56.37,73.24Z" fill="#eaad63"></path><path d="M89.52,2.81C81.9-4.16,74.76,4,74.7,4S57.18,9.75,57.18,22.51a58.5,58.5,0,0,1-.27,8.37c-.27,1.23-.27,5.42,2.16,7.14s2.69-2,3.23,4.44.81,7.14,0,8.12,4.85-.24,4.85-.24S68.23,40,68.23,38.52s1.08-7.15,1.08-7.15l4.85-2.71,8.36-12.55s10.51-.74,11.32-1,12.66,7.63,12.66,7.63l4.32,7.88s-.27,4.19-.27,3.45,5.12-6.15,2.69-13.54-8.64-15.77-15.65-17S89.52,2.81,89.52,2.81Z" fill="#191919"></path><path d="M77.61,28.75c-1.36.05-2.71-.15-4.06-.2-4.65-.16-9.73,2.09-11.11,6.15a19.14,19.14,0,0,1,6.2-14.14c1.77-1.65,3.87-3,5.3-4.92a41.46,41.46,0,0,1,2.71-3.88C80,8.2,93.81,6.05,91.73,13.47,90,19.79,86,28.44,77.61,28.75Z" fill="#191919"></path><path d="M94.51,25.68c3.23,2.36,7.43,3.28,11,5.18s6.73,5.61,5.49,9.21c2.88-3.69,5.9-8,5-12.42-.59-2.81-2.7-5.16-5-7.13a42.37,42.37,0,0,0-11.78-7.18c-4.33-1.75-9.33-5.06-9.77,1.55A12.53,12.53,0,0,0,94.51,25.68Z" fill="#191919"></path><path id="95676e91-c439-43e1-be9a-7d81edae4afa" d="M86.56,50.83c0-.06,2-4-2-5-3-.74-6.6,3-6.6,3Z" fill="#fff"></path><g><ellipse cx="84.83" cy="49" rx="2.43" ry="2.09"></ellipse></g><path id="4a3cd831-0c09-46df-9402-fb0bc1498a6c" d="M96.62,52.12s3.92-3.57,6.29-2.87c2.71.8.91,4.29.91,4.29Z" fill="#fff"></path><g><ellipse cx="102.35" cy="52.19" rx="1.79" ry="2.12" transform="translate(45.11 151.82) rotate(-87.14)"></ellipse></g><path d="M89,67.55l-8.59-2s-.79,4.92,2.72,5.17S84.65,67.78,89,67.55Z" fill="#fff"></path><path d="M78.13,48.76a17.18,17.18,0,0,1,2.18-2,6.13,6.13,0,0,1,2.84-1.16,3.81,3.81,0,0,1,3.12.76,3.16,3.16,0,0,1,.89,3h-.1a4.79,4.79,0,0,0-1.47-2.2,3.91,3.91,0,0,0-2.38-.74,5.65,5.65,0,0,0-2.62.77,16.07,16.07,0,0,0-2.39,1.64Z"></path><path d="M96.59,52.07a14.46,14.46,0,0,1,4.35-3.25,4.76,4.76,0,0,1,1.44-.41A2,2,0,0,1,104,49a2.33,2.33,0,0,1,.65,1.45,3.58,3.58,0,0,1-.13,1.42h-.1a4.57,4.57,0,0,0-1.11-2.09,2.41,2.41,0,0,0-2-.13A11.39,11.39,0,0,0,99,50.74a23.84,23.84,0,0,0-2.23,1.47Z"></path><path d="M95.1,50.49c-.94,5.86-.06,15.07-2.28,15.57S88.94,64.15,87.58,62l2.59,1.35c.49.26,1.16.5,1.55.13a1.09,1.09,0,0,0,.28-.73c.67-5.35,1.58-11.08,3.62-16.14A15.43,15.43,0,0,1,95.1,50.49Z" fill="#a57146"></path><path d="M64.45,56.19c-1,12.32-1,15,7.22,24.69.58-2.81,1.41-5.43,1.41-5.43C67.23,68.12,65.83,69.46,64.45,56.19Z" fill="#a57146"></path><path d="M77.12,40.44c-.45,1-.63,2,.78,1.14s1.42-3.47,7.06-2.06c1.16.29,3.92-1.62.29-2.27C80.18,36.35,78.39,37.61,77.12,40.44Z" fill="#191919"></path><path d="M103.39,39.72A5.52,5.52,0,0,1,106.61,43c2.4,6.82-2.34,0-2.38,0a3.56,3.56,0,0,0-2.71-1.29C97,41.89,98.9,38,103.39,39.72Z" fill="#191919"></path><path d="M63.1,39.27s-4-6.65-5.64-7.38-3.77-.5-5.66,2.46-4.31,6.89.27,10.34,4,6.65,8.36,6.9,2.42-.74,3-1.73S63.1,39.27,63.1,39.27Z" fill="#eaad63"></path><path d="M61.37,123.29c2.17-1.74,3.62-1.25,4.42-5.5-.65.92-.07,2.11.54,3,.86,1.3,1.77,2.56,2.75,3.78a6.78,6.78,0,0,0-3.88-2.25c-.32,0-.09.3-.32.51a1,1,0,0,0-.19,1,18.38,18.38,0,0,0,.49,2.2,4.72,4.72,0,0,1-1.31-2c-.16-.79-.68-1.5.17-1.69-1.44.65-1.93,1-3.37,1.7-.26.11-.75-.07-.51-.22" fill="#a57146"></path><path d="M74.27,123.39a36.87,36.87,0,0,1-4.71-9.33c1.94,2.34,4.37,6.73,4.89,9.63" fill="#a57146"></path><path d="M73.73,108.85c.58.63,6.39,8.89,6.44,11.67-1.72-2.19-5.62-9.31-7.06-12.17C73.12,108.34,73.71,108.83,73.73,108.85Z" fill="#a57146"></path><path d="M212.94,72.82a17.66,17.66,0,0,0-2.19-3.66,52.18,52.18,0,0,0-4.14-3.59h.09c2.09.68,8.29,1.6,7.54,5.08a.18.18,0,0,0,.15.21.19.19,0,0,0,.17-.07c2.53-3.84-2.27-7.15-4.91-9.39a28.43,28.43,0,0,1-4.07-4.49c3.2.8,7.33,2.26,10,4.73a.35.35,0,0,0,.5.07.37.37,0,0,0,.07-.51c-1.75-3.54-6-6.07-9.17-8.12,2.81-5.41-3.31-9.69-7.8-11.1a20.76,20.76,0,0,1-3.07-1,21.32,21.32,0,0,1-3.48-2.65,19.41,19.41,0,0,0-2.4-1.62h.59c2.37,0,3.93,1.67,5.22,3.46a.27.27,0,0,0,.39,0,.28.28,0,0,0,.09-.33c-1.23-2.7-3-4.94-6.05-5.45-2.81-.46-6.05.46-8.66-.93-1.41-.74-2.37-2.21-3.54-3.26a11.25,11.25,0,0,0-5.3-2.71,35.16,35.16,0,0,0-6.15-.45h0a8.16,8.16,0,0,0-5-.8c-.66-.17-1.33-.36-2-.56a2.71,2.71,0,0,0-2.7.84,8,8,0,0,0-4.38.37,10,10,0,0,0-2.75-.7c-2.29-.2-4.2,1.06-5.94,2.38A.27.27,0,0,0,144,29a.28.28,0,0,0,.33.09c2.19-1.21,4.33-2.07,6.66-1a6.38,6.38,0,0,0-.66.8,12.83,12.83,0,0,0-8.87,2.8,6.84,6.84,0,0,0-1.58,2.12,7,7,0,0,0-2.61,4.78,7.87,7.87,0,0,0,1.16,4.2,5.59,5.59,0,0,0-3.17,5.71h0a10.55,10.55,0,0,0-.87,7.24,6.76,6.76,0,0,0-1.53,5.77c.58,2.06,2.43,3.12,3.9,4.5a3.78,3.78,0,0,0,.36,4.59c1.73,2.11,4.62,2.69,6.31,4.9,22.6,29.56,3.51,32.25,16.77,31.56a6.54,6.54,0,0,0,2-.46l.76-.32c.24-.06.36-.1.34-.12.9,0,1.25.43,2.37,1,2,1,3.31,1.91,5.59,1.28l.2-.06a5.05,5.05,0,0,0,1,3.33,5.69,5.69,0,0,0,2.29,1.83c1.12.53,2.84.68,3.71,1.57.22.22.63-.08.44-.33-.86-1.16-2.84-2.63-2.26-4,.29-.67,1.22-1.32,1.62-2a4.87,4.87,0,0,0,.74-2.78c.88,1.17.79,2.44,1.34,4.18.74,2.41,3.4,3.75,5.69,4.5.29.1,1,1.08.76.88-2.71-2.36-1.76-5.68-1.42-8.52a6,6,0,0,0,0-.85,17.93,17.93,0,0,0,1.17,2.61,8.85,8.85,0,0,0,4,3.28c.43.13.89.21,1.32.36.83.3.45.13.43,1a.36.36,0,0,0,.36.34.37.37,0,0,0,.23-.1,3.3,3.3,0,0,0,1.33-2.41c-.1-1.1-1.17-1.52-1.7-2.33-.12-.17-.16-.43-.26-.59a1.91,1.91,0,0,1-.06-.33,4.88,4.88,0,0,0,.59-.52c.71-.7-.21-3.47.07-4.44a41.57,41.57,0,0,0,2.11,4.09c1.12,2.56,3.07,3.28,5.67,2.37a.28.28,0,0,0,.2-.34.29.29,0,0,0-.28-.21c-3-.17-2.49-2.4-1.8-4.44a6.06,6.06,0,0,0,2.49,1.81,1.87,1.87,0,0,0,1.8-.47c-.31.25.74,0,.82,0a14.06,14.06,0,0,0,1.89-.55.28.28,0,0,0,.2-.34.29.29,0,0,0-.28-.21,3.66,3.66,0,0,1-2.13-.39,1.57,1.57,0,0,0-.09-.43l.06-.19c.07-.2.13-.4.19-.61.33-1.2-.59-4.31-.4-5.53a7.28,7.28,0,0,1,.1-.8,4.41,4.41,0,0,1,1.26,3.55.07.07,0,0,0,.05.1.07.07,0,0,0,.1,0c1.32-1.76,0-5.93-1.32-7.75a12.74,12.74,0,0,0-1.28-1.46c-3.18-12.2-3.55-1.68,3.28,1.57.3.14.71-.17.49-.49-.9-1.34-2.19-3.34-2.28-4.67.23.17.45.34.66.53.37,1,1.92,2.84,2.29,3.84.46,1.27,1.92,3.42,1.56,4.6-.09.3.32.43.48.2,1.14-1.59,1.44-1.62,1.32-3.39a8.32,8.32,0,0,1,.2-2.28.91.91,0,0,1,.07-.37,6.26,6.26,0,0,1,1.49,2.3.45.45,0,0,0,.54.31.45.45,0,0,0,.19-.11,5.52,5.52,0,0,0,.53-5.63C212.27,86,209.52,83,209.86,81a4.06,4.06,0,0,0,.06-.85c1.23.85,3,2.93,2.69,4.9a.75.75,0,0,0,.5.88,3.85,3.85,0,0,1,3.08,2.51.2.2,0,0,0,.27.09.19.19,0,0,0,.11-.19,4.51,4.51,0,0,0-2.45-3.3c1.19-2.7-.27-6.11-2.47-8,.62-.14,1.23-.31,1.84-.46,1,1.27,2.67,3.61,2.93,5,.07.38.63.27.64-.09.07-1.53-1.44-3.89-2.18-5.25a3,3,0,0,1,2.6,1.58.2.2,0,0,0,.22.17.21.21,0,0,0,.16-.22C218.23,74.85,215.05,73.41,212.94,72.82Zm-6.85-20.29h0a19,19,0,0,1-4.05-4.1C204.05,49.22,206.11,50.56,206.09,52.53Zm-2.77,51.91h0c0-.1,0-.2.07-.3a.78.78,0,0,1-.07.3Z" fill="#ddb16f"></path><path d="M201.15,77.53a5.27,5.27,0,0,0-1.9-1.36,14.29,14.29,0,0,0-.62-1.65,6.3,6.3,0,0,0-1.19-3,4.37,4.37,0,0,0-3.3-1.16h0a13.48,13.48,0,0,0-1.65-2.45,8.81,8.81,0,0,0-3.68-3.4A5.35,5.35,0,0,0,185,61s-27.1,30.05-13.53,45.67c.52.61-2.08-4.09-.39-8a.11.11,0,0,0,0-.08,7.13,7.13,0,0,0,2.77,3.41c.17.12.32-.1.25-.25s5.11.8,3.47,3.29c0,.09.06.21.15.15,4.42-3-.77-5.18-2.41-7.24a28.11,28.11,0,0,1,5.41,2h0c3.1.51,1.06,1.28,4.3,3.4a.2.2,0,0,0,.23,0c5.47-6,.23-6,3-5.89.84,1.13,2.19,3.61,3.37,4.42,0,0,.08,0,.09,0a0,0,0,0,0,0,0c-.77-1.35-2-3.85-1.79-5.48s2.42-.15,2.7-.72a2.67,2.67,0,0,0,0-2.37c.64.13,1.31.2,2,.32,1.86.36,2.85,3.34,2.83,3.16-.12-1.16.14-2.47-.06-3.64A4,4,0,0,1,199,95.55c0,.07.9,1.86,1.64-2.76.21-1.29-1.13-2.45-2.14-3-2.14-1.22-1.41,1.59-4.24.71-2.43-.64,1.16-1.23,1.84-2.58a2.12,2.12,0,0,0,.17-1.24h0c.59.49,1.95,1.22,1.8,2.2,0,.06.08.09.09,0,.31-1.27-.5-2.8-1.49-4.08,2.31.19,2.59,2,2.72.8s.76-2.46-.75-4.63a1.75,1.75,0,0,0,.32-.12c1,.41,1.93-.07,1.69,1.43a.26.26,0,0,0,.48.2A3.93,3.93,0,0,0,201.15,77.53Z" fill="#3e2723"></path><path d="M169.16,47.55a38.56,38.56,0,0,1,4.73,4.3H174c2,1.14,3.68,2.63,5.87,3.43.47.18.78-.57.34-.81a12.69,12.69,0,0,1-4.68-4.14c-.14-.23-.27-.47-.4-.72a35,35,0,0,0-3.8-2.2c-.62-.32-.07-1.25.55-.93.83.42,1.65.87,2.45,1.36a11.06,11.06,0,0,0-1.3-2.42c-1.39-1.85-4.69-.88-4,1.67C169.05,47.25,169.11,47.4,169.16,47.55Z" fill="#3e2723"></path><path d="M161,38.35a44.34,44.34,0,0,0-5.16-3.42c-2.13-1.41-3.93,1.57-2.54,3.29a13,13,0,0,0,5.39,3.61c.91.36,1.86.48,2.73.89a9,9,0,0,0,2.55,1,.48.48,0,0,0,.56-.36.47.47,0,0,0-.11-.41C163.23,41.47,162.46,39.59,161,38.35Z" fill="#3e2723"></path><path d="M148.82,47.22a8.64,8.64,0,0,1-1.21-3.76.1.1,0,0,0-.2,0c-.2,1.33-1.1,2.57-1,4v.19c0,.07-5.21-12.39-2.24.05a11.89,11.89,0,0,1-1.47-3.77.15.15,0,0,0-.18-.11.15.15,0,0,0-.11.11s1.39,13.85-2.44,3.81a.36.36,0,0,0-.45-.24.34.34,0,0,0-.24.24c-.64,2.26,1,4.21,2.93,5.49a3.52,3.52,0,0,0-2,.25A6.63,6.63,0,0,0,137.87,51c-1.1-.64.64,1.84.52,4.56,0,1,5.05,3.52,6.42,2.85,1.68-.82,3.8.49,5.68.2C153.92,58,150.56,50,148.82,47.22Z" fill="#3e2723"></path><path d="M140.73,69.34a.09.09,0,0,1,0-.07A.09.09,0,0,0,140.73,69.34Z" fill="#ddb16f"></path><path d="M144.6,48.57V48.5h0Z" fill="#ddb16f"></path><path d="M155.66,39.83C155.36,39.83,155.23,39.71,155.66,39.83Z" fill="#ddb16f"></path><path d="M191.65,108.36Z" fill="#ddb16f"></path><path d="M203.3,103.93a.21.21,0,0,1,0,.11Z" fill="#ddb16f"></path><path d="M192.45,134.59s-3.73-20.84-32.59-31.66c-18.62-7-45.16,7.45-45.16,7.45s-4.19,34.45-4.19,35.85-4.19,28.82-4.19,28.82h88.92Z"></path><path d="M131.07,140.56l6.05,12.11s-29.06,24.71-36,22.38-25,3.95-24-11.05c.41-6.11,25.12-47.18,36.3-53.23s7.45,6,7.45,6L113.38,148Z"></path><path d="M128.91,142.73l4.63-2.33s3-5,4.11-6.6,4.44-4.29,5.33-5.21,2.76-5.83,4-5.93,2.23,0,2.23,2.89-2.21,3.8-2.68,5.36-1,3.69,2.14,4.52,3.55.2,5.86.46a44.37,44.37,0,0,1,7.06,2s10.25,4.54,11.14,6.6-1.34,2.06-1.34,2.06l-5.34-1.75a3.65,3.65,0,0,1-4.35,2.37c.07,1.75-2.79,3.3-4.68,2.79,1,1.85-5.68,2.68-5.68,2.68a74.82,74.82,0,0,1-8.93-1.45c-2.56-.72-5.24-1.34-5.24-1.34l-5.83.16C129,148.44,128.45,145.83,128.91,142.73Z" fill="#895c3b"></path><path d="M183.68,47.91l-16.29-9.77s-10.25.46-15.37,3.25-6.05,6.52-8.38,11.18-.46,6.81-1.4,8.38c-.75,1.27-5.35,4-7,13-.84,4.67,2.33,14,5.59,17.69s9.31,3.26,9.31,3.26l-3.73,6.51-4.19.94s8,19.19,14.9,20.48c7.45,1.4,11.18-14.43,11.18-14.43l-2.3-4.62,9.31-19.09,7.45-13.5,7-11.17Z" fill="#895c3b"></path><path d="M189.37,51.17c.22-2.85-2.84-3.74-3.44-6.29-.26-1.11-2.07-.6-1.7.47a6.27,6.27,0,0,0,2.28,3.08c1.05.82,2.32,1.34,2.66,2.77,0,.11.19.08.2,0Z" fill="#3e2723"></path><path d="M198.85,70.1A7.14,7.14,0,0,0,197,67.63a9.55,9.55,0,0,1-2.4-2.26c-.39-.78-.13-1.75-.32-2.59s-.94-1.64-1-2.3c-.2-2.26-5.52-3.26-5.52-3.26s3,2.32,3.1,3.26-.52,3.57.39,3.62.19-.37.46.12a5.79,5.79,0,0,1,.23,1A4,4,0,0,0,193.12,67c1.63,1.46,3.8,1.48,5.23,3.35a.31.31,0,1,0,.54-.32Z" fill="#3e2723"></path><path d="M202.28,67.68c-.49-.9-.88-1.83-1.41-2.71a11,11,0,0,0-1.54-2.44A1.72,1.72,0,0,0,196.88,65a1.86,1.86,0,0,0,.78.45,4.43,4.43,0,0,1,1.86,1.11,24.6,24.6,0,0,0,2,1.78.51.51,0,0,0,.8-.61Z" fill="#3e2723"></path><path d="M177.63,105.22" fill="#3e2723"></path><path d="M196.56,88.42a4.62,4.62,0,0,0-1.62-3.35.78.78,0,0,0-1.08,1.12.8.8,0,0,0,.32.19A3.77,3.77,0,0,1,196,88.57c.13.29.56.13.57-.15Z" fill="#3e2723"></path><path d="M191.52,64.83a7.26,7.26,0,0,0-1.61-2.5c-.9-.88-3-3.95-3-3.91-1.32,1.52-2,4.15-1.55,1.32a.12.12,0,0,0-.08-.15.13.13,0,0,0-.12,0c-1.71,1.34-1.07,3.64,0,5.18.83,1.14,2.41,1.61,3.14,2.74l.06.13a3.92,3.92,0,0,0-.45-.46,4.79,4.79,0,0,0-1.11-.66c-.24-.24-.49-.47-.77-.7a6.51,6.51,0,0,1-2.55-3.95c-.29-1.52-.27-2.93-1.14-4.27a25.56,25.56,0,0,0-.56,5.79l-.18.23a7.5,7.5,0,0,1-1.1-3,7.89,7.89,0,0,0-.64,3.46.16.16,0,0,0-.08.06c-.88,1.78-.82,3.77.54,4.85.43.34.73,4.18,1.23,4.36s2.42-3,2.74-2.68c.94,1.08,1.45,2.45,2.46,3.48a1.1,1.1,0,0,0,1.56,0h0a1.29,1.29,0,0,0,2.11-1.37,1.48,1.48,0,0,0,1.18-1.24v-.44C192.86,69.3,192.28,66.67,191.52,64.83Z" fill="#3e2723"></path><path d="M201.32,43.78c-1.38-1.66-4.13.49-3,2.3a15.28,15.28,0,0,0,13.28,7,.08.08,0,0,0,0-.11l0,0a33.61,33.61,0,0,0-4.93-3.89A33.75,33.75,0,0,1,201.32,43.78Z" fill="#ddb16f"></path><path d="M212.86,72.35A26.53,26.53,0,0,0,211.6,70a8.1,8.1,0,0,1-.67-3.4c0-1.68.71-.22.51-1.88,0,0,.11-.48.12-.46.41,1.12-.3-.86.85-.29a.29.29,0,0,0,.38-.11.26.26,0,0,0,0-.27c-.45-1,.1-1.86.18-2.79a4.46,4.46,0,0,0-.45-2.21c-.62-1.45-3-3.23-4-4.49-3.93-5.38-6.15-2.79-9-4.66-1.9-1.26-4.05,1.58-2.42,3.13A13.42,13.42,0,0,0,201,55.1a1.88,1.88,0,0,0,.62.94,11.21,11.21,0,0,1,3.77,5.13c.5,1.63.71,3.32,1.12,5a16.24,16.24,0,0,0,2.77,5c1.59,1.82,3.53,2.13,1.75,5.06-.08.12.1.26.2.16C212.44,75.21,213.47,74.1,212.86,72.35Z" fill="#ddb16f"></path><path d="M188.31,74.25a10,10,0,0,0,1.58,3c1,1,1.88,1.62,1.88,3.21a.29.29,0,0,0,.32.27.29.29,0,0,0,.26-.19,4.49,4.49,0,0,0-.5-3.19" fill="#ddb16f"></path><path d="M197.28,72c-1.63-1-3.19-2.41-1.2-4.08,3.1-2.61-3.76-6.68-4.54-7.39a6.87,6.87,0,0,1-1.42-2,.37.37,0,0,0,.42-.32v0c.18-2.19-2.16-4.61-3.13-6.42-1.09-2-3.32-5.39-5.15-6.69-.24-2.06-1.59-1.43-3-3.09-1-1.13-1.89-2.4-2.92-3.57a2.77,2.77,0,0,0,.78-.36,25.35,25.35,0,0,1,3.49-2.21,3.08,3.08,0,0,0,.84,2.66,8.74,8.74,0,0,0,6.45,3c2,.07,3.68-.59,5.48.51a5.25,5.25,0,0,0,5.64.46c.71-.31,1.4-.63,2.09-1,1.23-.58,3,1.17,3,.81A3.75,3.75,0,0,0,202.35,39c-1.34-.84-3.06-.37-4.33-1.2a13.69,13.69,0,0,1-1.82-1.75c1.38-.54,2.5-.45,3.69,1.63.05.08.19,0,.18,0-.13-2.34-1-3.72-3.34-4.33a28.31,28.31,0,0,1-6.67-2.47c-2.62-1.42-5.22-3-8.28-3.11a9.58,9.58,0,0,0-2,.15c-1.22-2.65-5-3.8-8-3.19A18.8,18.8,0,0,0,168,22.35c-3.92-2.56-13.05-2.63-14.19,2.2a2.59,2.59,0,0,0-.83-.1,4.4,4.4,0,0,0-3.21-.15c-2.54.8-4.36,3.05-5.56,5.42-2.84.52-3.54,4.76-.4,5.61a8.86,8.86,0,0,0,2.61.32,3.54,3.54,0,0,0,1.16-.25,8.5,8.5,0,0,0-.21,1.12,7.07,7.07,0,0,0,.44,3.44,3.24,3.24,0,0,0-.57,3.53c.9,2,5.34,4.3,5.18,3.85-.34-.94-.74-1.86-1.09-2.79-.54-1.43-.76-1.25.77-1.52a2.32,2.32,0,0,0,1.9-1.84,7.82,7.82,0,0,0,2,1.15,11,11,0,0,0,.36,2.8c1.29,3.76,10.93,6.61,10.43,5.87s-3.31-2.4-2.6-3.35a28.24,28.24,0,0,0,6.67,3.08c1.6,2.65,2.52,3.94,6.4,4.6,1.74.3,1.84,1,2.48,2.57.92,2.24,1.1,2.43,3,2.85,2,14.74,8.76,11.86,8.72,11.83-2.19-1.81-2.26-4-3-6.26s-3.12-3.81-1.58-6.77c.84.61,1.65,1.26,2.53,1.8a3,3,0,0,0-.42,4.22,2.67,2.67,0,0,0,.48.47c.78.56,1.55,1.13,2.37,1.61C191.46,73.85,199.68,73.48,197.28,72ZM161.12,37.44a.61.61,0,0,0-.05-.12l.08.15ZM156,26.36a4.49,4.49,0,0,1-.41-.46l-.18-.25a3,3,0,0,1,1.22-.49Q156.29,25.75,156,26.36Zm17.75,3.38a3.44,3.44,0,0,1,4.46-1.42,13.31,13.31,0,0,0-6,4.71,3,3,0,0,0-.61,1.85,7,7,0,0,0-3.24-.16,5.82,5.82,0,0,1-1.43.21l-.19-.06c-.11-.21-.23-.41-.35-.62h0a15.65,15.65,0,0,0-.16-2.27,6.64,6.64,0,0,0-2-3.54h.07a11.73,11.73,0,0,1,1.92.65,31.24,31.24,0,0,1,3.41,1.74,3.05,3.05,0,0,0,4.1-1.09ZM156,41.91a.65.65,0,0,0,0,.34A.34.34,0,0,1,156,41.91Zm0,.45h0C156.57,42.54,156.18,42.58,156,42.36Z" fill="#ddb16f"></path><path d="M176.78,48.39A8.87,8.87,0,0,0,174.07,45c-.69-.57-1.61-1-1.65-2,0-.73.38-1.27.23-2-.59-3.19-5.19-3.57-7.2-5.54-1.66-1.62-4.75.54-3.32,2.56a8.53,8.53,0,0,0,3.61,3c1.09.49,3.51.9,4.22,1.88.27.38.16,1,.45,1.38a2.23,2.23,0,0,0,1.06.75c1.86,1,3.72,1.73,4.8,3.66.19.34.65,0,.51-.3Z" fill="#3e2723"></path><path id="7e82b5d4-3330-4946-97b0-b5f7414c767b" d="M157.73,67c-.54-1.84-.7-5.12,1.62-5.35s5.36,3,5.24,7.1C159.35,68.86,157.73,67,157.73,67Z" fill="#fff"></path><g><ellipse cx="158.3" cy="64.16" rx="2.15" ry="2.39"></ellipse></g><path id="bd81b4ce-5af6-4597-878d-8a5704a581f8" d="M142.94,61.88c-.54-1.84.24-5.12,2.56-5.35s3.73,2.56,3.61,6.63C143.87,63.28,142.94,61.88,142.94,61.88Z" fill="#fff"></path><g><ellipse cx="144.22" cy="59.1" rx="2.44" ry="1.92" transform="translate(48.23 181.91) rotate(-74.27)"></ellipse></g><path d="M158.23,62a1.8,1.8,0,0,1,1.38-.91,3.63,3.63,0,0,1,1.67.09,4.11,4.11,0,0,1,2.41,2.18,8.88,8.88,0,0,1,.85,2.94,17.9,17.9,0,0,1,.08,2.93h-.13a27,27,0,0,0-.63-2.8,8.11,8.11,0,0,0-1.12-2.49,5.19,5.19,0,0,0-2-1.46,4.78,4.78,0,0,0-1.17-.41,2.15,2.15,0,0,0-1.28,0Z"></path><path d="M149.17,62.35a11,11,0,0,0-.68-2.58,7.41,7.41,0,0,0-1.24-2.23,2.18,2.18,0,0,0-.85-.65,1.58,1.58,0,0,0-.77-.14,4.26,4.26,0,0,0-2,1.21l-.13-.05a2.87,2.87,0,0,1,1.77-2.46,2,2,0,0,1,1.84.21,3.75,3.75,0,0,1,1.09,1.22,8.71,8.71,0,0,1,1,2.7,9.52,9.52,0,0,1,.14,2.77Z"></path><path d="M149.17,77a2.53,2.53,0,0,0-1.53-1c-.52-.06-1,.38-1.56.23s-.59-.54-.88-.83a1.67,1.67,0,0,0-2-.27c-.63.38-.94.74-.72,1.44a5.3,5.3,0,0,1,.51,2.06,3.93,3.93,0,0,1-.93,1.59,2.34,2.34,0,0,0,.05,3.31l.15.13a4.79,4.79,0,0,0,4,1.17,14.05,14.05,0,0,0,4.08-1.43A13.72,13.72,0,0,1,154.42,82C152.13,81.11,150.66,79,149.17,77Z" fill="#3e2723"></path><path d="M148.28,78.51c-1.43-1.17-3.58-.08-4.39-1.66a14.65,14.65,0,0,0-.75,3.07c.2,1.69,7.66,2.77,9.89,1.85C149.49,80.4,149.4,79.42,148.28,78.51Z" fill="#fff"></path><path d="M145.49,67.4l-.76.24a3,3,0,0,0-.94,3.69c1.42-1.65.21.34,2.56.94,1.53.39,1.63-1.72,3.18.65a1.7,1.7,0,0,0,2,.68,2.24,2.24,0,0,0,1.74-1.72,2.61,2.61,0,0,1-1.94.94c-.84-.1-1.34-.95-2-1.51s-2,.44-3.17-.08c-3.19-1.45-1.6-2.78-.62-3.78" fill="#5b310f"></path><path d="M178.7,74.46s7-3.43,8.83-.16c3,5.27-4,6.63-4,6.63s-3.47,4.7-6.44,3.28l-3-1.42Z" fill="#895c3b"></path><path d="M169.31,87.74C163.43,94.82,156,99.26,147.6,99.59c.93-1.86,1.87-3,2.56-4.65C150.16,94.94,164.59,94.24,169.31,87.74Z" fill="#5b310f"></path><path d="M168.83,60.6a13,13,0,0,0-1.69-5.28c-1.72-2.19-5.29-3.06-7.33-.57a5.92,5.92,0,0,1,6.78,3.32C168.38,62.19,168.93,62,168.83,60.6Z" fill="#3e2723"></path><path d="M151.82,51.52c-.55-3.14-6-1.05-7.56,1.32C148,51.24,151.91,53.15,151.82,51.52Z" fill="#3e2723"></path><path d="M155.26,150.06c-.48-.05-1-.17-1.45-.2s-1,.42-1.42.66c.67.1,1.34-.21,2-.11a5.57,5.57,0,0,0,1.29.09,9,9,0,0,0,1.7-.34A10.73,10.73,0,0,0,155.26,150.06Z" fill="#3e2723"></path><path d="M154.93,141.84a39.61,39.61,0,0,1,11.15,3c-2.39-1-3.07-.86-5.64-1.37-1.39-.28-4.25-.43-5.62-.79S153.69,141.67,154.93,141.84Z" fill="#3e2723"></path><path d="M156.05,146c-1-.82-2.69,0-3.79.61.43.33,1.56,0,2.11-.1,2.14-.35,3.46,1.34,7.42.7C160.34,147.28,156.77,146.57,156.05,146Z" fill="#3e2723"></path><polygon id="2e8652aa-44d1-4fd0-9e61-f57c99fc1704" points="188.27 122.72 174.7 167.26 139.92 170.98 139.45 175.06 218.6 175.06 219.06 169.05 221.86 166.72 233.5 124.35 231.17 122.72 188.27 122.72" fill="#b3b3b3"></polygon><g><polyline points="221.86 166.72 219.06 169.05 179.49 169.05 180.42 166.26 221.86 166.72" fill="gray"></polyline></g><ellipse cx="207.77" cy="144.74" rx="7.84" ry="4.2" transform="translate(8.09 300.46) rotate(-72.81)" fill="#fff"></ellipse></g></svg>