<svg xmlns="http://www.w3.org/2000/svg" viewBox="0 0 500 500" role="img" aria-hidden="true" focusable="false"><defs><path d="M446,387.4a3.78,3.78,0,0,1-2.7,1H153.48V320.9h284.9a7,7,0,0,1,5.7,2.9l25.5,36a4.59,4.59,0,0,1-.6,6Z" fill="none"></path></defs><path d="M80,0H420a80,80,0,0,1,80,80V500a0,0,0,0,1,0,0H80A80,80,0,0,1,0,420V80A80,80,0,0,1,80,0Z" fill="#f6ba57"></path><path d="M80,500H500V80a79.58,79.58,0,0,0-12.45-42.83L.35,427.38A80,80,0,0,0,80,500Z" fill="#eb7d29"></path><rect x="218.48" y="206.8" width="57.7" height="168.8" fill="#084a67"></rect><rect x="296.38" y="144.3" width="57.7" height="234.2" fill="#084a67"></rect><polyline points="373.38 60.4 373.38 376.3 431.18 376.3 431.18 60.4" fill="#084a67"></polyline><path d="M446,387.4a3.78,3.78,0,0,1-2.7,1H153.48V320.9h284.9a7,7,0,0,1,5.7,2.9l25.5,36a4.59,4.59,0,0,1-.6,6Z" fill="#084a67"></path><rect x="201.98" y="369.9" width="268.6" height="9.5" fill="#97bed1"></rect><path d="M118.38,262a88.8,88.8,0,1,0,88.8,88.8A88.85,88.85,0,0,0,118.38,262ZM97.58,377.3a26.5,26.5,0,1,1,26.5-26.5A26.55,26.55,0,0,1,97.58,377.3Z" fill="#084a67"></path><path d="M77.48,418.7l2.4,1.2c.8.4,1.8.8,2.9,1.3s2.5,1,4,1.5a69.93,69.93,0,0,0,11,2.8c1.1.2,2.2.3,3.3.5l3.5.3c1.2.1,2.5.1,3.7.2h3.9a58.32,58.32,0,0,0,8.2-.8c2.8-.4,5.7-1,8.6-1.7s5.9-1.7,8.8-2.8c.7-.3,1.5-.6,2.2-.9s1.5-.6,2.2-.9c1.5-.7,2.9-1.3,4.4-2.1a88.92,88.92,0,0,0,16.5-11.2,69.91,69.91,0,0,0,7.2-7.2l1.7-2a15.58,15.58,0,0,1,1.6-2l.8-1,.7-1.1,1.4-2,1.5-2.3c.3-.4.5-.8.7-1.1l.6-1.1c.8-1.4,1.6-3,2.3-4.5,1.4-3.1,2.6-6.3,3.7-9.5.9-3.3,1.8-6.5,2.4-9.8a84.49,84.49,0,0,0,1.2-9.8c.2-3.3.1-6.5,0-9.6a68.15,68.15,0,0,0-1-9.2,93.14,93.14,0,0,0-4.5-16.4,87.35,87.35,0,0,0-6.6-13,79.16,79.16,0,0,0-6.9-9.1c-1.1-1.2-2-2.2-2.9-3.1a22.2,22.2,0,0,0-2.3-2.2c-1.3-1.2-2-1.8-2-1.8l.4-.5s.8.5,2.2,1.5c.7.5,1.6,1.2,2.6,2s2.1,1.7,3.3,2.8a58.28,58.28,0,0,1,7.9,8.7,72.2,72.2,0,0,1,7.9,13,81.72,81.72,0,0,1,5.8,17.1,86.53,86.53,0,0,1,1.9,20,77.11,77.11,0,0,1-.9,10.6,102.17,102.17,0,0,1-2.3,10.7,81.8,81.8,0,0,1-3.9,10.4,84.38,84.38,0,0,1-5.4,9.8,83.73,83.73,0,0,1-6.8,8.9,72.77,72.77,0,0,1-8,7.7,81.71,81.71,0,0,1-18.1,11.6,84.18,84.18,0,0,1-19.1,6.4,75.88,75.88,0,0,1-18,1.5,73.31,73.31,0,0,1-15.1-2.1A70.36,70.36,0,0,1,86,424.5a35,35,0,0,1-3.9-2,30.81,30.81,0,0,1-2.8-1.6c-1.5-.9-2.3-1.4-2.3-1.4Z" fill="#97bed1"></path><path d="M74.08,380.3l-1.2-.6c-.4-.2-.9-.5-1.4-.8-.3-.2-.6-.3-.9-.5a8.65,8.65,0,0,0-1-.7c-.7-.5-1.5-1.1-2.3-1.7s-1.5-1.5-2.4-2.3-1.6-1.9-2.5-2.9a10.38,10.38,0,0,1-1.2-1.7c-.4-.6-.8-1.2-1.2-1.9a41.1,41.1,0,0,1-2.1-4.2,33.77,33.77,0,0,1-1.6-4.8,36.1,36.1,0,0,1-1.3-11c.1-1,.1-2,.2-2.9s.3-2,.5-3l.3-1.5.4-1.5c.3-1,.6-2,.9-2.9a41.74,41.74,0,0,1,6.1-10.9l2-2.3.5-.5c.1-.2.3-.3.5-.5l1.2-1.2a26.22,26.22,0,0,1,2.5-2.2c.8-.6,1.7-1.2,2.5-1.8s1.8-1.1,2.6-1.6l1.3-.7,1.4-.6c.9-.4,1.8-.8,2.8-1.2s1.9-.6,2.8-.9a39.08,39.08,0,0,1,11-1.4,40.58,40.58,0,0,1,5.1.4c1.6.3,3.1.7,4.6,1.1.7.2,1.4.5,2.1.7a6.39,6.39,0,0,1,1.9.8c1.2.6,2.4,1.1,3.4,1.7s2,1.2,2.8,1.8,1.5,1.3,2.2,1.8c.3.3.6.5.9.8a5,5,0,0,1,.7.8,14.25,14.25,0,0,0,1.1,1.2c.6.7.9,1,.9,1l-.4.5a11.62,11.62,0,0,0-1.1-.7c-.3-.2-.8-.5-1.3-.9-.3-.2-.5-.4-.8-.6a3.13,3.13,0,0,0-1-.5l-2.3-1.3c-.9-.4-1.8-.8-2.8-1.2s-2.2-.7-3.3-1.1-2.5-.6-3.8-.9-2.7-.4-4.2-.5-3-.1-4.5,0a36.4,36.4,0,0,0-9.5,1.9,36.68,36.68,0,0,0-16.9,12,38.54,38.54,0,0,0-5.3,9.2,40.44,40.44,0,0,0-2.4,10,39,39,0,0,0,.4,9.7c.2,1.5.7,3,1,4.4a35.4,35.4,0,0,0,1.4,3.9c.6,1.2,1.1,2.4,1.7,3.5s1.2,2.1,1.8,3a30.4,30.4,0,0,1,1.8,2.5c.6.7,1.2,1.3,1.7,1.9a6,6,0,0,0,.8.8,4.62,4.62,0,0,1,.7.7c.5.4.9.8,1.2,1a10.52,10.52,0,0,0,1,.9Z" fill="#97bed1"></path><polygon points="407.08 74.4 431.08 68.4 431.08 74.4 407.08 74.4" fill="#97bed1"></polygon><polygon points="330.08 157.4 354.08 151.4 354.08 157.4 330.08 157.4" fill="#97bed1"></polygon><polygon points="252.08 219.4 276.08 213.4 276.08 219.4 252.08 219.4" fill="#97bed1"></polygon></svg>