<svg xmlns="http://www.w3.org/2000/svg" viewBox="0 0 500 500" role="img" aria-hidden="true" focusable="false"><path d="M500,500H80A80,80,0,0,1,0,420V100H500Z" fill="#e8ec7a"></path><path d="M0,270V80A80,80,0,0,1,80,0H420a80,80,0,0,1,80,80V270Z" fill="#d9e021"></path><path d="M373.13,24.06C305.65,3.48,281.1,69.39,232.82,38c22.43,38.77,49.29,30.93,49.29,30.93S459.81,109,373.13,24.06Z" fill="#0396e3"></path><path d="M223.08,423.13h86.68C287.33,397.93,244.31,396.26,223.08,423.13Z" fill="#393a3c"></path><path d="M353.1,125.05c-15.69-3-31.39,25.11-21.14,38.77,16.71,7.94,36.18,8.49,54.92-6.46C375.9,156.25,357.71,145.36,353.1,125.05Z" fill="#393a3c"></path><path d="M360,20.74h0l1.29,103.85c9.23,5.63,16.07,7,21.6,7s9.6-1.38,13.67-1.38c8.49,0,15.41,7.66,15.41,16.24a13.7,13.7,0,0,1-2.95,8.59C452.61,114.71,434.88,29.6,360,20.74Z" fill="#393a3c"></path><path d="M354.48,20.74a63.86,63.86,0,0,0-17.26,1.85c-22.52,5.35-38.77,18.74-48.37,35.54l-.46-.93L52.92,470s201.87-8.31,267-122.31c43.11-75.6,16-160.15,12-184.24-5.08-30.37,12.74-37.11,21.69-38.22l7.38-.74C431.28,111.11,416.79,22.49,354.48,20.74Z" fill="#0396e3"></path><path d="M402.48,51c-6.92-7.11-47.54-20.86-70.24-2.86-25,19.84-10.16,78.92-.37,115.56-5.36-37.56,22.52-38.58,29.44-39.32C406.18,117.2,415.59,76.13,402.48,51Z" fill="#fff"></path><circle cx="354.85" cy="65.14" r="13.2" fill="#393a3c"></circle><path d="M343.13,233.05c0,44.67-40.34,124.7-259.48,182L209.1,195c12.83-22.06,36.74-33.42,60.18-33.42C313.22,161.69,343.13,195.66,343.13,233.05Z" fill="#25c3ff"></path></svg>