<svg xmlns="http://www.w3.org/2000/svg" viewBox="0 0 500 500" role="img" aria-hidden="true" focusable="false"><path d="M80,0H420a80,80,0,0,1,80,80V500a0,0,0,0,1,0,0H80A80,80,0,0,1,0,420V80A80,80,0,0,1,80,0Z" fill="#5d237a"></path><path d="M500,80A80,80,0,0,0,420,0H358.22a138.11,138.11,0,0,1,53.49,41.25c24.51,30.8-9.59,62.15-16.88,102.49-19.12,105.85-29.37,120.19-88.78,150.93-112.78,49-207.16,158.62-225.78,203,.73.16,1.26,1,1.64,2.34H500Z" fill="#a4286a"></path><path d="M87.8,483c74.79-117.39,130.12-69.85,268.09-149.53C308.08,330.73,261.17,316,261.17,316s67.26,10.59,116.82,2.49c46.22-36.4,70.26-90.64,75.94-146.38-20.32,13.09-54.32,14-54.32,14s40.16-10.5,54.15-25.3c.31-6.28-.67-12.53-.91-18.73-14,17.54-29.66,20.58-29.66,20.58s12.67-6.59,29.19-28.69C447.56,73,413.94,35.69,381.84,13.16c18.76,86.39-22.08,138.1-77,178.71,0,0,8.74,34.89,2.26,66.52-3.79-36.07-16.45-56.95-16.45-56.95C242.49,233.89,192.17,251,159.85,285c0,0,6.12,35.36,3.47,52.65-3-19.82-11.42-43.49-11.42-43.49-19.46,24.51-32.67,58.59-36.39,112.47,25.53-53.9,69.45-82.2,132.31-110.4,63.74-28.6,125.5-65.12,144.62-153.9-15,107.22-71,136.75-138,166.87C186,340,126.77,372.94,87.8,483Z" fill="#b5dcf3"></path></svg>