<svg xmlns="http://www.w3.org/2000/svg" viewBox="0 0 500 500" role="img" aria-hidden="true" focusable="false"><path d="M80,0H420a80,80,0,0,1,80,80V500a0,0,0,0,1,0,0H80A80,80,0,0,1,0,420V80A80,80,0,0,1,80,0Z" fill="#4a9177"></path><path d="M14.7,33.81c.78-1.1,1.59-2.17,2.42-3.23C16.29,31.63,15.48,32.71,14.7,33.81Z" fill="#4a9177"></path><path d="M20.71,26.3c.09-.11.19-.21.29-.32C20.9,26.09,20.8,26.19,20.71,26.3Z" fill="#4a9177"></path><path d="M15,466.59c-.71-1-1.4-2-2.07-3C13.59,464.6,14.28,465.6,15,466.59Z" fill="#4a9177"></path><path d="M16.6,468.77c-.46-.6-.92-1.21-1.37-1.83" fill="#4a9177"></path><path d="M17.76,29.76c.32-.4.66-.8,1-1.2Q18.24,29.16,17.76,29.76Z" fill="#4a9177"></path><path d="M11.25,460.9c.31.53.64,1.05,1,1.57-.31-.5-.62-1-.92-1.5A.16.16,0,0,1,11.25,460.9Z" fill="#4a9177"></path><polygon points="14.7 33.81 14.7 33.81 14.7 33.81 14.7 33.81" fill="#4a9177"></polygon><polygon points="20.71 26.3 20.71 26.3 20.71 26.3 20.71 26.3" fill="#4a9177"></polygon><path d="M12.92,463.57c-.24-.36-.47-.73-.71-1.1C12.45,462.84,12.68,463.21,12.92,463.57Z" fill="#fff"></path><path d="M20.71,26.3c-.67.74-1.32,1.49-2,2.26.64-.77,1.29-1.52,2-2.26Z" fill="#fff"></path><polygon points="14.7 33.81 14.7 33.81 14.7 33.81 14.7 33.81" fill="#fff"></polygon><path d="M15.23,466.94l-.24-.35Z" fill="#fff"></path><path d="M17.12,30.58c.21-.27.42-.55.64-.82C17.54,30,17.33,30.31,17.12,30.58Z" fill="#fff"></path><path d="M240.84,500H500v0H474.07V481.68l25.93-15v-11L469.74,473.2,394.1,429.53V342.18l75.64-43.67L500,316V305l-25.93-15V202.68l25.93-15v-11l-30.26,17.47L394.1,150.52V63.17l77.2-44.56a80.2,80.2,0,0,0-8.37-6.13L389.77,54.69h0L314.13,11V0h-8.66V11L229.83,54.69h0L154.18,11V0h-8.65V11L69.88,54.69h0L20.71,26.3a67.28,67.28,0,0,0-6,7.5h0L65.55,63.17v87.35L0,188.37v11L69.88,159h0l75.65,43.68V290L69.88,333.7h0L0,293.35v11l65.55,37.85v87.35L11.28,461a38.42,38.42,0,0,0,5.31,7.8L69.88,438h0l75.65,43.67V500M234.15,63.17,309.8,19.5l75.64,43.67v87.35L309.8,194.19l-75.65-43.67ZM229.83,159l75.64,43.68V290L229.83,333.7h0L154.18,290V202.68L229.83,159ZM74.21,150.52V63.17L149.85,19.5,225.5,63.17v87.35l-75.65,43.67Zm0,279V342.18l75.64-43.67,75.65,43.67v87.35L149.85,473.2ZM305.47,500H154.18V481.68L229.83,438h0l75.64,43.67Zm-71.32-70.43V342.18l75.65-43.67,75.64,43.67v87.35L309.8,473.2Zm231.26,52.15V500H314.13V481.68L389.77,438h0ZM465.29,290,389.64,333.7h0L314,290V202.68L389.64,159h0l75.65,43.68Z" fill="#fff"></path><polygon points="394.1 342.18 394.1 429.52 469.74 473.2 500 455.73 500 315.98 469.74 298.51 394.1 342.18" fill="#53e5de"></polygon><polygon points="385.44 150.52 385.44 63.17 309.8 19.5 234.15 63.17 234.15 150.52 309.8 194.19 385.44 150.52" fill="#53e5de"></polygon><path d="M389.77,438l-75.64,43.67V500H465.41V481.68L389.77,438Z" fill="#53e5de"></path><path d="M389.64,159,314,202.68V290l75.64,43.68h0L465.29,290V202.68L389.64,159Z" fill="#53e5de"></path><polygon points="225.5 150.52 225.5 63.17 149.85 19.5 74.21 63.17 74.21 150.52 149.85 194.19 225.5 150.52" fill="#53e5de"></polygon><polygon points="225.5 342.18 149.85 298.51 74.21 342.18 74.21 429.52 149.85 473.2 225.5 429.52 225.5 342.18" fill="#53e5de"></polygon><path d="M69.88,333.7,145.53,290V202.68L69.88,159h0L0,199.35v94L69.88,333.7Z" fill="#53e5de"></path><path d="M292.11,382.74l-88.69,53.45.9,1c18.33,20.49,49.75,44.4,76.83,27.83l-.19-.32.34.23c27.3-16.2,20.84-55.16,11.28-80.93Z"></path><path d="M267.41,317.53l-110.5,66.6c6.16,7.24,12.4,14.15,22.48,25.33l100.19-60.38C274.3,335,271,326.33,267.41,317.53Z"></path><path d="M146.43,241.16c0,.17.06.33.1.49l-.25-.4s-16.63,17.4-24.39,42.68l73.44-44.27C169.58,235,146.43,241.16,146.43,241.16Z"></path><path d="M234.16,257.48,120,326.26a82,82,0,0,0,14.52,30.12l119.2-71.83A76.6,76.6,0,0,0,234.16,257.48Z"></path><path d="M279.58,349.08,179.39,409.46c6.24,6.91,14,15.46,24,26.73l88.69-53.45C286.85,368.57,282.84,357.79,279.58,349.08Z" fill="#f6ba57"></path><path d="M254.72,286.75c-.31-.75-.64-1.48-1-2.2l-119.2,71.83c.48.64.95,1.28,1.45,1.91,9.13,11.63,15,18.89,20.9,25.84l110.5-66.6C264,309.05,260.4,300.44,254.72,286.75Z" fill="#f6ba57"></path><path d="M195.33,239.66l-73.44,44.27C118,296.48,116.38,311,120,326.26l114.12-68.78C222.37,247.21,208.51,242,195.33,239.66Z" fill="#f6ba57"></path><path d="M273.6,292.47c-5.73-26.37-26.23-44.3-45.78-40.05s-30.76,29.07-25,55.43l57.38,93.47S279.33,318.83,273.6,292.47Z" fill="#d2ffff"></path><path d="M132.25,377.66c-20.64-17.38-26.92-43.88-14-59.18s40.07-13.62,60.71,3.76l55.84,94.39S152.88,395,132.25,377.66Z" fill="#d2ffff"></path><circle cx="278.89" cy="434.82" r="5.52" fill="#fff"></circle><circle cx="255.64" cy="448.83" r="5.52" fill="#fff"></circle></svg>