<svg xmlns="http://www.w3.org/2000/svg" viewBox="0 0 500 500" role="img" aria-hidden="true" focusable="false"><path d="M80,0H420a80,80,0,0,1,80,80V500a0,0,0,0,1,0,0H80A80,80,0,0,1,0,420V80A80,80,0,0,1,80,0Z" fill="#bee1f7"></path><path d="M80,500H500V151H264.5V355H134V219H0V420A80,80,0,0,0,80,500Z" fill="#94cce9"></path><path d="M90,43h57V457H90Z" fill="#a9a9ce"></path><path d="M395,43h57V457H395Z" fill="#a9a9ce"></path><path d="M242.5,43h57V457h-57Z" fill="#a9a9ce"></path><path d="M90,57h44V457H90Z" fill="#5d237a"></path><path d="M395,57h44V457H395Z" fill="#5d237a"></path><path d="M242.5,57h44V457h-44Z" fill="#5d237a"></path><path d="M44,93V73H74V93Z" fill="#7172a3"></path><path d="M44,365V345H74v20Z" fill="#7172a3"></path><path d="M44,297V277H74v20Z" fill="#7172a3"></path><path d="M44,229V209H74v20Z" fill="#7172a3"></path><path d="M44,161V141H74v20Z" fill="#7172a3"></path><path d="M44,433V413H74v20Z" fill="#7172a3"></path><path d="M196.5,93V73h30V93Z" fill="#7172a3"></path><path d="M196.5,365V345h30v20Z" fill="#7172a3"></path><path d="M196.5,297V277h30v20Z" fill="#7172a3"></path><path d="M196.5,229V209h30v20Z" fill="#7172a3"></path><path d="M196.5,161V141h30v20Z" fill="#7172a3"></path><path d="M196.5,433V413h30v20Z" fill="#7172a3"></path><path d="M349,93V73h30V93Z" fill="#7172a3"></path><path d="M349,365V345h30v20Z" fill="#7172a3"></path><path d="M349,297V277h30v20Z" fill="#7172a3"></path><path d="M349,229V209h30v20Z" fill="#7172a3"></path><path d="M349,161V141h30v20Z" fill="#7172a3"></path><path d="M349,433V413h30v20Z" fill="#7172a3"></path><path d="M101.32,187h42.36a31.84,31.84,0,0,1,31.82,32h0a31.84,31.84,0,0,1-31.82,32H101.32A31.84,31.84,0,0,1,69.5,219h0A31.9,31.9,0,0,1,101.32,187Z" fill="#dc5c04"></path><path d="M296.21,323H253.79A31.82,31.82,0,0,0,222,355h0a31.82,31.82,0,0,0,31.79,32h42.42A31.82,31.82,0,0,0,328,355h0A31.88,31.88,0,0,0,296.21,323Z" fill="#dc5c04"></path><path d="M448.71,119H406.29a31.82,31.82,0,0,0-31.79,32h0a31.82,31.82,0,0,0,31.79,32h42.42a31.82,31.82,0,0,0,31.79-32h0A31.88,31.88,0,0,0,448.71,119Z" fill="#dc5c04"></path><path d="M90.82,187h42.36A31.84,31.84,0,0,1,165,219h0a31.84,31.84,0,0,1-31.82,32H90.82A31.84,31.84,0,0,1,59,219h0A31.9,31.9,0,0,1,90.82,187Z" fill="#f7a730"></path><path d="M285.71,323H243.29a31.82,31.82,0,0,0-31.79,32h0a31.82,31.82,0,0,0,31.79,32h42.42a31.82,31.82,0,0,0,31.79-32h0A31.88,31.88,0,0,0,285.71,323Z" fill="#f7a730"></path><path d="M438.21,119H395.79A31.82,31.82,0,0,0,364,151h0a31.82,31.82,0,0,0,31.79,32h42.42A31.82,31.82,0,0,0,470,151h0A31.88,31.88,0,0,0,438.21,119Z" fill="#f7a730"></path></svg>